<svg xmlns="http://www.w3.org/2000/svg" width="489.956" height="223.472" viewBox="0 0 489.956 223.472">
  <g id="Group_3923" data-name="Group 3923" transform="translate(-8.35 228.283)">
    <path id="Path_9446" data-name="Path 9446" d="M147.04-78.553q-.12-3.645-.36-7.27a85,85,0,0,0-1.54-11.22,78.685,78.685,0,0,0-6.64-19.84,62.006,62.006,0,0,0-13.86-18.51,58.843,58.843,0,0,0-15.73-10.19,71.565,71.565,0,0,0-25.86-5.79,78.3,78.3,0,0,0-11.04.27,74.508,74.508,0,0,0-17.16,3.62,68.19,68.19,0,0,0-15.91,7.82,65.71,65.71,0,0,0-11.99,10.22,67.5,67.5,0,0,0-6.72,8.54,70.112,70.112,0,0,0-6.85,13.35A75.1,75.1,0,0,0,8.5-84.533,88.982,88.982,0,0,0,8.57-73.1c.2,2.9.5,5.77.97,8.63a76.337,76.337,0,0,0,7.76,23.51,66.277,66.277,0,0,0,14.14,18.33,65.225,65.225,0,0,0,16.75,11.04,72.436,72.436,0,0,0,27.41,6.5c3.02.13,6.05-.02,9.07-.09a79.932,79.932,0,0,0,11.45-1.18,69.62,69.62,0,0,0,21.28-7.01,55.908,55.908,0,0,0,15.44-12.02,60.252,60.252,0,0,0,9.12-13.41,8.684,8.684,0,0,0,.63-1.77,2.541,2.541,0,0,0-.92-2.71,7.33,7.33,0,0,0-1.59-1q-8.94-4.11-17.88-8.19-2.115-.96-4.21-1.93a3.3,3.3,0,0,0-4.65,1.54c-.15.25-.26.51-.39.76a27.176,27.176,0,0,1-4.69,6.61,30.091,30.091,0,0,1-12.2,7.51,50.857,50.857,0,0,1-18.25,2.47,38.341,38.341,0,0,1-11.29-2.1,32.617,32.617,0,0,1-12.36-7.65,35.8,35.8,0,0,1-7.72-11.46,12.683,12.683,0,0,1-1.08-4.48,5.516,5.516,0,0,1,3.91-5.9,11.5,11.5,0,0,1,3.72-.56h89.85a8.243,8.243,0,0,0,1.22-.06,3.387,3.387,0,0,0,2.98-3.08,9.658,9.658,0,0,0,.08-1.42C147.11-74.333,147.11-76.443,147.04-78.553ZM43.79-93.313a40.43,40.43,0,0,1,2.07-6.73,35.547,35.547,0,0,1,6.67-10.8,32.477,32.477,0,0,1,8.76-6.82,37.092,37.092,0,0,1,15.54-4.31,44.123,44.123,0,0,1,15.42,1.6,26.141,26.141,0,0,1,10.96,6.31,27.1,27.1,0,0,1,5.96,8.89,44.456,44.456,0,0,1,2.98,11.1c.04.24.03.49.05.73C111.46-93.143,44.88-93.1,43.79-93.313Z" fill="#7ab62d"/>
    <path id="Path_9447" data-name="Path 9447" d="M291.04-10.623a12.462,12.462,0,0,0-1.26-2.63,54.744,54.744,0,0,1-5.46-12.02,76.413,76.413,0,0,1-3.16-22.47c-.1-15.78-.04-31.55-.02-47.33a94.729,94.729,0,0,0-.55-10.65,60.671,60.671,0,0,0-3.14-13.7,43.937,43.937,0,0,0-11.61-17.7,46.346,46.346,0,0,0-13.68-8.64A73.526,73.526,0,0,0,227.32-151c-2.67-.15-5.35-.08-8.02-.09a83.281,83.281,0,0,0-12.32.96,73.2,73.2,0,0,0-23.18,7.24,54.622,54.622,0,0,0-15.32,11.55,46.775,46.775,0,0,0-8.01,11.87,26.72,26.72,0,0,0-1.53,3.86,3.374,3.374,0,0,0,2.33,4.4,8.581,8.581,0,0,1,1.05.43q10.035,4.53,20.07,9.07a20.48,20.48,0,0,0,2.82,1.08,2.645,2.645,0,0,0,3.04-1.17,14.454,14.454,0,0,0,.86-1.47c.56-1.06,1.08-2.14,1.66-3.19a29.958,29.958,0,0,1,5.83-7.51,26.813,26.813,0,0,1,12.68-6.4,53.519,53.519,0,0,1,9.37-1.11,45.383,45.383,0,0,1,12.3.99,24.936,24.936,0,0,1,10.38,4.8,12.309,12.309,0,0,1,4.96,10.14,8.817,8.817,0,0,1-3.66,7.23,17.46,17.46,0,0,1-4.23,2.28,61.459,61.459,0,0,1-8.81,2.52c-5.69,1.26-11.4,2.43-17.1,3.67-8.28,1.8-16.56,3.63-24.65,6.18a79.167,79.167,0,0,0-14.58,6,38.742,38.742,0,0,0-10.1,7.72,29.673,29.673,0,0,0-7.41,15.86,46.066,46.066,0,0,0-.46,9.32,40.171,40.171,0,0,0,3.93,15.94,37.5,37.5,0,0,0,12.19,14.2,50.775,50.775,0,0,0,16.86,7.69,64.353,64.353,0,0,0,13.51,2.06c1.64.08,3.28.02,4.92.06A63.954,63.954,0,0,0,220.97-6.2a53.34,53.34,0,0,0,19.28-7.71,33.55,33.55,0,0,0,9.33-9.14c.12-.17.26-.33.46-.58a6.846,6.846,0,0,1,.25.68c.25.88.48,1.76.74,2.64a57.851,57.851,0,0,0,3.94,10.22,4.532,4.532,0,0,0,3.71,2.56,9.732,9.732,0,0,0,1.32.07h27.08a9.526,9.526,0,0,0,1.41-.08,4.052,4.052,0,0,0,1.18-.32A2.18,2.18,0,0,0,291.04-10.623Zm-48.4-35.51a29.058,29.058,0,0,1-9.04,6.9,49.4,49.4,0,0,1-16.93,5.04,51.271,51.271,0,0,1-8.3.32,29.417,29.417,0,0,1-11.71-2.67,14.082,14.082,0,0,1-7.12-6.76,11.891,11.891,0,0,1,2.93-14.12,25.446,25.446,0,0,1,8.04-4.48,93.34,93.34,0,0,1,12.4-3.33q16.47-3.69,32.93-7.37c.27-.06.55-.1.99-.18v1.12c0,4.76-.06,9.53.02,14.29A16.469,16.469,0,0,1,242.64-46.133Z" fill="#7ab62d"/>
    <path id="Path_9448" data-name="Path 9448" d="M435.862-151.579a91.966,91.966,0,0,1,20.048,2.417,57.663,57.663,0,0,1,22.053,10.452,52.345,52.345,0,0,1,15.622,20.341,21.632,21.632,0,0,1,.956,2.361,2.758,2.758,0,0,1-1.366,3.544,17.135,17.135,0,0,1-2.5,1.1q-10.388,3.942-20.788,7.846a7.881,7.881,0,0,1-1.832.392,2.761,2.761,0,0,1-2.9-1.682c-.446-.833-.838-1.695-1.268-2.537a29.345,29.345,0,0,0-5.2-7.285,27.3,27.3,0,0,0-13.422-7.35,46.542,46.542,0,0,0-9.073-1.156,44.547,44.547,0,0,0-11.173.889,20.644,20.644,0,0,0-8.993,3.987,9.908,9.908,0,0,0-3.8,6.64,7.87,7.87,0,0,0,2.242,6.833,19.8,19.8,0,0,0,6.528,4.09A86.771,86.771,0,0,0,433-96.7c6.059,1.617,12.136,3.165,18.207,4.738a160.961,160.961,0,0,1,19.745,6.2,60.7,60.7,0,0,1,14.1,7.642,31.661,31.661,0,0,1,12.74,21.34,56.232,56.232,0,0,1,.452,10.656A36.774,36.774,0,0,1,493.953-30.1a38.769,38.769,0,0,1-11.387,12.966,56.277,56.277,0,0,1-18.175,8.643A80.546,80.546,0,0,1,451.517-5.97c-3.349.394-6.709.565-10.081.647a114.757,114.757,0,0,1-11.891-.356A78.485,78.485,0,0,1,411.4-9.154,53.466,53.466,0,0,1,391.821-20.3a55.064,55.064,0,0,1-9.089-10.718,81.752,81.752,0,0,1-6.432-12.2c-1.265-2.887.188-4.969,2.33-6.029,2.175-1.077,4.381-2.09,6.576-3.125q4.491-2.116,8.985-4.226,2.352-1.107,4.7-2.223a4.227,4.227,0,0,1,2.018-.4,2.5,2.5,0,0,1,2.074,1.128,6.607,6.607,0,0,1,.65,1.252,39.156,39.156,0,0,0,6.378,10.78,33.442,33.442,0,0,0,14.048,9.773,41.938,41.938,0,0,0,11.412,2.5c1.567.126,3.14.308,4.706.279,6.2-.113,12.348-.565,18.115-3.152a15.189,15.189,0,0,0,6.012-4.473,10.645,10.645,0,0,0,1.988-9.886,9.155,9.155,0,0,0-3.534-4.673,26.948,26.948,0,0,0-6.381-3.465A102.364,102.364,0,0,0,444.314-63c-7.157-1.9-14.339-3.718-21.472-5.7A129.394,129.394,0,0,1,403.9-75.488a56.447,56.447,0,0,1-13.278-8.1,29.908,29.908,0,0,1-10.559-18.168,42.787,42.787,0,0,1-.5-9.14,38.386,38.386,0,0,1,1.747-10.024,36.709,36.709,0,0,1,7.894-13.753c5.452-6.012,12.228-9.946,19.81-12.611a69.317,69.317,0,0,1,16.869-3.62C429.2-151.205,432.534-151.36,435.862-151.579Z" fill="#7ab62d"/>
    <path id="Path_9449" data-name="Path 9449" d="M332.041-147.322h1.281q17.277,0,34.553,0a8.04,8.04,0,0,1,1.506.1,3.43,3.43,0,0,1,2.768,2.981,9.382,9.382,0,0,1,.067,1.321q.006,10.366,0,20.732c0,3.212-1.275,4.5-4.461,4.5-8.867,0-17.734-.02-26.6.013a8.918,8.918,0,0,0-6.632,2.734,9.081,9.081,0,0,0-2.481,5.881c-.011.157,0,.316,0,.474q0,27.642.015,55.284a18.138,18.138,0,0,0,2.172,8.812A12.649,12.649,0,0,0,343.293-38a23.288,23.288,0,0,0,9.285-.269,50.287,50.287,0,0,0,9.8-3.129,5.179,5.179,0,0,1,2.562-.455,2.679,2.679,0,0,1,2.016,1.252,11.444,11.444,0,0,1,.768,1.407q4.977,9.939,9.95,19.881a3.97,3.97,0,0,1,.541,2.075,3.1,3.1,0,0,1-2,2.75,96.768,96.768,0,0,1-17.008,5.981,57.816,57.816,0,0,1-9.972,1.576c-2.483.144-4.974.31-7.458.259a55.825,55.825,0,0,1-19.77-3.679,37.285,37.285,0,0,1-11.078-6.773,34.65,34.65,0,0,1-7.8-10.13,46.537,46.537,0,0,1-4.85-17.849c-.206-2.6-.286-5.222-.287-7.834q-.027-62.052-.007-124.106a8.23,8.23,0,0,1,.13-1.593,3.335,3.335,0,0,1,3.006-2.836,9.1,9.1,0,0,1,1.321-.075q12.59-.006,25.181.005a7.034,7.034,0,0,1,1.774.2,3.275,3.275,0,0,1,2.528,2.863,10.906,10.906,0,0,1,.109,1.7q.009,14.1,0,28.21Z" fill="#7ab62d"/>
    <path id="Path_9450" data-name="Path 9450" d="M136.37-196.493a11.022,11.022,0,0,0-3.06-5.35,10.6,10.6,0,0,0-4.32-2.36c.22-.17.29-.23.37-.28a10.883,10.883,0,0,0,4.51-7.06,19.457,19.457,0,0,0,.34-4.99c-.23-4.95-2.51-8.48-7.26-10.25a25.54,25.54,0,0,0-8.81-1.46c-8.27-.06-16.53-.03-24.8-.01a8.993,8.993,0,0,0-2.23.34,2.713,2.713,0,0,0-2.03,2.47,7.977,7.977,0,0,0-.02.85v43.44a5.811,5.811,0,0,0,.12,1.31,2.514,2.514,0,0,0,2.34,2.11,15.39,15.39,0,0,0,1.79.13c5.11.01,10.22.02,15.33,0,4.57-.02,9.14-.02,13.71-.13a18.931,18.931,0,0,0,7.77-1.84,11.129,11.129,0,0,0,6.1-6.86A17.932,17.932,0,0,0,136.37-196.493Zm-36.59-23.45c.35-.02.66-.05.97-.05,5.35,0,10.71-.02,16.07.02a12.7,12.7,0,0,1,3.07.43,4.443,4.443,0,0,1,3.37,3.69,11.97,11.97,0,0,1-.01,4.77,4.54,4.54,0,0,1-3.84,3.79,17.023,17.023,0,0,1-3.18.36c-5.23.03-10.47.01-15.7.01-.22,0-.43-.02-.75-.04ZM125.67-190a4.564,4.564,0,0,1-3.18,3.54,13.03,13.03,0,0,1-4.19.59c-5.94.02-11.87.01-17.8,0-.22,0-.43-.03-.77-.06v-2.83c0-1.83-.01-3.66.01-5.49a14.329,14.329,0,0,1,.17-2.07,3.069,3.069,0,0,1,2.22-2.58,11.634,11.634,0,0,1,3.14-.55c4.64-.06,9.28-.05,13.91-.01a12.846,12.846,0,0,1,2.89.42,4.743,4.743,0,0,1,3.74,4.26A13.029,13.029,0,0,1,125.67-190Z"/>
    <path id="Path_9451" data-name="Path 9451" d="M265.78-179.013a1.964,1.964,0,0,0-.13-.25q-1.275-2.16-2.56-4.31l-8.04-13.59c-.12-.2-.19-.43-.31-.68.39-.12.68-.22.98-.31a11.46,11.46,0,0,0,8.22-8.37,23.042,23.042,0,0,0,.18-11.4,11.837,11.837,0,0,0-8.21-8.87,28.285,28.285,0,0,0-9.11-1.45c-8.2-.07-16.4-.03-24.61-.01a8.566,8.566,0,0,0-2.13.31,2.756,2.756,0,0,0-2.18,2.65,8.225,8.225,0,0,0-.01.86v44.77a7.377,7.377,0,0,0,.02.94,1.2,1.2,0,0,0,.95,1.06,3.638,3.638,0,0,0,.74.06q4.08.015,8.14,0c.25,0,.49-.03.86-.06v-1.14q0-6.39.01-12.78a13.661,13.661,0,0,1,.08-1.69,3.335,3.335,0,0,1,2.16-2.87,8.976,8.976,0,0,1,3.43-.58c3-.01,5.99.01,8.99-.02a1.286,1.286,0,0,1,1.32.79c3.17,5.81,6.39,11.59,9.57,17.39a1.667,1.667,0,0,0,1.66.97c3.06-.01,6.12,0,9.18-.01C266.08-177.6,266.31-178.013,265.78-179.013Zm-12.11-30.12a4.688,4.688,0,0,1-3.76,3.91,20.637,20.637,0,0,1-4.21.46c-5.39.05-10.78.02-16.17.02-.28,0-.56-.03-.91-.06v-15.11c.26-.03.5-.07.74-.08,5.84,0,11.67-.01,17.5.01a10.623,10.623,0,0,1,3.7.63,4.494,4.494,0,0,1,2.9,3.02,10.352,10.352,0,0,1,.41,2.22A17.339,17.339,0,0,1,253.67-209.133Z"/>
    <path id="Path_9452" data-name="Path 9452" d="M199.842-228.2c-1,2.5-1.944,4.839-2.873,7.178a1.52,1.52,0,0,1-1.607,1.042c-2.113-.028-4.228-.009-6.342-.009H166.834v12.67c.356.014.719.041,1.082.042q11.026,0,22.055.006c.493,0,.986.071,1.576.116-.111.375-.165.643-.267.891-.807,1.95-1.645,3.889-2.428,5.849a1.774,1.774,0,0,1-1.876,1.244q-7.24-.039-14.482,0a11.364,11.364,0,0,0-2.8.356,3.368,3.368,0,0,0-2.89,3.591c-.095,2.994-.023,5.994-.017,8.991a1.517,1.517,0,0,0,.108.347h32.82a5.7,5.7,0,0,1-.176.8c-.832,2.111-1.69,4.212-2.509,6.328a1.7,1.7,0,0,1-1.813,1.174c-11.864-.018-23.728.007-35.591-.026-2.769-.008-3.386-.988-3.641-3.544-.022-.219,0-.441,0-.662q0-20.919.006-41.839a14.14,14.14,0,0,1,.144-1.972,2.411,2.411,0,0,1,1.567-2.086,7.733,7.733,0,0,1,2.467-.529q19.357-.049,38.715-.021C199.153-228.263,199.424-228.23,199.842-228.2Z"/>
    <path id="Path_9453" data-name="Path 9453" d="M30.051-228.139v1.094c0,9.876-.013,19.751.013,29.627a16.994,16.994,0,0,0,.849,5.295,9.22,9.22,0,0,0,6.56,6.242,23.574,23.574,0,0,0,7.961.758,26.037,26.037,0,0,0,3.835-.481c4.684-.954,7.419-3.772,8.194-8.492a29.78,29.78,0,0,0,.4-4.7c.037-9.15.018-18.3.018-27.45,0-.221-.006-.442,0-.663.032-.915.427-1.32,1.325-1.359.157-.007.315,0,.473,0H68.8c.02.407.049.714.049,1.02,0,10.191.055,20.383-.024,30.574a20.408,20.408,0,0,1-3.333,11.551,16.541,16.541,0,0,1-7.232,5.891,29.123,29.123,0,0,1-10.178,2.289c-1.792.1-3.59.138-5.385.115a34.275,34.275,0,0,1-11.228-1.856,17.048,17.048,0,0,1-9.685-7.993,18.89,18.89,0,0,1-2.164-6.907,46.2,46.2,0,0,1-.345-5.08c-.033-9.15-.016-18.3-.016-27.45,0-.284-.018-.57.008-.852a1.272,1.272,0,0,1,1.34-1.294c3.029-.014,6.058,0,9.087.005A1.653,1.653,0,0,1,30.051-228.139Z"/>
  </g>
</svg>
