<svg id="Layer_1" data-name="Layer 1" xmlns="http://www.w3.org/2000/svg" viewBox="0 0 500 300"><defs><style>.cls-1{font-size:28.9px;font-family:Muli-Regular, Muli;letter-spacing:0.11em;}.cls-2{letter-spacing:0.15em;}.cls-3{letter-spacing:0.07em;}.cls-4{letter-spacing:0.13em;}.cls-5{fill:#81b83d;}</style></defs><title>Logo-1</title><path d="M29.42,192.47h8.52V209H56.29V192.47h8.52V233.2H56.29V216.06H37.94V233.2H29.42Z"/><path d="M91.86,192.47H99.4v7.9H96.8L86.61,233.2h-9ZM87.4,216.94h19l2.08,6.38H85.31ZM97,200.37v-7.9h4.94l14.2,40.73h-9Z"/><path d="M129,192.47h8.53V233.2H129Zm4.29,21.22h10a8.07,8.07,0,0,0,5.7-1.88,6.89,6.89,0,0,0,2-5.32v-.05a6.87,6.87,0,0,0-2-5.35,8.2,8.2,0,0,0-5.7-1.85h-10v-6.77h12.08a15.54,15.54,0,0,1,7.51,1.73,12.43,12.43,0,0,1,5,4.87,14.49,14.49,0,0,1,1.79,7.34v.06a14.43,14.43,0,0,1-1.79,7.31,12.43,12.43,0,0,1-5,4.87,15.65,15.65,0,0,1-7.51,1.73H133.24Z"/><path d="M173.33,192.47h8.52V233.2h-8.52Zm4.29,21.22h10a8,8,0,0,0,5.7-1.88,6.86,6.86,0,0,0,2-5.32v-.05a6.84,6.84,0,0,0-2-5.35,8.16,8.16,0,0,0-5.7-1.85h-10v-6.77H189.7a15.57,15.57,0,0,1,7.51,1.73,12.56,12.56,0,0,1,5,4.87,14.59,14.59,0,0,1,1.79,7.34v.06a14.53,14.53,0,0,1-1.79,7.31,12.56,12.56,0,0,1-5,4.87,15.68,15.68,0,0,1-7.51,1.73H177.62Z"/><path d="M227.87,218,213.7,192.47h9.2L232,209.85h.2l9.12-17.38h9.23L236.39,218V233.2h-8.52Z"/><path d="M283.51,192.47h26.67v7H292v10.93H308.6v6.74H292v16h-8.52Z"/><path d="M331.79,231.35a17.21,17.21,0,0,1-6.81-7.29,24.5,24.5,0,0,1-2.4-11.22v-.05A24.33,24.33,0,0,1,325,201.58a17.3,17.3,0,0,1,6.83-7.26,22.51,22.51,0,0,1,20.87,0,17.28,17.28,0,0,1,6.81,7.27,24.31,24.31,0,0,1,2.4,11.19v.05a24.43,24.43,0,0,1-2.4,11.21,17.38,17.38,0,0,1-6.79,7.28,22.65,22.65,0,0,1-20.92,0ZM348.08,225a11,11,0,0,0,3.77-4.81,18.62,18.62,0,0,0,1.32-7.32v-.05a18.32,18.32,0,0,0-1.34-7.34,10.81,10.81,0,0,0-3.79-4.78,10.83,10.83,0,0,0-11.59,0,10.73,10.73,0,0,0-3.81,4.77,18.45,18.45,0,0,0-1.34,7.35v.05a18.46,18.46,0,0,0,1.34,7.34,10.87,10.87,0,0,0,3.8,4.8,10.79,10.79,0,0,0,11.64,0Z"/><path d="M384,231.35a17.18,17.18,0,0,1-6.82-7.29,24.5,24.5,0,0,1-2.4-11.22v-.05a24.33,24.33,0,0,1,2.42-11.21,17.24,17.24,0,0,1,6.83-7.26,22.51,22.51,0,0,1,20.87,0,17.26,17.26,0,0,1,6.8,7.27,24.31,24.31,0,0,1,2.4,11.19v.05a24.43,24.43,0,0,1-2.4,11.21,17.32,17.32,0,0,1-6.79,7.28,20.34,20.34,0,0,1-10.45,2.57A20.55,20.55,0,0,1,384,231.35ZM400.25,225a11,11,0,0,0,3.76-4.81,18.43,18.43,0,0,0,1.33-7.32v-.05a18.5,18.5,0,0,0-1.34-7.34,10.76,10.76,0,0,0-3.8-4.78,10.82,10.82,0,0,0-11.58,0,10.73,10.73,0,0,0-3.81,4.77,18.27,18.27,0,0,0-1.34,7.35v.05a18.29,18.29,0,0,0,1.34,7.34,10.92,10.92,0,0,0,3.79,4.8,10.8,10.8,0,0,0,11.65,0Z"/><path d="M428.21,192.47h15.55a21.75,21.75,0,0,1,10.46,2.34,15.81,15.81,0,0,1,6.65,6.84,23.84,23.84,0,0,1,2.31,11v.06a24.57,24.57,0,0,1-2.3,11.06,16.1,16.1,0,0,1-6.65,7,21.16,21.16,0,0,1-10.47,2.43H428.21Zm14.53,33.67a12.67,12.67,0,0,0,6.43-1.52,9.7,9.7,0,0,0,4-4.52,18,18,0,0,0,1.36-7.4v0a16.79,16.79,0,0,0-1.39-7.17,9.78,9.78,0,0,0-4-4.45,12.59,12.59,0,0,0-6.35-1.51h-6v26.62Z"/><text class="cls-1" transform="translate(122.37 265.64)">Y<tspan class="cls-2" x="20.61" y="0">OUR </tspan><tspan class="cls-3" x="108.96" y="0">T</tspan><tspan class="cls-4" x="128.3" y="0">A</tspan><tspan class="cls-2" x="153.15" y="0">GLINE</tspan></text><path class="cls-5" d="M283.1,171.38c-1.61-1.41-3.21-2.86-4.79-4.32-3.14-2.92-6.27-5.86-9.17-9.05-1.84-2-3.61-4.1-5.26-6.3.4-5.25-.88-13.18-8.46-22.44-13.81-16.84-45.73-33.36-47.91-33.39a2.22,2.22,0,0,0-1.13.39l31.79,30.55a2.48,2.48,0,0,1,.13,3.45,2.51,2.51,0,0,1-3.47.24l-34.06-28.84c-.47.54-.73.88-.73.88s-.33.31-.81.82l32.21,30.92a2.49,2.49,0,0,1-3.35,3.69l-33.65-28.46a2.23,2.23,0,0,0-.27,1.14c.25,2.18,20,32.22,38.15,44.24,10,6.58,18,7,23.18,6.1a81.71,81.71,0,0,1,6.8,4.59c3.49,2.54,6.73,5.34,10,8.17,1.64,1.46,3.28,2.94,4.89,4.42C146.44,187,186.56,61.05,186.56,61.05s1.64,13.12,23.91,19.31c18.79,5.21,56.91,6.84,67.32,34.52C283.44,129.91,285.14,146.43,283.1,171.38Z"/><path class="cls-5" d="M318.48,49.81c-1.73-13.54-12.27-23.34-24.21-23.34s-22.48,9.8-24.21,23.34c-4,31.34,8.37,47.43,19.65,66.9v59.9h9.12v-59.9C310.1,97.24,322.48,81.15,318.48,49.81Z"/></svg>