<svg id="Layer_1" data-name="Layer 1" xmlns="http://www.w3.org/2000/svg" viewBox="0 0 500 200"><defs><style>.cls-1{fill:#7c441d;}.cls-2{fill:#81b83d;}</style></defs><title>Logo-8</title><path class="cls-1" d="M137.43,129.17l4.65-.76V91.59l-4.65-.71V89.77h15.43a30,30,0,0,1,8.7,1,8.7,8.7,0,0,1,4.7,3.06,9,9,0,0,1,1.47,5.39q0,7.27-9.21,9.3v.26a16.93,16.93,0,0,1,8.73,3.33,8.84,8.84,0,0,1,3.11,7.19q0,5.56-4.07,8.24t-11,2.68H137.43Zm15.83-20.79a8.22,8.22,0,0,0,6.22-2.27,9,9,0,0,0,2.18-6.48v-.3q0-8.3-8.8-8.3h-5.21v17.35Zm2,20.64a8.78,8.78,0,0,0,6.67-2.5q2.39-2.51,2.38-7.16v-.56q0-4.6-2.35-6.88c-1.57-1.52-3.8-2.27-6.7-2.27h-7.64V129Z"/><path class="cls-1" d="M200.41,130.23v-1.06l4.65-.76V91.59l-4.65-.71V89.77h30.45v11.58h-1.37L225.6,91h-15v18.21h6.58l3-7.33h1.32v16h-1.32l-3-7.43h-6.53V129h15.89l4.14-11.13H232v12.34Z"/><path class="cls-1" d="M258.73,130.23v-1.06l4.95-2L278.3,88.76h.81l13.81,39.65,4.65.76v1.06H282.7v-1.06l4.15-.66-4.3-12H269.1L265,127.15l4.55,2v1.06Zm10.77-14.77h12.7l-6.07-17.8Z"/><path class="cls-1" d="M329.24,127.93a11.59,11.59,0,0,1-3.44-8.77V91.59l-4.66-.71V89.77H336v1.11l-4.66.71v27.57q0,4.95,2.78,7.61c1.86,1.77,4.67,2.65,8.45,2.65q10.73,0,10.72-10.26V92.85l-4.7-2V89.77h10.78v1.11l-4.86,2v26.31q0,6.06-3.39,9.08t-11,3Q332.69,131.24,329.24,127.93Z"/><path class="cls-1" d="M396.26,130.23v-1.06l4.65-.76V91h-8.34l-3.85,10h-1.46V89.77h32.92v11.28h-1.51l-3.8-10h-8.39v37.38l4.65.76v1.06Z"/><path class="cls-1" d="M456.6,130.23v-1.06l4.71-.76V113L449,91.59l-4-.71V89.77h15.23v1.11l-4.71.71L466.16,110l9.77-16.64-6.07-2.43V89.77h11.33v1.11l-3.9,2.48-10.52,18v17l4.7.76v1.06Z"/><path class="cls-2" d="M120.87,92.91C119.41,91.46,117.1,90.53,105,95a124.1,124.1,0,0,0-14.8,6.62c-.65-1.64-1.22-3-1.58-3.83C82,82.4,79.31,82.4,77.71,82.4s-4.29,0-10.92,15.43c-.36.84-.93,2.19-1.58,3.83A124.1,124.1,0,0,0,50.41,95C38.31,90.53,36,91.46,34.55,92.91c-1.14,1.14-3,3,3.19,18.64,1.35,3.37,6.06,14.7,10.15,18.79a17.13,17.13,0,0,0,20.93,2.48,17,17,0,0,0,17.77,0,17.13,17.13,0,0,0,20.93-2.48c4.09-4.09,8.8-15.42,10.15-18.79C123.9,95.94,122,94.05,120.87,92.91Zm-68.4,32.86c-3.91-3.9-10.74-20.51-12.33-27.25A113.49,113.49,0,0,1,63,107.81c-1.25,3.78-2.29,7.76-2.29,10.49a17,17,0,0,0,3.12,9.82A10.63,10.63,0,0,1,52.47,125.77Zm14.67-7.47c0-5.52,6.93-22.12,10.57-28,3.63,5.87,10.56,22.47,10.56,28a10.57,10.57,0,1,1-21.13,0Zm35.8,7.47a10.63,10.63,0,0,1-11.33,2.35,17,17,0,0,0,3.12-9.82c0-2.73-1-6.71-2.29-10.49a113.13,113.13,0,0,1,22.83-9.29C113.68,105.26,106.85,121.87,102.94,125.77Z"/><path class="cls-2" d="M77.71,75a5.16,5.16,0,1,0-5.16-5.16A5.16,5.16,0,0,0,77.71,75Z"/><circle class="cls-2" cx="100.82" cy="84.77" r="5.16" transform="translate(-24.58 44.44) rotate(-22.23)"/><path class="cls-2" d="M54.6,89.93a5.16,5.16,0,1,0-5.16-5.16A5.16,5.16,0,0,0,54.6,89.93Z"/></svg>