<svg id="Layer_1" data-name="Layer 1" xmlns="http://www.w3.org/2000/svg" viewBox="0 0 500 300"><defs><style>.cls-1{fill:#7c441d;}.cls-2{font-size:28.9px;font-family:Muli-Regular, Muli;letter-spacing:0.11em;}.cls-3{letter-spacing:0.15em;}.cls-4{letter-spacing:0.07em;}.cls-5{letter-spacing:0.13em;}.cls-6{fill:#5c8423;}.cls-7{fill:#81b83d;}</style></defs><title>Logo-3</title><path class="cls-1" d="M36.06,189.57a16.92,16.92,0,0,1-6.4-7.28,25.53,25.53,0,0,1-2.26-11.15v-.06a25.45,25.45,0,0,1,2.27-11.14,17.09,17.09,0,0,1,6.42-7.26,18.18,18.18,0,0,1,9.8-2.57,18.16,18.16,0,0,1,9.83,2.57,17,17,0,0,1,6.4,7.26,25.6,25.6,0,0,1,2.25,11.14v.06a25.68,25.68,0,0,1-2.25,11.15,17.07,17.07,0,0,1-6.38,7.28,18.23,18.23,0,0,1-9.83,2.57A18.37,18.37,0,0,1,36.06,189.57Zm17.6-3.15a14,14,0,0,0,5-6.08,22,22,0,0,0,1.78-9.2v-.06a22,22,0,0,0-1.79-9.24,14,14,0,0,0-5.07-6,13.78,13.78,0,0,0-7.73-2.14,13.45,13.45,0,0,0-12.8,8.16,21.92,21.92,0,0,0-1.8,9.26v.06a22,22,0,0,0,1.8,9.23,13.44,13.44,0,0,0,12.82,8.21A13.68,13.68,0,0,0,53.66,186.42Z"/><path class="cls-1" d="M75,150.76H89.35a15.32,15.32,0,0,1,6.9,1.46,10.79,10.79,0,0,1,4.52,4.14,12.1,12.1,0,0,1,1.59,6.31v.05a11.75,11.75,0,0,1-2.33,7.34,11.35,11.35,0,0,1-6.39,4.12l9.88,17.31H99l-9.37-16.71a2.37,2.37,0,0,1-.41,0H78.82v16.68H75ZM89,171.39a9.84,9.84,0,0,0,6.9-2.26,8.11,8.11,0,0,0,2.47-6.32v-.06a8,8,0,0,0-2.54-6.29,10.14,10.14,0,0,0-7-2.26H78.82v17.19Z"/><path class="cls-1" d="M120.22,189.51a17.38,17.38,0,0,1-6.35-7.39,26.12,26.12,0,0,1-2.26-11.24v0a25,25,0,0,1,2.25-11,17,17,0,0,1,6.33-7.2,17.9,17.9,0,0,1,9.66-2.55,18.23,18.23,0,0,1,7.82,1.58,15.07,15.07,0,0,1,5.61,4.42,17.12,17.12,0,0,1,3.16,6.64l.12.45h-4l-.11-.28a12.43,12.43,0,0,0-12.59-9.26,13.78,13.78,0,0,0-7.64,2.08,13.53,13.53,0,0,0-4.95,5.93,22,22,0,0,0-1.75,9.18v0a23.15,23.15,0,0,0,1.76,9.4,14.09,14.09,0,0,0,5,6.14,13.33,13.33,0,0,0,7.6,2.16,13.8,13.8,0,0,0,6.88-1.67,11.63,11.63,0,0,0,4.6-4.65,14.17,14.17,0,0,0,1.64-6.95v-.9H130.3V171h16.51v3.39a20.26,20.26,0,0,1-2.05,9.44,14.58,14.58,0,0,1-5.84,6.13,18,18,0,0,1-9.07,2.16A17.46,17.46,0,0,1,120.22,189.51Z"/><path class="cls-1" d="M169.44,150.76h2.85v4.68h-1l-13.16,36.05h-4.06Zm-7.39,24.92h18.57l1.27,3.3H160.78Zm9.34-20.24v-4.68h1.86l15.3,40.73h-4Z"/><path class="cls-1" d="M197.66,150.76h3.79l27.29,39-5-4.77h1.78V150.76h3.81v40.73h-3.81l-27.29-39,5,4.74h-1.8v34.27h-3.79Z"/><path class="cls-1" d="M241.58,150.76h3.84v40.73h-3.84Z"/><path class="cls-1" d="M264.66,189.52a17.22,17.22,0,0,1-6.41-7.32A25.49,25.49,0,0,1,256,171.11v0A25.52,25.52,0,0,1,258.25,160a17.1,17.1,0,0,1,6.4-7.28,18,18,0,0,1,9.75-2.58,17.38,17.38,0,0,1,7.59,1.62,15.41,15.41,0,0,1,5.62,4.5,15.93,15.93,0,0,1,3,6.69l.06.28h-3.87l-.14-.5a13.12,13.12,0,0,0-2.46-4.79,11.36,11.36,0,0,0-4.13-3.13,14.78,14.78,0,0,0-13.32,1,13.9,13.9,0,0,0-5,6.05,22,22,0,0,0-1.78,9.22v0a22,22,0,0,0,1.79,9.2,14.33,14.33,0,0,0,5.05,6.1A14.59,14.59,0,0,0,280,187.46a11.41,11.41,0,0,0,4.16-3.19,13.47,13.47,0,0,0,2.53-5l.08-.25h3.87l-.06.28a15.94,15.94,0,0,1-3,6.72,15.43,15.43,0,0,1-5.61,4.49,17.44,17.44,0,0,1-7.6,1.61A17.83,17.83,0,0,1,264.66,189.52Z"/><path class="cls-1" d="M300.5,150.76h26.67v7H309v10.92h16.56v6.74H309v16H300.5Z"/><path class="cls-1" d="M344.74,189.64a17.27,17.27,0,0,1-6.82-7.28,24.69,24.69,0,0,1-2.39-11.22v-.06a24.33,24.33,0,0,1,2.41-11.21,17.24,17.24,0,0,1,6.83-7.26,22.51,22.51,0,0,1,20.87,0,17.26,17.26,0,0,1,6.8,7.27,24.31,24.31,0,0,1,2.4,11.19v.06a24.41,24.41,0,0,1-2.4,11.2,17.36,17.36,0,0,1-6.78,7.28,20.31,20.31,0,0,1-10.46,2.57A20.57,20.57,0,0,1,344.74,189.64ZM361,183.26a11,11,0,0,0,3.76-4.81,18.42,18.42,0,0,0,1.33-7.31v-.06a18.5,18.5,0,0,0-1.34-7.34A10.76,10.76,0,0,0,361,159a10.82,10.82,0,0,0-11.58,0,10.73,10.73,0,0,0-3.81,4.77,18.27,18.27,0,0,0-1.34,7.35v.06a18.24,18.24,0,0,0,1.34,7.33,10.92,10.92,0,0,0,3.79,4.8,10,10,0,0,0,5.82,1.7A9.91,9.91,0,0,0,361,183.26Z"/><path class="cls-1" d="M392.86,189.64a17.27,17.27,0,0,1-6.82-7.28,24.69,24.69,0,0,1-2.39-11.22v-.06a24.33,24.33,0,0,1,2.41-11.21,17.24,17.24,0,0,1,6.83-7.26,22.51,22.51,0,0,1,20.87,0,17.26,17.26,0,0,1,6.8,7.27,24.31,24.31,0,0,1,2.4,11.19v.06a24.41,24.41,0,0,1-2.4,11.2,17.36,17.36,0,0,1-6.78,7.28,20.31,20.31,0,0,1-10.46,2.57A20.57,20.57,0,0,1,392.86,189.64Zm16.29-6.38a11,11,0,0,0,3.77-4.81,18.6,18.6,0,0,0,1.32-7.31v-.06a18.5,18.5,0,0,0-1.34-7.34,10.76,10.76,0,0,0-3.8-4.78,10.82,10.82,0,0,0-11.58,0,10.73,10.73,0,0,0-3.81,4.77,18.27,18.27,0,0,0-1.34,7.35v.06a18.24,18.24,0,0,0,1.34,7.33,10.92,10.92,0,0,0,3.79,4.8,10,10,0,0,0,5.82,1.7A9.91,9.91,0,0,0,409.15,183.26Z"/><path class="cls-1" d="M433.06,150.76h15.56a21.71,21.71,0,0,1,10.45,2.34,15.75,15.75,0,0,1,6.65,6.84,23.84,23.84,0,0,1,2.31,11V171a24.41,24.41,0,0,1-2.3,11.06,16.08,16.08,0,0,1-6.64,7,21.16,21.16,0,0,1-10.47,2.43H433.06Zm14.54,33.67a12.6,12.6,0,0,0,6.42-1.52,9.78,9.78,0,0,0,4-4.52,18,18,0,0,0,1.35-7.4v-.05a16.79,16.79,0,0,0-1.38-7.17,9.78,9.78,0,0,0-4-4.45,12.62,12.62,0,0,0-6.35-1.51h-6v26.62Z"/><text class="cls-2" transform="translate(121.56 223.93)">Y<tspan class="cls-3" x="20.61" y="0">OUR </tspan><tspan class="cls-4" x="108.96" y="0">T</tspan><tspan class="cls-5" x="128.3" y="0">A</tspan><tspan class="cls-3" x="153.15" y="0">GLINE</tspan></text><path class="cls-6" d="M345.79,132.58H336a54.65,54.65,0,0,0-71.46-52c-.81-.74-1.63-1.46-2.47-2.16a71.21,71.21,0,0,0-6.54-4.84,64.39,64.39,0,0,1,90.23,59Z"/><path class="cls-6" d="M326.54,132.58h-11A34.21,34.21,0,0,0,281.39,98.4c-.9,0-1.8,0-2.69.11-.37-.67-.76-1.34-1.16-2a69.66,69.66,0,0,0-5.63-8.09,45.18,45.18,0,0,1,54.63,44.16Z"/><path class="cls-7" d="M281.39,132.58h-9.76a54.29,54.29,0,0,0-8.34-29,55.14,55.14,0,0,0-14.1-15.14A54.43,54.43,0,0,0,217,77.94a54.7,54.7,0,0,0-54.64,54.64H152.6A64.33,64.33,0,0,1,258.19,83.12a65.39,65.39,0,0,1,7.34,7.17,64.55,64.55,0,0,1,15.86,42.29Z"/><path class="cls-6" d="M262.15,132.58h-11a34.18,34.18,0,0,0-68.35,0h-11a45.16,45.16,0,1,1,90.31,0Z"/></svg>