<svg id="Layer_1" data-name="Layer 1" xmlns="http://www.w3.org/2000/svg" viewBox="0 0 200 200"><defs><style>.cls-1{fill:#5c8423;}.cls-2{fill:#81b83d;}</style></defs><title>Logo-6</title><path class="cls-1" d="M164.4,131.35h-6.51A36.42,36.42,0,0,0,110.25,96.7c-.54-.5-1.09-1-1.64-1.44A48.74,48.74,0,0,0,104.24,92a42.93,42.93,0,0,1,60.16,39.32Z"/><path class="cls-1" d="M151.57,131.35h-7.32a22.81,22.81,0,0,0-22.79-22.78c-.6,0-1.2,0-1.79.07-.25-.44-.5-.89-.77-1.33a46.34,46.34,0,0,0-3.75-5.39,30.1,30.1,0,0,1,36.42,29.43Z"/><path class="cls-2" d="M121.46,131.35H115a36.42,36.42,0,0,0-10.07-25.11,37.08,37.08,0,0,0-4.89-4.3,36.48,36.48,0,0,0-6-3.56,36.06,36.06,0,0,0-15.46-3.45,36.47,36.47,0,0,0-36.43,36.42H35.6a42.93,42.93,0,0,1,85.86,0Z"/><path class="cls-1" d="M108.64,131.35h-7.32a22.79,22.79,0,0,0-45.57,0H48.43a30.11,30.11,0,0,1,60.21,0Z"/></svg>