<svg id="Layer_1" data-name="Layer 1" xmlns="http://www.w3.org/2000/svg" viewBox="0 0 500 300"><defs><style>.cls-1{fill:#7c441d;}.cls-2{fill:#81b83d;}</style></defs><title>Logo-7</title><path class="cls-1" d="M64,190.42l4.65-.76V152.83L64,152.12V151H79.45a30.31,30.31,0,0,1,8.7,1,8.85,8.85,0,0,1,4.7,3.06,9,9,0,0,1,1.47,5.39q0,7.29-9.21,9.31V170a17.09,17.09,0,0,1,8.73,3.34A8.82,8.82,0,0,1,97,180.55q0,5.56-4.07,8.25t-11,2.68H64Zm15.83-20.79a8.19,8.19,0,0,0,6.22-2.28,9,9,0,0,0,2.18-6.48v-.3q0-8.3-8.8-8.29H74.24v17.35Zm2,20.63a8.76,8.76,0,0,0,6.68-2.5q2.39-2.5,2.38-7.16v-.55c0-3.07-.79-5.37-2.35-6.88a9.26,9.26,0,0,0-6.71-2.28H74.24v19.37Z"/><path class="cls-1" d="M127,191.48v-1.06l4.66-.76V152.83l-4.66-.71V151h30.45v11.58h-1.36l-3.9-10.31h-15v18.21h6.58l3-7.34h1.32v16h-1.32l-3-7.44h-6.53v18.56h15.88l4.15-11.12h1.32v12.34Z"/><path class="cls-1" d="M185.31,191.48v-1.06l5-2L204.89,150h.81l13.81,39.66,4.65.76v1.06H209.29v-1.06l4.15-.66-4.3-12H195.68l-4.09,10.62,4.55,2v1.06Zm10.78-14.77h12.69l-6.07-17.81Z"/><path class="cls-1" d="M255.83,189.18a11.61,11.61,0,0,1-3.44-8.78V152.83l-4.66-.71V151H262.6v1.11l-4.65.71V180.4q0,4.95,2.78,7.61c1.86,1.77,4.67,2.66,8.45,2.66q10.72,0,10.72-10.27V154.1l-4.7-2V151H286v1.11l-4.85,2v26.3q0,6.07-3.39,9.08t-11,3Q259.26,192.49,255.83,189.18Z"/><path class="cls-1" d="M322.85,191.48v-1.06l4.65-.76V152.28h-8.35l-3.84,10h-1.47V151h32.93v11.28h-1.52l-3.79-10h-8.4v37.38l4.66.76v1.06Z"/><path class="cls-1" d="M383.19,191.48v-1.06l4.71-.76V174.28l-12.3-21.45-4-.71V151h15.22v1.11l-4.7.71,10.62,18.36,9.76-16.64-6.07-2.43V151h11.33v1.11l-3.89,2.48-10.52,18v17l4.7.76v1.06Z"/><path class="cls-2" d="M299.18,75c-2.13-2.13-5.52-3.5-23.26,3.12a179.65,179.65,0,0,0-21.71,9.71c-1-2.4-1.78-4.38-2.31-5.61-9.72-22.64-13.65-22.64-16-22.64s-6.29,0-16,22.64c-.53,1.23-1.36,3.21-2.31,5.61a179.65,179.65,0,0,0-21.71-9.71c-17.74-6.62-21.13-5.25-23.26-3.12-1.66,1.66-4.44,4.45,4.69,27.33,2,4.94,8.88,21.55,14.88,27.56a25.15,25.15,0,0,0,30.69,3.63,24.89,24.89,0,0,0,26,0,25.15,25.15,0,0,0,30.69-3.63c6-6,12.91-22.62,14.88-27.56C303.62,79.46,300.84,76.67,299.18,75ZM198.89,123.19c-5.72-5.72-15.74-30.08-18.07-39.95,7.44,1.79,23.43,7.94,33.47,13.62-1.83,5.54-3.36,11.37-3.36,15.38a24.82,24.82,0,0,0,4.58,14.39A15.59,15.59,0,0,1,198.89,123.19Zm21.52-11c0-8.1,10.16-32.44,15.49-41,5.32,8.61,15.48,33,15.48,41.05a15.49,15.49,0,1,1-31,0Zm52.49,11a15.59,15.59,0,0,1-16.62,3.44,24.82,24.82,0,0,0,4.58-14.39c0-4-1.53-9.84-3.36-15.38,10-5.68,26-11.83,33.47-13.62C288.64,93.11,278.62,117.47,272.9,123.19Z"/><path class="cls-2" d="M235.9,48.73a7.57,7.57,0,1,0-7.57-7.57A7.57,7.57,0,0,0,235.9,48.73Z"/><circle class="cls-2" cx="269.78" cy="63.07" r="7.56" transform="matrix(0.93, -0.38, 0.38, 0.93, -3.81, 106.74)"/><path class="cls-2" d="M202,70.63a7.57,7.57,0,1,0-7.56-7.56A7.56,7.56,0,0,0,202,70.63Z"/></svg>