<svg id="Layer_1" data-name="Layer 1" xmlns="http://www.w3.org/2000/svg" viewBox="0 0 500 200"><defs><style>.cls-1{font-size:21.32px;font-family:Muli-Regular, Muli;letter-spacing:0.11em;}.cls-2{letter-spacing:0.15em;}.cls-3{letter-spacing:0.07em;}.cls-4{letter-spacing:0.13em;}.cls-5{letter-spacing:0.15em;}.cls-6{fill:#81b83d;}</style></defs><title>Logo-2</title><path d="M145.6,91.07h6.29v12.21h13.54V91.07h6.28v30.05h-6.28V108.48H151.89v12.64H145.6Z"/><path d="M191.67,91.07h5.56V96.9h-1.92l-7.52,24.22h-6.6Zm-3.29,18.06h14l1.54,4.7H186.84Zm7.06-12.23V91.07h3.64l10.48,30.05h-6.63Z"/><path d="M219,91.07h6.28v30.05H219Zm3.16,15.66h7.37a6,6,0,0,0,4.21-1.38,5.09,5.09,0,0,0,1.5-3.93v0a5.07,5.07,0,0,0-1.5-3.95,6,6,0,0,0-4.21-1.36H222.2v-5h8.91a11.53,11.53,0,0,1,5.54,1.28,9.22,9.22,0,0,1,3.7,3.6,10.71,10.71,0,0,1,1.32,5.41v0a10.66,10.66,0,0,1-1.32,5.39,9.29,9.29,0,0,1-3.7,3.6,11.53,11.53,0,0,1-5.54,1.28H222.2Z"/><path d="M251.77,91.07h6.29v30.05h-6.29Zm3.17,15.66h7.37a6,6,0,0,0,4.21-1.38,5.09,5.09,0,0,0,1.5-3.93v0a5.07,5.07,0,0,0-1.5-3.95,6,6,0,0,0-4.21-1.36h-7.37v-5h8.91a11.53,11.53,0,0,1,5.54,1.28,9.22,9.22,0,0,1,3.7,3.6,10.71,10.71,0,0,1,1.32,5.41v0a10.66,10.66,0,0,1-1.32,5.39,9.29,9.29,0,0,1-3.7,3.6,11.53,11.53,0,0,1-5.54,1.28h-8.91Z"/><path d="M292,109.9,281.56,91.07h6.79l6.74,12.83h.15L302,91.07h6.81L298.3,109.9v11.22H292Z"/><path d="M333.06,91.07h19.68v5.19H339.35v8.06h12.23v5H339.35v11.83h-6.29Z"/><path d="M368.69,119.76a12.65,12.65,0,0,1-5-5.38,18,18,0,0,1-1.77-8.27v0a17.89,17.89,0,0,1,1.78-8.27,12.62,12.62,0,0,1,5-5.36,16.59,16.59,0,0,1,15.4,0,12.79,12.79,0,0,1,5,5.36,18,18,0,0,1,1.77,8.26v0a18,18,0,0,1-1.77,8.26,12.88,12.88,0,0,1-5,5.38,16.73,16.73,0,0,1-15.43,0Zm12-4.71a8,8,0,0,0,2.78-3.55,13.69,13.69,0,0,0,1-5.39v0a13.59,13.59,0,0,0-1-5.42,8,8,0,0,0-2.8-3.53,8,8,0,0,0-8.55,0,8,8,0,0,0-2.81,3.52,13.57,13.57,0,0,0-1,5.43v0a13.57,13.57,0,0,0,1,5.41,8,8,0,0,0,2.8,3.54,7.4,7.4,0,0,0,4.29,1.25A7.3,7.3,0,0,0,380.7,115.05Z"/><path d="M407.17,119.76a12.71,12.71,0,0,1-5-5.38,18,18,0,0,1-1.77-8.27v0a18,18,0,0,1,1.78-8.27,12.74,12.74,0,0,1,5-5.36,15.1,15.1,0,0,1,7.7-1.89,14.93,14.93,0,0,1,7.7,1.9,12.75,12.75,0,0,1,5,5.36,18,18,0,0,1,1.77,8.26v0a18,18,0,0,1-1.77,8.26,12.84,12.84,0,0,1-5,5.38,15,15,0,0,1-7.71,1.89A15.22,15.22,0,0,1,407.17,119.76Zm12-4.71A8.12,8.12,0,0,0,422,111.5a13.69,13.69,0,0,0,1-5.39v0a13.59,13.59,0,0,0-1-5.42,8,8,0,0,0-2.8-3.53,8,8,0,0,0-8.55,0,7.94,7.94,0,0,0-2.81,3.52,13.57,13.57,0,0,0-1,5.43v0a13.57,13.57,0,0,0,1,5.41,8,8,0,0,0,2.8,3.54,7.4,7.4,0,0,0,4.29,1.25A7.32,7.32,0,0,0,419.19,115.05Z"/><path d="M439.82,91.07h11.47A16.07,16.07,0,0,1,459,92.8a11.66,11.66,0,0,1,4.9,5,17.5,17.5,0,0,1,1.71,8.09v0a18.15,18.15,0,0,1-1.7,8.17,11.81,11.81,0,0,1-4.9,5.18,15.69,15.69,0,0,1-7.73,1.79H439.82Zm10.72,24.85a9.24,9.24,0,0,0,4.74-1.13,7.2,7.2,0,0,0,2.93-3.33,13.32,13.32,0,0,0,1-5.46v0a12.23,12.23,0,0,0-1-5.29,7.21,7.21,0,0,0-2.95-3.28,9.27,9.27,0,0,0-4.69-1.11h-4.43v19.64Z"/><text class="cls-1" transform="translate(214.17 145.06)">Y<tspan class="cls-2" x="15.2" y="0">OUR </tspan><tspan class="cls-3" x="80.39" y="0">T</tspan><tspan class="cls-4" x="94.66" y="0">A</tspan><tspan class="cls-5" x="112.99" y="0">GLINE</tspan></text><path class="cls-6" d="M108.61,150.78c-1.18-1-2.37-2.11-3.54-3.18-2.31-2.16-4.62-4.33-6.76-6.68-1.35-1.5-2.66-3-3.88-4.65.3-3.88-.65-9.72-6.24-16.55C78,107.29,54.45,95.1,52.84,95.08a1.7,1.7,0,0,0-.83.28L75.46,117.9A1.84,1.84,0,0,1,73,120.63L47.87,99.35l-.54.65-.6.6,23.76,22.82A1.84,1.84,0,0,1,68,126.14l-24.82-21a1.65,1.65,0,0,0-.2.85c.19,1.6,14.74,23.77,28.14,32.63,7.37,4.86,13.28,5.2,17.11,4.51,1.74,1,3.4,2.18,5,3.38,2.57,1.88,5,3.94,7.34,6,1.21,1.08,2.42,2.16,3.61,3.26C7.78,162.33,37.39,69.39,37.39,69.39S38.59,79.06,55,83.63c13.86,3.85,42,5,49.66,25.47C108.86,120.19,110.12,132.37,108.61,150.78Z"/><path class="cls-6" d="M134.71,61.09c-1.28-10-9.05-17.22-17.86-17.22S100.27,51.1,99,61.09c-2.95,23.12,6.18,35,14.49,49.36v44.19h6.74V110.45C128.53,96.08,137.66,84.21,134.71,61.09Z"/></svg>