<svg id="Layer_1" data-name="Layer 1" xmlns="http://www.w3.org/2000/svg" xmlns:xlink="http://www.w3.org/1999/xlink" viewBox="0 0 200 200"><defs><style>.cls-1{fill:url(#linear-gradient);}.cls-2{mask:url(#mask);}.cls-3{fill:#7c441d;}</style><linearGradient id="linear-gradient" x1="99.57" y1="144.51" x2="99.57" y2="87.81" gradientUnits="userSpaceOnUse"><stop offset="0"/><stop offset="0.09" stop-color="#070707"/><stop offset="0.22" stop-color="#1a1a1a"/><stop offset="0.37" stop-color="#3a3a3a"/><stop offset="0.54" stop-color="#676767"/><stop offset="0.73" stop-color="#a0a0a0"/><stop offset="0.93" stop-color="#e4e4e4"/><stop offset="1" stop-color="#fff"/></linearGradient><mask id="mask" x="30.97" y="112.33" width="137.21" height="52.05" maskUnits="userSpaceOnUse"><rect class="cls-1" x="30.97" y="112.33" width="137.21" height="43.77"/></mask></defs><title>Logo-12</title><g class="cls-2"><path class="cls-3" d="M138,164.38H81c-11.59-13.29-15.37-29.93-15.37-29.93H54.07a56.47,56.47,0,0,0,19.19,29.93H62a54.56,54.56,0,0,1-16.54-35h109A54.56,54.56,0,0,1,138,164.38ZM40.71,125H159.29a4.9,4.9,0,1,0,0-9.76H40.71a4.9,4.9,0,1,0,0,9.76Z"/></g><path class="cls-3" d="M164.61,110.12a5.13,5.13,0,0,1-5.32,4.89H40.71a4.9,4.9,0,1,1,0-9.77H159.29A5.13,5.13,0,0,1,164.61,110.12Zm-58.4-61.35a6.21,6.21,0,0,0-12.41,0,50.73,50.73,0,0,1,6.07-.38A49.28,49.28,0,0,1,106.21,48.77Zm48.31,52.16h-109a54.69,54.69,0,0,1,109,0ZM93.76,55.32A56.63,56.63,0,0,0,54.07,95.83H65.63S72,67.6,93.76,55.32Z"/></svg>