<svg id="Layer_1" data-name="Layer 1" xmlns="http://www.w3.org/2000/svg" viewBox="0 0 200 200"><defs><style>.cls-1{fill:#81b83d;}</style></defs><title>Logo-5</title><path class="cls-1" d="M121.06,150.78c-1.18-1-2.37-2.11-3.53-3.18-2.32-2.16-4.63-4.33-6.77-6.68-1.35-1.5-2.66-3-3.88-4.65.3-3.88-.65-9.72-6.24-16.55C90.45,107.29,66.9,95.1,65.29,95.08a1.74,1.74,0,0,0-.83.28L87.91,117.9a1.82,1.82,0,0,1,.1,2.55,1.85,1.85,0,0,1-2.56.18L60.32,99.35l-.54.65s-.24.23-.59.6L83,123.42a1.84,1.84,0,0,1-2.48,2.72l-24.82-21a1.76,1.76,0,0,0-.2.85c.19,1.6,14.74,23.77,28.14,32.63,7.37,4.86,13.28,5.2,17.11,4.51,1.74,1,3.4,2.18,5,3.38,2.57,1.88,5,3.94,7.35,6,1.2,1.08,2.41,2.16,3.6,3.26-96.44,6.53-66.83-86.41-66.83-86.41s1.21,9.67,17.64,14.24c13.86,3.85,42,5,49.66,25.47C121.32,120.19,122.57,132.37,121.06,150.78Z"/><path class="cls-1" d="M147.16,61.09c-1.28-10-9-17.22-17.86-17.22s-16.58,7.23-17.86,17.22c-3,23.12,6.18,35,14.49,49.36v44.19h6.74V110.45C141,96.08,150.11,84.21,147.16,61.09Z"/></svg>