<svg id="Group_3316" data-name="Group 3316" xmlns="http://www.w3.org/2000/svg" width="118.802" height="94.079" viewBox="0 0 118.802 94.079">
  <g id="Group_3306" data-name="Group 3306" transform="translate(28.105 20.269)">
    <g id="Group_3304" data-name="Group 3304" transform="translate(0 14.804)">
      <g id="Group_3300" data-name="Group 3300" transform="translate(0 0)">
        <g id="Group_3298" data-name="Group 3298">
          <path id="Path_8327" data-name="Path 8327" d="M673.45,141.428a16.314,16.314,0,0,1-10.734-4.1c-1.028-1.028-2.755-3.487-5.884-12.937-1.662-5.02-2.942-9.706-2.954-9.753a2.219,2.219,0,0,1,2.725-2.725c.047.012,4.732,1.292,9.753,2.954,9.45,3.129,11.909,4.856,12.937,5.885h0a15.7,15.7,0,0,1,3.937,8.5c.568,3.922-.33,7.292-2.527,9.49A10,10,0,0,1,673.45,141.428Zm-14.2-24.152c2.284,7.71,5.1,15.4,6.611,16.909a11.248,11.248,0,0,0,5.994,2.683c2.466.358,4.548-.107,5.714-1.273s1.63-3.249,1.273-5.714a11.249,11.249,0,0,0-2.683-5.994C674.642,122.376,666.955,119.56,659.245,117.277Z" transform="translate(-653.8 -111.831)" fill="#f9f9e8"/>
        </g>
        <g id="Group_3299" data-name="Group 3299" transform="translate(13.469 13.47)">
          <path id="Path_8328" data-name="Path 8328" d="M682.153,142.4a2.215,2.215,0,0,1-1.569-.65l-9.644-9.644a2.22,2.22,0,0,1,3.139-3.139l9.644,9.644a2.22,2.22,0,0,1-1.57,3.79Z" transform="translate(-670.288 -128.32)" fill="#f9f9e8"/>
        </g>
      </g>
      <g id="Group_3303" data-name="Group 3303" transform="translate(32.995)">
        <g id="Group_3301" data-name="Group 3301">
          <path id="Path_8329" data-name="Path 8329" d="M704.137,141.428a10,10,0,0,1-7.253-2.693c-2.2-2.2-3.1-5.568-2.527-9.49a15.706,15.706,0,0,1,3.937-8.5c1.029-1.028,3.488-2.756,12.938-5.885,5.021-1.662,9.706-2.942,9.753-2.954a2.22,2.22,0,0,1,2.726,2.725c-.013.047-1.293,4.733-2.955,9.753-3.129,9.45-4.856,11.91-5.884,12.937a16.315,16.315,0,0,1-10.734,4.1Zm14.206-24.152c-7.711,2.283-15.4,5.1-16.911,6.611a11.255,11.255,0,0,0-2.682,5.994c-.357,2.465.107,4.548,1.273,5.714s3.249,1.63,5.714,1.273a11.249,11.249,0,0,0,5.994-2.683C713.245,132.672,716.06,124.985,718.343,117.276Z" transform="translate(-694.191 -111.831)" fill="#f9f9e8"/>
        </g>
        <g id="Group_3302" data-name="Group 3302" transform="translate(2.044 13.47)">
          <path id="Path_8330" data-name="Path 8330" d="M698.912,142.4a2.22,2.22,0,0,1-1.57-3.79l9.645-9.644a2.22,2.22,0,1,1,3.139,3.139l-9.644,9.644A2.214,2.214,0,0,1,698.912,142.4Z" transform="translate(-696.692 -128.32)" fill="#f9f9e8"/>
        </g>
      </g>
    </g>
    <g id="Group_3305" data-name="Group 3305" transform="translate(21.079)">
      <path id="Path_8331" data-name="Path 8331" d="M689.821,114.143a10.217,10.217,0,1,1,10.217-10.217A10.229,10.229,0,0,1,689.821,114.143Zm0-15.994a5.777,5.777,0,1,0,5.777,5.777A5.784,5.784,0,0,0,689.821,98.149Z" transform="translate(-679.604 -93.709)" fill="#f9f9e8"/>
    </g>
  </g>
  <g id="Group_3314" data-name="Group 3314" transform="translate(0 79.253)">
    <g id="Group_3307" data-name="Group 3307" transform="translate(0 0)">
      <path id="Path_8332" data-name="Path 8332" d="M629.034,165.915h2.4v14.678h-2.4L621.8,169.647v10.946h-2.4V165.915h2.4l7.234,10.924Z" transform="translate(-619.396 -165.915)" fill="#f9f9e8"/>
    </g>
    <g id="Group_3308" data-name="Group 3308" transform="translate(37.58 0.021)">
      <path id="Path_8333" data-name="Path 8333" d="M665.4,167.817v-1.876h10.228v1.876h-3.9V180.6h-2.4v-12.78Z" transform="translate(-665.399 -165.941)" fill="#f9f9e8"/>
    </g>
    <g id="Group_3309" data-name="Group 3309" transform="translate(54.43 0.021)">
      <path id="Path_8334" data-name="Path 8334" d="M686.026,175.241v-9.3h2.4v9.3a3.33,3.33,0,0,0,.876,2.51,3.971,3.971,0,0,0,4.892,0,3.333,3.333,0,0,0,.875-2.51v-9.3h2.4v9.3a5.089,5.089,0,0,1-1.655,4.081,6.088,6.088,0,0,1-4.113,1.424,5.955,5.955,0,0,1-4.07-1.413A5.147,5.147,0,0,1,686.026,175.241Z" transform="translate(-686.026 -165.941)" fill="#f9f9e8"/>
    </g>
    <g id="Group_3310" data-name="Group 3310" transform="translate(109.682 0.021)">
      <path id="Path_8335" data-name="Path 8335" d="M753.663,165.941h2.4v12.822h6.716V180.6h-9.12Z" transform="translate(-753.663 -165.941)" fill="#f9f9e8"/>
    </g>
    <g id="Group_3311" data-name="Group 3311" transform="translate(18.558)">
      <path id="Path_8336" data-name="Path 8336" d="M650.148,165.915h-2.784l-5.251,14.678h2.51l.837-2.377.873-2.495h0l2.425-6.9,1.974,5.663h0l1.3,3.728.837,2.376H655.4Z" transform="translate(-642.113 -165.915)" fill="#f9f9e8"/>
    </g>
    <g id="Group_3312" data-name="Group 3312" transform="translate(89.901)">
      <path id="Path_8337" data-name="Path 8337" d="M737.483,165.915H734.7l-5.251,14.678h2.51l.837-2.377.873-2.495h0l2.425-6.9,1.974,5.663h0l1.3,3.728.837,2.376h2.531Z" transform="translate(-729.448 -165.915)" fill="#f9f9e8"/>
    </g>
    <g id="Group_3313" data-name="Group 3313" transform="translate(73.22 0.021)">
      <path id="Path_8338" data-name="Path 8338" d="M715.628,174.5a4.145,4.145,0,0,0,3.649-4.2,4.06,4.06,0,0,0-1.35-3.132,5.487,5.487,0,0,0-3.838-1.234h-5.061V180.6h2.4v-12.78h2.657a2.841,2.841,0,0,1,2.046.654,2.8,2.8,0,0,1,0,3.649,2.841,2.841,0,0,1-2.046.654h-1.181v1.877l3.669,5.947h2.932Z" transform="translate(-709.028 -165.941)" fill="#f9f9e8"/>
    </g>
  </g>
  <g id="Group_3315" data-name="Group 3315" transform="translate(19.736 0)">
    <path id="Path_8339" data-name="Path 8339" d="M646.705,85.491a2.375,2.375,0,0,1,1.84-.527,2.6,2.6,0,0,1,1.714,1.063,2.734,2.734,0,0,1,.636,1.956,2.31,2.31,0,0,1-.929,1.687,2.181,2.181,0,0,1-1.17.479,2.108,2.108,0,0,1-1.152-.212l.692.886-.517.4-4.263-5.463.517-.4,1.8,2.311a2.088,2.088,0,0,1,.077-1.165A2.207,2.207,0,0,1,646.705,85.491Zm2.833,3.8a1.775,1.775,0,0,0,.694-1.3,2.155,2.155,0,0,0-.506-1.554,2.018,2.018,0,0,0-1.354-.837,1.828,1.828,0,0,0-1.4.39,1.791,1.791,0,0,0-.706,1.281,2.348,2.348,0,0,0,1.861,2.385A1.786,1.786,0,0,0,649.538,89.29Z" transform="translate(-643.556 -71.835)" fill="#f9f9e8"/>
    <path id="Path_8340" data-name="Path 8340" d="M657.963,84.606a2.326,2.326,0,0,1-1.9.265,2.7,2.7,0,0,1-1.559-1.319,2.65,2.65,0,0,1-.364-2.01,2.4,2.4,0,0,1,1.2-1.537,2.294,2.294,0,0,1,3.289.836,3.231,3.231,0,0,1,.222.456L655.2,83.419a2.023,2.023,0,0,0,1.158.929,1.686,1.686,0,0,0,1.339-.2,1.8,1.8,0,0,0,.734-.741,1.405,1.405,0,0,0,.139-.905l.607-.353a2.4,2.4,0,0,1-.167,1.349A2.376,2.376,0,0,1,657.963,84.606Zm.07-3.433a1.8,1.8,0,0,0-1.117-.9,1.847,1.847,0,0,0-2.181,1.26,1.973,1.973,0,0,0,.208,1.445Z" transform="translate(-645.481 -70.861)" fill="#f9f9e8"/>
    <path id="Path_8341" data-name="Path 8341" d="M664.127,80.4a2.738,2.738,0,0,1-1.387-1.519,2.6,2.6,0,0,1-.077-2.014,2.37,2.37,0,0,1,1.367-1.34,2.2,2.2,0,0,1,1.254-.153,2.091,2.091,0,0,1,1.051.508l-.426-1.029.606-.251,1.951,4.727-.605.25-.429-1.039a2.124,2.124,0,0,1-.384,1.106,2.18,2.18,0,0,1-1,.78A2.307,2.307,0,0,1,664.127,80.4Zm2.82-1.575a2.331,2.331,0,0,0-1.154-2.8,1.8,1.8,0,0,0-1.462-.02,1.825,1.825,0,0,0-1.027,1.022,2.018,2.018,0,0,0,.06,1.591,2.153,2.153,0,0,0,1.1,1.207,1.772,1.772,0,0,0,1.465.039A1.8,1.8,0,0,0,666.947,78.828Z" transform="translate(-647.024 -69.942)" fill="#f9f9e8"/>
    <path id="Path_8342" data-name="Path 8342" d="M675.31,72l.635-.165,1.288,4.948-.634.165-.211-.806a1.787,1.787,0,0,1-1.406,1.324,1.96,1.96,0,0,1-1.518-.181,2.14,2.14,0,0,1-.957-1.411l-.767-2.945.625-.163.737,2.827a1.825,1.825,0,0,0,.717,1.139,1.63,1.63,0,0,0,2.157-.561,1.827,1.827,0,0,0,.071-1.345Z" transform="translate(-648.717 -69.435)" fill="#f9f9e8"/>
    <path id="Path_8343" data-name="Path 8343" d="M683.515,70.9l-1.4.2.489,3.354a.77.77,0,0,0,.226.511.734.734,0,0,0,.551.076l.723-.105.074.51-.861.126a1.063,1.063,0,0,1-1.36-1.023l-.489-3.354-.7.1-.074-.51.7-.1-.185-1.269.649-.095.185,1.269,1.4-.2Z" transform="translate(-650.355 -68.975)" fill="#f9f9e8"/>
    <path id="Path_8344" data-name="Path 8344" d="M689.422,75.177l-2.24-4.949.7-.029,1.865,4.27,1.5-4.411.664-.028L689.2,77.643l-.664.027Z" transform="translate(-651.544 -69.105)" fill="#f9f9e8"/>
    <path id="Path_8345" data-name="Path 8345" d="M704.607,75.47a1.846,1.846,0,0,1-1.3.217,1.881,1.881,0,0,1-.73-3.361,1.828,1.828,0,0,1,1.388-.288,1.32,1.32,0,0,1,.155.035l-.194-.365a2.522,2.522,0,0,1-.419-1.571,1.435,1.435,0,0,1,.611-.979,1.832,1.832,0,0,1,2.327.392,1.383,1.383,0,0,1,.264,1.08,1.508,1.508,0,0,1-.11.37l-.673-.113a1.6,1.6,0,0,0,.109-.371.951.951,0,0,0-1.479-.919.966.966,0,0,0-.376.654,1.94,1.94,0,0,0,.309,1.153l2.584,4.842-.813-.137-.858-1.616A1.842,1.842,0,0,1,704.607,75.47Zm-1.952-.819a1.111,1.111,0,0,0,.78.526,1.142,1.142,0,0,0,.919-.239,1.349,1.349,0,0,0,.514-.877,1.322,1.322,0,0,0-.2-.988,1.156,1.156,0,0,0-.792-.518,1.124,1.124,0,0,0-.908.232,1.331,1.331,0,0,0-.5.87A1.365,1.365,0,0,0,702.655,74.651Z" transform="translate(-654.22 -68.897)" fill="#f9f9e8"/>
    <path id="Path_8346" data-name="Path 8346" d="M717.9,75.907a1.342,1.342,0,0,1,.883-.8,2.029,2.029,0,0,1,1.405.089,1.78,1.78,0,0,1,1.022.864,1.682,1.682,0,0,1,.033,1.277l-.627-.248a1.07,1.07,0,0,0-.674-1.426,1.246,1.246,0,0,0-.876-.065.809.809,0,0,0-.516.475.772.772,0,0,0-.007.627,1.15,1.15,0,0,0,.42.479q.29.2.622.439t.607.477a1.161,1.161,0,0,1,.371.6,1.286,1.286,0,0,1-.079.81,1.219,1.219,0,0,1-.852.75,2.168,2.168,0,0,1-1.4-.134,1.928,1.928,0,0,1-1.073-.889,1.629,1.629,0,0,1-.065-1.285l.627.249a1.075,1.075,0,0,0,.027.846,1.223,1.223,0,0,0,.7.6,1.386,1.386,0,0,0,.893.1.739.739,0,0,0,.513-.457.775.775,0,0,0,.009-.631,1.2,1.2,0,0,0-.417-.484q-.289-.2-.621-.442t-.608-.473a1.136,1.136,0,0,1-.318-1.345Z" transform="translate(-657.003 -70.018)" fill="#f9f9e8"/>
    <path id="Path_8347" data-name="Path 8347" d="M728.524,79.231a2.371,2.371,0,0,1,1.2,1.487,2.6,2.6,0,0,1-.308,1.992,2.733,2.733,0,0,1-1.552,1.35,2.309,2.309,0,0,1-1.916-.2,2.173,2.173,0,0,1-.9-.89,2.11,2.11,0,0,1-.255-1.142l-1.717,3.094-.573-.318,3.653-6.583.573.318-.54.975a2.08,2.08,0,0,1,1.1-.385A2.2,2.2,0,0,1,728.524,79.231Zm-2.389,4.093a1.777,1.777,0,0,0,1.464.132,2.152,2.152,0,0,0,1.232-1.072,2.016,2.016,0,0,0,.242-1.574,1.834,1.834,0,0,0-.907-1.135,1.793,1.793,0,0,0-1.454-.148,2.345,2.345,0,0,0-1.468,2.644A1.787,1.787,0,0,0,726.134,83.324Z" transform="translate(-658.013 -70.569)" fill="#f9f9e8"/>
    <path id="Path_8348" data-name="Path 8348" d="M733.065,87.323a2.73,2.73,0,0,1,.6-1.966,2.593,2.593,0,0,1,1.7-1.09,2.371,2.371,0,0,1,1.848.5,2.207,2.207,0,0,1,.769,1,2.08,2.08,0,0,1,.1,1.163l.672-.889.523.395-3.08,4.081-.523-.4.676-.9a2.11,2.11,0,0,1-1.148.231,2.176,2.176,0,0,1-1.177-.461A2.309,2.309,0,0,1,733.065,87.323Zm2.788,1.629a2.33,2.33,0,0,0,1.822-2.414,1.8,1.8,0,0,0-.725-1.269,1.824,1.824,0,0,0-1.4-.365,2.019,2.019,0,0,0-1.341.859,2.16,2.16,0,0,0-.48,1.561,1.775,1.775,0,0,0,.711,1.282A1.8,1.8,0,0,0,735.853,88.951Z" transform="translate(-659.943 -71.706)" fill="#f9f9e8"/>
  </g>
</svg>
