<svg id="Group_3352" data-name="Group 3352" xmlns="http://www.w3.org/2000/svg" width="117.97" height="120.784" viewBox="0 0 117.97 120.784">
  <g id="Group_3350" data-name="Group 3350" transform="translate(0 0)">
    <path id="Path_8398" data-name="Path 8398" d="M87.371,331.045a.343.343,0,0,0-.358.194.785.785,0,0,0,.008.42,10.214,10.214,0,0,1,.236,1.208,5.1,5.1,0,0,1,0,1.166,5.419,5.419,0,0,1-.344,1.348,6.029,6.029,0,0,1-1.9,2.663,5.415,5.415,0,0,1-2.965,1.115,9.405,9.405,0,0,1-6.9-2.674,5.958,5.958,0,0,1-1.569-2.9,5.607,5.607,0,0,1,.289-3.235,5.136,5.136,0,0,1,.995-1.688,6.667,6.667,0,0,1,1.408-1.133.609.609,0,0,0,.288-.286q.14-.364-.883-.856l.156-.406q1.125.511,4.049,1.634l-.156.407q-.845-.175-1.328-.237a4.168,4.168,0,0,0-.847-.033,3.943,3.943,0,0,0-.788.154,3.545,3.545,0,0,0-1.56.96,4.853,4.853,0,0,0-1.028,1.641,3.172,3.172,0,0,0-.012,2.309A5.264,5.264,0,0,0,75.821,335a11.11,11.11,0,0,0,3.123,1.745,10.118,10.118,0,0,0,3.514.753,5.046,5.046,0,0,0,2.651-.62,3.467,3.467,0,0,0,1.509-1.784,4.889,4.889,0,0,0,.323-1.852,3.021,3.021,0,0,0-.511-1.7,3.326,3.326,0,0,0-.852-.923,14.439,14.439,0,0,0-1.636-.976l.156-.406q3.055,1.173,4.285,1.565l-.156.407A3.156,3.156,0,0,0,87.371,331.045Z" transform="translate(-73.462 -290.926)" fill="#f9f9e8"/>
    <path id="Path_8399" data-name="Path 8399" d="M89.047,307.649a5.413,5.413,0,0,1,3.167-.079,9.418,9.418,0,0,1,5.639,4.794,5.961,5.961,0,0,1,.529,3.251,5.612,5.612,0,0,1-1.336,2.96,6.026,6.026,0,0,1-2.666,1.892,5.413,5.413,0,0,1-3.167.078,9.418,9.418,0,0,1-5.639-4.794,5.96,5.96,0,0,1-.529-3.251,5.611,5.611,0,0,1,1.336-2.96A6.026,6.026,0,0,1,89.047,307.649ZM85.861,312a5.442,5.442,0,0,0,.884,2.616,11.083,11.083,0,0,0,2.329,2.623,10,10,0,0,0,3.014,1.818,5.44,5.44,0,0,0,2.748.337,3.2,3.2,0,0,0,2-1.1,3.06,3.06,0,0,0,.731-2.179,5.461,5.461,0,0,0-.887-2.612,11.044,11.044,0,0,0-2.328-2.623,9.979,9.979,0,0,0-3.014-1.818,5.466,5.466,0,0,0-2.746-.341,3.19,3.19,0,0,0-1.992,1.095A3.078,3.078,0,0,0,85.861,312Z" transform="translate(-75.575 -287.518)" fill="#f9f9e8"/>
    <path id="Path_8400" data-name="Path 8400" d="M108.386,306.113a2.834,2.834,0,0,0,2.76-.333,2.753,2.753,0,0,0,.88-.872,2.13,2.13,0,0,0,.32-1.194,2.689,2.689,0,0,0-.465-1.389,2.45,2.45,0,0,0-1-.919,4.093,4.093,0,0,0-1.385-.381,16.025,16.025,0,0,0-1.964-.054,17.919,17.919,0,0,1-2.184-.058,4.561,4.561,0,0,1-1.637-.484,3.388,3.388,0,0,1-1.31-1.251,3.241,3.241,0,0,1-.558-1.8,3,3,0,0,1,.506-1.63,4.282,4.282,0,0,1,1.314-1.262,4.5,4.5,0,0,1,.9-.454,2.991,2.991,0,0,1,.721-.17,6.513,6.513,0,0,1,.712-.017,1.412,1.412,0,0,0,.693-.118.294.294,0,0,0,.121-.312,2.3,2.3,0,0,0-.214-.616l.368-.233q.516.99,1.99,3.326l-.368.233a5.7,5.7,0,0,0-1.317-1.3,3.235,3.235,0,0,0-1.577-.588,2.67,2.67,0,0,0-1.69.457,2.538,2.538,0,0,0-.863.873,2.047,2.047,0,0,0-.282,1.1,2.2,2.2,0,0,0,.363,1.131,2.256,2.256,0,0,0,1.411,1.072,7.463,7.463,0,0,0,1.832.186l1.309-.02a21.864,21.864,0,0,1,2.294.091,4.461,4.461,0,0,1,1.623.489,3.335,3.335,0,0,1,1.256,1.208,3.506,3.506,0,0,1,.6,1.961,3.327,3.327,0,0,1-.577,1.8,4.865,4.865,0,0,1-4.081,2.225,1.408,1.408,0,0,0-.693.119.293.293,0,0,0-.121.312,2.3,2.3,0,0,0,.214.616l-.369.233q-.49-.918-2.366-3.888l.368-.233A6.173,6.173,0,0,0,108.386,306.113Z" transform="translate(-78.658 -284.808)" fill="#f9f9e8"/>
    <path id="Path_8401" data-name="Path 8401" d="M132.412,283.93a.711.711,0,0,0-.314.53,3.346,3.346,0,0,0,.124,1.037l2.147,9.17a3.346,3.346,0,0,0,.35.984.707.707,0,0,0,.516.337,3.355,3.355,0,0,0,1-.083l.087.37q-.879.149-2.359.5-1.588.371-2.352.608l-.087-.371a3.291,3.291,0,0,0,.932-.37.707.707,0,0,0,.309-.529,3.342,3.342,0,0,0-.123-1.037l-2.316-9.891-1.654,12.981-.3.07-7.466-10.9,2.284,9.756a3.5,3.5,0,0,0,.378,1.044.884.884,0,0,0,.595.408,3.1,3.1,0,0,0,1.122-.068l.087.37q-.671.1-1.9.387-1.1.259-1.7.456l-.087-.37a2.491,2.491,0,0,0,.909-.408.869.869,0,0,0,.307-.619,3.8,3.8,0,0,0-.134-1.1l-2.1-8.98a3.355,3.355,0,0,0-.35-.984.709.709,0,0,0-.516-.336,3.375,3.375,0,0,0-1,.083l-.087-.37q.616-.087,1.727-.347.975-.228,1.567-.424l6.572,9.771,1.474-11.6.875-.205q1.48-.347,2.335-.6l.087.37A3.4,3.4,0,0,0,132.412,283.93Z" transform="translate(-81.748 -283.09)" fill="#f9f9e8"/>
    <path id="Path_8402" data-name="Path 8402" d="M155.6,295.1q-.121,1.07-.143,2.429-1.274-.2-4.314-.542-3.62-.408-5.477-.56l.042-.378a3.348,3.348,0,0,0,1.006-.036.71.71,0,0,0,.474-.394,3.375,3.375,0,0,0,.231-1.019l1.054-9.359a3.37,3.37,0,0,0,0-1.044.713.713,0,0,0-.374-.49,3.362,3.362,0,0,0-.974-.259l.042-.377q1.845.263,5.465.672,2.773.312,3.949.389a21.588,21.588,0,0,0-.38,2.215,9.779,9.779,0,0,0-.077,1.176l-.433-.049a9.181,9.181,0,0,0-.14-1.863,1.52,1.52,0,0,0-.6-.949,3.2,3.2,0,0,0-1.457-.439l-1.566-.176a3.232,3.232,0,0,0-1,0,.68.68,0,0,0-.472.381,3.316,3.316,0,0,0-.23,1.015l-.5,4.449,1.253.141a1.32,1.32,0,0,0,1.326-.425,3.238,3.238,0,0,0,.517-1.113q.14-.581.187-.753l.433.049q-.169.924-.265,1.771l-.092.9q-.108.958-.191,2.692l-.433-.048q0-.131,0-.924a1.867,1.867,0,0,0-.378-1.242,1.67,1.67,0,0,0-1.143-.534l-1.253-.141-.511,4.532a3.3,3.3,0,0,0,0,1.04.682.682,0,0,0,.375.476,3.221,3.221,0,0,0,.978.221l1.382.156a4.07,4.07,0,0,0,1.827-.111,1.848,1.848,0,0,0,1-.9,8.4,8.4,0,0,0,.647-1.98l.433.05A13.256,13.256,0,0,0,155.6,295.1Z" transform="translate(-86.684 -283.068)" fill="#f9f9e8"/>
    <path id="Path_8403" data-name="Path 8403" d="M167.873,289.259a23.524,23.524,0,0,0,.845-2.282q1.421.683,4.887,2.2,3.44,1.5,4.906,2.083-.66,1.189-1.091,2.174-.382.875-.573,1.449l-.4-.174a11.537,11.537,0,0,0,.53-2.151,1.763,1.763,0,0,0-.314-1.271,3.606,3.606,0,0,0-1.47-1l-.943-.413-4.324,9.9a3.291,3.291,0,0,0-.327,1.117.863.863,0,0,0,.291.678,4.406,4.406,0,0,0,1.063.647l-.153.348q-.895-.452-2.534-1.168-1.741-.761-2.6-1.073l.152-.349a4.4,4.4,0,0,0,1.2.341.861.861,0,0,0,.7-.248,3.3,3.3,0,0,0,.6-1l4.325-9.9-.944-.412a3.606,3.606,0,0,0-1.733-.4,1.764,1.764,0,0,0-1.146.632,11.469,11.469,0,0,0-1.218,1.85l-.4-.175Q167.491,290.133,167.873,289.259Z" transform="translate(-90.346 -283.784)" fill="#f9f9e8"/>
    <path id="Path_8404" data-name="Path 8404" d="M190.134,300.2a.708.708,0,0,0-.609.09,3.345,3.345,0,0,0-.729.748l-5.781,7.435a3.316,3.316,0,0,0-.546.89.707.707,0,0,0,.063.613,3.347,3.347,0,0,0,.7.729l-.234.3q-.654-.578-1.868-1.523-1.288-1-1.952-1.447l.234-.3a3.337,3.337,0,0,0,.877.494.71.71,0,0,0,.61-.089,3.363,3.363,0,0,0,.729-.748l5.781-7.435a3.346,3.346,0,0,0,.547-.89.707.707,0,0,0-.064-.613,3.378,3.378,0,0,0-.7-.729l.233-.3q.588.528,1.883,1.535,1.214.945,1.937,1.436l-.234.3A3.369,3.369,0,0,0,190.134,300.2Z" transform="translate(-92.819 -285.696)" fill="#f9f9e8"/>
    <path id="Path_8405" data-name="Path 8405" d="M195.587,324.057a.344.344,0,0,0,.021-.407.8.8,0,0,0-.362-.214,10.08,10.08,0,0,1-1.153-.431,5.037,5.037,0,0,1-.993-.612,5.382,5.382,0,0,1-.967-1,6.027,6.027,0,0,1-1.275-3.01,5.415,5.415,0,0,1,.6-3.11,9.416,9.416,0,0,1,5.894-4.477,5.959,5.959,0,0,1,3.289.181,5.618,5.618,0,0,1,2.6,1.941,5.153,5.153,0,0,1,.916,1.733,6.679,6.679,0,0,1,.227,1.792.611.611,0,0,0,.093.4q.236.309,1.191-.3l.265.346q-1.024.69-3.513,2.594l-.265-.346q.593-.629.9-1.007a4.237,4.237,0,0,0,.471-.7,3.936,3.936,0,0,0,.282-.752,3.552,3.552,0,0,0,0-1.831,4.849,4.849,0,0,0-.859-1.735,3.172,3.172,0,0,0-1.961-1.22,5.265,5.265,0,0,0-2.72.272,11.1,11.1,0,0,0-3.123,1.746,10.131,10.131,0,0,0-2.483,2.6,5.045,5.045,0,0,0-.86,2.583,3.467,3.467,0,0,0,.729,2.22,4.922,4.922,0,0,0,1.408,1.246,3.027,3.027,0,0,0,1.712.453,3.341,3.341,0,0,0,1.233-.242,14.419,14.419,0,0,0,1.688-.883l.265.346q-2.6,1.988-3.578,2.829L195,324.7A3.185,3.185,0,0,0,195.587,324.057Z" transform="translate(-94.952 -288.118)" fill="#f9f9e8"/>
    <path id="Path_8406" data-name="Path 8406" d="M200.879,334.144a2.835,2.835,0,0,0-.245,2.769,2.768,2.768,0,0,0,.671,1.042,2.133,2.133,0,0,0,1.1.56,2.69,2.69,0,0,0,1.455-.167,2.455,2.455,0,0,0,1.106-.79,4.11,4.11,0,0,0,.659-1.277,16.047,16.047,0,0,0,.459-1.91,17.888,17.888,0,0,1,.509-2.126,4.551,4.551,0,0,1,.813-1.5,3.391,3.391,0,0,1,1.495-1.023,3.245,3.245,0,0,1,1.872-.174,3,3,0,0,1,1.489.832,4.29,4.29,0,0,1,.963,1.546,4.548,4.548,0,0,1,.257.977,3.024,3.024,0,0,1,.017.74,6.45,6.45,0,0,1-.132.7,1.406,1.406,0,0,0-.026.7.291.291,0,0,0,.28.183,2.32,2.32,0,0,0,.646-.082l.152.408q-1.076.3-3.666,1.258l-.151-.408a5.7,5.7,0,0,0,1.54-1.02,3.237,3.237,0,0,0,.9-1.421,2.671,2.671,0,0,0-.1-1.747,2.526,2.526,0,0,0-.676-1.025,2.046,2.046,0,0,0-1.016-.5,2.213,2.213,0,0,0-1.181.121,2.263,2.263,0,0,0-1.341,1.158,7.431,7.431,0,0,0-.561,1.755c-.124.635-.208,1.064-.252,1.283a21.857,21.857,0,0,1-.564,2.226,4.463,4.463,0,0,1-.814,1.487,3.342,3.342,0,0,1-1.441.979,3.5,3.5,0,0,1-2.043.182,3.329,3.329,0,0,1-1.647-.937,4.867,4.867,0,0,1-1.332-4.454,1.412,1.412,0,0,0,.027-.7.292.292,0,0,0-.28-.182,2.284,2.284,0,0,0-.647.081l-.151-.408q1-.29,4.294-1.51l.151.409A6.179,6.179,0,0,0,200.879,334.144Z" transform="translate(-96.455 -291.566)" fill="#f9f9e8"/>
  </g>
  <g id="Group_3351" data-name="Group 3351" transform="translate(1.751 74.589)">
    <path id="Path_8407" data-name="Path 8407" d="M81.316,376.9l-.895.285a2.014,2.014,0,0,1,1.576,1.5,2.209,2.209,0,0,1-.109,1.718,2.415,2.415,0,0,1-1.528,1.163L77.1,382.608l-.222-.693,3.134-1a2.054,2.054,0,0,0,1.237-.877,1.837,1.837,0,0,0-.764-2.39,2.052,2.052,0,0,0-1.516,0l-3.134,1-.225-.7,5.485-1.752Z" transform="translate(-75.606 -374.709)" fill="#f9f9e8"/>
    <path id="Path_8408" data-name="Path 8408" d="M82.333,392.264a3.08,3.08,0,0,1,1.476-1.786,2.925,2.925,0,0,1,2.235-.4,2.671,2.671,0,0,1,1.708,1.314,2.478,2.478,0,0,1,.368,1.375,2.35,2.35,0,0,1-.4,1.251l1.082-.636.374.636-4.963,2.919-.374-.636,1.091-.641a2.383,2.383,0,0,1-1.293-.255,2.45,2.45,0,0,1-1.027-.987A2.6,2.6,0,0,1,82.333,392.264Zm2.2,2.9a2.627,2.627,0,0,0,2.937-1.726,2.028,2.028,0,0,0-.208-1.634,2.052,2.052,0,0,0-1.3-.984,2.269,2.269,0,0,0-1.765.316,2.426,2.426,0,0,0-1.173,1.417,1.994,1.994,0,0,0,.187,1.639A2.023,2.023,0,0,0,84.532,395.162Z" transform="translate(-76.816 -377.237)" fill="#f9f9e8"/>
    <path id="Path_8409" data-name="Path 8409" d="M96.1,403.472l-1.056-1.191-2.857,2.532a.863.863,0,0,0-.341.529.821.821,0,0,0,.269.565l.546.616-.434.384-.651-.734a1.2,1.2,0,0,1,.123-1.912l2.856-2.533-.531-.6.434-.385.532.6,1.081-.958.49.552-1.082.959,1.057,1.191Z" transform="translate(-78.453 -379.138)" fill="#f9f9e8"/>
    <path id="Path_8410" data-name="Path 8410" d="M105.721,411.323l.584.45-3.517,4.559-.585-.45.573-.743a2.014,2.014,0,0,1-2.149-.34,2.2,2.2,0,0,1-.886-1.475,2.414,2.414,0,0,1,.595-1.825l2.094-2.714.576.444L101,411.834a2.05,2.05,0,0,0-.519,1.424,1.835,1.835,0,0,0,1.987,1.533,2.055,2.055,0,0,0,1.246-.863Z" transform="translate(-80.022 -380.676)" fill="#f9f9e8"/>
    <path id="Path_8411" data-name="Path 8411" d="M114.8,416.961l-.426.848a1.773,1.773,0,0,1,2.066-.141l-.346.688-.188-.095a1.564,1.564,0,0,0-1.226-.157,1.98,1.98,0,0,0-1,1.079l-1.47,2.92-.659-.332,2.589-5.143Z" transform="translate(-82.188 -382.113)" fill="#f9f9e8"/>
    <path id="Path_8412" data-name="Path 8412" d="M123.352,425.939a3.079,3.079,0,0,1-.185-2.309,2.922,2.922,0,0,1,1.323-1.845,2.668,2.668,0,0,1,2.141-.247,2.474,2.474,0,0,1,1.22.73,2.342,2.342,0,0,1,.584,1.178l.332-1.21.712.2-1.529,5.552-.712-.2.336-1.22a2.379,2.379,0,0,1-1.106.718,2.454,2.454,0,0,1-1.424.007A2.6,2.6,0,0,1,123.352,425.939Zm3.6.548a2.625,2.625,0,0,0,.905-3.285,2.115,2.115,0,0,0-2.907-.828,2.275,2.275,0,0,0-1.046,1.457,2.425,2.425,0,0,0,.146,1.834,1.993,1.993,0,0,0,1.276,1.046A2.026,2.026,0,0,0,126.948,426.487Z" transform="translate(-84.289 -382.99)" fill="#f9f9e8"/>
    <path id="Path_8413" data-name="Path 8413" d="M138.353,429.106l.664-7.776.736.063-.665,7.776Z" transform="translate(-87.095 -382.973)" fill="#f9f9e8"/>
    <path id="Path_8414" data-name="Path 8414" d="M160.728,421.563a2.673,2.673,0,0,1,2.137.284,2.925,2.925,0,0,1,1.29,1.868,3.078,3.078,0,0,1-.225,2.306,2.6,2.6,0,0,1-1.718,1.323,2.447,2.447,0,0,1-1.424-.032,2.374,2.374,0,0,1-1.093-.738l.314,1.226-.715.184-1.94-7.56.715-.183.821,3.2a2.346,2.346,0,0,1,.6-1.168A2.476,2.476,0,0,1,160.728,421.563Zm1.215,5.2a2,2,0,0,0,1.3-1.024,2.433,2.433,0,0,0,.177-1.831,2.275,2.275,0,0,0-1.02-1.474,2.062,2.062,0,0,0-1.621-.226,2.015,2.015,0,0,0-1.3,1,2.641,2.641,0,0,0,.846,3.3A2.011,2.011,0,0,0,161.943,426.76Z" transform="translate(-90.575 -382.774)" fill="#f9f9e8"/>
    <path id="Path_8415" data-name="Path 8415" d="M176.85,422.123a2.619,2.619,0,0,1-2.158.181,3.043,3.043,0,0,1-1.673-1.578,2.988,2.988,0,0,1-.286-2.282,2.694,2.694,0,0,1,1.439-1.655,2.583,2.583,0,0,1,3.647,1.141,3.639,3.639,0,0,1,.222.526l-4.224,2.163a2.275,2.275,0,0,0,1.247,1.115,1.9,1.9,0,0,0,1.518-.137,2.03,2.03,0,0,0,.869-.789,1.584,1.584,0,0,0,.212-1.009l.7-.36a2.714,2.714,0,0,1-.271,1.507A2.68,2.68,0,0,1,176.85,422.123Zm.288-3.857a2.024,2.024,0,0,0-1.2-1.085,2.08,2.08,0,0,0-2.53,1.284,2.217,2.217,0,0,0,.146,1.637Z" transform="translate(-93.369 -382.077)" fill="#f9f9e8"/>
    <path id="Path_8416" data-name="Path 8416" d="M187.588,414.067a3.076,3.076,0,0,1-2-1.169,2.925,2.925,0,0,1-.758-2.14,2.669,2.669,0,0,1,1.021-1.9,2.476,2.476,0,0,1,1.3-.585,2.342,2.342,0,0,1,1.3.194l-.8-.965.568-.472,3.681,4.428-.568.472-.809-.973a2.386,2.386,0,0,1-.042,1.318,2.457,2.457,0,0,1-.808,1.172A2.6,2.6,0,0,1,187.588,414.067Zm2.5-2.638a2.626,2.626,0,0,0-2.178-2.619,2.027,2.027,0,0,0-1.579.469,2.055,2.055,0,0,0-.761,1.443,2.272,2.272,0,0,0,.6,1.691,2.429,2.429,0,0,0,1.588.929,1.993,1.993,0,0,0,1.588-.449A2.026,2.026,0,0,0,190.092,411.43Z" transform="translate(-95.604 -380.356)" fill="#f9f9e8"/>
    <path id="Path_8417" data-name="Path 8417" d="M197.049,397.095l.451-.585,4.557,3.52-.452.584-.743-.573a2.012,2.012,0,0,1-.341,2.148,2.2,2.2,0,0,1-1.476.885,2.413,2.413,0,0,1-1.825-.6l-2.713-2.1.445-.576,2.6,2.011a2.053,2.053,0,0,0,1.424.52,1.837,1.837,0,0,0,1.534-1.987,2.054,2.054,0,0,0-.863-1.246Z" transform="translate(-97.378 -378.429)" fill="#f9f9e8"/>
    <path id="Path_8418" data-name="Path 8418" d="M203.768,387.029l-.719,1.421,3.406,1.723a.862.862,0,0,0,.618.122.819.819,0,0,0,.426-.457l.372-.734.517.262-.443.875a1.2,1.2,0,0,1-1.823.591l-3.406-1.723-.362.716-.517-.262.361-.716-1.289-.652.333-.658,1.289.652.719-1.421Z" transform="translate(-98.55 -376.645)" fill="#f9f9e8"/>
    <path id="Path_8419" data-name="Path 8419" d="M212.417,378.894l-6.088.6.222-.759,5.23-.448-4.163-3.2.21-.719,7.137,5.649-.21.719Z" transform="translate(-99.542 -374.376)" fill="#f9f9e8"/>
  </g>
  <path id="Path_8420" data-name="Path 8420" d="M168.5,350.752a1.953,1.953,0,0,0-1.127-1.556c-1.854-.85-4.556-2.162-6.326-3.03.922-1.742,2.336-4.393,3.337-6.17a1.952,1.952,0,0,0-1.65-2.91l-9.616-.25c-.869-.023-1.782-.046-2.714-.029-.272-.893-.576-1.752-.866-2.572h0l-3.21-9.068a1.953,1.953,0,0,0-3.277-.671c-1.381,1.5-3.464,3.665-4.837,5.08-1.372-1.415-3.456-3.579-4.837-5.08a1.953,1.953,0,0,0-3.277.671l-3.21,9.068c-.29.82-.594,1.68-.866,2.572-.932-.017-1.845.006-2.713.029h0l-9.616.25a1.953,1.953,0,0,0-1.65,2.91c1,1.777,2.415,4.428,3.337,6.17-1.77.867-4.472,2.18-6.326,3.03a1.952,1.952,0,0,0-.375,3.324l7.632,5.856c.69.529,1.414,1.084,2.179,1.618-.306.881-.564,1.755-.812,2.589l-2.733,9.224a1.952,1.952,0,0,0,2.257,2.469c2-.4,4.957-.929,6.9-1.267.279,1.952.693,4.928.927,6.953a1.953,1.953,0,0,0,3.045,1.384l7.927-5.45c.716-.493,1.468-1.01,2.212-1.573.744.563,1.5,1.08,2.212,1.573l7.927,5.45a1.953,1.953,0,0,0,3.045-1.384c.234-2.025.649-5,.927-6.953,1.942.338,4.9.865,6.9,1.267a1.953,1.953,0,0,0,2.258-2.469l-2.734-9.224c-.247-.833-.506-1.707-.811-2.589.765-.534,1.488-1.09,2.179-1.618l7.632-5.856A1.95,1.95,0,0,0,168.5,350.752ZM130.57,335.538l2.141-6.048c1.965,2.061,3.989,4.131,4.107,4.251a1.951,1.951,0,0,0,2.791,0c.118-.12,2.143-2.19,4.107-4.251l2.14,6.048h0c.2.562.4,1.129.587,1.7-.3.069-.6.146-.9.236a13.141,13.141,0,0,0-7.327,5.954,13.139,13.139,0,0,0-7.326-5.954c-.3-.09-.6-.167-.9-.236C130.17,336.667,130.371,336.1,130.57,335.538Zm16.8,6.184a10,10,0,0,1-5.173,8.492,14.876,14.876,0,0,0-1.813.383,14.774,14.774,0,0,0-.2-1.842,10,10,0,0,1,6.477-7.543c.217-.065.439-.12.663-.171C147.349,341.268,147.364,341.5,147.368,341.722Zm-8.721,26.841c-.136.181-.283.355-.435.526-.151-.172-.3-.346-.435-.525a10.006,10.006,0,0,1-.807-9.91,14.835,14.835,0,0,0,1.242-1.377,14.737,14.737,0,0,0,1.242,1.378A10.005,10.005,0,0,1,138.647,368.562ZM129.1,341.04c.224.051.445.105.663.171a10,10,0,0,1,6.477,7.543,14.777,14.777,0,0,0-.2,1.842,14.89,14.89,0,0,0-1.814-.383,10.006,10.006,0,0,1-5.172-8.492C129.062,341.5,129.077,341.268,129.1,341.04Zm3.91,12.93a14.95,14.95,0,0,0,1.693.756,14.607,14.607,0,0,0-.926,1.607,10,10,0,0,1-9.674,2.294c-.213-.074-.425-.159-.636-.249.118-.2.238-.392.367-.578A10,10,0,0,1,133.008,353.97Zm8.717.756a14.785,14.785,0,0,0,1.691-.756,10,10,0,0,1,9.176,3.83c.129.185.25.38.367.577-.21.091-.422.176-.636.25a10.006,10.006,0,0,1-9.674-2.295A14.724,14.724,0,0,0,141.725,354.726Zm-23.038.551-5.091-3.9c2.567-1.232,5.162-2.517,5.313-2.592a1.953,1.953,0,0,0,.863-2.654c-.078-.15-1.421-2.715-2.775-5.22l6.414-.167h0c.6-.016,1.2-.03,1.8-.033q-.043.463-.055.931a13.14,13.14,0,0,0,3.4,8.808,13.136,13.136,0,0,0-7.926,5.128c-.179.257-.346.519-.5.785C119.638,356.005,119.16,355.639,118.687,355.276Zm9.814,21.036c-.378-2.823-.8-5.687-.823-5.855a1.952,1.952,0,0,0-1.931-1.667,1.917,1.917,0,0,0-.327.028c-.167.028-3.021.513-5.821,1.025l1.823-6.151c.169-.572.341-1.148.524-1.718.284.122.573.236.868.339a11.879,11.879,0,0,0,3.919.649,14.138,14.138,0,0,0,5.508-1.158,13.136,13.136,0,0,0,2.428,9.121c.189.249.388.488.591.72-.486.35-.981.693-1.473,1.03Zm26.5-12.62,1.822,6.151c-2.8-.512-5.655-1-5.821-1.025a1.952,1.952,0,0,0-2.258,1.64c-.025.167-.445,3.031-.823,5.855l-5.287-3.636h0c-.492-.337-.987-.68-1.473-1.03.2-.233.4-.471.591-.72a13.135,13.135,0,0,0,2.428-9.121,14.139,14.139,0,0,0,5.508,1.158,11.875,11.875,0,0,0,3.919-.649c.295-.1.584-.217.868-.339C154.662,362.544,154.834,363.12,155,363.692Zm2.734-8.416h0c-.473.363-.951.729-1.434,1.082-.158-.266-.325-.529-.5-.785a13.141,13.141,0,0,0-7.927-5.128,13.14,13.14,0,0,0,3.4-8.808c-.007-.313-.026-.622-.055-.931.6,0,1.2.017,1.8.033l6.414.167c-1.354,2.505-2.7,5.07-2.775,5.22a1.953,1.953,0,0,0,.863,2.654c.151.075,2.746,1.36,5.313,2.592Z" transform="translate(-79.771 -290.538)" fill="#f9f9e8"/>
</svg>
