<svg xmlns="http://www.w3.org/2000/svg" width="130.508" height="138.056" viewBox="0 0 130.508 138.056">
  <g id="Group_3399" data-name="Group 3399" transform="translate(0 0)">
    <g id="Group_3383" data-name="Group 3383" transform="translate(12.923 44.831)">
      <g id="Group_3369" data-name="Group 3369" transform="translate(0 10.583)">
        <path id="Path_8459" data-name="Path 8459" d="M1183.831,340.773a5.723,5.723,0,0,0-3.227-.365,6.977,6.977,0,0,0-3.229,1.273,6.725,6.725,0,0,0-2.126,2.623,8.6,8.6,0,0,0-.756,3.654,7.406,7.406,0,0,0,.734,3.463,4.375,4.375,0,0,0,2.117,2.046,5.769,5.769,0,0,0,3.233.364,6.974,6.974,0,0,0,3.231-1.274,6.547,6.547,0,0,0,2.108-2.639,8.877,8.877,0,0,0,.739-3.67,7.41,7.41,0,0,0-.725-3.446A4.369,4.369,0,0,0,1183.831,340.773Zm-1.107,9.079a2.978,2.978,0,0,1-2.141,1.35,2.177,2.177,0,0,1-2.127-.74,4.627,4.627,0,0,1-.761-2.955,5.581,5.581,0,0,1,.772-3.141,2.964,2.964,0,0,1,2.131-1.33,2.2,2.2,0,0,1,2.137.738,4.513,4.513,0,0,1,.769,2.916A5.627,5.627,0,0,1,1182.724,349.852Z" transform="translate(-1174.493 -340.331)" fill="#f9f9e8"/>
      </g>
      <g id="Group_3370" data-name="Group 3370" transform="translate(14.877 8.716)">
        <path id="Path_8460" data-name="Path 8460" d="M1201.18,345.838a1.561,1.561,0,0,0-.919-.386,4.311,4.311,0,0,0,1.852-1.63,4.429,4.429,0,0,0,.658-2.38,3.282,3.282,0,0,0-1.1-2.76,4.3,4.3,0,0,0-3.3-.556l-5.638.792-.025,13.092,3.152-.444.01-5.094,1.157-.163c.672-.095,1.1.093,1.278.558l1.558,4.137,3.391-.476-1.423-3.7A2.327,2.327,0,0,0,1201.18,345.838Zm-1.852-2.764a2.829,2.829,0,0,1-1.482.549l-2.01.283.006-2.813,2.01-.283a2.4,2.4,0,0,1,1.49.122,1.085,1.085,0,0,1,.448,1.019A1.418,1.418,0,0,1,1199.328,343.075Z" transform="translate(-1192.705 -338.046)" fill="#f9f9e8"/>
      </g>
      <g id="Group_3371" data-name="Group 3371" transform="translate(27.495 6.675)">
        <path id="Path_8461" data-name="Path 8461" d="M1214.247,343.868l2.112-.3,0,2.428a7.738,7.738,0,0,1-1.6.408,2.74,2.74,0,0,1-2.544-.652,4.355,4.355,0,0,1-.821-2.992,5.267,5.267,0,0,1,.8-3.117,3.4,3.4,0,0,1,2.412-1.323,4.868,4.868,0,0,1,1.661.034,5.6,5.6,0,0,1,1.609.628l1.01-2.588a4.484,4.484,0,0,0-1.9-.743,7.95,7.95,0,0,0-2.478-.02,7.449,7.449,0,0,0-3.341,1.288,6.837,6.837,0,0,0-2.219,2.648,8.3,8.3,0,0,0-.791,3.647,7.064,7.064,0,0,0,.778,3.485,4.449,4.449,0,0,0,2.235,2.013,6.523,6.523,0,0,0,3.432.326,12.583,12.583,0,0,0,2.461-.6,10.869,10.869,0,0,0,2.175-1.041l.011-6.565-4.991.7Z" transform="translate(-1208.151 -335.547)" fill="#f9f9e8"/>
      </g>
      <g id="Group_3372" data-name="Group 3372" transform="translate(39.97 4.911)">
        <path id="Path_8462" data-name="Path 8462" d="M1229.119,333.742l-5.7,13.89,3.2-.45,1.078-2.853,5.383-.756,1.069,2.551,3.151-.443-5.666-12.293Zm-.372,7.847,1.659-4.37,1.646,3.9Z" transform="translate(-1223.422 -333.388)" fill="#f9f9e8"/>
      </g>
      <g id="Group_3373" data-name="Group 3373" transform="translate(55.405 2.369)">
        <path id="Path_8463" data-name="Path 8463" d="M1245.311,337.046l5.488,6.655,2.368-.333.024-13.092-3.014.424-.014,7.392-5.49-6.619-2.333.328-.024,13.092,2.981-.419Z" transform="translate(-1242.317 -330.276)" fill="#f9f9e8"/>
      </g>
      <g id="Group_3374" data-name="Group 3374" transform="translate(69.306 1.49)">
        <path id="Path_8464" data-name="Path 8464" d="M1262.561,329.2l-3.2.45-.024,13.092,3.2-.45Z" transform="translate(-1259.334 -329.2)" fill="#f9f9e8"/>
      </g>
      <g id="Group_3375" data-name="Group 3375" transform="translate(75.229)">
        <path id="Path_8465" data-name="Path 8465" d="M1276.9,338.857l-.968-2.309a5.738,5.738,0,0,1-3.068,1.59,2.341,2.341,0,0,1-2.246-.7,4.338,4.338,0,0,1-.778-2.888,5.267,5.267,0,0,1,.789-3.078,3.16,3.16,0,0,1,2.25-1.319,4.4,4.4,0,0,1,3.064.728l.977-2.581a4.026,4.026,0,0,0-1.8-.8,6.8,6.8,0,0,0-2.308-.06,7.125,7.125,0,0,0-3.3,1.3,6.831,6.831,0,0,0-2.169,2.657,8.453,8.453,0,0,0-.765,3.609,7.193,7.193,0,0,0,.752,3.425,4.531,4.531,0,0,0,2.16,2.059,5.87,5.87,0,0,0,3.294.373,7.752,7.752,0,0,0,2.31-.711A5.789,5.789,0,0,0,1276.9,338.857Z" transform="translate(-1266.584 -327.376)" fill="#f9f9e8"/>
      </g>
      <g id="Group_3376" data-name="Group 3376" transform="translate(14.877 26.872)">
        <path id="Path_8466" data-name="Path 8466" d="M1201.723,360.964a4.071,4.071,0,0,0-3.218-.622l-5.776.812-.025,13.092,3.2-.45.009-5.111,2.572-.361a5.211,5.211,0,0,0,3.2-1.535,4.357,4.357,0,0,0,1.164-3.068A3.322,3.322,0,0,0,1201.723,360.964Zm-3.652,4.844-2.147.3,0-2.8,2.147-.3a1.953,1.953,0,0,1,1.369.168,1.115,1.115,0,0,1,.433.994Q1199.875,365.554,1198.07,365.808Z" transform="translate(-1192.705 -360.272)" fill="#f9f9e8"/>
      </g>
      <g id="Group_3377" data-name="Group 3377" transform="translate(27.399 25.121)">
        <path id="Path_8467" data-name="Path 8467" d="M1216.508,365.92a1.561,1.561,0,0,0-.919-.386,4.31,4.31,0,0,0,1.853-1.63,4.432,4.432,0,0,0,.66-2.381,3.275,3.275,0,0,0-1.1-2.758,4.287,4.287,0,0,0-3.3-.556l-5.637.792-.024,13.092,3.151-.443.01-5.095,1.158-.163c.67-.094,1.094.091,1.276.555l1.559,4.139,3.389-.476-1.424-3.7A2.307,2.307,0,0,0,1216.508,365.92Zm-1.849-2.764a2.857,2.857,0,0,1-1.484.547l-2.01.283.005-2.813,2.011-.283a2.408,2.408,0,0,1,1.489.122,1.085,1.085,0,0,1,.45,1.021A1.417,1.417,0,0,1,1214.659,363.157Z" transform="translate(-1208.034 -358.127)" fill="#f9f9e8"/>
      </g>
      <g id="Group_3378" data-name="Group 3378" transform="translate(40.016 23.124)">
        <path id="Path_8468" data-name="Path 8468" d="M1232.818,356.125a5.719,5.719,0,0,0-3.226-.365,6.973,6.973,0,0,0-3.231,1.273,6.7,6.7,0,0,0-2.124,2.623,8.589,8.589,0,0,0-.758,3.654,7.434,7.434,0,0,0,.735,3.463,4.379,4.379,0,0,0,2.116,2.046,5.761,5.761,0,0,0,3.236.364,6.975,6.975,0,0,0,3.229-1.272,6.555,6.555,0,0,0,2.108-2.64,8.852,8.852,0,0,0,.74-3.67,7.378,7.378,0,0,0-.727-3.446A4.352,4.352,0,0,0,1232.818,356.125Zm-1.105,9.079a2.978,2.978,0,0,1-2.141,1.349,2.174,2.174,0,0,1-2.127-.739,4.617,4.617,0,0,1-.761-2.955,5.561,5.561,0,0,1,.772-3.141,2.961,2.961,0,0,1,2.131-1.33,2.2,2.2,0,0,1,2.137.738,4.512,4.512,0,0,1,.769,2.915A5.63,5.63,0,0,1,1231.712,365.2Z" transform="translate(-1223.479 -355.683)" fill="#f9f9e8"/>
      </g>
      <g id="Group_3379" data-name="Group 3379" transform="translate(54.895 21.341)">
        <path id="Path_8469" data-name="Path 8469" d="M1250.14,353.887a6.771,6.771,0,0,0-3.464-.294l-4.959.7-.024,13.092,4.958-.7a8.154,8.154,0,0,0,3.485-1.271,6.457,6.457,0,0,0,2.227-2.575,8.266,8.266,0,0,0,.773-3.629,6.76,6.76,0,0,0-.768-3.385A4.334,4.334,0,0,0,1250.14,353.887Zm-1.056,8.751a3.993,3.993,0,0,1-2.651,1.319l-1.533.216.014-7.575,1.533-.216q3.528-.5,3.519,3.273A4.578,4.578,0,0,1,1249.083,362.639Z" transform="translate(-1241.692 -353.5)" fill="#f9f9e8"/>
      </g>
      <g id="Group_3380" data-name="Group 3380" transform="translate(69.01 18.635)">
        <path id="Path_8470" data-name="Path 8470" d="M1266.587,358.335a3.9,3.9,0,0,1-.584,2.242,2.3,2.3,0,0,1-1.653,1,1.754,1.754,0,0,1-1.677-.518,3.106,3.106,0,0,1-.583-2.088l.015-7.7-3.119.438-.015,7.575a5.262,5.262,0,0,0,1.355,4.048,4.718,4.718,0,0,0,4.018.878,6.1,6.1,0,0,0,4-2.023,6.667,6.667,0,0,0,1.4-4.416l.014-7.574-3.152.443Z" transform="translate(-1258.971 -350.188)" fill="#f9f9e8"/>
      </g>
      <g id="Group_3381" data-name="Group 3381" transform="translate(82.401 17.156)">
        <path id="Path_8471" data-name="Path 8471" d="M1281.658,351.16a4.393,4.393,0,0,1,3.064.727l.977-2.581a4.017,4.017,0,0,0-1.8-.8,6.754,6.754,0,0,0-2.309-.061,7.156,7.156,0,0,0-3.3,1.3,6.85,6.85,0,0,0-2.169,2.659,8.473,8.473,0,0,0-.765,3.609,7.178,7.178,0,0,0,.752,3.423,4.509,4.509,0,0,0,2.16,2.059,5.843,5.843,0,0,0,3.294.375,7.705,7.705,0,0,0,2.31-.712,5.745,5.745,0,0,0,1.8-1.3l-.968-2.308a5.745,5.745,0,0,1-3.068,1.59,2.342,2.342,0,0,1-2.246-.7,4.339,4.339,0,0,1-.779-2.888,5.283,5.283,0,0,1,.789-3.081A3.167,3.167,0,0,1,1281.658,351.16Z" transform="translate(-1275.364 -348.378)" fill="#f9f9e8"/>
      </g>
      <g id="Group_3382" data-name="Group 3382" transform="translate(94.199 15.14)">
        <path id="Path_8472" data-name="Path 8472" d="M1289.811,347.379l-.005,2.794,3.612-.508-.019,10.3,3.235-.455.019-10.3,3.612-.508.005-2.794Z" transform="translate(-1289.806 -345.909)" fill="#f9f9e8"/>
      </g>
    </g>
    <g id="Group_3390" data-name="Group 3390" transform="translate(42.095 108.997)">
      <g id="Group_3386" data-name="Group 3386" transform="translate(22.931 1.824)">
        <g id="Group_3385" data-name="Group 3385">
          <g id="Group_3384" data-name="Group 3384">
            <path id="Path_8473" data-name="Path 8473" d="M1239.5,419.879a18.976,18.976,0,0,1,9.354-8.925,33.816,33.816,0,0,1,12.811-2.8c-.282,5.339-.623,10.889-3.211,15.568-2.25,4.066-10.165,10.95-15.267,10.584-.158-.011-.309-.031-.457-.055a36.606,36.606,0,0,1,8.786-12.595,1.313,1.313,0,1,0-1.789-1.923,39.235,39.235,0,0,0-9.353,13.35C1237.38,430.194,1238.066,422.989,1239.5,419.879Z" transform="translate(-1238.275 -408.157)" fill="#f9f9e8"/>
          </g>
        </g>
      </g>
      <g id="Group_3389" data-name="Group 3389">
        <g id="Group_3388" data-name="Group 3388">
          <g id="Group_3387" data-name="Group 3387">
            <path id="Path_8474" data-name="Path 8474" d="M1225.494,414.58c3.186,3.549,7.327,13.307,5.421,17.831a4.121,4.121,0,0,1-.859,1.309,37.059,37.059,0,0,1-10.227-15.782,1.313,1.313,0,0,0-2.5.813A39.713,39.713,0,0,0,1227.5,434.92c-3.769.524-9.219-2.282-11.449-4.446a20.052,20.052,0,0,1-5.645-11.822,31.971,31.971,0,0,1,1.243-12.727C1216.649,408.144,1221.829,410.5,1225.494,414.58Z" transform="translate(-1210.204 -405.924)" fill="#f9f9e8"/>
          </g>
        </g>
      </g>
    </g>
    <g id="Group_3392" data-name="Group 3392" transform="translate(0 0)">
      <g id="Group_3391" data-name="Group 3391">
        <path id="Path_8475" data-name="Path 8475" d="M1260.206,391.479a2.423,2.423,0,0,1-1.4-4.4,60.332,60.332,0,0,0,25.533-49.329,60.409,60.409,0,1,0-113.846,28.2,60.95,60.95,0,0,0,18.561,21.131,2.422,2.422,0,1,1-2.8,3.954,65.176,65.176,0,0,1-27.578-53.283,65.254,65.254,0,1,1,122.975,30.463,65.816,65.816,0,0,1-20.044,22.82A2.412,2.412,0,0,1,1260.206,391.479Z" transform="translate(-1158.674 -272.496)" fill="#f9f9e8"/>
      </g>
    </g>
    <g id="Group_3395" data-name="Group 3395" transform="translate(27.8 31.692)">
      <g id="Group_3394" data-name="Group 3394">
        <g id="Group_3393" data-name="Group 3393">
          <path id="Path_8476" data-name="Path 8476" d="M1262.618,311.3a.95.95,0,0,1,1.077,1.01,1.341,1.341,0,0,1-1.082,1.317l-68.832,9.674a.952.952,0,0,1-1.077-1.013,1.337,1.337,0,0,1,1.082-1.314Z" transform="translate(-1192.705 -311.292)" fill="#f9f9e8"/>
        </g>
      </g>
    </g>
    <g id="Group_3398" data-name="Group 3398" transform="translate(27.8 85.048)">
      <g id="Group_3397" data-name="Group 3397">
        <g id="Group_3396" data-name="Group 3396">
          <path id="Path_8477" data-name="Path 8477" d="M1262.618,376.618a.951.951,0,0,1,1.077,1.011,1.34,1.34,0,0,1-1.082,1.316l-68.832,9.674a.952.952,0,0,1-1.077-1.013,1.338,1.338,0,0,1,1.082-1.314Z" transform="translate(-1192.705 -376.608)" fill="#f9f9e8"/>
        </g>
      </g>
    </g>
  </g>
</svg>
