<svg id="Group_3568" data-name="Group 3568" xmlns="http://www.w3.org/2000/svg" width="121.628" height="108.962" viewBox="0 0 121.628 108.962">
  <g id="Group_3565" data-name="Group 3565" transform="translate(0 0)">
    <path id="Path_8604" data-name="Path 8604" d="M346.95,570.244a1.692,1.692,0,0,1-1.662-1.39c-1.9-10.494-.577-20.334,3.829-28.457a37.6,37.6,0,0,1,28.131-19.355c10.209-1.321,19.638,3.259,28.055,13.617,8.416-10.357,17.846-14.939,28.055-13.617A37.6,37.6,0,0,1,461.49,540.4a39.418,39.418,0,0,1,4.579,16.536,1.691,1.691,0,0,1-3.375.205,36.061,36.061,0,0,0-4.176-15.129A34.213,34.213,0,0,0,432.924,524.4c-9.6-1.24-18.193,3.346-26.273,14.024a1.691,1.691,0,0,1-2.7,0c-8.08-10.678-16.677-15.265-26.273-14.024a34.21,34.21,0,0,0-25.592,17.613c-4.035,7.44-5.236,16.514-3.474,26.243a1.69,1.69,0,0,1-1.362,1.965A1.673,1.673,0,0,1,346.95,570.244Z" transform="translate(-344.444 -520.82)" fill="#f9f9e8"/>
  </g>
  <g id="Group_3566" data-name="Group 3566" transform="translate(4.806 24.697)">
    <path id="Path_8605" data-name="Path 8605" d="M387.457,564.226a3.354,3.354,0,0,1,3.758,1.939l6.013-.818a8.461,8.461,0,0,0-3.712-4.968,9.183,9.183,0,0,0-6.172-1.135,11.752,11.752,0,0,0-7.5,4.249,13.01,13.01,0,0,0-3.128,8.615,9.953,9.953,0,0,0,3.031,7.781,8.845,8.845,0,0,0,7.575,2.2,10.191,10.191,0,0,0,3.732-1.3,11.4,11.4,0,0,0,3-2.475,13.132,13.132,0,0,0,3.127-6.12l.025-4.137-11.26,1.528-.025,4.139,5.838-.793a5.676,5.676,0,0,1-1.533,2.8,5.035,5.035,0,0,1-2.941,1.369,4.364,4.364,0,0,1-3.982-1.209,6.174,6.174,0,0,1-1.462-4.477,7.858,7.858,0,0,1,1.518-4.881A5.965,5.965,0,0,1,387.457,564.226Z" transform="translate(-355.159 -552.534)" fill="#f9f9e8"/>
    <path id="Path_8606" data-name="Path 8606" d="M412.662,556.39l-5.04.683-.134,22.349,5.042-.684Z" transform="translate(-360.793 -552.031)" fill="#f9f9e8"/>
    <path id="Path_8607" data-name="Path 8607" d="M435.628,563.778a8.217,8.217,0,0,0,1.113-3.937,5.706,5.706,0,0,0-1.976-4.566q-1.994-1.734-5.59-1.247l-8.165,1.109-.134,22.349,5.042-.683.051-8.693.591-.078,4.606,8.059,5.9-.8-5.016-8.416A7.286,7.286,0,0,0,435.628,563.778Zm-4.691-1.21a2.726,2.726,0,0,1-1.818.98l-3.125.425.031-5.381,3.125-.424a2.008,2.008,0,0,1,1.794.52,2.487,2.487,0,0,1,.666,1.864A3.119,3.119,0,0,1,430.938,562.568Z" transform="translate(-363.245 -551.578)" fill="#f9f9e8"/>
    <path id="Path_8608" data-name="Path 8608" d="M451.962,551.053l-5.04.685-.134,22.349,11.32-1.537.025-4.139-6.278.853Z" transform="translate(-367.989 -551.053)" fill="#f9f9e8"/>
    <path id="Path_8609" data-name="Path 8609" d="M364.214,598.2q-1.992-1.734-5.588-1.244l-8.167,1.109-.132,22.349,5.04-.683.053-8.693,3.125-.425.078-.011a10.207,10.207,0,0,0,3.656-1.18,6.921,6.921,0,0,0,2.383-2.088,8.368,8.368,0,0,0,1.529-4.566A5.712,5.712,0,0,0,364.214,598.2Zm-3.828,7.3a2.7,2.7,0,0,1-1.8.975l-.02,0-3.125.425.034-5.381,3.125-.424a2.014,2.014,0,0,1,1.794.52,2.5,2.5,0,0,1,.666,1.867A3.115,3.115,0,0,1,360.386,605.493Z" transform="translate(-350.327 -559.438)" fill="#f9f9e8"/>
    <path id="Path_8610" data-name="Path 8610" d="M391.95,595.194a8.778,8.778,0,0,0-7.549-2.2,11.77,11.77,0,0,0-7.515,4.25,13.014,13.014,0,0,0-3.128,8.615,10,10,0,0,0,3.03,7.8,8.82,8.82,0,0,0,7.564,2.219,11.677,11.677,0,0,0,7.486-4.261,13.11,13.11,0,0,0,3.115-8.63A10.017,10.017,0,0,0,391.95,595.194Zm-3.644,13.363a5.832,5.832,0,0,1-3.991,2.291,4.353,4.353,0,0,1-3.968-1.211,6.182,6.182,0,0,1-1.46-4.477,7.863,7.863,0,0,1,1.515-4.882,5.836,5.836,0,0,1,3.991-2.291,4.348,4.348,0,0,1,3.968,1.211,6.189,6.189,0,0,1,1.462,4.477A7.874,7.874,0,0,1,388.306,608.557Z" transform="translate(-354.617 -558.712)" fill="#f9f9e8"/>
    <path id="Path_8611" data-name="Path 8611" d="M424.907,603.115l-3.444-15.343-5.719.777-3.779,16.578-3.5-15.588-5.394.731,5.732,21.554,5.779-.785,3.681-14.656,3.541,13.676,5.777-.785,5.912-23.134-5.425.735Z" transform="translate(-359.984 -557.478)" fill="#f9f9e8"/>
    <path id="Path_8612" data-name="Path 8612" d="M444.912,607.446l12.528-1.7.025-4.139-7.488,1.017.031-5.19,6.6-.9.025-4.139-6.6.9.028-4.806,7.488-1.017.025-4.139-12.53,1.7Z" transform="translate(-367.646 -556.964)" fill="#f9f9e8"/>
    <path id="Path_8613" data-name="Path 8613" d="M478.525,593.909a7.282,7.282,0,0,0,3.584-3.1,8.213,8.213,0,0,0,1.113-3.936,5.714,5.714,0,0,0-1.976-4.567q-1.992-1.734-5.589-1.246l-8.167,1.11-.133,22.349,5.04-.685.053-8.69.59-.081,4.607,8.059,5.9-.8Zm-1.109-4.3a2.7,2.7,0,0,1-1.8.975l-.02,0-3.125.425.031-5.38,3.125-.425a2.017,2.017,0,0,1,1.794.52,2.5,2.5,0,0,1,.666,1.865A3.117,3.117,0,0,1,477.416,589.6Z" transform="translate(-371.756 -556.529)" fill="#f9f9e8"/>
  </g>
  <g id="Group_3567" data-name="Group 3567" transform="translate(36.504 84.793)">
    <path id="Path_8614" data-name="Path 8614" d="M413.486,648.789a1.693,1.693,0,0,1-.872-.242q-2.647-1.592-5.316-3.187-3.712-2.223-7.419-4.453c-2.755-1.662-6.381-3.873-9.983-6.23a1.691,1.691,0,0,1,1.852-2.83c3.556,2.327,7.147,4.517,9.878,6.164,2.462,1.485,4.939,2.968,7.41,4.448q2.23,1.334,4.45,2.666,2.224-1.336,4.464-2.674,3.7-2.215,7.4-4.44a207.108,207.108,0,0,0,19.61-13.038,1.691,1.691,0,0,1,2.067,2.676,210.048,210.048,0,0,1-19.931,13.258q-3.692,2.226-7.406,4.445-2.674,1.6-5.33,3.2A1.69,1.69,0,0,1,413.486,648.789Z" transform="translate(-389.13 -624.619)" fill="#f9f9e8"/>
  </g>
</svg>
