<svg id="Group_3623" data-name="Group 3623" xmlns="http://www.w3.org/2000/svg" width="139.113" height="139.114" viewBox="0 0 139.113 139.114">
  <g id="Group_3618" data-name="Group 3618" transform="translate(0)">
    <path id="Path_8660" data-name="Path 8660" d="M1222.963,871.995a69.556,69.556,0,1,1,49.185-20.373A69.1,69.1,0,0,1,1222.963,871.995Zm0-133.88a64.324,64.324,0,1,0,45.483,18.84A63.9,63.9,0,0,0,1222.963,738.115Z" transform="translate(-1153.406 -732.881)" fill="#f9f9e8"/>
  </g>
  <g id="Group_3619" data-name="Group 3619" transform="translate(40.801 40.801)">
    <path id="Path_8661" data-name="Path 8661" d="M1214.6,825.884a19.9,19.9,0,0,0,14.988-14.988,25.108,25.108,0,0,1,18.663-18.663,29.06,29.06,0,0,0,3.892-1.261,28.741,28.741,0,0,0-43.573,37.1A28.143,28.143,0,0,1,1214.6,825.884Z" transform="translate(-1203.352 -782.827)" fill="#f9f9e8"/>
    <path id="Path_8662" data-name="Path 8662" d="M1251.579,800.032a19.9,19.9,0,0,0-14.989,14.988,25.111,25.111,0,0,1-18.664,18.663,28.981,28.981,0,0,0-3.892,1.261,28.741,28.741,0,0,0,43.572-37.1A28.186,28.186,0,0,1,1251.579,800.032Z" transform="translate(-1205.308 -785.576)" fill="#f9f9e8"/>
  </g>
  <g id="Group_3620" data-name="Group 3620" transform="translate(7.194 7.194)">
    <path id="Path_8663" data-name="Path 8663" d="M1224.575,866.414a62.363,62.363,0,1,1,44.1-18.266A61.953,61.953,0,0,1,1224.575,866.414Zm0-122.11a59.747,59.747,0,1,0,42.247,17.5A59.357,59.357,0,0,0,1224.575,744.3Z" transform="translate(-1162.212 -741.687)" fill="#f9f9e8"/>
  </g>
  <g id="Group_3621" data-name="Group 3621" transform="translate(26.107 19.09)">
    <path id="Path_8664" data-name="Path 8664" d="M1196.721,790.327a7.232,7.232,0,0,1-2.3,2.387,5.027,5.027,0,0,1-2.842.778,6.112,6.112,0,0,1-3.077-1.008,7.16,7.16,0,0,1-2.212-2.2,5.909,5.909,0,0,1-.929-3.212,7.1,7.1,0,0,1,1.228-3.844,8.951,8.951,0,0,1,1.313-1.63,4.342,4.342,0,0,1,1.461-1.02l2.906,2.148-.8.961-2.09-.719a2.266,2.266,0,0,0-1.068.453,3.5,3.5,0,0,0-.908.988,3.044,3.044,0,0,0,.1,3.547,5.9,5.9,0,0,0,1.758,1.585,6.227,6.227,0,0,0,2.581.975,3.9,3.9,0,0,0,2.241-.372,4.231,4.231,0,0,0,1.673-1.586,4.818,4.818,0,0,0,.656-1.674,6.821,6.821,0,0,0,.1-1.76l1.091.141a4.764,4.764,0,0,1,.183,1.427,6.942,6.942,0,0,1-.261,1.8A6.837,6.837,0,0,1,1196.721,790.327Z" transform="translate(-1185.364 -760.705)" fill="#f9f9e8"/>
    <path id="Path_8665" data-name="Path 8665" d="M1209.726,776.916a6.115,6.115,0,0,1-3.086,1.149,4.915,4.915,0,0,1-2.848-.7,7.438,7.438,0,0,1-2.335-2.272,6.694,6.694,0,0,1-1.194-3.112,5.291,5.291,0,0,1,.612-3.056,7.354,7.354,0,0,1,2.452-2.606,6.513,6.513,0,0,1,3.041-1.181,4.9,4.9,0,0,1,2.894.613,7.374,7.374,0,0,1,2.479,2.382,6.224,6.224,0,0,1,1.128,3.1,5.554,5.554,0,0,1-.693,3.082A7.51,7.51,0,0,1,1209.726,776.916Zm-6.055-9.273a2.477,2.477,0,0,0-1.266,2.273,6.38,6.38,0,0,0,1.247,3.054,9.4,9.4,0,0,0,1.615,1.806,4.878,4.878,0,0,0,2.022,1.091,2.438,2.438,0,0,0,2.046-.389q2.514-1.709.091-5.271a9.543,9.543,0,0,0-1.623-1.818,5.083,5.083,0,0,0-2.05-1.124A2.436,2.436,0,0,0,1203.671,767.643Z" transform="translate(-1188.087 -757.874)" fill="#f9f9e8"/>
    <path id="Path_8666" data-name="Path 8666" d="M1221.222,759.182l-.051-1.057,10.12-1.875.167,3.516-1.224.033-.812-1.923-3.748.694.823,4.441,2.184-.4.2-1.317,1.325-.537.4,4.249-1.216.5-.613-1.631-2.052.38.577,3.111,2.261.172.056,1.085-6.325,1.172-.071-1.015,1.427-.875-1.578-8.517Z" transform="translate(-1191.921 -756.25)" fill="#f9f9e8"/>
    <path id="Path_8667" data-name="Path 8667" d="M1244.042,757.394l.351-1,10.081,2.071-1.169,3.321-1.147-.43-.029-2.088-3.734-.767-.908,4.424,2.175.447.683-1.144,1.43,0-1.229,4.087-1.314,0,.047-1.742-2.044-.42-.637,3.1,2.03,1.01-.356,1.026-6.3-1.294.315-.966,1.652-.274,1.743-8.485Z" transform="translate(-1195.729 -756.277)" fill="#f9f9e8"/>
    <path id="Path_8668" data-name="Path 8668" d="M1265.661,764.188l.709-.786,8.536,5.818-2.224,2.74-.914-.842.682-2.05-3.206-2.184-2.3,3.37,1.851,1.261,1.038-.78,1.279.56-2.544,3.156-1.218-.565.647-1.507-1.708-1.165-2.206,3.237,3.379,2.3,2.174-1.125.9.784-2.179,2.689-8.693-5.926.648-.781,1.637.39,4.879-7.158Z" transform="translate(-1198.969 -757.56)" fill="#f9f9e8"/>
    <path id="Path_8669" data-name="Path 8669" d="M1283.619,779.571l.958-.45,5.611,8.673-3.113,1.662-.515-1.131,1.423-1.624-2.107-3.257-3.424,2.215,1.216,1.88,1.26-.315.962,1.012-3.569,1.923-.9-.993,1.181-1.139-1.123-1.737-3.288,2.128,2.22,3.433,2.44-.194.522,1.07-3.052,1.634-5.715-8.833.9-.469,1.358.994,7.274-4.705Z" transform="translate(-1201.704 -760.438)" fill="#f9f9e8"/>
  </g>
  <g id="Group_3622" data-name="Group 3622" transform="translate(26.86 89.174)">
    <path id="Path_8670" data-name="Path 8670" d="M1187.395,851.344a6.107,6.107,0,0,1-.979-2.066,3.087,3.087,0,0,1-.011-1.733l2.517-1.513.592,1.18-1.21,1.31a2.048,2.048,0,0,0-.069,1.076,2.708,2.708,0,0,0,.46,1.113,2.035,2.035,0,0,0,.62.579,1.518,1.518,0,0,0,.77.227,1.275,1.275,0,0,0,.77-.252,1.127,1.127,0,0,0,.458-.671,2.739,2.739,0,0,0,.064-.912q-.043-.489-.183-1.3a16.794,16.794,0,0,1-.234-1.917,3.869,3.869,0,0,1,.251-1.547,2.871,2.871,0,0,1,1.089-1.345,3.1,3.1,0,0,1,1.947-.614,3.8,3.8,0,0,1,1.921.62,5.511,5.511,0,0,1,1.544,1.484,5.992,5.992,0,0,1,.748,1.5,3.355,3.355,0,0,1,.229,1.442q-.076.054-1.141.68l-1.453.854-.563-1.154,1.093-1.137a1.874,1.874,0,0,0,.095-.974,2.213,2.213,0,0,0-.38-1.016,1.356,1.356,0,0,0-.848-.595,1.3,1.3,0,0,0-1.024.271,1.22,1.22,0,0,0-.489.722,2.929,2.929,0,0,0-.07.985q.045.527.207,1.418a17.817,17.817,0,0,1,.25,2,4.135,4.135,0,0,1-.24,1.6,2.791,2.791,0,0,1-1.074,1.358,2.972,2.972,0,0,1-2.064.578,4.389,4.389,0,0,1-2.039-.754A5.959,5.959,0,0,1,1187.395,851.344Z" transform="translate(-1186.287 -842.21)" fill="#f9f9e8"/>
    <path id="Path_8671" data-name="Path 8671" d="M1213.642,860.968l.507-.939,5.562,1.956-.482.948-1.634-.05-1.113,3.168,4.726,1.661,1.1-3.124-1.422-1.073.473-.951,5.605,1.97-.482.948-1.642-.053-2.834,8.06,1.435.979-.458.966-5.561-1.956.433-.9,1.656-.04,1.151-3.274-4.726-1.662-1.172,3.335,1.462.988-.494.954-5.534-1.946.416-.9,1.673-.035,2.8-7.955Z" transform="translate(-1190.665 -845.337)" fill="#f9f9e8"/>
    <path id="Path_8672" data-name="Path 8672" d="M1256.246,874.138a5.985,5.985,0,0,1-3.211.275,4.821,4.821,0,0,1-2.5-1.4,7.28,7.28,0,0,1-1.607-2.755,6.547,6.547,0,0,1-.312-3.248,5.169,5.169,0,0,1,1.378-2.721,7.185,7.185,0,0,1,2.994-1.817,6.384,6.384,0,0,1,3.177-.318,4.8,4.8,0,0,1,2.57,1.337,7.206,7.206,0,0,1,1.714,2.9,6.084,6.084,0,0,1,.252,3.219,5.434,5.434,0,0,1-1.46,2.725A7.353,7.353,0,0,1,1256.246,874.138Zm-3.282-10.332a2.424,2.424,0,0,0-1.789,1.812,6.244,6.244,0,0,0,.376,3.206,9.179,9.179,0,0,0,1.05,2.126,4.781,4.781,0,0,0,1.621,1.559,2.391,2.391,0,0,0,2.032.169q2.818-.955,1.466-4.948a9.307,9.307,0,0,0-1.055-2.139,4.966,4.966,0,0,0-1.639-1.6A2.386,2.386,0,0,0,1252.964,863.806Z" transform="translate(-1197.683 -845.711)" fill="#f9f9e8"/>
    <path id="Path_8673" data-name="Path 8673" d="M1286.669,850.728l-3.743,5.2-.71-.706.482-1.675-6.716-4.834-1.261,1.162-.827-.734q.7-1.358,1.291-2.386a25.116,25.116,0,0,1,1.392-2.142,6.653,6.653,0,0,1,2.662-2.382,2.9,2.9,0,0,1,2.914.557,3.551,3.551,0,0,1,1.27,1.638,4.092,4.092,0,0,1,.207,2.131,4.949,4.949,0,0,1-.907,2.146q-.168.235-.526.667l-1.1-.516.189-.279a2.718,2.718,0,0,0,.6-1.889,2.181,2.181,0,0,0-.984-1.49,2.629,2.629,0,0,0-1.795-.556,2.241,2.241,0,0,0-1.607,1.051c-.073.1-.148.219-.226.354s-.137.242-.178.319l7.026,5.057,1.736-1.486Z" transform="translate(-1202.328 -842.043)" fill="#f9f9e8"/>
  </g>
  <path id="Path_8674" data-name="Path 8674" d="M1182.421,808.889l1.853,5.7h6l-4.852,3.525,1.853,5.7-4.852-3.525-4.852,3.525,1.853-5.7-4.852-3.525h6Z" transform="translate(-1157.281 -746.798)" fill="#f9f9e8"/>
  <path id="Path_8675" data-name="Path 8675" d="M1291.167,808.889l1.853,5.7h6l-4.852,3.525,1.853,5.7-4.852-3.525-4.852,3.525,1.853-5.7-4.852-3.525h6Z" transform="translate(-1177.193 -746.798)" fill="#f9f9e8"/>
</svg>
