<svg xmlns="http://www.w3.org/2000/svg" width="147.839" height="114.956" viewBox="0 0 147.839 114.956">
  <g id="Group_3297" data-name="Group 3297" transform="translate(0 0)">
    <g id="Group_3278" data-name="Group 3278" transform="translate(25.741 9.202)">
      <path id="Path_8309" data-name="Path 8309" d="M133.3,163.91h-.021c-1.073-.035-2.155-.105-3.219-.211a.662.662,0,0,1,.131-1.317c1.034.1,2.087.172,3.13.205a.661.661,0,0,1-.021,1.323Zm3.181,0a.661.661,0,0,1-.021-1.323c1.042-.035,2.095-.1,3.13-.208a.662.662,0,0,1,.132,1.317c-1.064.106-2.147.178-3.218.214Zm-9.508-.623a.716.716,0,0,1-.109-.009c-1.055-.176-2.119-.39-3.161-.637a.661.661,0,1,1,.3-1.287c1.014.24,2.048.448,3.075.619a.662.662,0,0,1-.109,1.314Zm15.834-.01a.662.662,0,0,1-.109-1.314c1.026-.172,2.06-.382,3.074-.622a.662.662,0,0,1,.306,1.287c-1.042.248-2.106.463-3.161.64A.627.627,0,0,1,142.811,163.275Zm-22.022-1.455a.674.674,0,0,1-.2-.029c-1.024-.317-2.051-.672-3.053-1.058a.662.662,0,0,1,.475-1.235c.975.375,1.973.72,2.969,1.028a.662.662,0,0,1-.2,1.294ZM149,161.8a.661.661,0,0,1-.2-1.293c.993-.309,1.991-.655,2.963-1.03a.662.662,0,0,1,.476,1.234c-1,.386-2.025.742-3.047,1.06A.683.683,0,0,1,149,161.8Zm-34.152-2.269a.648.648,0,0,1-.278-.062c-.97-.45-1.94-.94-2.882-1.457a.662.662,0,1,1,.636-1.16c.916.5,1.858.979,2.8,1.417a.662.662,0,0,1-.279,1.262Zm40.081-.018a.662.662,0,0,1-.279-1.262c.942-.438,1.883-.915,2.8-1.416a.662.662,0,0,1,.637,1.16c-.939.515-1.906,1.006-2.875,1.457A.666.666,0,0,1,154.926,159.517Zm5.569-3.06a.661.661,0,0,1-.357-1.218c.877-.562,1.746-1.16,2.583-1.778a.662.662,0,1,1,.786,1.064c-.861.636-1.755,1.25-2.656,1.827A.66.66,0,0,1,160.5,156.457Zm5.114-3.775a.662.662,0,0,1-.427-1.167c.795-.673,1.577-1.381,2.326-2.105a.662.662,0,1,1,.921.951c-.77.745-1.574,1.473-2.392,2.164A.658.658,0,0,1,165.609,152.682ZM87.354,113.2l-.043,0a.661.661,0,0,1-.618-.7c.069-1.073.176-2.153.315-3.21a.662.662,0,0,1,1.312.174c-.136,1.028-.239,2.078-.307,3.121A.661.661,0,0,1,87.354,113.2Zm95.015-.167a.661.661,0,0,1-.659-.617c-.071-1.04-.178-2.09-.318-3.121a.662.662,0,0,1,1.311-.178c.144,1.06.253,2.139.327,3.209a.662.662,0,0,1-.615.7Zm-94.182-6.136a.662.662,0,0,1-.649-.792c.211-1.051.46-2.108.741-3.139a.662.662,0,1,1,1.277.348c-.273,1-.515,2.029-.72,3.052A.662.662,0,0,1,88.186,106.895Zm93.327-.165a.661.661,0,0,1-.647-.529c-.209-1.022-.456-2.048-.732-3.049a.662.662,0,0,1,1.276-.352c.284,1.03.537,2.085.752,3.137a.662.662,0,0,1-.515.781A.683.683,0,0,1,181.513,106.73Zm-91.66-5.972a.661.661,0,0,1-.625-.877c.35-1.014.739-2.028,1.157-3.016a.662.662,0,0,1,1.22.515c-.407.96-.785,1.947-1.126,2.933A.662.662,0,0,1,89.853,100.758Zm89.97-.158a.663.663,0,0,1-.625-.444c-.342-.981-.724-1.963-1.132-2.92a.662.662,0,1,1,1.217-.52c.42.984.812,1.994,1.165,3a.662.662,0,0,1-.407.843A.655.655,0,0,1,179.824,100.6Zm-87.49-5.706a.662.662,0,0,1-.59-.96c.483-.957,1-1.909,1.55-2.831a.661.661,0,1,1,1.138.674c-.53.9-1.037,1.823-1.507,2.754A.661.661,0,0,1,92.333,94.895Zm85-.135a.661.661,0,0,1-.59-.362c-.471-.926-.98-1.849-1.514-2.744a.662.662,0,0,1,1.136-.678c.548.921,1.073,1.87,1.557,2.822a.662.662,0,0,1-.59.961ZM95.575,89.418a.662.662,0,0,1-.545-1.036c.605-.883,1.249-1.757,1.913-2.6a.662.662,0,0,1,1.039.82c-.646.819-1.272,1.669-1.861,2.527A.661.661,0,0,1,95.575,89.418Zm78.5-.117a.66.66,0,0,1-.545-.286c-.592-.857-1.22-1.706-1.867-2.52a.661.661,0,1,1,1.036-.822c.665.836,1.31,1.708,1.92,2.59a.662.662,0,0,1-.544,1.037ZM99.515,84.423a.661.661,0,0,1-.49-1.1c.716-.794,1.47-1.575,2.239-2.322a.662.662,0,1,1,.921.95c-.748.726-1.481,1.486-2.179,2.258A.661.661,0,0,1,99.515,84.423Zm70.611-.1a.659.659,0,0,1-.49-.217c-.7-.77-1.434-1.528-2.185-2.251a.661.661,0,0,1,.918-.952c.771.744,1.528,1.523,2.246,2.314a.662.662,0,0,1-.489,1.107ZM104.081,80a.662.662,0,0,1-.428-1.167c.816-.693,1.666-1.367,2.527-2a.661.661,0,1,1,.787,1.064c-.837.619-1.663,1.275-2.458,1.948A.659.659,0,0,1,104.081,80Zm61.465-.089a.659.659,0,0,1-.426-.156c-.8-.671-1.626-1.325-2.465-1.943a.662.662,0,0,1,.784-1.066c.863.635,1.716,1.306,2.535,2a.662.662,0,0,1-.427,1.167Zm-56.354-3.692A.662.662,0,0,1,108.834,75c.9-.577,1.831-1.131,2.769-1.648a.662.662,0,0,1,.639,1.159c-.912.5-1.819,1.042-2.693,1.6A.659.659,0,0,1,109.192,76.215Zm51.229-.077a.66.66,0,0,1-.355-.1c-.88-.561-1.789-1.1-2.7-1.6A.662.662,0,1,1,158,73.276c.939.514,1.874,1.066,2.779,1.643a.662.662,0,0,1-.356,1.22ZM114.756,73.15a.662.662,0,0,1-.28-1.262c.97-.453,1.967-.877,2.963-1.263a.661.661,0,1,1,.478,1.234c-.968.375-1.938.788-2.881,1.229A.659.659,0,0,1,114.756,73.15Zm40.079-.065a.659.659,0,0,1-.277-.062c-.946-.437-1.92-.849-2.893-1.222a.661.661,0,1,1,.474-1.235c1,.384,2,.806,2.975,1.256a.662.662,0,0,1-.279,1.263Zm-34.154-2.229a.662.662,0,0,1-.2-1.294c1.024-.319,2.07-.607,3.111-.855a.661.661,0,1,1,.307,1.287c-1.011.243-2.028.522-3.023.832A.668.668,0,0,1,120.681,70.856Zm28.209-.05a.669.669,0,0,1-.194-.029c-1-.306-2.015-.583-3.027-.821a.662.662,0,0,1,.3-1.288c1.041.245,2.088.529,3.113.845a.662.662,0,0,1-.194,1.294Zm-22.025-1.43a.661.661,0,0,1-.109-1.314c1.052-.178,2.128-.323,3.2-.431a.661.661,0,1,1,.133,1.316c-1.038.105-2.085.247-3.108.42A.643.643,0,0,1,126.865,69.376Zm15.836-.027a.7.7,0,0,1-.109-.009c-1.025-.17-2.072-.307-3.11-.408a.662.662,0,0,1,.128-1.317c1.068.1,2.144.245,3.2.42a.662.662,0,0,1-.108,1.314Zm-9.511-.613a.661.661,0,0,1-.022-1.323c1.061-.038,2.166-.039,3.226-.006a.661.661,0,0,1-.02,1.323h-.021c-1.031-.033-2.106-.03-3.139,0Z" transform="translate(-86.691 -67.384)" fill="#f9f9e8"/>
    </g>
    <g id="Group_3280" data-name="Group 3280" transform="translate(0 0)">
      <g id="Group_3279" data-name="Group 3279" transform="translate(16.444)">
        <path id="Path_8310" data-name="Path 8310" d="M80.608,114.46c0-.288-.011-.574-.011-.863a52.185,52.185,0,0,1,104.37,0q0,1.954-.144,3.875c1.606.485,3.308.938,5.2,1.323.153-1.718.234-3.451.234-5.2a57.476,57.476,0,0,0-114.95-.466C77.244,113.517,78.978,113.971,80.608,114.46Z" transform="translate(-75.31 -56.119)" fill="#f9f9e8"/>
        <path id="Path_8311" data-name="Path 8311" d="M175.685,167.711a52.1,52.1,0,0,1-73.933,5.784,56.448,56.448,0,0,1-9.637-2.179q1.478,1.729,3.1,3.357a57.476,57.476,0,0,0,81.285,0,58.354,58.354,0,0,0,4.725-5.337C179.487,168.757,177.687,168.2,175.685,167.711Z" transform="translate(-78.387 -76.552)" fill="#f9f9e8"/>
      </g>
      <path id="Path_8312" data-name="Path 8312" d="M200.373,168.257a65.694,65.694,0,0,1-24.615-4.207,60.444,60.444,0,0,0-22.9-3.922,60.443,60.443,0,0,0-22.9,3.922,65.691,65.691,0,0,1-24.615,4.207,65.688,65.688,0,0,1-24.613-4.207,60.439,60.439,0,0,0-22.9-3.922,2.646,2.646,0,0,1-2.646-2.647V123.837a2.646,2.646,0,0,1,2.646-2.647A65.69,65.69,0,0,1,82.44,125.4a60.437,60.437,0,0,0,22.9,3.922,60.443,60.443,0,0,0,22.9-3.922,65.7,65.7,0,0,1,24.615-4.207,65.691,65.691,0,0,1,24.615,4.207,60.443,60.443,0,0,0,22.9,3.922,2.646,2.646,0,0,1,2.646,2.647V165.61A2.646,2.646,0,0,1,200.373,168.257ZM60.473,154.87a64.617,64.617,0,0,1,21.967,4.173,60.439,60.439,0,0,0,22.9,3.921,60.446,60.446,0,0,0,22.9-3.921,65.7,65.7,0,0,1,24.615-4.207,65.691,65.691,0,0,1,24.615,4.207,59.347,59.347,0,0,0,20.255,3.885v-28.35a64.617,64.617,0,0,1-21.968-4.173,60.443,60.443,0,0,0-22.9-3.922,60.443,60.443,0,0,0-22.9,3.922,65.691,65.691,0,0,1-24.615,4.207A65.688,65.688,0,0,1,80.727,130.4a59.359,59.359,0,0,0-20.254-3.886Z" transform="translate(-55.18 -68.034)" fill="#f9f9e8"/>
    </g>
    <g id="Group_3285" data-name="Group 3285" transform="translate(37.049 26.548)">
      <g id="Group_3281" data-name="Group 3281" transform="translate(0 7.708)">
        <path id="Path_8313" data-name="Path 8313" d="M112.667,110.063l3.286-1.791,1.733,3.178L107.149,117.2l-1.733-3.179,3.263-1.78-4.177-7.658-2.1,3.413-1.873-3.434,3.238-5.226,2.346-1.28Z" transform="translate(-100.533 -98.054)" fill="#f9f9e8"/>
      </g>
      <g id="Group_3282" data-name="Group 3282" transform="translate(15.083 2.087)">
        <path id="Path_8314" data-name="Path 8314" d="M122.817,107.564q-2.226-1.787-3.3-5.976a10.684,10.684,0,0,1,.038-6.744,6.463,6.463,0,0,1,9.532-2.445,10.68,10.68,0,0,1,3.281,5.894q1.075,4.189-.018,6.827a6.442,6.442,0,0,1-9.532,2.445Zm5.789-3.981a12.3,12.3,0,0,0-.547-4.187,11.914,11.914,0,0,0-1.514-3.851,1.745,1.745,0,0,0-3.249.833,11.933,11.933,0,0,0,.526,4.1,12.325,12.325,0,0,0,1.536,3.933,1.74,1.74,0,0,0,3.248-.833Z" transform="translate(-118.997 -91.173)" fill="#f9f9e8"/>
      </g>
      <g id="Group_3283" data-name="Group 3283" transform="translate(31.53)">
        <path id="Path_8315" data-name="Path 8315" d="M140.864,104.037q-1.719-2.278-1.733-6.6a10.683,10.683,0,0,1,1.694-6.529,6.464,6.464,0,0,1,9.84-.029,10.685,10.685,0,0,1,1.732,6.519q.013,4.325-1.693,6.614a6.441,6.441,0,0,1-9.84.029Zm6.59-2.437a12.317,12.317,0,0,0,.5-4.193,11.908,11.908,0,0,0-.522-4.1,1.744,1.744,0,0,0-3.353.01,11.927,11.927,0,0,0-.5,4.107,12.336,12.336,0,0,0,.523,4.19,1.74,1.74,0,0,0,3.353-.01Z" transform="translate(-139.131 -88.618)" fill="#f9f9e8"/>
      </g>
      <g id="Group_3284" data-name="Group 3284" transform="translate(49.12 1.303)">
        <path id="Path_8316" data-name="Path 8316" d="M161.026,98.179a5.693,5.693,0,0,1,.053-4.138,5.574,5.574,0,0,1,2.388-3.308,4.918,4.918,0,0,1,6.461,2.13,6.813,6.813,0,0,1-2.441,7.446,4.916,4.916,0,0,1-6.461-2.13Zm3.781,10.073L161.3,107.1l14.948-13.3,3.486,1.143Zm.828-10.557a5.825,5.825,0,0,0,.863-1.853,5.246,5.246,0,0,0,.363-1.965.858.858,0,0,0-.577-.815.836.836,0,0,0-.935.319,5.482,5.482,0,0,0-.859,1.8,5.543,5.543,0,0,0-.386,2,.834.834,0,0,0,.569.8A.844.844,0,0,0,165.634,97.7Zm5.526,11.374a5.773,5.773,0,0,1,.076-4.13,5.646,5.646,0,0,1,2.366-3.316,4.9,4.9,0,0,1,6.441,2.112,6.945,6.945,0,0,1-2.445,7.457,4.322,4.322,0,0,1-3.656.234A4.274,4.274,0,0,1,171.16,109.07Zm4.577-.506a5.577,5.577,0,0,0,.871-1.837,5.247,5.247,0,0,0,.363-1.965.857.857,0,0,0-.577-.815.838.838,0,0,0-.935.319,5.482,5.482,0,0,0-.859,1.8,5.543,5.543,0,0,0-.386,2,.836.836,0,0,0,.569.8A.851.851,0,0,0,175.737,108.564Z" transform="translate(-160.663 -90.213)" fill="#f9f9e8"/>
      </g>
    </g>
    <g id="Group_3296" data-name="Group 3296" transform="translate(13.953 67.286)">
      <g id="Group_3286" data-name="Group 3286" transform="translate(0 1.664)">
        <path id="Path_8317" data-name="Path 8317" d="M82.344,146.439l-1.215,5.343a8.875,8.875,0,0,1-2.045.164,11.408,11.408,0,0,1-2.211-.282,6.679,6.679,0,0,1-2.866-1.345,4.741,4.741,0,0,1-1.538-2.341,6.07,6.07,0,0,1-.023-3.082,5.966,5.966,0,0,1,1.345-2.725,4.813,4.813,0,0,1,2.378-1.458,6.327,6.327,0,0,1,3.085,0,7.951,7.951,0,0,1,2.109.794,4.832,4.832,0,0,1,1.482,1.2L81.51,144.5a6.037,6.037,0,0,0-1.256-1.018,4.924,4.924,0,0,0-1.41-.549,2.722,2.722,0,0,0-2.3.319,3.743,3.743,0,0,0-1.252,2.288,3.837,3.837,0,0,0,.15,2.695,2.9,2.9,0,0,0,2.05,1.332,6.923,6.923,0,0,0,1.441.171l.449-1.976-1.856-.422.432-1.9Z" transform="translate(-72.261 -140.524)" fill="#f9f9e8"/>
      </g>
      <g id="Group_3287" data-name="Group 3287" transform="translate(11.64 4.432)">
        <path id="Path_8318" data-name="Path 8318" d="M86.51,154.291l3.419-10.379,2.741.9-2.688,8.164,4.388,1.445-.729,2.216Z" transform="translate(-86.51 -143.912)" fill="#f9f9e8"/>
      </g>
      <g id="Group_3288" data-name="Group 3288" transform="translate(22.91 7.261)">
        <path id="Path_8319" data-name="Path 8319" d="M101.182,157.313a4.741,4.741,0,0,1-.825-3.653l.707-6.284,2.791.314-.718,6.391a2.739,2.739,0,0,0,.323,1.858,1.866,1.866,0,0,0,1.432.795,1.816,1.816,0,0,0,1.55-.466,2.771,2.771,0,0,0,.72-1.734l.718-6.391,2.822.318L110,154.743a4.7,4.7,0,0,1-1.636,3.361,5.984,5.984,0,0,1-7.179-.792Z" transform="translate(-100.306 -147.375)" fill="#f9f9e8"/>
      </g>
      <g id="Group_3289" data-name="Group 3289" transform="translate(35.292 7.887)">
        <path id="Path_8320" data-name="Path 8320" d="M119.225,159.347l-.4-8.586-3.25.152-.109-2.331,9.414-.441.109,2.331-3.25.153.4,8.586Z" transform="translate(-115.463 -148.142)" fill="#f9f9e8"/>
      </g>
      <g id="Group_3290" data-name="Group 3290" transform="translate(46.557 5.668)">
        <path id="Path_8321" data-name="Path 8321" d="M131.946,157.939l-2.693-10.591,7.557-1.922.545,2.143-4.834,1.229.506,1.993,4.522-1.15.545,2.142-4.522,1.15.552,2.171,4.834-1.229.545,2.142Z" transform="translate(-129.253 -145.426)" fill="#f9f9e8"/>
      </g>
      <g id="Group_3291" data-name="Group 3291" transform="translate(56.866 1.643)">
        <path id="Path_8322" data-name="Path 8322" d="M148.638,141.276l2.6-.778,3.131,10.47-2.044.611-6.526-4.521L147.578,153l-2.574.77-3.131-10.47,2.014-.6,6.518,4.491Z" transform="translate(-141.873 -140.498)" fill="#f9f9e8"/>
      </g>
      <g id="Group_3292" data-name="Group 3292" transform="translate(77.888)">
        <path id="Path_8323" data-name="Path 8323" d="M167.841,149.576l-.234-10.926,7.627-.163.048,2.255-4.788.1.042,1.995,4.481-.1.048,2.24-4.481.1.095,4.435Z" transform="translate(-167.607 -138.487)" fill="#f9f9e8"/>
      </g>
      <g id="Group_3293" data-name="Group 3293" transform="translate(88.276 0.095)">
        <path id="Path_8324" data-name="Path 8324" d="M189.764,150.532l-3.035-.344-.993-3.774q-.175-.637-1.075-.739l-1.037-.118-.48,4.224-2.822-.32,1.232-10.858,5.048.573a4.482,4.482,0,0,1,2.862,1.182,3.023,3.023,0,0,1,.717,2.53,3.06,3.06,0,0,1-2.586,2.78,1.706,1.706,0,0,1,.775.521,2.308,2.308,0,0,1,.477.965Zm-2.769-7.041a1,1,0,0,0,.511-.831,1.014,1.014,0,0,0-.3-.945,2.469,2.469,0,0,0-1.3-.426l-1.8-.2-.265,2.334,1.8.2A2.422,2.422,0,0,0,186.995,143.491Z" transform="translate(-180.323 -138.603)" fill="#f9f9e8"/>
      </g>
      <g id="Group_3294" data-name="Group 3294" transform="translate(100.144 2.258)">
        <path id="Path_8325" data-name="Path 8325" d="M194.851,151.682l3.26-10.431,7.442,2.326-.659,2.109-4.761-1.488-.613,1.963,4.453,1.392-.658,2.11-4.455-1.392-.668,2.139,4.762,1.488-.659,2.11Z" transform="translate(-194.851 -141.251)" fill="#f9f9e8"/>
      </g>
      <g id="Group_3295" data-name="Group 3295" transform="translate(110.749 5.689)">
        <path id="Path_8326" data-name="Path 8326" d="M207.834,156.024l2.765-10.573,7.543,1.973-.559,2.138-4.826-1.262-.52,1.99,4.514,1.18-.56,2.139-4.514-1.18-.567,2.168,4.826,1.262L215.378,158Z" transform="translate(-207.834 -145.451)" fill="#f9f9e8"/>
      </g>
    </g>
  </g>
</svg>
