<svg xmlns="http://www.w3.org/2000/svg" width="132.944" height="114.956" viewBox="0 0 132.944 114.956">
  <g id="Group_3333" data-name="Group 3333" transform="translate(0 0)">
    <g id="Group_3329" data-name="Group 3329" transform="translate(37.049 89.931)">
      <path id="Path_8367" data-name="Path 8367" d="M440.644,170.5H385.017a2.146,2.146,0,0,1,0-4.291h55.627a2.146,2.146,0,0,1,0,4.291Z" transform="translate(-382.872 -166.208)" fill="#f9f9e8"/>
    </g>
    <g id="Group_3330" data-name="Group 3330" transform="translate(0 60.193)">
      <path id="Path_8368" data-name="Path 8368" d="M337.518,145.521l1.8-.293V130.987l-1.8-.274v-.43h5.967a11.664,11.664,0,0,1,3.365.39,3.4,3.4,0,0,1,1.819,1.184,3.5,3.5,0,0,1,.567,2.084q0,2.816-3.56,3.6v.1a6.576,6.576,0,0,1,3.375,1.291,3.41,3.41,0,0,1,1.2,2.777,3.552,3.552,0,0,1-1.575,3.189,7.653,7.653,0,0,1-4.255,1.037h-6.905Zm6.123-8.04a3.17,3.17,0,0,0,2.406-.881,3.481,3.481,0,0,0,.841-2.5v-.117q0-3.209-3.4-3.209h-2.015v6.71Zm.782,7.981a3.39,3.39,0,0,0,2.582-.968,3.864,3.864,0,0,0,.92-2.768v-.215a3.144,3.144,0,0,0-3.5-3.54h-2.954v7.492Z" transform="translate(-337.518 -129.892)" fill="#f9f9e8"/>
      <path id="Path_8369" data-name="Path 8369" d="M367.332,145.932v-.411l1.8-.293V130.987l-1.8-.274v-.43h11.776v4.479h-.529l-1.506-3.991h-5.791v7.042h2.543l1.154-2.836h.509v6.181h-.509l-1.174-2.875h-2.523v7.179h6.143l1.6-4.3h.509v4.773Z" transform="translate(-342.977 -129.892)" fill="#f9f9e8"/>
      <path id="Path_8370" data-name="Path 8370" d="M394.943,145.845v-.411l1.916-.783,5.654-14.847h.313l5.341,15.336,1.8.293v.411h-5.751v-.411l1.6-.254-1.662-4.637h-5.2l-1.585,4.108,1.76.783v.411Zm4.166-5.712h4.91l-2.348-6.886Z" transform="translate(-348.033 -129.804)" fill="#f9f9e8"/>
      <path id="Path_8371" data-name="Path 8371" d="M427.623,145.042a4.493,4.493,0,0,1-1.331-3.393V130.987l-1.8-.274v-.43h5.752v.43l-1.8.274v10.661a3.876,3.876,0,0,0,1.076,2.944,4.575,4.575,0,0,0,3.267,1.027q4.147,0,4.147-3.971V131.476l-1.819-.763v-.43h4.167v.43l-1.878.763v10.173a4.456,4.456,0,0,1-1.31,3.511,6.353,6.353,0,0,1-4.265,1.164A5.888,5.888,0,0,1,427.623,145.042Z" transform="translate(-353.444 -129.892)" fill="#f9f9e8"/>
      <path id="Path_8372" data-name="Path 8372" d="M459.274,145.932v-.411l1.8-.293V130.771h-3.228l-1.487,3.874h-.567v-4.362h12.735v4.362h-.587l-1.467-3.874h-3.248v14.457l1.8.293v.411Z" transform="translate(-359.175 -129.892)" fill="#f9f9e8"/>
      <path id="Path_8373" data-name="Path 8373" d="M487.619,145.932v-.411l1.819-.293v-5.947l-4.754-8.294-1.546-.274v-.43h5.888v.43l-1.819.274,4.108,7.1,3.775-6.436-2.347-.939v-.43h4.382v.43l-1.506.959-4.069,6.964v6.592l1.819.293v.411Z" transform="translate(-364.182 -129.892)" fill="#f9f9e8"/>
    </g>
    <g id="Group_3331" data-name="Group 3331" transform="translate(37.05 0)">
      <path id="Path_8374" data-name="Path 8374" d="M440.931,77.5c-.965-.965-2.5-1.584-10.524,1.41a81.812,81.812,0,0,0-9.825,4.395c-.429-1.088-.8-1.983-1.044-2.541-4.4-10.242-6.18-10.242-7.243-10.242s-2.844,0-7.243,10.242c-.24.558-.616,1.452-1.045,2.541a81.854,81.854,0,0,0-9.824-4.395c-8.029-2.994-9.559-2.376-10.525-1.41-.752.752-2.011,2.011,2.121,12.364.894,2.239,4.02,9.755,6.736,12.472a11.38,11.38,0,0,0,13.886,1.646,11.276,11.276,0,0,0,11.789,0,11.377,11.377,0,0,0,13.886-1.646c2.716-2.716,5.842-10.232,6.736-12.472C442.942,79.508,441.684,78.248,440.931,77.5ZM395.549,99.3c-2.59-2.59-7.121-13.611-8.177-18.079a74.959,74.959,0,0,1,15.149,6.162A25.428,25.428,0,0,0,401,94.343a11.234,11.234,0,0,0,2.073,6.511A7.057,7.057,0,0,1,395.549,99.3Zm9.738-4.955c0-3.665,4.6-14.68,7.008-18.576,2.41,3.9,7.007,14.911,7.007,18.576a7.008,7.008,0,1,1-14.015,0ZM429.04,99.3a7.054,7.054,0,0,1-7.52,1.555,11.234,11.234,0,0,0,2.073-6.511,25.452,25.452,0,0,0-1.524-6.962,74.908,74.908,0,0,1,15.148-6.162C436.161,85.687,431.63,96.709,429.04,99.3Z" transform="translate(-382.872 -58.756)" fill="#f9f9e8"/>
      <path id="Path_8375" data-name="Path 8375" d="M418.123,62.965a3.423,3.423,0,1,0-3.424-3.423A3.423,3.423,0,0,0,418.123,62.965Z" transform="translate(-388.7 -56.119)" fill="#f9f9e8"/>
      <circle id="Ellipse_34" data-name="Ellipse 34" cx="3.423" cy="3.423" r="3.423" transform="translate(40.292 11.463) rotate(-22.228)" fill="#f9f9e8"/>
      <path id="Path_8376" data-name="Path 8376" d="M399.352,75.1a3.423,3.423,0,1,0-3.423-3.423A3.423,3.423,0,0,0,399.352,75.1Z" transform="translate(-385.263 -58.341)" fill="#f9f9e8"/>
    </g>
    <g id="Group_3332" data-name="Group 3332" transform="translate(26.144 107.529)">
      <path id="Path_8377" data-name="Path 8377" d="M369.522,190.623a1.082,1.082,0,0,1,.427-.865,1.679,1.679,0,0,1,1.106-.353,1.541,1.541,0,0,1,1.066.346,1.321,1.321,0,0,1,.423.947h-.7a.785.785,0,0,0-.23-.55.828.828,0,0,0-.6-.207.914.914,0,0,0-.6.181.582.582,0,0,0-.22.468.494.494,0,0,0,.249.442,1.774,1.774,0,0,0,.6.226c.235.047.471.1.706.163a1.276,1.276,0,0,1,.6.35,1,1,0,0,1,.249.727.965.965,0,0,1-.427.795,1.79,1.79,0,0,1-1.11.323,1.66,1.66,0,0,1-1.1-.341,1.268,1.268,0,0,1-.449-.944h.7a.743.743,0,0,0,.241.546.9.9,0,0,0,.624.2,1.01,1.01,0,0,0,.623-.171.523.523,0,0,0,.227-.435.529.529,0,0,0-.178-.419.992.992,0,0,0-.446-.216q-.267-.059-.583-.141c-.21-.054-.4-.113-.582-.174a.948.948,0,0,1-.446-.324A.92.92,0,0,1,369.522,190.623Z" transform="translate(-369.522 -188.053)" fill="#f9f9e8"/>
      <path id="Path_8378" data-name="Path 8378" d="M380.306,189.4a1.851,1.851,0,0,1,1.393.576,2.085,2.085,0,0,1,.553,1.507,2.154,2.154,0,0,1-.557,1.53,1.82,1.82,0,0,1-1.389.6,1.656,1.656,0,0,1-.91-.249,1.678,1.678,0,0,1-.6-.649v2.763h-.676v-6.008h.676v.817a1.658,1.658,0,0,1,1.508-.884Zm-.13,3.632a1.3,1.3,0,0,0,.973-.427,1.565,1.565,0,0,0,.4-1.122,1.474,1.474,0,0,0-.4-1.1,1.334,1.334,0,0,0-.973-.4,1.309,1.309,0,0,0-.973.416,1.709,1.709,0,0,0,0,2.21A1.3,1.3,0,0,0,380.176,193.037Z" transform="translate(-371.097 -188.053)" fill="#f9f9e8"/>
      <path id="Path_8379" data-name="Path 8379" d="M388.079,193.018a2.154,2.154,0,0,1-.557-1.53,2.082,2.082,0,0,1,.554-1.507,1.848,1.848,0,0,1,1.392-.576,1.675,1.675,0,0,1,.91.245,1.6,1.6,0,0,1,.59.639v-.817h.684v4.077h-.684v-.832a1.615,1.615,0,0,1-.59.649,1.656,1.656,0,0,1-.91.249A1.82,1.82,0,0,1,388.079,193.018Zm2.484-.4a1.717,1.717,0,0,0,0-2.214,1.309,1.309,0,0,0-.973-.416,1.334,1.334,0,0,0-.973.4,1.468,1.468,0,0,0-.4,1.091,1.56,1.56,0,0,0,.408,1.122,1.325,1.325,0,0,0,1.942.016Z" transform="translate(-372.818 -188.053)" fill="#f9f9e8"/>
      <path id="Path_8380" data-name="Path 8380" d="M406.037,193a1.545,1.545,0,0,1-.977.309,1.411,1.411,0,0,1-1.017-.427,1.581,1.581,0,0,1-.011-2.172,1.425,1.425,0,0,1,1.044-.423.4.4,0,0,1,.193.066l-.3-.222a2.041,2.041,0,0,1-.512-1.17,1.152,1.152,0,0,1,.36-.854,1.334,1.334,0,0,1,.973-.353,1.359,1.359,0,0,1,.976.346,1.1,1.1,0,0,1,.364.821,1.292,1.292,0,0,1-.052.341H406.4a1.167,1.167,0,0,0,.044-.356.573.573,0,0,0-.181-.408.681.681,0,0,0-.936,0,.67.67,0,0,0-.182.49,1.38,1.38,0,0,0,.341.757l2.688,3.505h-.824l-.779-1.04A1.473,1.473,0,0,1,406.037,193Zm-1.549-.523a.827.827,0,0,0,.631.282.85.85,0,0,0,.639-.282,1.022,1.022,0,0,0,0-1.374.863.863,0,0,0-1.274,0,.969.969,0,0,0-.26.687A.985.985,0,0,0,404.488,192.474Z" transform="translate(-375.763 -187.75)" fill="#f9f9e8"/>
      <path id="Path_8381" data-name="Path 8381" d="M422.2,189.1a1.85,1.85,0,0,1,1.393.576,2.082,2.082,0,0,1,.553,1.507,2.154,2.154,0,0,1-.557,1.53,1.819,1.819,0,0,1-1.389.6,1.653,1.653,0,0,1-.909-.249,1.678,1.678,0,0,1-.6-.649v.832h-.676v-5.5h.676v2.236a1.657,1.657,0,0,1,1.507-.884Zm-.13,3.632a1.294,1.294,0,0,0,.973-.427,1.562,1.562,0,0,0,.405-1.122,1.471,1.471,0,0,0-.405-1.1,1.333,1.333,0,0,0-.973-.4,1.309,1.309,0,0,0-.972.416,1.709,1.709,0,0,0,0,2.21A1.3,1.3,0,0,0,422.067,192.734Z" transform="translate(-378.767 -187.75)" fill="#f9f9e8"/>
      <path id="Path_8382" data-name="Path 8382" d="M431.389,193.616a1.877,1.877,0,0,1-1.425-.579,2.13,2.13,0,0,1-.55-1.53,2.1,2.1,0,0,1,.557-1.526,2.116,2.116,0,0,1,2.87-.03,1.9,1.9,0,0,1,.539,1.393,2.568,2.568,0,0,1-.03.4h-3.245a1.4,1.4,0,0,0,.382.961,1.22,1.22,0,0,0,.9.353,1.257,1.257,0,0,0,.7-.186,1.1,1.1,0,0,0,.42-.489h.728a1.87,1.87,0,0,1-.665.883A1.936,1.936,0,0,1,431.389,193.616Zm.914-3.3a1.248,1.248,0,0,0-.9-.353,1.234,1.234,0,0,0-.9.346,1.385,1.385,0,0,0-.394.947h2.563A1.275,1.275,0,0,0,432.3,190.315Z" transform="translate(-380.489 -188.053)" fill="#f9f9e8"/>
      <path id="Path_8383" data-name="Path 8383" d="M439.162,193.018a2.154,2.154,0,0,1-.557-1.53,2.085,2.085,0,0,1,.553-1.507,1.851,1.851,0,0,1,1.393-.576,1.677,1.677,0,0,1,.91.245,1.6,1.6,0,0,1,.59.639v-.817h.684v4.077h-.684v-.832a1.616,1.616,0,0,1-.59.649,1.658,1.658,0,0,1-.91.249A1.819,1.819,0,0,1,439.162,193.018Zm2.484-.4a1.717,1.717,0,0,0,0-2.214,1.312,1.312,0,0,0-.973-.416,1.333,1.333,0,0,0-.973.4,1.465,1.465,0,0,0-.4,1.091,1.563,1.563,0,0,0,.408,1.122,1.326,1.326,0,0,0,1.943.016Z" transform="translate(-382.171 -188.053)" fill="#f9f9e8"/>
      <path id="Path_8384" data-name="Path 8384" d="M451.525,189.487h.676v4.077h-.676v-.654a1.411,1.411,0,0,1-1.329.721,1.538,1.538,0,0,1-1.129-.449,1.715,1.715,0,0,1-.453-1.274v-2.421h.669V191.8a1.317,1.317,0,0,0,.3.932,1.2,1.2,0,0,0,1.641,0,1.321,1.321,0,0,0,.3-.932Z" transform="translate(-384.004 -188.068)" fill="#f9f9e8"/>
      <path id="Path_8385" data-name="Path 8385" d="M459.257,192.788h.556v.55h-.683a.932.932,0,0,1-1.062-1.047v-2.48h-.527v-.55h.527v-1.01h.683v1.01h1.055v.55h-1.055v2.48a.538.538,0,0,0,.112.386A.549.549,0,0,0,459.257,192.788Z" transform="translate(-385.639 -187.842)" fill="#f9f9e8"/>
      <path id="Path_8386" data-name="Path 8386" d="M465.908,193.5l-1.612-4.01h.743l1.248,3.3,1.269-3.3h.7l-2.458,5.985h-.7Z" transform="translate(-386.876 -188.068)" fill="#f9f9e8"/>
    </g>
  </g>
</svg>
