<svg id="Group_3461" data-name="Group 3461" xmlns="http://www.w3.org/2000/svg" width="152.153" height="143.734" viewBox="0 0 152.153 143.734">
  <g id="Group_3448" data-name="Group 3448" transform="translate(21.836 79.472)">
    <path id="Path_8502" data-name="Path 8502" d="M133.51,653.595A64.257,64.257,0,0,1,79.7,624.571a2.617,2.617,0,1,1,4.371-2.878A59.158,59.158,0,0,0,191.847,599.01a2.617,2.617,0,0,1,5.163.859,64.394,64.394,0,0,1-63.5,53.726Z" transform="translate(-79.27 -596.822)" fill="#f9f9e8"/>
  </g>
  <g id="Group_3449" data-name="Group 3449" transform="translate(16.456 7.49)">
    <path id="Path_8503" data-name="Path 8503" d="M75.3,551.889a2.619,2.619,0,0,1-2.413-3.627A64.394,64.394,0,0,1,175.341,525.2a2.617,2.617,0,0,1-3.5,3.891,59.16,59.16,0,0,0-94.124,21.185A2.618,2.618,0,0,1,75.3,551.889Z" transform="translate(-72.684 -508.706)" fill="#f9f9e8"/>
  </g>
  <g id="Group_3453" data-name="Group 3453" transform="translate(0 24.69)">
    <g id="Group_3450" data-name="Group 3450" transform="translate(0 28.941)">
      <path id="Path_8504" data-name="Path 8504" d="M92.226,569.421a7.687,7.687,0,0,0-2.571-2.114,15.951,15.951,0,0,0-3.834-1.4,27.046,27.046,0,0,0-4.735-.667,37.271,37.271,0,0,0-5.283.092,38.769,38.769,0,0,0-5.472.86,36.67,36.67,0,0,0-4.551,1.367,29.138,29.138,0,0,0-4.2,1.956,23.775,23.775,0,0,0-3.651,2.545,16.332,16.332,0,0,0-2.875,3.172,14.54,14.54,0,0,0-1.871,3.8,14.081,14.081,0,0,0-.646,4.431q.016,2.454,1.075,2.21.773-.179,1.992-1.9a35.274,35.274,0,0,0,2.767-4.968,9.664,9.664,0,0,1,2.24-2.4A19.846,19.846,0,0,1,64,574.269a32.353,32.353,0,0,1,4.128-1.722,44.713,44.713,0,0,1,4.529-1.242q1.806-.417,3.567-.664a29.092,29.092,0,0,1,3.352-.285,19.171,19.171,0,0,1,2.945.139,9.317,9.317,0,0,1,2.357.592,3.87,3.87,0,0,1,1.563,1.1,2.578,2.578,0,0,1,.567,1.662,6.716,6.716,0,0,1-.693,2.958,9.75,9.75,0,0,1-2.01,2.748,14.031,14.031,0,0,1-3.171,2.283,16.664,16.664,0,0,1-4.176,1.538q-.989.228-1.845.34t-1.89.35a5.514,5.514,0,0,0-1.217.4,1.9,1.9,0,0,0-.672.52,1.449,1.449,0,0,0-.284.686,6.046,6.046,0,0,0-.055.9,2.309,2.309,0,0,0,.541,1.64,3.141,3.141,0,0,0,1.394.814,7.723,7.723,0,0,0,1.956.3l2.244.09q1.148.045,2.246.177a5.67,5.67,0,0,1,1.959.579,3.636,3.636,0,0,1,1.394,1.282,4.212,4.212,0,0,1,.547,2.273,10.781,10.781,0,0,1-.874,4.615,11.316,11.316,0,0,1-2.38,3.385,13.321,13.321,0,0,1-3.411,2.4,18.065,18.065,0,0,1-3.973,1.426,16.75,16.75,0,0,1-3.375.431,24,24,0,0,1-3.162-.114.668.668,0,0,1-.292-.394,4.146,4.146,0,0,1-.161-.646,4.2,4.2,0,0,1-.065-.706q0-.349,0-.547-.007-1.234.019-2.582t.091-2.722q.065-1.372.139-2.807t.189-2.621q.18-2.09.493-4.307a33.833,33.833,0,0,1,.711-3.767,36.276,36.276,0,0,1,1.171-3.6,21.95,21.95,0,0,1,1.868-3.835,2.668,2.668,0,0,0-2.951-1.322,7.214,7.214,0,0,0-3.1,1.912,33.72,33.72,0,0,0-2.973,6.721,48.081,48.081,0,0,0-1.64,7.682q-.6,4.339-.777,8.666t-.151,8.412q.006.806.524,1a3.384,3.384,0,0,0,1.2.2q1.523.164,3.235.217t3.487-.029q1.772-.082,3.509-.292a31.88,31.88,0,0,0,3.3-.572,21.057,21.057,0,0,0,4.552-1.589,20.337,20.337,0,0,0,3.713-2.331,17.85,17.85,0,0,0,2.864-2.852,18.181,18.181,0,0,0,2.032-3.164,15.492,15.492,0,0,0,1.209-3.272,13.025,13.025,0,0,0,.39-3.154,10.883,10.883,0,0,0-.627-3.623,6.163,6.163,0,0,0-4.829-4.181,9.776,9.776,0,0,0-4.173.18,24.5,24.5,0,0,0,6.439-2.511,18.776,18.776,0,0,0,4.392-3.443,12.714,12.714,0,0,0,2.51-3.884,10.389,10.389,0,0,0,.782-3.89A4.594,4.594,0,0,0,92.226,569.421Z" transform="translate(-52.54 -565.189)" fill="#f9f9e8"/>
    </g>
    <g id="Group_3451" data-name="Group 3451" transform="translate(44.888 29.858)">
      <path id="Path_8505" data-name="Path 8505" d="M108.517,574.148a3.722,3.722,0,0,0,3.14.293,6.3,6.3,0,0,0,2.1-.867,6,6,0,0,0,1.452-1.331,5,5,0,0,0,.833-1.593,5.572,5.572,0,0,0,.255-1.679,3.07,3.07,0,0,0-.336-1.494,2.065,2.065,0,0,0-.886-.864,3.131,3.131,0,0,0-1.305-.3,6.175,6.175,0,0,0-1.591.17,6.319,6.319,0,0,0-2.25.949,6.072,6.072,0,0,0-1.44,1.389,5.269,5.269,0,0,0-.774,1.518,4.544,4.544,0,0,0-.232,1.33A2.961,2.961,0,0,0,108.517,574.148Z" transform="translate(-107.489 -566.311)" fill="#f9f9e8"/>
    </g>
    <g id="Group_3452" data-name="Group 3452" transform="translate(40.404)">
      <path id="Path_8506" data-name="Path 8506" d="M210.619,560.423q-.932,1.121-2.277,2.441a36.331,36.331,0,0,1-2.854,2.527,26.805,26.805,0,0,1-3.111,2.148,10.965,10.965,0,0,1-3.045,1.273,3.715,3.715,0,0,1-.86.1,2,2,0,0,1-.763-.157,2.348,2.348,0,0,1-.718-.5,5.562,5.562,0,0,1-.72-.9,21.978,21.978,0,0,0,3.889-2.493,19.863,19.863,0,0,0,3.086-3.045,18.007,18.007,0,0,0,2.263-3.662,8.448,8.448,0,0,0,.956-3.527,5.469,5.469,0,0,0-.5-2.389,4.044,4.044,0,0,0-1.35-1.6,4.744,4.744,0,0,0-2.023-.76,6.772,6.772,0,0,0-2.51.141,9.043,9.043,0,0,0-3,1.283,12.064,12.064,0,0,0-2.434,2.148,15.051,15.051,0,0,0-1.891,2.742,19.857,19.857,0,0,0-1.335,3.058q-.529,1.562-1.022,3.539a13.808,13.808,0,0,0-.481,3.317,13.41,13.41,0,0,0,.143,1.906q.074.493.185.963-.112-.471-.185-.963-.288.266-.57.52-.663.6-1.376,1.189t-1.39,1.082a13.515,13.515,0,0,1-1.279.823,4.238,4.238,0,0,1-1.072.442.449.449,0,0,1-.413-.185,2.407,2.407,0,0,1-.415-.665,5.453,5.453,0,0,1-.334-1,5.264,5.264,0,0,1-.14-1.207l0-.343q.067-.506.187-1.049c.078-.362.156-.7.234-1.024s.162-.622.248-.9a6.93,6.93,0,0,1,.252-.694q1.1-2.46,2.4-5.074t2.587-5.3q1.289-2.684,2.475-5.381t2.085-5.314a42.293,42.293,0,0,0,1.422-5.124,22.789,22.789,0,0,0,.509-4.8,9.175,9.175,0,0,0-.181-1.778,3.957,3.957,0,0,0-.594-1.461,2.3,2.3,0,0,0-1.149-.871,3.311,3.311,0,0,0-1.845,0,7.328,7.328,0,0,0-3.012,1.582,16.944,16.944,0,0,0-2.833,3.093,33.5,33.5,0,0,0-2.579,4.241,48.123,48.123,0,0,0-4.341,11.885c-.684,2.813-1.01,4.148-1.028,4.218s-.221,1.381-.668,4.141a41.618,41.618,0,0,0-.653,6.525q.009,1.418.14,2.742-.642.9-1.418,1.883a36.512,36.512,0,0,1-2.671,3.024,24.719,24.719,0,0,1-2.8,2.458,7.066,7.066,0,0,1-2.548,1.308,2.948,2.948,0,0,1-1.924-.08,3.011,3.011,0,0,1-1.22-1.033,3.965,3.965,0,0,1-.634-1.593,10.387,10.387,0,0,1-.168-1.787q0-.583.039-1.457a12.554,12.554,0,0,1,.24-1.868,24.736,24.736,0,0,1,.669-2.5,12.948,12.948,0,0,1,.957-2.388,5.881,5.881,0,0,1,1.18-1.513,3.639,3.639,0,0,1,1.675-.863.4.4,0,0,1,.529.267,3.071,3.071,0,0,1,.127.945,4.233,4.233,0,0,1-.018.881q-.352,1.492-.421,1.9a1.822,1.822,0,0,0,.38,1.591q.359.527,1.577.243a3.388,3.388,0,0,0,1.443-.721,6.206,6.206,0,0,0,1.307-1.775,10.069,10.069,0,0,0,.9-2.095,6.325,6.325,0,0,0,.225-1.682,4.346,4.346,0,0,0-.515-2.107,3.932,3.932,0,0,0-1.394-1.468,5.136,5.136,0,0,0-2.136-.686,8.1,8.1,0,0,0-2.707.2,8.853,8.853,0,0,0-2.974,1.284,12.341,12.341,0,0,0-2.449,2.17,15.516,15.516,0,0,0-1.922,2.791,21.6,21.6,0,0,0-1.387,3.131,34.178,34.178,0,0,0-1.03,3.683,15.815,15.815,0,0,0-.464,3.49q0,.538.051,1.054a10.746,10.746,0,0,0,.556,2.6,10.746,10.746,0,0,1-.556-2.6q-.616.969-1.174,1.777-1.268,1.837-2.3,3.1a23.1,23.1,0,0,1-1.872,2.061q-.843.8-1.572,1.383.605-4.289,1.194-8.038.261-1.588.676-4.194t.647-4.054q.232-1.442.415-2.576c.12-.757.216-1.358.289-1.809a2.325,2.325,0,0,0,.069-.527.893.893,0,0,0-.514-.917,2.068,2.068,0,0,0-1.256-.038,5.268,5.268,0,0,0-1.327.526,6.692,6.692,0,0,0-1.347.979,6.968,6.968,0,0,0-1.128,1.344,4.552,4.552,0,0,0-.666,1.615l-1.872,9.532a15.772,15.772,0,0,1-.408,2.055,16.744,16.744,0,0,1-.841,2.472A10.31,10.31,0,0,1,143,581.86a2.857,2.857,0,0,1-1.608,1.155,1.279,1.279,0,0,1-.917-.071,1.465,1.465,0,0,1-.584-.6,2.975,2.975,0,0,1-.306-.962,7.7,7.7,0,0,1-.093-1.171,15.442,15.442,0,0,1,.27-2.749q.276-1.572.748-4.251t.752-4.289a18.785,18.785,0,0,1,.7-2.823,4.539,4.539,0,0,0,.2-.726,3.423,3.423,0,0,0,.056-.6,1.185,1.185,0,0,0-.611-1.185,2.17,2.17,0,0,0-1.448-.093,5.214,5.214,0,0,0-2.02,1.038,5.289,5.289,0,0,0-1.577,2.03q-.739,1.7-1.305,3.332a24.668,24.668,0,0,0-.976,4.314q-.407,2.687-.685,4.513c-.015.1-.029.2-.042.294q-.368.489-.773,1a36.493,36.493,0,0,1-2.67,3.024,24.933,24.933,0,0,1-2.8,2.458,7.035,7.035,0,0,1-2.548,1.307,2.943,2.943,0,0,1-1.924-.079,3.017,3.017,0,0,1-1.22-1.033,3.965,3.965,0,0,1-.634-1.593,10.552,10.552,0,0,1-.168-1.787q0-.583.039-1.457a12.664,12.664,0,0,1,.24-1.868,24.736,24.736,0,0,1,.669-2.5,13.006,13.006,0,0,1,.957-2.388,5.918,5.918,0,0,1,1.18-1.513,3.639,3.639,0,0,1,1.675-.863.4.4,0,0,1,.529.267,3.072,3.072,0,0,1,.127.945,4.233,4.233,0,0,1-.018.881q-.35,1.492-.42,1.9a1.821,1.821,0,0,0,.379,1.591q.359.527,1.577.243a3.392,3.392,0,0,0,1.444-.721,6.206,6.206,0,0,0,1.307-1.775,10.1,10.1,0,0,0,.9-2.095,6.293,6.293,0,0,0,.225-1.682,4.336,4.336,0,0,0-.515-2.107,3.938,3.938,0,0,0-1.394-1.468,5.14,5.14,0,0,0-2.137-.686,8.1,8.1,0,0,0-2.707.2A8.86,8.86,0,0,0,121.9,568.5a12.341,12.341,0,0,0-2.449,2.17,15.555,15.555,0,0,0-1.922,2.791,21.627,21.627,0,0,0-1.386,3.13,34.242,34.242,0,0,0-1.031,3.683,15.815,15.815,0,0,0-.464,3.49,12.011,12.011,0,0,0,.194,2.1c.017.09.036.178.055.266-.019-.088-.038-.176-.055-.266q-.683.749-1.389,1.475a23.4,23.4,0,0,1-2.134,1.964,4.982,4.982,0,0,1-1.924,1.054.755.755,0,0,1-.992-.417,4.624,4.624,0,0,1-.253-1.68,11.2,11.2,0,0,1,.331-2.564q.339-1.446.556-2.882a29.087,29.087,0,0,1,.828-3.544q.609-2.105.917-3.426t.55-2.354a7.416,7.416,0,0,0,.237-1.568,1.141,1.141,0,0,0-.362-.926q-.358-.294-1.352-.065a7.3,7.3,0,0,0-1.217.417,7.74,7.74,0,0,0-1.3.717,6.085,6.085,0,0,0-1.118.985,2.614,2.614,0,0,0-.657,1.259q-.21.925-1.105,4.037-.961,3.79-1.283,4.9-.195.566-.862,4.948a23.621,23.621,0,0,0-.314,3.65,7.541,7.541,0,0,0,.242,1.952,2.9,2.9,0,0,0,.77,1.369,2.633,2.633,0,0,0,1.391.664,5.375,5.375,0,0,0,2.111-.136,11.262,11.262,0,0,0,2.948-1.192,27.7,27.7,0,0,0,3.038-1.978,31.284,31.284,0,0,0,2.773-2.321q.5-.47.935-.908-.146-.207-.277-.428.131.221.277.428a6.727,6.727,0,0,0,.793.937,6.208,6.208,0,0,0,2.841,1.557,8.228,8.228,0,0,0,3.921-.078,9.7,9.7,0,0,0,2.512-.98,17.442,17.442,0,0,0,2.377-1.6,23.481,23.481,0,0,0,2.183-1.975q1.044-1.068,1.93-2.149.354-.43.7-.874a5.734,5.734,0,0,0,.393,1.29,4.895,4.895,0,0,0,1.362,1.853,4.426,4.426,0,0,0,1.949.912,5.291,5.291,0,0,0,2.255-.047,7.518,7.518,0,0,0,2.73-1.341,17.519,17.519,0,0,0,2.7-2.488l-.512,3.058q-1.51,1.689-2.6,3.1T138.98,594.2a24.542,24.542,0,0,0-1.6,2.436q-.766,1.343-1.121,2.046t-1.239,2.51a11.257,11.257,0,0,0-1.363,5.759,4.784,4.784,0,0,0,.666,2.216,3.221,3.221,0,0,0,1.429,1.263,5.167,5.167,0,0,0,1.917.419,8.742,8.742,0,0,0,2.274-.244,9.333,9.333,0,0,0,2.785-1.129A9.794,9.794,0,0,0,144.9,607.7a13.317,13.317,0,0,0,1.635-2.289,16.477,16.477,0,0,0,1.189-2.525,22.829,22.829,0,0,0,.777-2.663,23.513,23.513,0,0,0,.453-2.508c.082-.721.171-1.482.264-2.276.02-.328.075-.8.163-1.417q.3-3.209.534-4.417a3.147,3.147,0,0,1,.893-1.8q2.7-2.446,3.175-2.969,1.581-1.642,1.75-1.8.528-.508,1.725-1.9.681-.805,1.3-1.63h0a6.667,6.667,0,0,0,.774.909,6.205,6.205,0,0,0,2.84,1.557,8.227,8.227,0,0,0,3.921-.078,9.684,9.684,0,0,0,2.512-.98,17.3,17.3,0,0,0,2.378-1.6,23.374,23.374,0,0,0,2.183-1.975q1.043-1.069,1.93-2.149,1.124-1.364,2.164-2.871a15.13,15.13,0,0,0,.957,2.582,7.278,7.278,0,0,0,1.964,2.6,2.756,2.756,0,0,0,2.42.579,9.526,9.526,0,0,0,1.811-.638,20.854,20.854,0,0,0,1.979-1.046q1.017-.607,2.017-1.31t1.943-1.411q.714-.548,1.434-1.134a6.828,6.828,0,0,1-.656-.884,6.828,6.828,0,0,0,.656.884c.077.087.156.173.237.256a6.025,6.025,0,0,0,2.826,1.613,8.173,8.173,0,0,0,3.943-.068,14.241,14.241,0,0,0,2.854-1,21.667,21.667,0,0,0,2.717-1.53,26.9,26.9,0,0,0,2.5-1.866q1.186-1,2.219-1.992a45.1,45.1,0,0,0,4.479-5.069ZM144.287,594.8q-.14,1.249-.239,2.138a10.529,10.529,0,0,1-.31,1.644q-.38,1.4-.626,2.249t-.569,1.738a9.75,9.75,0,0,1-.606,1.4,6.469,6.469,0,0,1-.668.982,2.924,2.924,0,0,1-.841.718,4.013,4.013,0,0,1-1.035.384q-1.589.366-.808-2.148a36.047,36.047,0,0,1,2.572-6.044,18.38,18.38,0,0,1,3.307-4.655C144.439,593.44,144.379,593.971,144.287,594.8Zm38.4-35.986a44.417,44.417,0,0,1,.735-5.96c.417-2.295.615-3.386.626-3.443s.346-1.266,1.04-3.8a45.718,45.718,0,0,1,1.794-5.545,16.775,16.775,0,0,1,1.512-2.851,2.772,2.772,0,0,1,1.422-1.252c.122-.029.2.123.221.452s.038.731.041,1.2a27.97,27.97,0,0,1-.984,5.049q-.782,2.77-1.852,5.619t-2.276,5.58Q183.765,556.6,182.691,558.815ZM190.5,569.9c-.038-.114-.073-.231-.107-.348.034.117.069.234.107.348q.127.388.283.747Q190.632,570.286,190.5,569.9Zm5.226-7.654a8.589,8.589,0,0,1,.437-1.981q.39-1.231.688-2.074a6.752,6.752,0,0,1,.789-1.561,5.358,5.358,0,0,1,1.226-1.27,4.651,4.651,0,0,1,1.777-.792.891.891,0,0,1,.984.462,3,3,0,0,1,.41,1.666,4.5,4.5,0,0,1-.833,2.121,12.756,12.756,0,0,1-1.719,2.251,11.7,11.7,0,0,1-1.9,1.571,5.943,5.943,0,0,1-1.9.877C195.687,563.165,195.7,562.742,195.73,562.243Z" transform="translate(-102 -529.761)" fill="#f9f9e8"/>
    </g>
  </g>
  <g id="Group_3454" data-name="Group 3454" transform="translate(74.767 80.781)">
    <path id="Path_8507" data-name="Path 8507" d="M145.375,661.377a1.308,1.308,0,1,1,0-2.617A69.264,69.264,0,0,0,213.9,599.545a1.308,1.308,0,1,1,2.59.376,71.881,71.881,0,0,1-71.118,61.457Z" transform="translate(-144.066 -598.424)" fill="#f9f9e8"/>
  </g>
  <g id="Group_3455" data-name="Group 3455" transform="translate(8.328 0)">
    <path id="Path_8508" data-name="Path 8508" d="M64.044,548.9a1.31,1.31,0,0,1-1.232-1.751,71.9,71.9,0,0,1,67.671-47.614,1.309,1.309,0,1,1,0,2.617,69.279,69.279,0,0,0-65.208,45.879A1.308,1.308,0,0,1,64.044,548.9Z" transform="translate(-62.734 -499.537)" fill="#f9f9e8"/>
  </g>
  <g id="Group_3460" data-name="Group 3460" transform="translate(95.672 79.896)">
    <g id="Group_3456" data-name="Group 3456" transform="translate(0 5.61)">
      <path id="Path_8509" data-name="Path 8509" d="M173.469,607.9a5.415,5.415,0,0,0-1.261-.2,2.686,2.686,0,0,1-1.056-.2.652.652,0,0,1-.311-.626,1.331,1.331,0,0,1,.34-.921,1.743,1.743,0,0,1,.944-.529,2.091,2.091,0,0,1,1.825.407l.367-1.109a1.885,1.885,0,0,0-.962-.457,2.989,2.989,0,0,0-1.237.042,3.07,3.07,0,0,0-1.251.593,2.941,2.941,0,0,0-.831,1.029,2.885,2.885,0,0,0-.288,1.287,1.546,1.546,0,0,0,.539,1.336,3.2,3.2,0,0,0,1.7.424,2.935,2.935,0,0,1,1.073.194.6.6,0,0,1,.33.592,1.2,1.2,0,0,1-.347.876,1.943,1.943,0,0,1-.99.512,2.649,2.649,0,0,1-1.072.045,2.312,2.312,0,0,1-.944-.408l-.376,1.111a2.229,2.229,0,0,0,1.058.44,3.759,3.759,0,0,0,2.64-.654,2.732,2.732,0,0,0,1.131-2.274,1.658,1.658,0,0,0-.267-.989A1.44,1.44,0,0,0,173.469,607.9Z" transform="translate(-169.656 -604.209)" fill="#f9f9e8"/>
    </g>
    <g id="Group_3457" data-name="Group 3457" transform="translate(7.567 3.376)">
      <path id="Path_8510" data-name="Path 8510" d="M183.186,601.73l.021,3.24-3.165.731-.021-3.24-1.1.254.05,7.74,1.1-.254-.022-3.36,3.165-.731.022,3.36,1.109-.256-.05-7.74Z" transform="translate(-178.919 -601.474)" fill="#f9f9e8"/>
    </g>
    <g id="Group_3458" data-name="Group 3458" transform="translate(15.837 1.855)">
      <path id="Path_8511" data-name="Path 8511" d="M193.524,599.811a2.308,2.308,0,0,0-1.568-.118,3.283,3.283,0,0,0-1.562.841,4.09,4.09,0,0,0-1.01,1.61,6.314,6.314,0,0,0-.341,2.187,5,5,0,0,0,.374,2.029,2.229,2.229,0,0,0,1.031,1.146,2.275,2.275,0,0,0,1.559.123,3.247,3.247,0,0,0,1.559-.843,4.135,4.135,0,0,0,1-1.616,6.353,6.353,0,0,0,.342-2.195,5.127,5.127,0,0,0-.364-2.023A2.164,2.164,0,0,0,193.524,599.811Zm-.193,5.652A2,2,0,0,1,192,606.512a1.2,1.2,0,0,1-1.339-.431,3.354,3.354,0,0,1-.491-2.01,4.445,4.445,0,0,1,.464-2.221,2,2,0,0,1,1.329-1.037,1.213,1.213,0,0,1,1.341.427,3.313,3.313,0,0,1,.491,1.994A4.521,4.521,0,0,1,193.332,605.464Z" transform="translate(-189.043 -599.613)" fill="#f9f9e8"/>
    </g>
    <g id="Group_3459" data-name="Group 3459" transform="translate(24.56)">
      <path id="Path_8512" data-name="Path 8512" d="M203.957,597.661a1.7,1.7,0,0,0-1.557-.244l-2.679.618.05,7.74,1.119-.258-.02-3.229,1.559-.36a2.594,2.594,0,0,0,1.544-.965,2.853,2.853,0,0,0,.548-1.782A1.91,1.91,0,0,0,203.957,597.661Zm-.787,2.707a1.518,1.518,0,0,1-.878.5l-1.43.33-.015-2.339,1.43-.33a1.029,1.029,0,0,1,.886.1.971.971,0,0,1,.3.807A1.424,1.424,0,0,1,203.17,600.369Z" transform="translate(-199.721 -597.342)" fill="#f9f9e8"/>
    </g>
  </g>
</svg>
