<svg xmlns="http://www.w3.org/2000/svg" width="118.802" height="141.053" viewBox="0 0 118.802 141.053">
  <g id="Group_3610" data-name="Group 3610" transform="translate(-0.001)">
    <g id="Group_3577" data-name="Group 3577" transform="translate(0 32.889)">
      <g id="Group_3576" data-name="Group 3576">
        <path id="Path_8629" data-name="Path 8629" d="M678.8,880.119a59.421,59.421,0,0,1-52.606-87.012,59.918,59.918,0,0,1,18.09-20.736,2.233,2.233,0,1,1,2.6,3.634,54.865,54.865,0,0,0-23.016,44.714A54.935,54.935,0,1,0,727.45,795.187a55.425,55.425,0,0,0-16.735-19.182,2.233,2.233,0,1,1,2.6-3.634A59.327,59.327,0,0,1,738.2,820.719a59.4,59.4,0,0,1-59.4,59.4Z" transform="translate(-619.396 -771.955)" fill="#f9f9e8"/>
      </g>
    </g>
    <g id="Group_3582" data-name="Group 3582" transform="translate(31.709)">
      <g id="Group_3579" data-name="Group 3579" transform="translate(0 1.063)">
        <g id="Group_3578" data-name="Group 3578">
          <path id="Path_8630" data-name="Path 8630" d="M687.682,756.609a30.8,30.8,0,0,0-10.625-15.152c-5.342-4.188-11.535-6.015-17.744-8.462-1.068,9.589-2.621,21.763,2.328,30.575a26.97,26.97,0,0,0,12.975,11.55,25.581,25.581,0,0,0,6.128,1.74,8.6,8.6,0,0,0,1.083.091,72.263,72.263,0,0,0-13.316-26.625,1.264,1.264,0,0,1,1.977-1.574,74.789,74.789,0,0,1,13.848,27.81,6.165,6.165,0,0,0,2.531-1.771C691.436,769.505,687.722,756.739,687.682,756.609Z" transform="translate(-658.212 -732.995)" fill="#f9f9e8"/>
        </g>
      </g>
      <g id="Group_3581" data-name="Group 3581" transform="translate(33.081)">
        <g id="Group_3580" data-name="Group 3580">
          <path id="Path_8631" data-name="Path 8631" d="M720.855,731.694s-4.6,1.941-5,2.118c-5.727,2.532-12.774,5.865-15.3,11.842a26.8,26.8,0,0,0-1.577,13.917c.019.152.038.308.056.467.209,1.795.5,4.252,2.579,5.5.073.045.153.088.235.131a32.053,32.053,0,0,1,8.056-19.334,1.353,1.353,0,0,1,1.856-.136,1.228,1.228,0,0,1,.142,1.781,29.544,29.544,0,0,0-7.444,18.156,6.708,6.708,0,0,0,1.558-.346,22.5,22.5,0,0,0,8.358-5.4c.337-.327.667-.667.982-1.014C722.461,751.589,720.855,731.694,720.855,731.694Z" transform="translate(-698.709 -731.694)" fill="#f9f9e8"/>
        </g>
      </g>
    </g>
    <g id="Group_3584" data-name="Group 3584" transform="translate(8.43 40.639)">
      <g id="Group_3583" data-name="Group 3583">
        <path id="Path_8632" data-name="Path 8632" d="M680.686,874.107a50.988,50.988,0,0,1-45.141-74.662,51.42,51.42,0,0,1,15.523-17.794,1.117,1.117,0,0,1,1.3,1.817,48.675,48.675,0,0,0-20.42,39.669,48.738,48.738,0,1,0,91.9-22.652A49.164,49.164,0,0,0,709,783.467a1.117,1.117,0,0,1,1.3-1.817,50.908,50.908,0,0,1,21.354,41.486,50.971,50.971,0,0,1-50.971,50.97Z" transform="translate(-629.716 -781.442)" fill="#f9f9e8"/>
      </g>
    </g>
    <g id="Group_3609" data-name="Group 3609" transform="translate(27.237 63.522)">
      <g id="Group_3593" data-name="Group 3593">
        <g id="Group_3586" data-name="Group 3586" transform="translate(0 1.113)">
          <g id="Group_3585" data-name="Group 3585">
            <path id="Path_8633" data-name="Path 8633" d="M656.055,836.648V816.769h-3.317V814.05a5.751,5.751,0,0,0,2.668-1.061,5.192,5.192,0,0,0,1.823-2.173h2.719v25.832Z" transform="translate(-652.738 -810.816)" fill="#f9f9e8"/>
          </g>
        </g>
        <g id="Group_3588" data-name="Group 3588" transform="translate(12.079 0.783)">
          <g id="Group_3587" data-name="Group 3587">
            <path id="Path_8634" data-name="Path 8634" d="M679.864,830.682a6.17,6.17,0,0,1-12.339,0V816.592a6.17,6.17,0,1,1,12.339,0Zm-4.038-14.172a2.251,2.251,0,0,0-2.245-2.246,2.13,2.13,0,0,0-1.577.659,2.181,2.181,0,0,0-.649,1.586v14.11a2.181,2.181,0,0,0,.649,1.586,2.13,2.13,0,0,0,1.577.659,2.251,2.251,0,0,0,2.245-2.246Z" transform="translate(-667.525 -810.412)" fill="#f9f9e8"/>
          </g>
        </g>
        <g id="Group_3590" data-name="Group 3590" transform="translate(29.226 0.783)">
          <g id="Group_3589" data-name="Group 3589">
            <path id="Path_8635" data-name="Path 8635" d="M700.854,830.682a6.17,6.17,0,0,1-12.339,0V816.592a6.17,6.17,0,1,1,12.339,0Zm-4.037-14.172a2.251,2.251,0,0,0-2.246-2.246,2.13,2.13,0,0,0-1.576.659,2.178,2.178,0,0,0-.649,1.586v14.11a2.178,2.178,0,0,0,.649,1.586,2.13,2.13,0,0,0,1.576.659,2.251,2.251,0,0,0,2.246-2.246Z" transform="translate(-688.515 -810.412)" fill="#f9f9e8"/>
          </g>
        </g>
        <g id="Group_3592" data-name="Group 3592" transform="translate(45.694)">
          <g id="Group_3591" data-name="Group 3591">
            <path id="Path_8636" data-name="Path 8636" d="M715.142,820.063a3.075,3.075,0,0,1-.958,2.266,3.22,3.22,0,0,1-4.562,0,3.09,3.09,0,0,1-.948-2.266v-7.375a3.234,3.234,0,0,1,6.468,0ZM712.2,836.831h-2.286L723.1,809.516h2.264Zm-1.523-16.81a1.174,1.174,0,1,0,2.349,0v-7.374a1.174,1.174,0,1,0-2.349,0Zm12.71,2.7a3.064,3.064,0,0,1,2.276.958,3.142,3.142,0,0,1,.938,2.276v7.375a3.05,3.05,0,0,1-.948,2.266,3.245,3.245,0,0,1-4.553-.011,3.056,3.056,0,0,1-.948-2.255v-7.375a3.235,3.235,0,0,1,3.234-3.234Zm1.113,3.193a1.174,1.174,0,1,0-2.349,0v7.374a1.174,1.174,0,1,0,2.349,0Z" transform="translate(-708.674 -809.454)" fill="#f9f9e8"/>
          </g>
        </g>
      </g>
      <g id="Group_3608" data-name="Group 3608" transform="translate(4.049 33.054)">
        <g id="Group_3595" data-name="Group 3595">
          <g id="Group_3594" data-name="Group 3594">
            <path id="Path_8637" data-name="Path 8637" d="M660,849.917a2.435,2.435,0,0,1,1.635.574,1.761,1.761,0,0,1,.673,1.384v4.464a1.751,1.751,0,0,1-.677,1.387A2.445,2.445,0,0,1,660,858.3a2.42,2.42,0,0,1-1.631-.574,1.764,1.764,0,0,1-.669-1.384v-4.464a1.751,1.751,0,0,1,.677-1.387A2.434,2.434,0,0,1,660,849.917Zm.792,1.932a.629.629,0,0,0-.242-.5.879.879,0,0,0-.589-.206.893.893,0,0,0-.592.206.627.627,0,0,0-.247.5v4.477a.627.627,0,0,0,.247.5.894.894,0,0,0,.592.206.879.879,0,0,0,.589-.206.63.63,0,0,0,.242-.5Z" transform="translate(-657.695 -849.917)" fill="#f9f9e8"/>
          </g>
        </g>
        <g id="Group_3597" data-name="Group 3597" transform="translate(9.686 0.105)">
          <g id="Group_3596" data-name="Group 3596">
            <path id="Path_8638" data-name="Path 8638" d="M671.845,850.045a2.44,2.44,0,0,1,1.785.568,1.862,1.862,0,0,1,.5,1.384v1.188a1.8,1.8,0,0,1-.777,1.469l1.077,3.57h-1.573l-.881-3.081h-.97v3.081h-1.454v-8.178Zm.869,1.971q0-.712-.831-.712h-.877v2.617h.877a.871.871,0,0,0,.589-.209.642.642,0,0,0,.242-.5Z" transform="translate(-669.552 -850.045)" fill="#f9f9e8"/>
          </g>
        </g>
        <g id="Group_3599" data-name="Group 3599" transform="translate(19.356 0.013)">
          <g id="Group_3598" data-name="Group 3598">
            <path id="Path_8639" data-name="Path 8639" d="M683.7,858.307a2.434,2.434,0,0,1-1.635-.574,1.754,1.754,0,0,1-.673-1.377v-4.464a1.751,1.751,0,0,1,.677-1.387,2.447,2.447,0,0,1,1.631-.571,2.418,2.418,0,0,1,1.631.574,1.764,1.764,0,0,1,.669,1.384v.933h-1.508v-.959a.636.636,0,0,0-.246-.5.885.885,0,0,0-.593-.209.869.869,0,0,0-.588.209.64.64,0,0,0-.243.5v4.477a.63.63,0,0,0,.243.5.879.879,0,0,0,.588.206.9.9,0,0,0,.593-.205.625.625,0,0,0,.246-.5v-1.607h-.808V853.5H686v2.859a1.742,1.742,0,0,1-.677,1.384A2.445,2.445,0,0,1,683.7,858.307Z" transform="translate(-681.39 -849.933)" fill="#f9f9e8"/>
          </g>
        </g>
        <g id="Group_3601" data-name="Group 3601" transform="translate(28.758 0.105)">
          <g id="Group_3600" data-name="Group 3600">
            <path id="Path_8640" data-name="Path 8640" d="M694.766,856.343l-.354,1.88H692.9l1.639-8.178h2l1.616,8.178h-1.529l-.34-1.88Zm.764-4.425-.538,3.224h1.077Z" transform="translate(-692.899 -850.045)" fill="#f9f9e8"/>
          </g>
        </g>
        <g id="Group_3603" data-name="Group 3603" transform="translate(39.028 0.098)">
          <g id="Group_3602" data-name="Group 3602">
            <path id="Path_8641" data-name="Path 8641" d="M707.1,850.037l1.93,5.5v-5.5h1.454v8.184h-1.562l-2-5.241v5.241h-1.455v-8.184Z" transform="translate(-705.471 -850.037)" fill="#f9f9e8"/>
          </g>
        </g>
        <g id="Group_3605" data-name="Group 3605" transform="translate(49.138 0.105)">
          <g id="Group_3604" data-name="Group 3604">
            <path id="Path_8642" data-name="Path 8642" d="M719.3,858.223h-1.454v-8.178H719.3Z" transform="translate(-717.847 -850.045)" fill="#f9f9e8"/>
          </g>
        </g>
        <g id="Group_3607" data-name="Group 3607" transform="translate(55.669 0.013)">
          <g id="Group_3606" data-name="Group 3606">
            <path id="Path_8643" data-name="Path 8643" d="M728.151,858.307a2.443,2.443,0,0,1-1.635-.571,1.748,1.748,0,0,1-.673-1.381v-4.464a1.751,1.751,0,0,1,.677-1.387,2.445,2.445,0,0,1,1.631-.571,2.419,2.419,0,0,1,1.631.574,1.763,1.763,0,0,1,.669,1.384v.933h-1.508v-.959a.637.637,0,0,0-.247-.5.883.883,0,0,0-.592-.209.871.871,0,0,0-.589.209.642.642,0,0,0-.242.5v4.477a.632.632,0,0,0,.242.5.881.881,0,0,0,.589.206.893.893,0,0,0,.592-.206.627.627,0,0,0,.247-.5v-1.129h1.508v1.142a1.742,1.742,0,0,1-.677,1.384A2.447,2.447,0,0,1,728.151,858.307Z" transform="translate(-725.842 -849.933)" fill="#f9f9e8"/>
          </g>
        </g>
      </g>
    </g>
  </g>
</svg>
