<svg id="Group_3470" data-name="Group 3470" xmlns="http://www.w3.org/2000/svg" width="154.584" height="58.777" viewBox="0 0 154.584 58.777">
  <g id="Group_3464" data-name="Group 3464" transform="translate(0 15.469)">
    <g id="Group_3462" data-name="Group 3462">
      <path id="Path_8513" data-name="Path 8513" d="M599.673,613.782a2.179,2.179,0,0,1-1.99-3.066c.651-1.459,6.458-14.361,9.987-17.984q.308-.316.632-.6-.325-.288-.632-.6c-3.53-3.623-9.336-16.525-9.987-17.984A2.179,2.179,0,0,1,600,570.5c.18.027,4.441.672,9.193,1.755,9.034,2.059,11.533,3.791,12.628,4.914,2.832,2.907,3.139,11.431,3.139,14.961s-.306,12.054-3.139,14.961c-1.095,1.123-3.594,2.855-12.628,4.914-4.751,1.083-9.013,1.728-9.193,1.755A2.271,2.271,0,0,1,599.673,613.782Zm3.71-38.305c2.211,4.633,5.493,11.04,7.409,13.007a7.1,7.1,0,0,0,2.39,1.63,2.179,2.179,0,0,1,0,4.031,7.1,7.1,0,0,0-2.39,1.629c-1.916,1.967-5.2,8.372-7.408,13.006,8.948-1.637,14.278-3.669,15.312-4.73.79-.811,1.9-5.045,1.9-11.921s-1.112-11.109-1.9-11.92h0C617.659,579.144,612.33,577.113,603.382,575.477Z" transform="translate(-597.494 -570.473)" fill="#f9f9e8"/>
    </g>
    <g id="Group_3463" data-name="Group 3463" transform="translate(30.346)">
      <path id="Path_8514" data-name="Path 8514" d="M659.924,613.782a2.292,2.292,0,0,1-.324-.024c-.179-.027-4.441-.672-9.192-1.755-9.034-2.059-11.533-3.791-12.628-4.914-2.832-2.907-3.138-11.432-3.138-14.961s.306-12.053,3.138-14.961h0c1.095-1.123,3.594-2.855,12.628-4.914,4.751-1.083,9.013-1.728,9.192-1.755a2.179,2.179,0,0,1,2.313,3.042c-.65,1.459-6.457,14.361-9.987,17.984q-.308.316-.632.6.325.289.632.6c3.53,3.623,9.336,16.525,9.987,17.984a2.178,2.178,0,0,1-1.989,3.066Zm-3.71-38.3c-8.949,1.637-14.279,3.669-15.313,4.73h0c-.79.811-1.9,5.045-1.9,11.92s1.112,11.11,1.9,11.921c1.034,1.061,6.364,3.093,15.312,4.73-2.211-4.633-5.492-11.039-7.408-13.006a7.1,7.1,0,0,0-2.39-1.629,2.179,2.179,0,0,1,0-4.031,7.105,7.105,0,0,0,2.39-1.63C650.723,586.514,654,580.11,656.215,575.477Zm-16.874,3.21h0Z" transform="translate(-634.642 -570.473)" fill="#f9f9e8"/>
    </g>
  </g>
  <g id="Group_3465" data-name="Group 3465" transform="translate(20.007)">
    <path id="Path_8515" data-name="Path 8515" d="M630.882,569.328a8.9,8.9,0,1,1,8.9-8.9A8.906,8.906,0,0,1,630.882,569.328Zm0-13.434a4.538,4.538,0,1,0,4.538,4.538A4.543,4.543,0,0,0,630.882,555.894Z" transform="translate(-621.986 -551.537)" fill="#f9f9e8"/>
  </g>
  <g id="Group_3468" data-name="Group 3468" transform="translate(66.026 17.027)">
    <g id="Group_3466" data-name="Group 3466">
      <path id="Path_8516" data-name="Path 8516" d="M686.8,572.54h1.793v10.376h-2.011v-5.669l-2.39,5.669h-1.471l-2.405-5.6v5.6h-2V572.54h1.807l3.352,7.651Z" transform="translate(-678.32 -572.409)" fill="#f9f9e8"/>
      <path id="Path_8517" data-name="Path 8517" d="M704.693,582.916l-.991-2.3h-4.853l-.991,2.3h-2.287l4.765-10.376h1.836l4.765,10.376Zm-5.086-4.037h3.352l-1.675-3.891Z" transform="translate(-681.479 -572.409)" fill="#f9f9e8"/>
      <path id="Path_8518" data-name="Path 8518" d="M715.227,582.7a5.171,5.171,0,0,1-1.8-.881l.729-1.632a5.718,5.718,0,0,0,3.352,1.049,3.031,3.031,0,0,0,1.523-.314.975.975,0,0,0,.532-.881.868.868,0,0,0-.488-.779,6.381,6.381,0,0,0-1.712-.547,9.026,9.026,0,0,1-2.179-.678,2.877,2.877,0,0,1-1.18-.976,2.6,2.6,0,0,1-.372-1.435,2.862,2.862,0,0,1,.518-1.676,3.4,3.4,0,0,1,1.45-1.158,5.252,5.252,0,0,1,2.157-.415,7.069,7.069,0,0,1,2.127.32,4.333,4.333,0,0,1,1.632.875l-.729,1.632a4.844,4.844,0,0,0-3.017-1.05,2.488,2.488,0,0,0-1.4.35,1.086,1.086,0,0,0-.524.948.874.874,0,0,0,.2.582,1.638,1.638,0,0,0,.663.416,8.488,8.488,0,0,0,1.327.357,7.236,7.236,0,0,1,2.878,1.136,2.307,2.307,0,0,1,.881,1.909,2.737,2.737,0,0,1-1.136,2.31,5.172,5.172,0,0,1-3.162.852A8.15,8.15,0,0,1,715.227,582.7Z" transform="translate(-684.748 -572.38)" fill="#f9f9e8"/>
      <path id="Path_8519" data-name="Path 8519" d="M730.515,582.7a5.17,5.17,0,0,1-1.8-.881l.729-1.632a5.718,5.718,0,0,0,3.352,1.049,3.031,3.031,0,0,0,1.523-.314.975.975,0,0,0,.532-.881.868.868,0,0,0-.489-.779,6.38,6.38,0,0,0-1.712-.547,9.028,9.028,0,0,1-2.179-.678,2.878,2.878,0,0,1-1.18-.976,2.6,2.6,0,0,1-.372-1.435,2.862,2.862,0,0,1,.518-1.676,3.4,3.4,0,0,1,1.45-1.158,5.255,5.255,0,0,1,2.157-.415,7.069,7.069,0,0,1,2.127.32,4.333,4.333,0,0,1,1.632.875l-.729,1.632a4.844,4.844,0,0,0-3.016-1.05,2.489,2.489,0,0,0-1.4.35,1.086,1.086,0,0,0-.524.948.87.87,0,0,0,.2.582,1.632,1.632,0,0,0,.663.416,8.448,8.448,0,0,0,1.326.357,7.235,7.235,0,0,1,2.878,1.136,2.307,2.307,0,0,1,.881,1.909,2.737,2.737,0,0,1-1.136,2.31,5.172,5.172,0,0,1-3.162.852A8.154,8.154,0,0,1,730.515,582.7Z" transform="translate(-687.548 -572.38)" fill="#f9f9e8"/>
      <path id="Path_8520" data-name="Path 8520" d="M752.02,582.916l-.991-2.3h-4.853l-.991,2.3H742.9l4.765-10.376H749.5l4.765,10.376Zm-5.086-4.037h3.352l-1.675-3.891Z" transform="translate(-690.145 -572.409)" fill="#f9f9e8"/>
      <path id="Path_8521" data-name="Path 8521" d="M769.946,577.16v5.086a7.54,7.54,0,0,1-1.771.569,10.52,10.52,0,0,1-2.077.2,6.007,6.007,0,0,1-2.856-.641,4.421,4.421,0,0,1-1.858-1.836,5.908,5.908,0,0,1-.649-2.857,5.813,5.813,0,0,1,.649-2.813,4.5,4.5,0,0,1,1.836-1.843A5.706,5.706,0,0,1,766,572.38a6.9,6.9,0,0,1,2.09.306,4.361,4.361,0,0,1,1.6.86l-.729,1.632a5.488,5.488,0,0,0-1.414-.758,4.588,4.588,0,0,0-1.486-.233q-3,0-3,3.5,0,3.571,3.133,3.571a6.931,6.931,0,0,0,1.72-.219v-2.288h-2.04V577.16Z" transform="translate(-693.411 -572.38)" fill="#f9f9e8"/>
      <path id="Path_8522" data-name="Path 8522" d="M777.969,582.916V572.54h7.155V574.3h-4.941v2.448h4.634v1.778h-4.634v2.623h4.941v1.764Z" transform="translate(-696.566 -572.409)" fill="#f9f9e8"/>
    </g>
    <g id="Group_3467" data-name="Group 3467" transform="translate(0 15.59)">
      <path id="Path_8523" data-name="Path 8523" d="M687.37,602.124a6.018,6.018,0,0,1-2.245-1.2,4.656,4.656,0,0,1-3.1,1.166,4.8,4.8,0,0,1-1.931-.364,3.022,3.022,0,0,1-1.3-1.027,2.557,2.557,0,0,1-.466-1.509,2.817,2.817,0,0,1,.5-1.646,4.712,4.712,0,0,1,1.559-1.327,3.185,3.185,0,0,1-1.006-2.186,2.34,2.34,0,0,1,.379-1.318,2.522,2.522,0,0,1,1.056-.9,3.62,3.62,0,0,1,1.567-.321,2.954,2.954,0,0,1,1.982.634,2.122,2.122,0,0,1,.743,1.7,2.469,2.469,0,0,1-.453,1.457,4.335,4.335,0,0,1-1.413,1.194l1.792,1.764a7.1,7.1,0,0,0,.641-2.608h1.822a7.965,7.965,0,0,1-1.151,3.891,5.157,5.157,0,0,0,2.084,1.078Zm-6.471-2.069a1.789,1.789,0,0,0,1.18.364,2.772,2.772,0,0,0,1.822-.7l-2.39-2.361a2.5,2.5,0,0,0-.794.765,1.762,1.762,0,0,0-.255.94A1.22,1.22,0,0,0,680.9,600.055Zm.729-6.8a1.018,1.018,0,0,0-.292.765,1.157,1.157,0,0,0,.167.583,4.563,4.563,0,0,0,.6.758,3.39,3.39,0,0,0,.955-.7,1.123,1.123,0,0,0,.284-.743.923.923,0,0,0-.262-.693.942.942,0,0,0-.685-.255A1.058,1.058,0,0,0,681.628,593.256Z" transform="translate(-678.32 -591.471)" fill="#f9f9e8"/>
      <path id="Path_8524" data-name="Path 8524" d="M704.881,601.79a5.154,5.154,0,0,1-1.8-.882l.729-1.631a5.716,5.716,0,0,0,3.352,1.049,3.027,3.027,0,0,0,1.523-.314.975.975,0,0,0,.532-.881.869.869,0,0,0-.488-.779,6.4,6.4,0,0,0-1.713-.547,9.075,9.075,0,0,1-2.179-.678,2.869,2.869,0,0,1-1.18-.976,2.59,2.59,0,0,1-.372-1.435,2.867,2.867,0,0,1,.517-1.676,3.405,3.405,0,0,1,1.45-1.158,5.254,5.254,0,0,1,2.157-.415,7.075,7.075,0,0,1,2.128.32,4.357,4.357,0,0,1,1.632.874l-.729,1.632a4.85,4.85,0,0,0-3.017-1.049,2.491,2.491,0,0,0-1.4.35,1.086,1.086,0,0,0-.524.948.87.87,0,0,0,.2.582,1.632,1.632,0,0,0,.663.416,8.447,8.447,0,0,0,1.326.357,7.243,7.243,0,0,1,2.878,1.136,2.305,2.305,0,0,1,.882,1.909,2.735,2.735,0,0,1-1.137,2.31,5.177,5.177,0,0,1-3.162.852A8.154,8.154,0,0,1,704.881,601.79Z" transform="translate(-682.854 -591.465)" fill="#f9f9e8"/>
      <path id="Path_8525" data-name="Path 8525" d="M718.9,591.625h4.707a3.946,3.946,0,0,1,2.674.831,3.134,3.134,0,0,1-.007,4.51,3.926,3.926,0,0,1-2.667.838h-2.434V602H718.9Zm4.415,4.445q1.778,0,1.778-1.341t-1.778-1.355h-2.142v2.7Z" transform="translate(-685.751 -591.494)" fill="#f9f9e8"/>
      <path id="Path_8526" data-name="Path 8526" d="M740.817,602l-.991-2.3h-4.852l-.992,2.3H731.7l4.765-10.376H738.3L743.061,602Zm-5.086-4.037h3.352l-1.675-3.891Z" transform="translate(-688.093 -591.494)" fill="#f9f9e8"/>
    </g>
  </g>
  <g id="Group_3469" data-name="Group 3469" transform="translate(66.026 52.95)">
    <path id="Path_8527" data-name="Path 8527" d="M680.7,616.4h.276v3.388h-.228L678.6,616.9v2.889h-.276V616.4h.234l2.146,2.889Z" transform="translate(-678.32 -616.363)" fill="#f9f9e8"/>
    <path id="Path_8528" data-name="Path 8528" d="M688.079,619.789l-.386-.9h-1.827l-.39.9h-.3l1.476-3.388h.266l1.47,3.388Zm-2.1-1.161h1.6l-.8-1.871Z" transform="translate(-679.574 -616.363)" fill="#f9f9e8"/>
    <path id="Path_8529" data-name="Path 8529" d="M692.98,619.789v-3.131h-1.214V616.4h2.723v.257h-1.214v3.131Z" transform="translate(-680.782 -616.363)" fill="#f9f9e8"/>
    <path id="Path_8530" data-name="Path 8530" d="M698.924,619.487a1.368,1.368,0,0,1-.336-1V616.4h.3v2.118a.915.915,0,0,0,1.023,1.046,1.018,1.018,0,0,0,.76-.264,1.077,1.077,0,0,0,.259-.783V616.4h.29v2.085a1.377,1.377,0,0,1-.332,1,1.306,1.306,0,0,1-.976.341A1.32,1.32,0,0,1,698.924,619.487Z" transform="translate(-682.031 -616.363)" fill="#f9f9e8"/>
    <path id="Path_8531" data-name="Path 8531" d="M708.368,619.789h-.3l-.423-1.128a.535.535,0,0,0-.225-.306.873.873,0,0,0-.413-.078h-.948v1.513h-.295V616.4h1.309a1.251,1.251,0,0,1,.819.24.844.844,0,0,1,.291.688.872.872,0,0,1-.174.552.915.915,0,0,1-.5.314.465.465,0,0,1,.252.124.781.781,0,0,1,.176.295Zm-1.318-1.77q.833,0,.833-.7,0-.67-.833-.671h-1v1.366Z" transform="translate(-683.344 -616.363)" fill="#f9f9e8"/>
    <path id="Path_8532" data-name="Path 8532" d="M715.176,619.789l-.386-.9h-1.828l-.39.9h-.3l1.475-3.388h.266l1.47,3.388Zm-2.1-1.161h1.6l-.8-1.871Z" transform="translate(-684.536 -616.363)" fill="#f9f9e8"/>
    <path id="Path_8533" data-name="Path 8533" d="M719.8,619.789V616.4h.295v3.132h1.751v.257Z" transform="translate(-685.915 -616.363)" fill="#f9f9e8"/>
    <path id="Path_8534" data-name="Path 8534" d="M730.547,619.712a1.493,1.493,0,0,1-.545-.336l.123-.233a1.632,1.632,0,0,0,.512.319,1.781,1.781,0,0,0,.616.095,1.1,1.1,0,0,0,.667-.176.581.581,0,0,0,.238-.5.409.409,0,0,0-.117-.3.806.806,0,0,0-.295-.183,3.661,3.661,0,0,0-.474-.133,4.618,4.618,0,0,1-.635-.179,1.036,1.036,0,0,1-.412-.279.712.712,0,0,1-.167-.495.883.883,0,0,1,.147-.5.946.946,0,0,1,.422-.338,1.581,1.581,0,0,1,.636-.118,1.784,1.784,0,0,1,.642.112,1.4,1.4,0,0,1,.51.33l-.124.234a1.667,1.667,0,0,0-.485-.314,1.447,1.447,0,0,0-.542-.1,1.074,1.074,0,0,0-.669.185.61.61,0,0,0-.24.51.466.466,0,0,0,.209.418,1.958,1.958,0,0,0,.614.234l.138.033a5.009,5.009,0,0,1,.6.177,1,1,0,0,1,.381.257.648.648,0,0,1,.157.457.83.83,0,0,1-.148.488.95.95,0,0,1-.421.328,1.617,1.617,0,0,1-.636.117A2.153,2.153,0,0,1,730.547,619.712Z" transform="translate(-687.783 -616.355)" fill="#f9f9e8"/>
    <path id="Path_8535" data-name="Path 8535" d="M736.731,616.4h1.3a1.194,1.194,0,0,1,.8.247.847.847,0,0,1,.29.68.855.855,0,0,1-.292.688,1.187,1.187,0,0,1-.8.25h-1.009v1.523h-.295Zm1.285,1.608a.9.9,0,0,0,.6-.176.72.72,0,0,0,0-1,.908.908,0,0,0-.6-.176h-.99v1.356Z" transform="translate(-689.015 -616.363)" fill="#f9f9e8"/>
    <path id="Path_8536" data-name="Path 8536" d="M745.476,619.789l-.386-.9h-1.827l-.391.9h-.3l1.475-3.388h.267l1.47,3.388Zm-2.1-1.161h1.6l-.8-1.871Z" transform="translate(-690.084 -616.363)" fill="#f9f9e8"/>
  </g>
</svg>
