<svg id="Group_3564" data-name="Group 3564" xmlns="http://www.w3.org/2000/svg" width="119.121" height="108.415" viewBox="0 0 119.121 108.415">
  <g id="Group_3544" data-name="Group 3544" transform="translate(24.324 0)">
    <g id="Group_3542" data-name="Group 3542" transform="translate(0 29.835)">
      <path id="Path_8585" data-name="Path 8585" d="M1247.3,593.05c-10.253,0-18.6-7.935-18.6-17.687,0-7.6-6.59-13.782-14.69-13.782s-14.689,6.182-14.689,13.782,6.59,13.782,14.689,13.782a15.226,15.226,0,0,0,9.783-3.5,1.952,1.952,0,1,1,2.509,2.992,19.138,19.138,0,0,1-12.292,4.414c-10.253,0-18.594-7.935-18.594-17.687s8.341-17.687,18.594-17.687,18.595,7.934,18.595,17.687c0,7.6,6.59,13.782,14.69,13.782s14.69-6.182,14.69-13.782-6.59-13.782-14.69-13.782a15.229,15.229,0,0,0-9.783,3.5,1.952,1.952,0,0,1-2.509-2.992,19.142,19.142,0,0,1,12.292-4.414c10.253,0,18.594,7.934,18.594,17.687S1257.551,593.05,1247.3,593.05Z" transform="translate(-1195.419 -557.677)" fill="#f9f9e8"/>
    </g>
    <g id="Group_3543" data-name="Group 3543" transform="translate(22.737)">
      <path id="Path_8586" data-name="Path 8586" d="M1235.752,546.156a12.5,12.5,0,1,1,12.5-12.5A12.514,12.514,0,0,1,1235.752,546.156Zm0-21.1a8.6,8.6,0,1,0,8.6,8.6A8.606,8.606,0,0,0,1235.752,525.06Z" transform="translate(-1223.252 -521.155)" fill="#f9f9e8"/>
    </g>
  </g>
  <g id="Group_3549" data-name="Group 3549" transform="translate(26.276 78.332)">
    <g id="Group_3545" data-name="Group 3545" transform="translate(0 0.185)">
      <path id="Path_8587" data-name="Path 8587" d="M1204.751,630.124h-2.6V625.7l-4.346-8.434h2.91l2.744,6.058,2.725-6.058h2.91l-4.347,8.434Z" transform="translate(-1197.809 -617.271)" fill="#f9f9e8"/>
    </g>
    <g id="Group_3546" data-name="Group 3546" transform="translate(16.831)">
      <path id="Path_8588" data-name="Path 8588" d="M1224.986,630.212a6.418,6.418,0,0,1-4.677-1.86,6.818,6.818,0,0,1,.009-9.447,6.8,6.8,0,0,1,9.345,0,6.829,6.829,0,0,1,0,9.447A6.422,6.422,0,0,1,1224.986,630.212Zm2.836-3.527a4.856,4.856,0,0,0,0-6.123,4.093,4.093,0,0,0-5.681.009,4.812,4.812,0,0,0,0,6.114,4.081,4.081,0,0,0,5.681,0Z" transform="translate(-1218.413 -617.045)" fill="#f9f9e8"/>
    </g>
    <g id="Group_3547" data-name="Group 3547" transform="translate(35.908)">
      <path id="Path_8589" data-name="Path 8589" d="M1243.663,628.334a6.794,6.794,0,0,1,.01-9.429,6.428,6.428,0,0,1,4.668-1.86,6.646,6.646,0,0,1,3.729,1.069,5.858,5.858,0,0,1,2.33,3h-3.112a3.043,3.043,0,0,0-2.947-1.694,3.751,3.751,0,0,0-2.845,1.151,4.813,4.813,0,0,0,0,6.114,3.567,3.567,0,0,0,2.689,1.151,3.723,3.723,0,0,0,2.5-.783,3.417,3.417,0,0,0,1.132-2.108h-4.272v-1.97h7.053v1.97a6.508,6.508,0,0,1-10.939,3.388Z" transform="translate(-1241.766 -617.045)" fill="#f9f9e8"/>
    </g>
    <g id="Group_3548" data-name="Group 3548" transform="translate(54.416 0.148)">
      <path id="Path_8590" data-name="Path 8590" d="M1273.832,630.116,1273,627.7h-5.009l-.829,2.412h-2.743l4.548-12.89h3.075l4.531,12.89Zm-5.156-4.4h3.665l-1.841-5.359Z" transform="translate(-1264.422 -617.226)" fill="#f9f9e8"/>
    </g>
  </g>
  <g id="Group_3563" data-name="Group 3563" transform="translate(0 101.989)">
    <g id="Group_3550" data-name="Group 3550" transform="translate(0 1.577)">
      <path id="Path_8591" data-name="Path 8591" d="M1166.269,652.116a2.778,2.778,0,0,1,0-3.513,2.127,2.127,0,0,1,1.628-.668,1.96,1.96,0,0,1,2.09,1.474h-.642a1.354,1.354,0,0,0-.518-.733,1.585,1.585,0,0,0-.93-.261,1.522,1.522,0,0,0-1.183.5,2.518,2.518,0,0,0,0,2.883,1.517,1.517,0,0,0,1.183.5,1.578,1.578,0,0,0,.93-.261,1.355,1.355,0,0,0,.518-.732h.642a2.189,2.189,0,0,1-.745,1.071,2.372,2.372,0,0,1-2.973-.266Z" transform="translate(-1165.643 -647.935)" fill="#f9f9e8"/>
    </g>
    <g id="Group_3551" data-name="Group 3551" transform="translate(9.724 1.577)">
      <path id="Path_8592" data-name="Path 8592" d="M1178.146,648.021v.771a1.441,1.441,0,0,1,1.448-.857v.626h-.171a1.27,1.27,0,0,0-.947.334,1.607,1.607,0,0,0-.33,1.148V652.7h-.6v-4.678Z" transform="translate(-1177.546 -647.935)" fill="#f9f9e8"/>
    </g>
    <g id="Group_3552" data-name="Group 3552" transform="translate(16.732 1.577)">
      <path id="Path_8593" data-name="Path 8593" d="M1188.378,652.784a2.13,2.13,0,0,1-1.628-.668,2.475,2.475,0,0,1-.625-1.761,2.426,2.426,0,0,1,.638-1.755,2.192,2.192,0,0,1,1.653-.664,2.131,2.131,0,0,1,1.615.626,2.154,2.154,0,0,1,.6,1.55,2.938,2.938,0,0,1-.034.462h-3.855a1.85,1.85,0,0,0,.489,1.268,1.539,1.539,0,0,0,1.148.462,1.648,1.648,0,0,0,.921-.248,1.287,1.287,0,0,0,.527-.651h.643a2.2,2.2,0,0,1-.754.99A2.178,2.178,0,0,1,1188.378,652.784Zm1.636-2.682a1.648,1.648,0,0,0-.466-1.229,1.689,1.689,0,0,0-2.305-.008,1.8,1.8,0,0,0-.5,1.238Z" transform="translate(-1186.125 -647.935)" fill="#f9f9e8"/>
    </g>
    <g id="Group_3553" data-name="Group 3553" transform="translate(26.198 1.577)">
      <path id="Path_8594" data-name="Path 8594" d="M1198.355,652.09a2.5,2.5,0,0,1-.642-1.769,2.375,2.375,0,0,1,.638-1.731,2.169,2.169,0,0,1,1.624-.655,2.019,2.019,0,0,1,1.113.308,1.912,1.912,0,0,1,.711.8v-1.02h.6V652.7h-.6V651.67a1.937,1.937,0,0,1-.711.8,2,2,0,0,1-1.113.313A2.115,2.115,0,0,1,1198.355,652.09Zm2.934-.347a2.13,2.13,0,0,0,0-2.767,1.648,1.648,0,0,0-1.229-.527,1.665,1.665,0,0,0-1.224.506,1.844,1.844,0,0,0-.506,1.367,1.973,1.973,0,0,0,.51,1.405,1.619,1.619,0,0,0,1.225.543A1.643,1.643,0,0,0,1201.289,651.743Z" transform="translate(-1197.713 -647.935)" fill="#f9f9e8"/>
    </g>
    <g id="Group_3554" data-name="Group 3554" transform="translate(35.989 0.489)">
      <path id="Path_8595" data-name="Path 8595" d="M1212.244,648.248h-1.294v3.1a.7.7,0,0,0,.137.493.671.671,0,0,0,.489.141h.668v.471h-.8a.973.973,0,0,1-1.1-1.105v-3.1h-.651v-.471h.651V646.6h.6v1.174h1.294Z" transform="translate(-1209.699 -646.603)" fill="#f9f9e8"/>
    </g>
    <g id="Group_3555" data-name="Group 3555" transform="translate(43.34 1.577)">
      <path id="Path_8596" data-name="Path 8596" d="M1220.95,652.784a2.126,2.126,0,0,1-1.627-.668,2.472,2.472,0,0,1-.626-1.761,2.426,2.426,0,0,1,.638-1.755,2.192,2.192,0,0,1,1.654-.664,2.13,2.13,0,0,1,1.614.626,2.154,2.154,0,0,1,.6,1.55,2.938,2.938,0,0,1-.034.462h-3.855a1.849,1.849,0,0,0,.489,1.268,1.54,1.54,0,0,0,1.148.462,1.651,1.651,0,0,0,.922-.248,1.292,1.292,0,0,0,.527-.651h.642a2.2,2.2,0,0,1-.754.99A2.175,2.175,0,0,1,1220.95,652.784Zm1.636-2.682a1.645,1.645,0,0,0-.466-1.229,1.588,1.588,0,0,0-1.157-.458,1.571,1.571,0,0,0-1.148.45,1.8,1.8,0,0,0-.5,1.238Z" transform="translate(-1218.697 -647.935)" fill="#f9f9e8"/>
    </g>
    <g id="Group_3556" data-name="Group 3556" transform="translate(59.959)">
      <path id="Path_8597" data-name="Path 8597" d="M1241.467,647.582a2.168,2.168,0,0,1,1.623.655,2.375,2.375,0,0,1,.638,1.731,2.5,2.5,0,0,1-.642,1.769,2.113,2.113,0,0,1-1.619.694,2,2,0,0,1-1.114-.313,1.934,1.934,0,0,1-.711-.8v1.028h-.6v-6.34h.6v2.682a1.909,1.909,0,0,1,.711-.8A2.019,2.019,0,0,1,1241.467,647.582Zm-.094,4.334a1.623,1.623,0,0,0,1.229-.543,1.973,1.973,0,0,0,.51-1.405,1.845,1.845,0,0,0-.506-1.367,1.671,1.671,0,0,0-1.229-.506,1.639,1.639,0,0,0-1.229.527,2.145,2.145,0,0,0,0,2.767A1.634,1.634,0,0,0,1241.373,651.916Z" transform="translate(-1239.042 -646.005)" fill="#f9f9e8"/>
    </g>
    <g id="Group_3557" data-name="Group 3557" transform="translate(69.614 1.577)">
      <path id="Path_8598" data-name="Path 8598" d="M1251.5,652.09a2.5,2.5,0,0,1-.642-1.769,2.374,2.374,0,0,1,.638-1.731,2.168,2.168,0,0,1,1.623-.655,2.02,2.02,0,0,1,1.114.308,1.9,1.9,0,0,1,.711.8v-1.02h.6V652.7h-.6V651.67a1.928,1.928,0,0,1-.711.8,2,2,0,0,1-1.114.313A2.114,2.114,0,0,1,1251.5,652.09Zm2.934-.347a2.132,2.132,0,0,0,0-2.767,1.649,1.649,0,0,0-1.229-.527,1.666,1.666,0,0,0-1.225.506,1.844,1.844,0,0,0-.506,1.367,1.974,1.974,0,0,0,.51,1.405,1.619,1.619,0,0,0,1.225.543A1.644,1.644,0,0,0,1254.437,651.743Z" transform="translate(-1250.861 -647.935)" fill="#f9f9e8"/>
    </g>
    <g id="Group_3558" data-name="Group 3558" transform="translate(79.869)">
      <path id="Path_8599" data-name="Path 8599" d="M1263.414,652.345v-6.34h.6v6.34Z" transform="translate(-1263.414 -646.005)" fill="#f9f9e8"/>
    </g>
    <g id="Group_3559" data-name="Group 3559" transform="translate(85.737 1.577)">
      <path id="Path_8600" data-name="Path 8600" d="M1271.24,652.09a2.5,2.5,0,0,1-.643-1.769,2.374,2.374,0,0,1,.638-1.731,2.169,2.169,0,0,1,1.624-.655,2.019,2.019,0,0,1,1.114.308,1.907,1.907,0,0,1,.711.8v-1.02h.6V652.7h-.6V651.67a1.932,1.932,0,0,1-.711.8,2,2,0,0,1-1.114.313A2.113,2.113,0,0,1,1271.24,652.09Zm2.934-.347a2.132,2.132,0,0,0,0-2.767,1.717,1.717,0,0,0-2.455-.021,1.845,1.845,0,0,0-.505,1.367,1.974,1.974,0,0,0,.51,1.405,1.619,1.619,0,0,0,1.225.543A1.645,1.645,0,0,0,1274.174,651.743Z" transform="translate(-1270.597 -647.935)" fill="#f9f9e8"/>
    </g>
    <g id="Group_3560" data-name="Group 3560" transform="translate(95.991 1.577)">
      <path id="Path_8601" data-name="Path 8601" d="M1283.75,648.021v.762a1.635,1.635,0,0,1,1.55-.848,1.793,1.793,0,0,1,1.3.51,1.962,1.962,0,0,1,.522,1.47V652.7h-.591v-2.673a1.67,1.67,0,0,0-.372-1.174,1.492,1.492,0,0,0-2.039,0,1.67,1.67,0,0,0-.372,1.174V652.7h-.6v-4.678Z" transform="translate(-1283.15 -647.935)" fill="#f9f9e8"/>
    </g>
    <g id="Group_3561" data-name="Group 3561" transform="translate(105.192 1.577)">
      <path id="Path_8602" data-name="Path 8602" d="M1295.039,652.116a2.778,2.778,0,0,1,0-3.513,2.127,2.127,0,0,1,1.627-.668,1.962,1.962,0,0,1,2.09,1.474h-.642a1.351,1.351,0,0,0-.519-.733,1.581,1.581,0,0,0-.93-.261,1.522,1.522,0,0,0-1.182.5,2.514,2.514,0,0,0,0,2.883,1.516,1.516,0,0,0,1.182.5,1.575,1.575,0,0,0,.93-.261,1.352,1.352,0,0,0,.519-.732h.642a2.194,2.194,0,0,1-.745,1.071,2.372,2.372,0,0,1-2.973-.266Z" transform="translate(-1294.413 -647.935)" fill="#f9f9e8"/>
    </g>
    <g id="Group_3562" data-name="Group 3562" transform="translate(114.615 1.577)">
      <path id="Path_8603" data-name="Path 8603" d="M1308.2,652.784a2.126,2.126,0,0,1-1.627-.668,2.472,2.472,0,0,1-.626-1.761,2.426,2.426,0,0,1,.638-1.755,2.192,2.192,0,0,1,1.653-.664,2.13,2.13,0,0,1,1.615.626,2.154,2.154,0,0,1,.6,1.55,2.938,2.938,0,0,1-.034.462h-3.855a1.85,1.85,0,0,0,.489,1.268,1.538,1.538,0,0,0,1.148.462,1.653,1.653,0,0,0,.922-.248,1.29,1.29,0,0,0,.526-.651h.643a2.2,2.2,0,0,1-.754.99A2.176,2.176,0,0,1,1308.2,652.784Zm1.636-2.682a1.644,1.644,0,0,0-.466-1.229,1.587,1.587,0,0,0-1.157-.458,1.571,1.571,0,0,0-1.148.45,1.8,1.8,0,0,0-.5,1.238Z" transform="translate(-1305.949 -647.935)" fill="#f9f9e8"/>
    </g>
  </g>
</svg>
