<svg xmlns="http://www.w3.org/2000/svg" width="51.038" height="45.859" viewBox="0 0 51.038 45.859">
  <g id="Group_3929" data-name="Group 3929" transform="translate(-6603.856 -301)">
    <path id="Path_9477" data-name="Path 9477" d="M330.779,39.136a34.981,34.981,0,0,0,5.051,5.956,39.905,39.905,0,0,1-3.994-6.37,16.582,16.582,0,0,1-1.12-3.56,3.319,3.319,0,0,1,2.067-3.862c2.6-.9,4.121,2.386,4.989,4.177.547,1.128,1.026,2.311,1.508,3.5l.14.938.283-.935a29.354,29.354,0,0,1,1.67-4.251,15.006,15.006,0,0,1,2.448-3.707,6.222,6.222,0,0,1,1.646-1.261,3.558,3.558,0,0,1,1.864-.389,3.34,3.34,0,0,1,3.285,3.307,6.026,6.026,0,0,1-.987,3.1c-2.51,4.18-6.684,6.736-10.285,9.879-4.169,3.64-8.943,7.91-10.219,13.531a8.177,8.177,0,0,0,.319,4.934,8.423,8.423,0,0,0,1.266,2.132,7.526,7.526,0,0,0,1.906,1.571,7.407,7.407,0,0,0,2.286.839,8.236,8.236,0,0,0,2.39.075,11.188,11.188,0,0,0,4.412-1.485,11.8,11.8,0,0,1-4.441,1.007,7.184,7.184,0,0,1-4.191-1.166,6.933,6.933,0,0,1-1.55-1.478,7.319,7.319,0,0,1-.971-1.9,7.119,7.119,0,0,1-.02-4.177,13.522,13.522,0,0,1,1.909-3.918,34.179,34.179,0,0,1,6.7-6.812c2.658-2.232,5.5-4.233,8.167-6.446a17.733,17.733,0,0,0,5.349-6.751c2.082-5.62-2.978-9.862-7.852-7.079a7.034,7.034,0,0,0-1.916,1.658,15.1,15.1,0,0,0-2.335,4.179,24.88,24.88,0,0,0-.991,3.2,21.165,21.165,0,0,0-.541-2.561,14.3,14.3,0,0,0-1.587-3.724A7.045,7.045,0,0,0,336,29.61a4.018,4.018,0,0,0-2.31-.956,4.238,4.238,0,0,0-2.4.634,5.375,5.375,0,0,0-.954.705,4.583,4.583,0,0,0-.774.956,4.812,4.812,0,0,0-.676,2.29,7.3,7.3,0,0,0,.25,2.179A13.985,13.985,0,0,0,330.779,39.136Z" transform="translate(6275.706 273.347)" fill="#e54a67"/>
    <path id="Path_9480" data-name="Path 9480" d="M327.739,94.685c.15,1.778,4.018,3.181,6.1,3.181h38.836c2.083,0,5.951-1.4,6.1-3.181Z" transform="translate(6276.118 248.993)" fill="#fff"/>
    <path id="Path_9479" data-name="Path 9479" d="M371.353,53.66a1.2,1.2,0,1,0-1.043-1.342A1.2,1.2,0,0,0,371.353,53.66Z" transform="translate(6260.654 264.768)" fill="#fff"/>
    <path id="Path_9478" data-name="Path 9478" d="M358.344,56.266a21.143,21.143,0,0,0-23.556,17.929l41.943,5.271A21.143,21.143,0,0,0,358.344,56.266ZM373.4,70.6a.234.234,0,0,1-.227-.107c-.66-.982-1.313-1.939-2-2.867-.177-.229-.353-.458-.524-.689l-.539-.675c-.358-.45-.734-.885-1.114-1.314a30.132,30.132,0,0,0-2.423-2.433,27.93,27.93,0,0,0-2.71-2.126.229.229,0,0,1-.089-.287.172.172,0,0,1,.214-.07,12.415,12.415,0,0,1,3.113,1.727,18.364,18.364,0,0,1,2.692,2.464c.408.455.789.931,1.161,1.412.356.493.705.989,1.02,1.506a16.1,16.1,0,0,1,1.548,3.221A.172.172,0,0,1,373.4,70.6Z" transform="translate(6273.557 263.012)" fill="#fff"/>
  </g>
</svg>
