<svg xmlns="http://www.w3.org/2000/svg" width="424.501" height="249.127" viewBox="0 0 424.501 249.127">
  <path id="Path_9445" data-name="Path 9445" d="M365.091-192V-4.7H321.03V-182.638ZM239.64-48.767A22.024,22.024,0,0,0,261.676-70.8,22.021,22.021,0,0,0,239.64-92.84,22.019,22.019,0,0,0,217.611-70.8,22.022,22.022,0,0,0,239.64-48.767Zm0-90.04a68,68,0,0,1,67.988,68A68.006,68.006,0,0,1,239.64-2.8,67.968,67.968,0,0,1,171.655-70.8,68,68,0,0,1,239.64-138.807Zm0,151.862a22.036,22.036,0,1,1-22.028,22.036A22.036,22.036,0,0,1,239.64,13.055Zm-98.032-116.79A57.449,57.449,0,0,1,158.8-62.54,57.827,57.827,0,0,1,100.977-4.7h-77.1V-192H92.409a57.831,57.831,0,0,1,57.829,57.844A57.262,57.262,0,0,1,141.608-103.735ZM101.035-48.767A13.792,13.792,0,0,0,114.807-62.54a13.792,13.792,0,0,0-13.772-13.772H67.995v27.544Zm-33.04-99.16v27.544H92.472a13.788,13.788,0,0,0,13.764-13.772,13.788,13.788,0,0,0-13.764-13.772Zm380.316,55.7H426.345v34.586c0,10.467,3.367,18.178,12.176,18.178a36.805,36.805,0,0,0,9.852-1.285V-8.308A45.391,45.391,0,0,1,426.894-2.8h-.549c-.549,0-1.039-.066-1.592-.066h-.428c-.245,0-.553-.058-.8-.058-24.6-1.289-41.3-16.773-41.3-43.644V-160.6l44.06-9.362V-136.3h22.028Z" transform="translate(-23.872 192)" fill="#34d186" fill-rule="evenodd"/>
</svg>
