<svg xmlns="http://www.w3.org/2000/svg" width="498" height="498" viewBox="0 0 498 498">
  <g id="Group_4113" data-name="Group 4113" transform="translate(4314 -9398)">
    <path id="Path_9445" data-name="Path 9445" d="M282.271,0V154.942H245.822V7.745ZM178.493,118.488a18.219,18.219,0,0,0,18.229-18.209v-.017a18.217,18.217,0,0,0-18.2-18.232h-.028a18.215,18.215,0,0,0-18.223,18.207v.026a18.218,18.218,0,0,0,18.208,18.227Zm0-74.485a56.255,56.255,0,1,1-56.24,56.3v-.041A56.252,56.252,0,0,1,178.493,44Zm0,125.626a18.229,18.229,0,1,1-18.222,18.236v-.007A18.229,18.229,0,0,1,178.493,169.63ZM97.4,73.016a47.875,47.875,0,0,1-33.6,81.926H0V0H56.7a47.84,47.84,0,0,1,47.838,47.842v.009A47.368,47.368,0,0,1,97.4,73.016ZM63.833,118.488a11.393,11.393,0,0,0,0-22.786H36.5v22.786ZM36.5,36.459V59.244H56.75a11.393,11.393,0,0,0,0-22.786ZM351.114,82.536H332.943v28.611c0,8.659,2.785,15.038,10.072,15.038a30.434,30.434,0,0,0,8.15-1.063v26.836a37.552,37.552,0,0,1-17.768,4.556h-.454c-.454,0-.86-.055-1.317-.055h-.354c-.2,0-.457-.048-.662-.048-20.35-1.066-34.165-13.875-34.165-36.1V25.975l36.448-7.745V46.077h18.222Z" transform="translate(-4240.337 9565.52)" fill="#34d186" fill-rule="evenodd"/>
    <rect id="Rectangle_245" data-name="Rectangle 245" width="498" height="498" transform="translate(-4314 9398)" fill="none"/>
  </g>
</svg>
