<svg xmlns="http://www.w3.org/2000/svg" width="498" height="498" viewBox="0 0 498 498">
  <g id="Group_4114" data-name="Group 4114" transform="translate(3728 -9398)">
    <g id="Group_3927" data-name="Group 3927" transform="translate(-3693 9514.004)">
      <g id="Group_3924" data-name="Group 3924" transform="translate(0 143.454)">
        <path id="Path_9454" data-name="Path 9454" d="M0,89.9H7.738V82.475c0-8.975,4.953-14.848,14.848-14.848l4.953.929v8.975L22.279,76.6c-3.095,0-4.334,1.856-4.334,4.953v8.357h9.9v8.975h-9.9v37.129h-9.9V98.876H0Z" transform="translate(0 -67.627)" fill="#d70f64"/>
        <path id="Path_9455" data-name="Path 9455" d="M37.712,77.69A24.141,24.141,0,1,1,13.57,101.831h0a23.969,23.969,0,0,1,23.8-24.141Zm0,39.308c9.284,0,14.237-6.809,14.237-15.166S47,86.665,37.712,86.665s-14.237,6.809-14.237,15.166C23.474,109.879,28.419,117,37.712,117Z" transform="translate(15.214 -56.345)" fill="#d70f64"/>
        <path id="Path_9456" data-name="Path 9456" d="M62.37,77.69a23.969,23.969,0,1,1-.346,0Zm0,39.308c9.284,0,14.237-6.809,14.237-15.166S71.654,86.665,62.37,86.665s-14.237,6.809-14.237,15.166C48.132,109.879,53.077,117,62.37,117Z" transform="translate(42.86 -56.345)" fill="#d70f64"/>
        <path id="Path_9457" data-name="Path 9457" d="M110.246,135.858h-8.975l-.929-4.03-.619-.619-.619.619a18.023,18.023,0,0,1-12.689,4.953,23.461,23.461,0,0,1-23.532-23.388c0-.25,0-.5.011-.747A23.46,23.46,0,0,1,85.661,88.515c.25-.008.5-.011.753-.011A17.505,17.505,0,0,1,99.1,93.458l.619.619.619-.619V67.768h9.9ZM87.034,97.479c-9.284,0-14.237,6.809-14.237,15.166s4.953,15.166,14.237,15.166c8.357,0,14.237-6.809,14.237-15.166a14.608,14.608,0,0,0-14.036-15.16Z" transform="translate(70.502 -67.469)" fill="#d70f64"/>
        <path id="Path_9458" data-name="Path 9458" d="M89.88,78.617h8.975l.929,4.03.619.619.619-.619a18.023,18.023,0,0,1,12.689-4.953,23.461,23.461,0,0,1,23.532,23.388c0,.252,0,.5-.011.753a23.46,23.46,0,0,1-22.769,24.131c-.25.008-.5.011-.753.011a17.505,17.505,0,0,1-12.689-4.953l-.619-.619-.619.619v24.754H90.19V78.617ZM112.789,117c9.284,0,14.237-6.809,14.237-15.166s-4.953-15.166-14.237-15.166c-8.357,0-14.237,6.809-14.237,15.166a14.608,14.608,0,0,0,14.036,15.16Z" transform="translate(100.772 -56.342)" fill="#d70f64"/>
        <path id="Path_9459" data-name="Path 9459" d="M134.2,96.115h8.048V93.947c0-5.57-3.714-8.048-8.975-8.048a8.644,8.644,0,0,0-8.665,6.19l-8.665-1.856c1.856-7.738,8.665-12.689,17.642-12.689,12.379,0,18.571,6.19,18.571,18.261v28.782h-8.048l-.929-6.19c-3.095,4.643-8.048,6.809-14.547,6.809-8.357,0-14.237-4.953-14.237-14.237C114.087,101.995,122.135,96.115,134.2,96.115Zm-4.325,21.044a11.683,11.683,0,0,0,8.357-3.095,10.8,10.8,0,0,0,3.714-8.665v-.929h-8.357c-5.88,0-9.594,2.785-9.594,7.119a5.445,5.445,0,0,0,5.305,5.585A5.2,5.2,0,0,0,129.879,117.159Z" transform="translate(128.252 -56.508)" fill="#d70f64"/>
        <path id="Path_9460" data-name="Path 9460" d="M136.28,78.616h8.975l.929,4.03.619.619.619-.619c1.856-3.095,6.809-4.953,10.833-4.953,11.762,0,18.571,7.738,18.571,18.571V124.73h-9.9V96.258c-.31-6.19-3.394-9.9-9.9-9.9a10.906,10.906,0,0,0-10.833,10.523V124.73H136.28Z" transform="translate(152.795 -56.341)" fill="#d70f64"/>
        <path id="Path_9461" data-name="Path 9461" d="M205.379,135.858H196.4l-.929-4.03-.619-.619-.619.619a18.023,18.023,0,0,1-12.689,4.953,23.461,23.461,0,0,1-23.532-23.388c0-.25,0-.5.011-.747a23.46,23.46,0,0,1,22.769-24.131c.25-.008.5-.011.753-.011a17.505,17.505,0,0,1,12.689,4.953l.619.619.619-.619V67.768h9.9v68.09ZM182.47,97.479c-9.284,0-14.237,6.809-14.237,15.166s4.953,15.166,14.237,15.166c8.357,0,14.237-6.809,14.237-15.166a14.608,14.608,0,0,0-14.036-15.16l-.2-.006Z" transform="translate(177.164 -67.469)" fill="#d70f64"/>
        <path id="Path_9462" data-name="Path 9462" d="M204.1,96.115h8.048V93.947c0-5.57-3.714-8.048-8.975-8.048a8.644,8.644,0,0,0-8.665,6.19l-8.665-1.856c1.856-7.738,8.665-12.689,17.642-12.689,12.379,0,18.571,6.19,18.571,18.261v28.782H214l-.929-6.19c-3.095,4.643-8.048,6.809-14.547,6.809-8.357,0-14.237-4.953-14.237-14.237C183.977,101.995,191.709,96.115,204.1,96.115Zm-4.327,21.044a11.687,11.687,0,0,0,8.357-3.095,10.8,10.8,0,0,0,3.714-8.665v-.929h-8.357c-5.88,0-9.594,2.785-9.594,7.119a5.445,5.445,0,0,0,5.305,5.585A5.2,5.2,0,0,0,199.769,117.159Z" transform="translate(206.614 -56.508)" fill="#d70f64"/>
      </g>
      <g id="Group_3926" data-name="Group 3926" transform="translate(137.758 -0.004)">
        <path id="Path_9463" data-name="Path 9463" d="M103.209,51.425c8.444,0,15.485-6.1,15.485-13.6H87.724C87.724,45.316,94.3,51.425,103.209,51.425Z" transform="translate(-39.404 42.414)" fill="#d70f64"/>
        <g id="Group_3925" data-name="Group 3925">
          <path id="Path_9464" data-name="Path 9464" d="M180.814,29.088a15.419,15.419,0,0,0,5.63-12.666A16.426,16.426,0,0,0,170.015,0q-.229,0-.458.006a15.966,15.966,0,0,0-14.074,7.5,60.749,60.749,0,0,0-27.208-6.1,64.373,64.373,0,0,0-27.206,6.1A15.97,15.97,0,0,0,86.994,0,16.723,16.723,0,0,0,70.107,16.423a17.714,17.714,0,0,0,5.63,12.666,61.176,61.176,0,0,0-10.79,35.184,63.329,63.329,0,1,0,126.658,0A60.113,60.113,0,0,0,180.814,29.088Zm-52.071,93.347A58.463,58.463,0,0,1,70.576,64.272a60.138,60.138,0,0,1,9.855-32.836,55.155,55.155,0,0,1,22.985-19.7,59.805,59.805,0,0,1,50.662,0,62.223,62.223,0,0,1,22.983,19.7,60.154,60.154,0,0,1,9.853,32.836A58.462,58.462,0,0,1,128.743,122.435Z" transform="translate(-64.944 0.004)" fill="#d70f64"/>
          <path id="Path_9465" data-name="Path 9465" d="M100.736,42c.938.469,10.788-3.284,10.788-7.976,0-2.815-7.976-3.284-10.788-3.284s-10.8.462-10.8,3.284C89.479,38.716,99.8,42.468,100.736,42Z" transform="translate(-36.937 34.474)" fill="#d70f64"/>
          <path id="Path_9466" data-name="Path 9466" d="M125.605,19.309c-5.63-3.752-17.818-5.63-22.516.469,0,0-6.1,6.576,0,13.134s10.32,13.134,11.728,18.3c1.406,5.63,3.752,7.5,7.976,7.5s12.666-6.576,14.074-17.358A23.556,23.556,0,0,0,125.605,19.309Zm-12.666,13.6a3.284,3.284,0,1,1,3.284-3.284,3.207,3.207,0,0,1-3.127,3.286c-.053,0-.1,0-.157,0Z" transform="translate(-25.216 17.759)" fill="#d70f64"/>
          <path id="Path_9467" data-name="Path 9467" d="M106.048,19.777c-4.692-6.1-16.887-4.221-22.516-.469a24.076,24.076,0,0,0-11.259,22.05c.938,10.788,9.382,17.358,14.074,17.358,4.221,0,6.576-2.346,7.976-7.5,1.406-5.63,6.1-11.728,11.728-18.3A9.428,9.428,0,0,0,106.048,19.777ZM97.139,32.912a3.284,3.284,0,1,1,3.284-3.284A3.207,3.207,0,0,1,97.3,32.916c-.055,0-.108,0-.163,0Z" transform="translate(-56.79 17.757)" fill="#d70f64"/>
        </g>
      </g>
    </g>
    <rect id="Rectangle_245" data-name="Rectangle 245" width="498" height="498" transform="translate(-3728 9398)" fill="none"/>
  </g>
</svg>
