<svg xmlns="http://www.w3.org/2000/svg" width="498" height="498" viewBox="0 0 498 498">
  <g id="Group_4115" data-name="Group 4115" transform="translate(3126 -9398)">
    <g id="Group_4111" data-name="Group 4111" transform="translate(-3174.513 9534.684)">
      <path id="Path_9632" data-name="Path 9632" d="M72.177,284.741v-.277c0-28.077,21.467-51.84,51.743-51.84,15.052,0,25.049,3.582,34.224,10.184a8.915,8.915,0,0,1,3.582,7.164,8.711,8.711,0,0,1-8.711,8.711h-.008a8.982,8.982,0,0,1-5.414-2.019,38.344,38.344,0,0,0-24.316-7.888c-18.528,0-32.563,16.241-32.563,35.412v.277c0,20.645,13.571,35.876,34.126,35.876a40.92,40.92,0,0,0,24.219-7.62V293.916H129.244a7.664,7.664,0,1,1,0-15.321h27.98a8.733,8.733,0,0,1,8.9,8.9v26.783a12.2,12.2,0,0,1-6.146,11.2,63.6,63.6,0,0,1-35.689,10.917c-31.464-.081-52.109-22.468-52.109-51.653m109.64-46.891a8.556,8.556,0,0,1,8.49-8.621h.139a8.641,8.641,0,0,1,8.711,8.629v88.816a8.671,8.671,0,0,1-17.34.139q0-.074,0-.147Zm30.821,59.362v-.269c0-21.654,17.161-39.548,40.378-39.548,23.2,0,40.272,17.617,40.272,39.271v.277c0,21.467-17.153,39.45-40.549,39.45-23.038-.09-40.1-17.706-40.1-39.173m63.311,0v-.277c0-13.3-9.63-24.406-23.209-24.406-13.953,0-22.754,10.917-22.754,24.04v.277c0,13.212,9.631,24.219,23.022,24.219,14.043.09,22.941-10.827,22.941-23.852M336.6,336.028h-.83c-4.77,0-7.9-3.028-9.907-7.612L300.623,270.7a12.947,12.947,0,0,1-1-4.315,8.683,8.683,0,0,1,8.629-8.344c4.762,0,7.148,2.752,8.621,6.334l19.448,50.188L356.135,264.1c1.286-3.028,3.582-6.057,8.165-6.057a8.233,8.233,0,0,1,8.442,8.352,9.765,9.765,0,0,1-1.009,4.127l-25.236,57.9c-2.011,4.494-5.129,7.612-9.9,7.612m42.479-38.807v-.277c0-21.654,17.152-39.548,40.37-39.548s40.28,17.625,40.28,39.271v.277c0,21.467-17.161,39.45-40.557,39.45-23.12-.09-40.093-17.706-40.093-39.173m63.3,0v-.277c0-13.3-9.63-24.406-23.209-24.406-13.945,0-22.753,10.917-22.753,24.04v.277c0,13.212,9.63,24.219,23.12,24.219,13.945.09,22.843-10.827,22.843-23.852" transform="translate(0 -171.364)" fill="#00a082"/>
      <path id="Path_9633" data-name="Path 9633" d="M2105.215,17.316a34.028,34.028,0,0,0-34.036,34.02v.016a33.41,33.41,0,0,0,6.415,19.815l.92,1.286L2096.22,97.5a8.337,8.337,0,0,0,6.887,3.582h4.314A8.349,8.349,0,0,0,2114.3,97.5L2132,72.453l.92-1.286a33.615,33.615,0,0,0,6.431-19.815,34.167,34.167,0,0,0-34.143-34.036m14.035,44.123-.92,1.286L2105.3,81.172l-13.123-18.447-.919-1.376a17.445,17.445,0,0,1-3.3-10.095,17.226,17.226,0,0,1,17.209-17.242h.041a17.226,17.226,0,0,1,17.242,17.209v.041a17.65,17.65,0,0,1-3.208,10.176m-23.583,54.966a9.311,9.311,0,0,1,9.451-9.362,9.167,9.167,0,0,1,9.451,9.264v.1a9.453,9.453,0,0,1-18.9,0" transform="translate(-1616.5 0)" fill="#ffcc1b"/>
    </g>
    <rect id="Rectangle_245" data-name="Rectangle 245" width="498" height="498" transform="translate(-3126 9398)" fill="none"/>
  </g>
</svg>
