<svg xmlns="http://www.w3.org/2000/svg" width="498" height="498" viewBox="0 0 498 498">
  <g id="Group_4116" data-name="Group 4116" transform="translate(2555 -9398)">
    <g id="Group_3923" data-name="Group 3923" transform="translate(-2497.324 9538.48)">
      <path id="Path_9446" data-name="Path 9446" d="M108.3,133.757q-.094-2.846-.281-5.677a66.366,66.366,0,0,0-1.2-8.762,61.424,61.424,0,0,0-5.185-15.493A48.414,48.414,0,0,0,90.811,89.371a45.945,45.945,0,0,0-12.284-7.957,55.882,55.882,0,0,0-20.194-4.521,61.1,61.1,0,0,0-8.621.211,58.186,58.186,0,0,0-13.4,2.827,53.232,53.232,0,0,0-12.424,6.107,51.328,51.328,0,0,0-9.363,7.981,52.67,52.67,0,0,0-5.248,6.669,54.756,54.756,0,0,0-5.349,10.425A58.651,58.651,0,0,0,.117,129.087a69.512,69.512,0,0,0,.055,8.928c.156,2.265.39,4.506.757,6.739a59.6,59.6,0,0,0,6.06,18.359,51.753,51.753,0,0,0,11.042,14.314,50.933,50.933,0,0,0,13.08,8.621,56.557,56.557,0,0,0,21.4,5.076c2.358.1,4.724-.016,7.083-.07a62.452,62.452,0,0,0,8.941-.921,54.36,54.36,0,0,0,16.618-5.474,43.665,43.665,0,0,0,12.057-9.386,47.067,47.067,0,0,0,7.122-10.472,6.775,6.775,0,0,0,.492-1.382,1.983,1.983,0,0,0-.718-2.116,5.73,5.73,0,0,0-1.242-.781q-6.981-3.21-13.963-6.4-1.652-.75-3.288-1.507a2.577,2.577,0,0,0-3.513.968,2.347,2.347,0,0,0-.118.234c-.117.2-.2.4-.3.593a21.231,21.231,0,0,1-3.662,5.162,23.5,23.5,0,0,1-9.527,5.865,39.718,39.718,0,0,1-14.251,1.929,29.933,29.933,0,0,1-8.816-1.64,25.474,25.474,0,0,1-9.652-5.974,27.958,27.958,0,0,1-6.029-8.949,9.89,9.89,0,0,1-.843-3.5,4.307,4.307,0,0,1,3.053-4.607,8.969,8.969,0,0,1,2.9-.437h70.164a6.475,6.475,0,0,0,.953-.047,2.645,2.645,0,0,0,2.327-2.405,7.521,7.521,0,0,0,.062-1.109C108.358,137.053,108.358,135.4,108.3,133.757ZM27.675,122.231a31.613,31.613,0,0,1,1.616-5.255,27.762,27.762,0,0,1,5.209-8.434,25.368,25.368,0,0,1,6.841-5.326A28.97,28.97,0,0,1,53.476,99.85,34.458,34.458,0,0,1,65.518,101.1a20.414,20.414,0,0,1,8.559,4.928,21.166,21.166,0,0,1,4.654,6.942,34.734,34.734,0,0,1,2.327,8.668c.031.187.023.383.039.57C80.519,122.364,28.526,122.4,27.675,122.231Z" transform="translate(0 -16.832)" fill="#7ab62d"/>
      <path id="Path_9447" data-name="Path 9447" d="M252.934,186.882a9.757,9.757,0,0,0-.984-2.054,42.75,42.75,0,0,1-4.264-9.386,59.659,59.659,0,0,1-2.468-17.547c-.078-12.323-.031-24.637-.016-36.96a73.963,73.963,0,0,0-.43-8.317,47.36,47.36,0,0,0-2.452-10.7A34.312,34.312,0,0,0,233.255,88.1a36.2,36.2,0,0,0-10.683-6.747,57.407,57.407,0,0,0-19.4-4.09c-2.085-.117-4.178-.062-6.263-.07a64.945,64.945,0,0,0-9.621.75,57.168,57.168,0,0,0-18.1,5.654,42.65,42.65,0,0,0-11.963,9.019,36.54,36.54,0,0,0-6.255,9.269,20.9,20.9,0,0,0-1.195,3.014,2.635,2.635,0,0,0,1.6,3.367c.074.027.148.049.224.069a6.742,6.742,0,0,1,.82.336q7.836,3.538,15.673,7.083a15.978,15.978,0,0,0,2.2.843,2.065,2.065,0,0,0,2.374-.914,11.383,11.383,0,0,0,.672-1.148c.437-.828.843-1.671,1.3-2.491a23.381,23.381,0,0,1,4.553-5.865,20.945,20.945,0,0,1,9.9-5,41.777,41.777,0,0,1,7.317-.867,35.44,35.44,0,0,1,9.605.773,19.474,19.474,0,0,1,8.106,3.748,9.612,9.612,0,0,1,3.873,7.918,6.885,6.885,0,0,1-2.858,5.646,13.635,13.635,0,0,1-3.3,1.78,48.051,48.051,0,0,1-6.88,1.968c-4.443.984-8.9,1.9-13.353,2.866-6.466,1.406-12.932,2.835-19.249,4.826a61.821,61.821,0,0,0-11.386,4.685,30.26,30.26,0,0,0-7.887,6.029,23.169,23.169,0,0,0-5.786,12.385,36.026,36.026,0,0,0-.359,7.278A31.378,31.378,0,0,0,150,172.665a29.288,29.288,0,0,0,9.519,11.089,39.645,39.645,0,0,0,13.166,6.005,50.249,50.249,0,0,0,10.55,1.609c1.281.062,2.561.016,3.842.047a49.973,49.973,0,0,0,11.143-1.078,41.653,41.653,0,0,0,15.056-6.021,26.2,26.2,0,0,0,7.286-7.137c.094-.133.2-.258.359-.453a5.332,5.332,0,0,1,.2.531c.2.687.375,1.374.578,2.062a45.125,45.125,0,0,0,3.077,7.981,3.54,3.54,0,0,0,2.9,2,7.581,7.581,0,0,0,1.031.055h21.147a7.418,7.418,0,0,0,1.1-.062,3.151,3.151,0,0,0,.921-.25,1.7,1.7,0,0,0,1.07-2.157Zm-37.8-27.73a22.689,22.689,0,0,1-7.059,5.388,38.568,38.568,0,0,1-13.221,3.936,40.03,40.03,0,0,1-6.481.25,22.968,22.968,0,0,1-9.144-2.085,11,11,0,0,1-5.56-5.279,9.286,9.286,0,0,1,2.288-11.026,19.859,19.859,0,0,1,6.278-3.5,72.913,72.913,0,0,1,9.683-2.6q12.861-2.882,25.715-5.755c.211-.047.429-.078.773-.141v.875c0,3.717-.047,7.442.016,11.159a12.86,12.86,0,0,1-3.288,8.777Z" transform="translate(-32.18 -16.911)" fill="#7ab62d"/>
      <path id="Path_9448" data-name="Path 9448" d="M414.359,76.7a71.808,71.808,0,0,1,15.656,1.887,45.035,45.035,0,0,1,17.221,8.162,40.873,40.873,0,0,1,12.2,15.884,16.887,16.887,0,0,1,.747,1.844,2.154,2.154,0,0,1-1.067,2.768,13.4,13.4,0,0,1-1.952.859q-8.112,3.078-16.233,6.127a6.143,6.143,0,0,1-1.431.306,2.156,2.156,0,0,1-2.265-1.313c-.348-.65-.654-1.324-.99-1.981a22.913,22.913,0,0,0-4.061-5.689,21.321,21.321,0,0,0-10.481-5.74,36.39,36.39,0,0,0-7.085-.9,34.779,34.779,0,0,0-8.725.694,16.126,16.126,0,0,0-7.023,3.113,7.736,7.736,0,0,0-2.967,5.185,6.145,6.145,0,0,0,1.751,5.336,15.454,15.454,0,0,0,5.1,3.194,67.695,67.695,0,0,0,9.374,3.121c4.732,1.263,9.477,2.472,14.218,3.7a125.71,125.71,0,0,1,15.419,4.842,47.38,47.38,0,0,1,11.011,5.968,24.727,24.727,0,0,1,9.949,16.665,43.934,43.934,0,0,1,.353,8.321,28.718,28.718,0,0,1-3.351,12.513,30.267,30.267,0,0,1-8.892,10.125,43.954,43.954,0,0,1-14.193,6.749,62.907,62.907,0,0,1-10.053,1.969c-2.615.308-5.239.441-7.872.505a89.652,89.652,0,0,1-9.286-.278,61.273,61.273,0,0,1-14.17-2.714,41.757,41.757,0,0,1-15.289-8.7,43.022,43.022,0,0,1-7.1-8.37,63.835,63.835,0,0,1-5.023-9.527,3.39,3.39,0,0,1,1.819-4.708c1.7-.841,3.421-1.632,5.135-2.44q3.507-1.653,7.016-3.3,1.837-.864,3.67-1.736a3.3,3.3,0,0,1,1.576-.312,1.952,1.952,0,0,1,1.62.881,5.141,5.141,0,0,1,.508.978,30.581,30.581,0,0,0,4.981,8.418,26.114,26.114,0,0,0,10.97,7.632,32.747,32.747,0,0,0,8.912,1.952c1.224.1,2.452.241,3.675.218,4.842-.088,9.643-.441,14.146-2.461a11.864,11.864,0,0,0,4.695-3.493,8.314,8.314,0,0,0,1.552-7.72,7.148,7.148,0,0,0-2.76-3.649,21.03,21.03,0,0,0-4.983-2.706,80.075,80.075,0,0,0-9.42-3c-5.589-1.484-11.2-2.9-16.768-4.451a101.056,101.056,0,0,1-14.792-5.3,44.058,44.058,0,0,1-10.369-6.325,23.354,23.354,0,0,1-8.246-14.187,33.393,33.393,0,0,1-.39-7.137,29.964,29.964,0,0,1,1.364-7.828,28.662,28.662,0,0,1,6.164-10.74,36.764,36.764,0,0,1,15.47-9.848,54.127,54.127,0,0,1,13.173-2.827C409.157,77,411.76,76.875,414.359,76.7Z" transform="translate(-80.513 -16.805)" fill="#7ab62d"/>
      <path id="Path_9449" data-name="Path 9449" d="M316.228,73.462h27.983a6.31,6.31,0,0,1,1.176.078,2.678,2.678,0,0,1,2.162,2.328A7.348,7.348,0,0,1,347.6,76.9q0,8.1,0,16.19c0,2.508-1,3.514-3.484,3.514-6.924,0-13.849-.016-20.772.01a6.966,6.966,0,0,0-5.179,2.135,7.093,7.093,0,0,0-1.937,4.592c-.009.123,0,.247,0,.37q0,21.586.012,43.171a14.169,14.169,0,0,0,1.7,6.881,9.879,9.879,0,0,0,7.078,5.068,18.186,18.186,0,0,0,7.251-.21,39.27,39.27,0,0,0,7.653-2.443,4.044,4.044,0,0,1,2-.355,2.093,2.093,0,0,1,1.574.978,8.906,8.906,0,0,1,.6,1.1q3.887,7.761,7.77,15.525a3.106,3.106,0,0,1,.422,1.62,2.422,2.422,0,0,1-1.562,2.147,75.544,75.544,0,0,1-13.282,4.671,45.189,45.189,0,0,1-7.787,1.231c-1.939.112-3.884.242-5.824.2a43.6,43.6,0,0,1-15.438-2.873,29.116,29.116,0,0,1-8.651-5.289,27.06,27.06,0,0,1-6.091-7.911,36.335,36.335,0,0,1-3.787-13.938c-.161-2.03-.223-4.078-.224-6.118q-.021-48.457-.005-96.915a6.453,6.453,0,0,1,.1-1.244,2.6,2.6,0,0,1,2.347-2.215,7.116,7.116,0,0,1,1.032-.059q9.831,0,19.664,0a5.482,5.482,0,0,1,1.385.156,2.556,2.556,0,0,1,1.974,2.236,8.483,8.483,0,0,1,.085,1.328q.007,11.011,0,22.029Z" transform="translate(-63.456 -10.239)" fill="#7ab62d"/>
      <path id="Path_9450" data-name="Path 9450" d="M117.654,24.826a8.6,8.6,0,0,0-2.39-4.178,8.279,8.279,0,0,0-3.374-1.843c.172-.133.226-.18.289-.219a8.5,8.5,0,0,0,3.522-5.513,15.172,15.172,0,0,0,.266-3.9c-.18-3.865-1.96-6.622-5.669-8a19.939,19.939,0,0,0-6.88-1.14C96.96-.015,90.51.009,84.052.024A7.027,7.027,0,0,0,82.31.29a2.119,2.119,0,0,0-1.585,1.929,6.28,6.28,0,0,0-.016.664V36.8a4.545,4.545,0,0,0,.094,1.023,1.963,1.963,0,0,0,1.827,1.648,11.957,11.957,0,0,0,1.4.1c3.99.008,7.981.016,11.971,0,3.569-.016,7.137-.016,10.706-.1a14.783,14.783,0,0,0,6.068-1.437,8.689,8.689,0,0,0,4.764-5.357A14,14,0,0,0,117.654,24.826ZM89.081,6.514c.273-.016.515-.039.757-.039,4.178,0,8.363-.016,12.549.016a9.907,9.907,0,0,1,2.4.336,3.47,3.47,0,0,1,2.632,2.882,9.348,9.348,0,0,1-.008,3.725,3.546,3.546,0,0,1-3,2.96,13.272,13.272,0,0,1-2.483.281c-4.084.023-8.176.008-12.26.008-.172,0-.336-.016-.586-.031ZM109.3,29.9a3.563,3.563,0,0,1-2.483,2.764,10.167,10.167,0,0,1-3.272.461c-4.639.016-9.269.008-13.9,0-.172,0-.336-.023-.6-.047v-2.21c0-1.429-.008-2.858.008-4.287a11.208,11.208,0,0,1,.133-1.616,2.4,2.4,0,0,1,1.734-2.015,9.057,9.057,0,0,1,2.452-.429c3.623-.047,7.247-.039,10.862-.008a10.063,10.063,0,0,1,2.257.328,3.7,3.7,0,0,1,2.921,3.327A10.171,10.171,0,0,1,109.3,29.9Z" transform="translate(-17.683 -0.001)"/>
      <path id="Path_9451" data-name="Path 9451" d="M246.932,38.475a1.539,1.539,0,0,0-.1-.2q-1-1.687-2-3.366L238.552,24.3c-.094-.156-.148-.336-.242-.531.3-.094.531-.172.765-.242a8.949,8.949,0,0,0,6.419-6.536,17.993,17.993,0,0,0,.141-8.9,9.243,9.243,0,0,0-6.411-6.927A22.087,22.087,0,0,0,232.11.031c-6.4-.055-12.807-.023-19.218-.008a6.693,6.693,0,0,0-1.663.242,2.152,2.152,0,0,0-1.7,2.069,6.418,6.418,0,0,0-.008.672V37.968a5.763,5.763,0,0,0,.016.734.937.937,0,0,0,.742.828,2.868,2.868,0,0,0,.578.047q3.186.012,6.357,0c.2,0,.383-.023.672-.047v-.89q0-4.99.008-9.98a10.64,10.64,0,0,1,.062-1.32,2.6,2.6,0,0,1,1.687-2.241,7.016,7.016,0,0,1,2.678-.453c2.343-.008,4.678.008,7.02-.016a1,1,0,0,1,1.031.617c2.475,4.537,4.99,9.051,7.473,13.58a1.3,1.3,0,0,0,1.3.757c2.39-.008,4.779,0,7.169-.008C247.166,39.579,247.345,39.256,246.932,38.475Zm-9.457-23.521a3.66,3.66,0,0,1-2.936,3.053,16.16,16.16,0,0,1-3.288.359c-4.209.039-8.418.016-12.627.016-.219,0-.437-.023-.711-.047V6.536c.2-.023.39-.055.578-.062,4.56,0,9.113-.008,13.666.008a8.3,8.3,0,0,1,2.889.492,3.509,3.509,0,0,1,2.265,2.358,8.077,8.077,0,0,1,.32,1.734A13.531,13.531,0,0,1,237.475,14.954Z" transform="translate(-45.904 0)"/>
      <path id="Path_9452" data-name="Path 9452" d="M181.881.067c-.781,1.952-1.518,3.779-2.244,5.605a1.187,1.187,0,0,1-1.255.814c-1.65-.022-3.3-.007-4.952-.007H156.1v9.894c.278.011.561.032.845.033q8.611,0,17.223,0c.385,0,.77.055,1.231.091-.087.293-.129.5-.209.7-.63,1.523-1.285,3.037-1.9,4.568a1.385,1.385,0,0,1-1.465.971q-5.654-.03-11.309,0a8.867,8.867,0,0,0-2.187.278,2.63,2.63,0,0,0-2.257,2.8c-.074,2.338-.018,4.681-.013,7.021a1.173,1.173,0,0,0,.084.271h25.629a4.37,4.37,0,0,1-.137.625c-.65,1.648-1.32,3.289-1.959,4.942a1.328,1.328,0,0,1-1.416.917c-9.265-.014-18.529.005-27.793-.02-2.162-.006-2.644-.772-2.843-2.768-.017-.171,0-.344,0-.517q0-16.336,0-32.672a11.042,11.042,0,0,1,.112-1.54A1.883,1.883,0,0,1,148.974.447,6.041,6.041,0,0,1,150.9.034Q166.017,0,181.133.018C181.343.018,181.555.043,181.881.067Z" transform="translate(-32.344 -0.002)"/>
      <path id="Path_9453" data-name="Path 9453" d="M19.335.115V.969c0,7.712-.01,15.424.01,23.136a13.281,13.281,0,0,0,.663,4.135,7.2,7.2,0,0,0,5.123,4.874,18.405,18.405,0,0,0,6.217.592,20.346,20.346,0,0,0,2.995-.376,7.473,7.473,0,0,0,6.4-6.631,23.308,23.308,0,0,0,.312-3.67c.029-7.145.014-14.291.014-21.436,0-.173,0-.345,0-.518C41.093.361,41.4.045,42.1.014c.123-.005.246,0,.369,0h7.123c.016.318.038.558.038.8,0,7.958.043,15.917-.019,23.875a15.934,15.934,0,0,1-2.6,9.02,12.916,12.916,0,0,1-5.647,4.6,22.744,22.744,0,0,1-7.948,1.787q-2.1.117-4.205.09a26.772,26.772,0,0,1-8.768-1.449,13.312,13.312,0,0,1-7.563-6.242A14.743,14.743,0,0,1,11.19,27.1a36.234,36.234,0,0,1-.269-3.967c-.026-7.145-.012-14.291-.012-21.436,0-.222-.014-.445.006-.665A.994.994,0,0,1,11.888.019c.024,0,.048,0,.072,0,2.365-.011,4.731,0,7.1,0A1.293,1.293,0,0,1,19.335.115Z" transform="translate(-2.389 -0.003)"/>
    </g>
    <rect id="Rectangle_245" data-name="Rectangle 245" width="498" height="498" transform="translate(-2555 9398)" fill="none"/>
  </g>
</svg>
