<svg xmlns="http://www.w3.org/2000/svg" width="498" height="498" viewBox="0 0 498 498">
  <g id="Group_4117" data-name="Group 4117" transform="translate(1970 -9398)">
    <g id="Group_3928" data-name="Group 3928" transform="translate(-1915 9503.811)">
      <g id="Font" transform="translate(0 137.229)">
        <path id="Path_9468" data-name="Path 9468" d="M0,88.5H9.683V79.2c0-11.231,6.2-18.589,18.589-18.589l6.2,1.161V73.008l-6.583-1.157c-3.874,0-5.422,2.323-5.422,6.2V88.5h12.4V99.735H22.075V146.6H9.683V99.35H0Z" transform="translate(0 -60.615)" fill="#d60365"/>
        <path id="Path_9469" data-name="Path 9469" d="M46.118,72.42a29.989,29.989,0,0,1,30.207,29.77v.437a29.754,29.754,0,0,1-29.295,30.207c-.3,0-.609,0-.912,0A29.754,29.754,0,0,1,15.911,103.54c0-.3,0-.609,0-.912A29.981,29.981,0,0,1,45.663,72.42Q45.891,72.417,46.118,72.42Zm0,49.183c11.618,0,17.815-8.519,17.815-18.976s-6.2-18.971-17.815-18.971S28.3,92.175,28.3,102.632C28.3,112.7,34.5,121.6,46.118,121.6Z" transform="translate(20.106 -45.697)" fill="#d60365"/>
        <path id="Path_9470" data-name="Path 9470" d="M75.2,72.421a29.989,29.989,0,0,1,30.207,29.77v.437a29.754,29.754,0,0,1-29.295,30.207c-.3,0-.609,0-.912,0a29.754,29.754,0,0,1-30.207-29.295c0-.3,0-.609,0-.912A29.748,29.748,0,0,1,74.273,72.421C74.581,72.416,74.891,72.416,75.2,72.421Zm0,49.183c11.618,0,17.815-8.519,17.815-18.976S86.818,83.657,75.2,83.657s-17.815,8.519-17.815,18.976C57.385,112.7,63.581,121.6,75.2,121.6Z" transform="translate(56.861 -45.698)" fill="#d60365"/>
        <path id="Path_9471" data-name="Path 9471" d="M133.16,145.988H121.929l-1.159-5.035-.774-.774-.774.774a22.565,22.565,0,0,1-15.884,6.2A29.356,29.356,0,0,1,73.9,117.882c0-.315,0-.627.011-.94a29.359,29.359,0,0,1,28.5-30.194c.31-.009.623-.011.935-.011a21.9,21.9,0,0,1,15.879,6.2l.774.774.774-.774V60.786h12.393ZM104.114,97.964C92.5,97.964,86.3,106.483,86.3,116.94s6.2,18.976,17.815,18.976c10.457,0,17.815-8.519,17.815-18.976S114.571,97.964,104.114,97.964Z" transform="translate(93.396 -60.399)" fill="#d60365"/>
        <path id="Path_9472" data-name="Path 9472" d="M133.7,72.421a29.989,29.989,0,0,1,30.207,29.77v.437a29.754,29.754,0,0,1-29.295,30.207c-.3,0-.609,0-.912,0a29.989,29.989,0,0,1-30.207-29.77v-.437a29.748,29.748,0,0,1,29.281-30.207C133.086,72.416,133.4,72.416,133.7,72.421Zm0,49.183c11.618,0,17.815-8.519,17.815-18.976s-6.2-18.976-17.815-18.976-17.815,8.519-17.815,18.976C115.89,112.7,122.086,121.6,133.7,121.6Z" transform="translate(130.806 -45.698)" fill="#d60365"/>
        <path id="Path_9473" data-name="Path 9473" d="M133.6,73.6h11.231L146,79.8l.774.774.774-.774A16.8,16.8,0,0,1,161.1,72.443a11.81,11.81,0,0,1,6.2,1.161V84.835h-7.358A13.645,13.645,0,0,0,146.383,98V131.7H133.99V73.6Z" transform="translate(168.861 -45.72)" fill="#d60365"/>
        <path id="Path_9474" data-name="Path 9474" d="M175.881,95.7h10.07V92.987c0-6.971-4.648-10.07-11.231-10.07a10.815,10.815,0,0,0-10.844,7.745l-10.844-2.323c2.323-9.683,10.844-16.266,22.075-16.266,15.492,0,23.237,7.745,23.237,22.85v36.023H187.887l-1.161-7.745c-3.874,5.809-10.07,8.519-18.2,8.519-10.457,0-17.815-6.2-17.815-17.815C150.709,103.061,160.779,95.7,175.881,95.7Zm-5.024,26.325a14.625,14.625,0,0,0,10.457-3.874,13.511,13.511,0,0,0,4.648-10.844v-1.161H175.506c-7.358,0-12,3.486-12,8.908a6.824,6.824,0,0,0,7.351,6.971Z" transform="translate(190.482 -46.133)" fill="#d60365"/>
      </g>
      <g id="Cloche" transform="translate(117.553 -0.002)">
        <path id="Path_9475" data-name="Path 9475" d="M136.734,66.966c5.508-2,45.561-18.023,53.571-21.027a1.237,1.237,0,0,0,.754-1.58,1.207,1.207,0,0,0-.254-.423,7.1,7.1,0,0,0-5.508-2c-4,0-38.552,11.014-38.552,11.014s-16.022,2.5-18.023,2.5c-2-.5-2.5-1.5-2.5-3s1-3,4.007-3c3-.5,20.527-1.5,23.531-3,3-2,2.5-5.008,1-5.508-2.5-1-52.07-1-76.6-.5H56.128c2,12.017,5.508,22.53,13.017,32.043a47.341,47.341,0,0,1,24.031-5.508C99.686,66.464,130.226,68.967,136.734,66.966Z" transform="translate(-46.613 50.696)" fill="#d60365"/>
        <path id="Path_9476" data-name="Path 9476" d="M202.126,74.6h-6.509A67.971,67.971,0,0,0,131.033,9.513h0V3a2.886,2.886,0,0,0-2.764-3c-.079,0-.161,0-.24,0a2.886,2.886,0,0,0-3,2.764c0,.079,0,.161,0,.24V9.513h0A67.239,67.239,0,0,0,60.44,74.6H54.932a2.886,2.886,0,0,0-3,2.764c0,.079,0,.161,0,.24a2.886,2.886,0,0,0,2.764,3c.079,0,.161,0,.24,0H202.126a2.886,2.886,0,0,0,3-2.764c0-.079,0-.161,0-.24a2.656,2.656,0,0,0-2.253-3A2.613,2.613,0,0,0,202.126,74.6ZM99.99,23.534A73.27,73.27,0,0,0,84.469,65.088a3.349,3.349,0,0,1-3,3.5H74.958c-2,0-3.5-2.5-3-5.008A70.245,70.245,0,0,1,99.49,23.033C99.99,22.533,100.493,23.033,99.99,23.534Z" transform="translate(-51.925 0.002)" fill="#d60365"/>
      </g>
    </g>
    <rect id="Rectangle_245" data-name="Rectangle 245" width="498" height="498" transform="translate(-1970 9398)" fill="none"/>
  </g>
</svg>
