<svg xmlns="http://www.w3.org/2000/svg" width="498" height="498" viewBox="0 0 498 498">
  <g id="Group_4118" data-name="Group 4118" transform="translate(1384 -9398)">
    <g id="Group_4112" data-name="Group 4112" transform="translate(1812.202 1360.766)">
      <g id="Group_4109" data-name="Group 4109" transform="translate(-3143.202 8125.27)">
        <path id="Path_9628" data-name="Path 9628" d="M318.984,385.183a225.258,225.258,0,0,0-19.1-27.823c-.541-.549-1.09-1.638-1.635-2.183-3.273-4.366-2.728-7.64-2.728-7.64-2.183-21.821-4.366-31.644-4.366-34.372-.545-3.273-1.635-6-6-6.546a102.06,102.06,0,0,0-14.73-1.093c-4.911,0-5.456,4.911-5.456,4.911v8.184c0,.545,0,1.093-1.09,1.638-.545,0-.545,0-1.09-.545-14.189-11.461-24.008-17.462-25.1-18.007a9.235,9.235,0,0,0-6-2.728,9.1,9.1,0,0,0-4.908,1.638c-2.728,1.635-47.468,27.278-81.84,84.02a5.817,5.817,0,0,0-.545,6,5.446,5.446,0,0,0,4.366,2.728s12,1.638,14.182,1.638c2.728,0,2.728,2.183,2.728,2.183a589.083,589.083,0,0,0,4.366,74.2s.545,4.37,4.911,4.37c1.635,0,7.636-.552,24-.552,1.09,0,1.09-.541,1.09-1.086-1.635-16.369-2.18-30.01-2.18-31.1a1.07,1.07,0,0,0-1.093-1.09,19.532,19.532,0,0,1-9.819-16.914c0-32.189,2.18-56.739,2.18-56.739A3.209,3.209,0,0,1,192.407,365c2.725,0,2.725,3.821,2.725,3.821-1.09,13.641-1.635,38.735-1.635,38.735s0,4.911,4.366,4.911,4.363-4.911,4.363-4.911c0-19.642,1.638-38.735,1.638-38.735a3.206,3.206,0,0,1,3.273-3.273c2.728,0,2.728,3.818,2.728,3.818-1.093,16.914-1.638,38.739-1.638,38.739s0,4.908,4.366,4.908,4.363-4.908,4.363-4.908c0-16.369,1.638-38.739,1.638-38.739a3.206,3.206,0,0,1,3.273-3.273c2.728,0,2.728,3.273,2.728,3.273-1.635,17.459-1.635,44.192-1.635,55.649s-8.188,16.369-9.278,16.914a1.2,1.2,0,0,0-.545,1.638c.545,10.368,1.093,22.37,2.183,31.1a1.178,1.178,0,0,0,1.09,1.093h37.1a1.178,1.178,0,0,0,1.09-1.093c1.638-15.279,2.187-26.188,2.187-27.281a1.07,1.07,0,0,0-1.093-1.09c-2.183,0-6.546-1.093-10.913-1.635-3.818-.549-4.363-5.46-4.363-5.46-3.273-47.465,21.822-77.474,21.822-77.474a5.567,5.567,0,0,1,6-2.18c3.277,1.09,3.277,4.908,3.277,4.908,3.273,39.832,0,91.115-2.183,109.667,0,1.086.545,1.638,1.09,1.638,10.913.542,15.824.542,16.914.542a5.42,5.42,0,0,0,4.911-4.363c5.456-37.1,4.363-74.2,4.363-74.2a2.981,2.981,0,0,1,2.732-2.725c2.18,0,14.182-1.638,14.182-1.638a5.446,5.446,0,0,0,4.366-2.728,4.484,4.484,0,0,0,1.09-5.456" transform="translate(-35.559 -298.98)" fill="#f70"/>
        <g id="Group_4108" data-name="Group 4108" transform="translate(0 194.344)">
          <path id="Path_9629" data-name="Path 9629" d="M127.409,365.2v-6.3a1.352,1.352,0,0,0-1.43-1.433H91.917a1.352,1.352,0,0,0-1.43,1.433v6.3a1.35,1.35,0,0,0,1.43,1.43H103.08a.914.914,0,0,1,.859.859v35.492a1.353,1.353,0,0,0,1.43,1.433h7.444a1.353,1.353,0,0,0,1.43-1.433V367.2a.615.615,0,0,1,.574-.574h11.163c.571,0,1.145-.571,1.43-1.43" transform="translate(-90.487 -354.324)"/>
          <path id="Path_9630" data-name="Path 9630" d="M129.623,366.567a8.842,8.842,0,0,0-4.581-3.151,17.922,17.922,0,0,0-7.156-1.145,24.155,24.155,0,0,0-7.727,1.145,19.854,19.854,0,0,0-5.44,2.863,1.386,1.386,0,0,0,0,2l3.148,3.151a1.386,1.386,0,0,0,2,0l2.577-1.718a11.98,11.98,0,0,1,4.581-1.147,8.665,8.665,0,0,1,4.578,1.43c1.145.862,1.718,2.577,2,5.44,0,.288-.286.574-.859.574h-3.722c-1.716,0-3.148.286-4.866.286a21.484,21.484,0,0,0-4.578,1.145,17.528,17.528,0,0,0-4.007,2,15.1,15.1,0,0,0-2.863,3.148,10.807,10.807,0,0,0-1.145,4.581,9.564,9.564,0,0,0,.859,4.3,8.966,8.966,0,0,0,2.577,3.148,15.443,15.443,0,0,0,3.719,2,21.972,21.972,0,0,0,4.293.574,12.8,12.8,0,0,0,5.725-1.145,10.866,10.866,0,0,0,3.722-2.577h.571l.288.288V394.9a1.352,1.352,0,0,0,1.43,1.433h6.3a1.354,1.354,0,0,0,1.433-1.433V380.019a81.125,81.125,0,0,0-.574-8.874,11.476,11.476,0,0,0-2.289-4.578m-6.011,18.6a5.7,5.7,0,0,1-.574,2.577,2.576,2.576,0,0,1-1.716,1.716,5.743,5.743,0,0,1-2.292,1.145,8.754,8.754,0,0,1-2.86.288,5.792,5.792,0,0,1-3.151-.859,2.505,2.505,0,0,1-1.43-2.577,2.793,2.793,0,0,1,1.145-2.577,11.629,11.629,0,0,1,2.577-1.43,12.2,12.2,0,0,1,3.148-.571h4.578c.288,0,.574.285.574.857Zm104.476-18.6a8.842,8.842,0,0,0-4.581-3.151,17.922,17.922,0,0,0-7.156-1.145,24.17,24.17,0,0,0-7.729,1.145,19.84,19.84,0,0,0-5.437,2.863,1.386,1.386,0,0,0,0,2l3.148,3.151a1.386,1.386,0,0,0,2,0l2.577-1.718a11.968,11.968,0,0,1,4.578-1.147,8.673,8.673,0,0,1,4.581,1.43c1.145.862,1.716,2.577,2,5.44,0,.288-.288.574-.859.574H217.5c-1.718,0-3.151.286-4.869.286a21.484,21.484,0,0,0-4.578,1.145,17.478,17.478,0,0,0-4.007,2,15.1,15.1,0,0,0-2.863,3.148,10.771,10.771,0,0,0-1.145,4.581,9.564,9.564,0,0,0,.859,4.3,8.958,8.958,0,0,0,2.575,3.148,15.508,15.508,0,0,0,3.722,2,21.947,21.947,0,0,0,4.293.574,12.814,12.814,0,0,0,5.725-1.145,10.857,10.857,0,0,0,3.719-2.577h.574l.286.288V394.9a1.354,1.354,0,0,0,1.433,1.433h6.3a1.353,1.353,0,0,0,1.43-1.433V380.019a80.507,80.507,0,0,0-.574-8.874,11.436,11.436,0,0,0-2.287-4.578m-6.011,18.6a5.734,5.734,0,0,1-.574,2.577,2.576,2.576,0,0,1-1.716,1.716,5.749,5.749,0,0,1-2.289,1.145,8.793,8.793,0,0,1-2.865.288,5.783,5.783,0,0,1-3.148-.859,2.505,2.505,0,0,1-1.43-2.577,2.793,2.793,0,0,1,1.145-2.577,11.671,11.671,0,0,1,2.575-1.43,12.233,12.233,0,0,1,3.151-.571H221.5c.286,0,.574.285.574.857Zm91.021-18.6a8.835,8.835,0,0,0-4.578-3.151,17.942,17.942,0,0,0-7.158-1.145,24.165,24.165,0,0,0-7.727,1.145,19.84,19.84,0,0,0-5.437,2.863,1.382,1.382,0,0,0,0,2l3.148,3.151a1.383,1.383,0,0,0,2,0l2.577-1.718a11.98,11.98,0,0,1,4.581-1.147,8.658,8.658,0,0,1,4.578,1.43c1.147.862,1.718,2.577,2,5.44,0,.288-.286.574-.857.574h-3.722c-1.718,0-3.148.286-4.866.286a21.446,21.446,0,0,0-4.578,1.145,17.5,17.5,0,0,0-4.01,2,15.021,15.021,0,0,0-2.86,3.148,10.771,10.771,0,0,0-1.147,4.581,9.564,9.564,0,0,0,.859,4.3,8.965,8.965,0,0,0,2.577,3.148,15.443,15.443,0,0,0,3.719,2,21.972,21.972,0,0,0,4.293.574,12.818,12.818,0,0,0,5.728-1.145,10.88,10.88,0,0,0,3.719-2.577h.571l.288.288V394.9a1.353,1.353,0,0,0,1.43,1.433h6.3a1.354,1.354,0,0,0,1.433-1.433V380.019a81.137,81.137,0,0,0-.574-8.874,11.444,11.444,0,0,0-2.289-4.578m-6.011,18.6a5.7,5.7,0,0,1-.574,2.577,2.571,2.571,0,0,1-1.716,1.716,5.749,5.749,0,0,1-2.289,1.145,8.785,8.785,0,0,1-2.865.288,5.789,5.789,0,0,1-3.148-.859,2.509,2.509,0,0,1-1.43-2.577,2.794,2.794,0,0,1,1.147-2.577,11.561,11.561,0,0,1,2.575-1.43,12.215,12.215,0,0,1,3.148-.571h4.578c.288,0,.574.285.574.857ZM195.744,366.85a15,15,0,0,0-4.866-3.434,15.441,15.441,0,0,0-6.3-1.145,17.351,17.351,0,0,0-6.868,1.145,19.1,19.1,0,0,0-5.725,3.434,12.344,12.344,0,0,0-3.722,5.44,23.5,23.5,0,0,0-1.43,8.015,24.813,24.813,0,0,0,1.43,8.015,22.938,22.938,0,0,0,3.722,5.44,18.288,18.288,0,0,0,12.593,4.578,16.672,16.672,0,0,0,7.444-1.718,14.965,14.965,0,0,0,4.866-3.434,1.386,1.386,0,0,0,0-2l-4.581-3.434v-.574c-.571-.285-1.43-.285-1.716.286a10.9,10.9,0,0,1-2,1.718,6.573,6.573,0,0,1-4.01,1.145,7.205,7.205,0,0,1-4.864-1.718,9.721,9.721,0,0,1-2.577-5.723c0-.288.286-.574.574-.859H198.6a1.353,1.353,0,0,0,1.433-1.433v-1.716a17.358,17.358,0,0,0-1.145-6.87,22.47,22.47,0,0,0-3.148-5.154m-6.585,8.588H177.711c-.288,0-.859-.285-.859-.574a2.188,2.188,0,0,1,.571-1.43,5.123,5.123,0,0,1,1.433-2,8.688,8.688,0,0,1,2-1.435,8.542,8.542,0,0,1,2.863-.571,5.818,5.818,0,0,1,4.293,1.718,8.887,8.887,0,0,1,1.718,3.719.617.617,0,0,1-.574.574" transform="translate(-73.809 -347.102)"/>
          <path id="Path_9631" data-name="Path 9631" d="M136.7,389.7l-.288-.286a1.279,1.279,0,0,1,0-1.43l11.451-14.311a.875.875,0,0,0,0-1.147,1,1,0,0,0-.574-.286h-9.159a3.534,3.534,0,0,0-2.289,1.145l-.574.574-8.871,11.448h-.574a.28.28,0,0,0-.286-.286V357.648a1.353,1.353,0,0,0-1.433-1.433h-7.156a1.351,1.351,0,0,0-1.43,1.433v46.941a1.352,1.352,0,0,0,1.43,1.433H124.1a1.354,1.354,0,0,0,1.433-1.433V391.422a.28.28,0,0,1,.286-.286c.286-.288.574-.288.574,0l.286.286,8.586,12.881.574.571a2.6,2.6,0,0,0,2.289,1.147h10.018a1.057,1.057,0,0,0,.286-.859Zm128.232-15.17a2.2,2.2,0,0,0,.288-.857v-.288a1.312,1.312,0,0,0-1.433-1.145h-5.725a3.079,3.079,0,0,0-2.86,2.289l-.288.574-4.866,17.46a.716.716,0,0,1-1.145,0v-.286l-4.864-17.747v-.286a2.848,2.848,0,0,0-2.865-2h-6.011a3.079,3.079,0,0,0-2.86,2.289v.859L228,392.852c0,.288-.283.288-.571.288s-.286,0-.574-.288l-5.152-17.459-.286-.859v-.286a2.847,2.847,0,0,0-2.863-2h-6.3a1.9,1.9,0,0,0-1.43,1.145v.288a1.049,1.049,0,0,0,.286.857l10.3,29.481v.288A3.29,3.29,0,0,0,224,406.021h6.008a2.75,2.75,0,0,0,2.577-2.006l.286-.857,4.578-16.888a1.015,1.015,0,0,1,.574-.288c.288,0,.288,0,.574.288l5.44,17.174a2.888,2.888,0,0,0,.283.859,3.294,3.294,0,0,0,2.577,1.718h5.725A3.294,3.294,0,0,0,255.2,404.3a2.957,2.957,0,0,0,.286-1.145l9.445-28.625m65.262-1.145h0a1.461,1.461,0,0,0-1.43-1.145h-6.011a2.9,2.9,0,0,0-2.577,1.718v.859l-.288.571-5.437,17.747v.285c0,.288-.286.571-.859.571a.614.614,0,0,1-.571-.571l-6.582-18.033v-.286l-.574-1.145a3.009,3.009,0,0,0-2.575-1.433h-6.87c-.574,0-.862.574-1.145.859v1.145l12.879,31.488a4.685,4.685,0,0,1,0,2l-.286.571a20.2,20.2,0,0,1-.859,2.289,6,6,0,0,1-1.145,1.718,6.067,6.067,0,0,1-1.718,1.147,7.185,7.185,0,0,1-2.575.283h-4.3a1.353,1.353,0,0,0-1.43,1.433V420.9a1.353,1.353,0,0,0,1.43,1.433H303a29.545,29.545,0,0,0,5.723-.574,15.288,15.288,0,0,0,3.722-2,10.279,10.279,0,0,0,2.292-3.434c.571-1.433,1.145-2.865,2-4.581l13.74-37.5a2.213,2.213,0,0,1-.286-.859m-1.43,25.762a2.794,2.794,0,0,0-2.58,1.145,5.175,5.175,0,0,0-1.142,2.577,3.5,3.5,0,0,0,1.142,2.575,3.474,3.474,0,0,0,5.154,0,5.129,5.129,0,0,0,1.145-2.575,3.5,3.5,0,0,0-1.145-2.577,2.788,2.788,0,0,0-2.575-1.145m61.54-23.187a16.25,16.25,0,0,0-5.152-3.434,19.5,19.5,0,0,0-13.167,0,15.764,15.764,0,0,0-8.588,8.588c-.859,2-1.145,6.011-1.145,8.3a21.9,21.9,0,0,0,1.145,7.727,15.764,15.764,0,0,0,8.588,8.588,19.464,19.464,0,0,0,13.167,0,15.77,15.77,0,0,0,8.586-8.588,21.9,21.9,0,0,0,1.145-7.727c0-2.575-.286-6.3-1.145-8.3a16.261,16.261,0,0,0-3.434-5.154m-1.718,19.18a10.144,10.144,0,0,1-2.289,3.722,7.835,7.835,0,0,1-3.436,2.575,12.637,12.637,0,0,1-9.159,0,7.814,7.814,0,0,1-3.434-2.575,16.335,16.335,0,0,1-2.292-3.722,16.637,16.637,0,0,1-.857-5.44,22.294,22.294,0,0,1,.857-6.3,10.133,10.133,0,0,1,2.292-3.722,9.835,9.835,0,0,1,3.434-2.575,12.635,12.635,0,0,1,9.159,0,7.816,7.816,0,0,1,3.436,2.575,16.273,16.273,0,0,1,2.289,3.722,22.386,22.386,0,0,1,.859,6.3,18.016,18.016,0,0,1-.859,5.44m-47.229-15.458a7.808,7.808,0,0,1,3.434-2.575,11.863,11.863,0,0,1,4.581-.859,11.452,11.452,0,0,1,4.293.859,15.65,15.65,0,0,1,2.577,2,1.382,1.382,0,0,0,2,0l2-1.716a1.758,1.758,0,0,0,.286-2,37.165,37.165,0,0,0-4.293-2.863,19.511,19.511,0,0,0-13.169,0,15.77,15.77,0,0,0-8.586,8.588,22.976,22.976,0,0,0-1.145,7.729c0,2.289.286,6.009,1.145,8.015a22.375,22.375,0,0,0,3.151,5.152,16.254,16.254,0,0,0,5.152,3.434,16.774,16.774,0,0,0,6.582,1.145,17.755,17.755,0,0,0,6.585-1.145,8.8,8.8,0,0,0,4.293-2.863,1.379,1.379,0,0,0,0-2l-1.718-1.718a1.382,1.382,0,0,0-2,0,9.67,9.67,0,0,1-7.156,2.86,9.545,9.545,0,0,1-4.293-.859,9.867,9.867,0,0,1-3.436-2.575,9.415,9.415,0,0,1-2-3.722,19.789,19.789,0,0,1-.862-5.723,35.3,35.3,0,0,1,.574-5.725,8.413,8.413,0,0,1,2-3.436m103.331-.574a8.877,8.877,0,0,0-2-4,8.742,8.742,0,0,0-3.722-2.577,16.115,16.115,0,0,0-5.723-.857,13.307,13.307,0,0,0-6.014,1.43,19.462,19.462,0,0,0-3.434,3.434.282.282,0,0,1-.288.288l-.283.286c-.288,0-.288,0-.574-.286v-.288c-.288-.286-.288-.574-.574-.857a10.646,10.646,0,0,0-1.718-2,8.919,8.919,0,0,0-2.86-1.433,17.377,17.377,0,0,0-4.3-.571,14.529,14.529,0,0,0-3.719.571,8.931,8.931,0,0,0-2.863,1.433,7.667,7.667,0,0,0-2.289,2c-.288.283-.288.571-.574.857l-.286.288a1,1,0,0,1-.574-.288v-2.289a1.351,1.351,0,0,0-1.43-1.43h-2a1.352,1.352,0,0,0-1.433,1.43v30.914a1.352,1.352,0,0,0,1.433,1.43h2.289a1.35,1.35,0,0,0,1.43-1.43V388.847a25.3,25.3,0,0,1,.574-4.869,7.5,7.5,0,0,1,1.716-3.719,8.125,8.125,0,0,1,2.865-2.577,9.573,9.573,0,0,1,4.293-.857,5.194,5.194,0,0,1,4.578,2.287c.859,1.435,1.43,4.01,1.43,7.444v18.892a1.354,1.354,0,0,0,1.433,1.433h2.289a1.353,1.353,0,0,0,1.433-1.433V386.27a14.451,14.451,0,0,1,.574-3.722,9.529,9.529,0,0,1,1.716-2.863,16.121,16.121,0,0,1,2.575-2,5.687,5.687,0,0,1,3.151-.571,7.151,7.151,0,0,1,3.722.859,7.661,7.661,0,0,1,2.289,2,8.509,8.509,0,0,1,1.145,2.86,11.777,11.777,0,0,1,.286,3.148v19.751a1.352,1.352,0,0,0,1.433,1.43h2.289a1.35,1.35,0,0,0,1.43-1.43V385.7a13.232,13.232,0,0,0,.288-6.587" transform="translate(-52.83 -356.215)"/>
        </g>
      </g>
    </g>
    <rect id="Rectangle_245" data-name="Rectangle 245" width="498" height="498" transform="translate(-1384 9398)" fill="none"/>
  </g>
</svg>
