<svg id="Layer_1" data-name="Layer 1" xmlns="http://www.w3.org/2000/svg" viewBox="0 0 500 200"><defs><style>.cls-1{fill:#7c441d;}.cls-2{font-size:23.45px;font-family:Muli-Regular, Muli;letter-spacing:0.11em;}.cls-3{letter-spacing:0.15em;}.cls-4{letter-spacing:0.07em;}.cls-5{letter-spacing:0.13em;}.cls-6{letter-spacing:0.15em;}.cls-7{fill:#5c8423;}.cls-8{fill:#81b83d;}</style></defs><title>Logo-4</title><path class="cls-1" d="M144.07,121.28a13.62,13.62,0,0,1-5.2-5.9,20.79,20.79,0,0,1-1.83-9v0a20.54,20.54,0,0,1,1.84-9,13.8,13.8,0,0,1,5.21-5.89,16.22,16.22,0,0,1,15.93,0,13.82,13.82,0,0,1,5.19,5.89,20.68,20.68,0,0,1,1.83,9v0a20.79,20.79,0,0,1-1.83,9,13.77,13.77,0,0,1-5.18,5.9,16.28,16.28,0,0,1-16,0Zm14.28-2.55a11.39,11.39,0,0,0,4.08-4.93,17.84,17.84,0,0,0,1.45-7.47v0a17.82,17.82,0,0,0-1.46-7.5,11.35,11.35,0,0,0-20.77,0,17.86,17.86,0,0,0-1.45,7.52v0a17.87,17.87,0,0,0,1.45,7.49,11.39,11.39,0,0,0,4.12,4.92,11.27,11.27,0,0,0,6.29,1.74A11.13,11.13,0,0,0,158.35,118.73Z"/><path class="cls-1" d="M175.64,89.8H187.3A12.39,12.39,0,0,1,192.9,91a8.68,8.68,0,0,1,3.66,3.35,9.84,9.84,0,0,1,1.3,5.12v.05a9.51,9.51,0,0,1-1.89,5.95,9.27,9.27,0,0,1-5.19,3.34l8,14h-3.64l-7.6-13.55-.33,0h-8.46v13.53h-3.12Zm11.41,16.74a8,8,0,0,0,5.6-1.84,6.61,6.61,0,0,0,2-5.12v0a6.51,6.51,0,0,0-2.06-5.11,8.27,8.27,0,0,0-5.68-1.83h-8.15v14Z"/><path class="cls-1" d="M212.35,121.24a14.13,14.13,0,0,1-5.16-6,21.14,21.14,0,0,1-1.83-9.12v0a20.37,20.37,0,0,1,1.82-8.92,13.88,13.88,0,0,1,5.14-5.84,14.54,14.54,0,0,1,7.84-2.07,14.92,14.92,0,0,1,6.34,1.28,12.4,12.4,0,0,1,4.56,3.59,14,14,0,0,1,2.56,5.39l.09.37h-3.25l-.09-.23a10.5,10.5,0,0,0-3.8-5.59,10.65,10.65,0,0,0-6.41-1.92,11.17,11.17,0,0,0-6.2,1.68,11,11,0,0,0-4,4.81,18,18,0,0,0-1.42,7.45v0a18.75,18.75,0,0,0,1.43,7.63,11.44,11.44,0,0,0,4.05,5,10.77,10.77,0,0,0,6.16,1.75,11.19,11.19,0,0,0,5.58-1.35,9.45,9.45,0,0,0,3.74-3.78,11.56,11.56,0,0,0,1.32-5.63V109H220.52v-2.75h13.4V109a16.49,16.49,0,0,1-1.66,7.66,11.9,11.9,0,0,1-4.74,5,14.76,14.76,0,0,1-7.36,1.75A14.12,14.12,0,0,1,212.35,121.24Z"/><path class="cls-1" d="M252.28,89.8h2.31v3.8h-.8l-10.67,29.24h-3.3Zm-6,20.22h15.07l1,2.68H245.25Zm7.58-16.42V89.8h1.51l12.41,33h-3.27Z"/><path class="cls-1" d="M275.18,89.8h3.07l22.14,31.67-4-3.87h1.44V89.8h3.09v33H297.8L275.66,91.19l4,3.85h-1.46v27.8h-3.07Z"/><path class="cls-1" d="M310.8,89.8h3.12v33H310.8Z"/><path class="cls-1" d="M329.53,121.25a14,14,0,0,1-5.2-5.94,20.65,20.65,0,0,1-1.83-9v0a20.68,20.68,0,0,1,1.83-9,13.84,13.84,0,0,1,5.19-5.9,14.6,14.6,0,0,1,7.91-2.1,14,14,0,0,1,6.16,1.32,12.56,12.56,0,0,1,4.56,3.65,12.8,12.8,0,0,1,2.43,5.43l0,.23h-3.13l-.12-.42a10.66,10.66,0,0,0-2-3.88A9.13,9.13,0,0,0,342,93.06a12,12,0,0,0-10.8.84,11.23,11.23,0,0,0-4.09,4.91,18,18,0,0,0-1.44,7.48v0a17.8,17.8,0,0,0,1.45,7.46,11.56,11.56,0,0,0,4.1,5,10.86,10.86,0,0,0,6.19,1.76,11,11,0,0,0,4.56-.9,9.34,9.34,0,0,0,3.38-2.59,11.09,11.09,0,0,0,2.05-4l.07-.21h3.13l0,.23a12.71,12.71,0,0,1-2.43,5.45,12.39,12.39,0,0,1-4.55,3.64,14.14,14.14,0,0,1-6.17,1.31A14.56,14.56,0,0,1,329.53,121.25Z"/><path class="cls-1" d="M358.61,89.8h21.64v5.7H365.53v8.86H379v5.47H365.53v13h-6.92Z"/><path class="cls-1" d="M394.5,121.34a13.93,13.93,0,0,1-5.53-5.91,19.83,19.83,0,0,1-1.94-9.1v0a19.8,19.8,0,0,1,2-9.1,14.1,14.1,0,0,1,5.55-5.89,18.3,18.3,0,0,1,16.93,0,14.06,14.06,0,0,1,5.52,5.9,19.69,19.69,0,0,1,1.94,9.08v0a19.79,19.79,0,0,1-1.94,9.09,14.12,14.12,0,0,1-5.51,5.91,16.48,16.48,0,0,1-8.48,2.08A16.69,16.69,0,0,1,394.5,121.34Zm13.21-5.17a8.89,8.89,0,0,0,3.06-3.91,15,15,0,0,0,1.08-5.93v0a14.85,14.85,0,0,0-1.09-6,8.72,8.72,0,0,0-3.08-3.88,8.8,8.8,0,0,0-9.4,0,8.7,8.7,0,0,0-3.09,3.87,14.84,14.84,0,0,0-1.09,6v0a14.89,14.89,0,0,0,1.09,6,8.86,8.86,0,0,0,3.08,3.89,8.15,8.15,0,0,0,4.72,1.37A8,8,0,0,0,407.71,116.17Z"/><path class="cls-1" d="M433.54,121.34a13.93,13.93,0,0,1-5.53-5.91,19.83,19.83,0,0,1-1.94-9.1v0a19.8,19.8,0,0,1,1.95-9.1,14.1,14.1,0,0,1,5.55-5.89,18.3,18.3,0,0,1,16.93,0,14.06,14.06,0,0,1,5.52,5.9,19.69,19.69,0,0,1,1.94,9.08v0a19.79,19.79,0,0,1-1.94,9.09,14.12,14.12,0,0,1-5.51,5.91,16.48,16.48,0,0,1-8.48,2.08A16.69,16.69,0,0,1,433.54,121.34Zm13.21-5.17a8.89,8.89,0,0,0,3.06-3.91,15,15,0,0,0,1.08-5.93v0a14.85,14.85,0,0,0-1.09-6,8.72,8.72,0,0,0-3.08-3.88,8.8,8.8,0,0,0-9.4,0,8.7,8.7,0,0,0-3.09,3.87,14.84,14.84,0,0,0-1.09,6v0a14.89,14.89,0,0,0,1.09,6,8.86,8.86,0,0,0,3.08,3.89,8.15,8.15,0,0,0,4.72,1.37A8,8,0,0,0,446.75,116.17Z"/><path class="cls-1" d="M466.16,89.8h12.62a17.56,17.56,0,0,1,8.48,1.9,12.84,12.84,0,0,1,5.39,5.55,19.19,19.19,0,0,1,1.88,8.9v0a20,20,0,0,1-1.86,9,13.06,13.06,0,0,1-5.4,5.7,17.08,17.08,0,0,1-8.49,2H466.16ZM478,117.12a10.22,10.22,0,0,0,5.21-1.24,7.86,7.86,0,0,0,3.22-3.66,14.58,14.58,0,0,0,1.1-6v0a13.73,13.73,0,0,0-1.12-5.82,8,8,0,0,0-3.26-3.6A10.12,10.12,0,0,0,478,95.52h-4.88v21.6Z"/><text class="cls-2" transform="translate(213.43 149.16)">Y<tspan class="cls-3" x="16.72" y="0">OUR </tspan><tspan class="cls-4" x="88.4" y="0">T</tspan><tspan class="cls-5" x="104.09" y="0">A</tspan><tspan class="cls-6" x="124.26" y="0">GLINE</tspan></text><path class="cls-7" d="M133.94,123.56h-6.51A36.42,36.42,0,0,0,79.79,88.91c-.54-.5-1.08-1-1.64-1.44a48.6,48.6,0,0,0-4.36-3.23,42.92,42.92,0,0,1,60.15,39.32Z"/><path class="cls-7" d="M121.11,123.56h-7.32A22.81,22.81,0,0,0,91,100.78c-.6,0-1.2,0-1.8.07-.24-.44-.5-.89-.77-1.33a45.15,45.15,0,0,0-3.75-5.39,30.1,30.1,0,0,1,36.42,29.43Z"/><path class="cls-8" d="M91,123.56H84.5a36.17,36.17,0,0,0-5.56-19.31,35.77,35.77,0,0,0-4.51-5.8,36.41,36.41,0,0,0-62.78,25.11H5.15A42.95,42.95,0,0,1,80.44,95.37,43.91,43.91,0,0,1,85,101.6,42.61,42.61,0,0,1,91,123.56Z"/><path class="cls-7" d="M78.18,123.56H70.86a22.78,22.78,0,0,0-45.56,0H18a30.11,30.11,0,0,1,60.21,0Z"/></svg>