<svg id="Layer_1" data-name="Layer 1" xmlns="http://www.w3.org/2000/svg" xmlns:xlink="http://www.w3.org/1999/xlink" viewBox="0 0 500 300"><defs><style>.cls-1{fill:url(#linear-gradient);}.cls-2{font-size:20px;font-family:Muli-Regular, Muli;letter-spacing:0.11em;}.cls-2,.cls-7{fill:#3d3d3d;}.cls-3{letter-spacing:0.15em;}.cls-4{letter-spacing:0.07em;}.cls-5{letter-spacing:0.13em;}.cls-6{letter-spacing:0.15em;}.cls-7{font-size:43.77px;font-family:Montserrat-Bold, Montserrat;font-weight:700;letter-spacing:0.08em;}.cls-8{mask:url(#mask);}.cls-9{fill:#7c441d;}</style><linearGradient id="linear-gradient" x1="249.44" y1="188.44" x2="249.44" y2="113.31" gradientUnits="userSpaceOnUse"><stop offset="0"/><stop offset="0.09" stop-color="#070707"/><stop offset="0.22" stop-color="#1a1a1a"/><stop offset="0.37" stop-color="#3a3a3a"/><stop offset="0.54" stop-color="#676767"/><stop offset="0.73" stop-color="#a0a0a0"/><stop offset="0.93" stop-color="#e4e4e4"/><stop offset="1" stop-color="#fff"/></linearGradient><mask id="mask" x="158.52" y="145.8" width="181.82" height="68.97" maskUnits="userSpaceOnUse"><rect class="cls-1" x="158.52" y="145.8" width="181.82" height="58"/></mask></defs><title>Logo-10</title><text class="cls-2" transform="translate(152.37 223.66)">Y<tspan class="cls-3" x="14.26" y="0">OUR </tspan><tspan class="cls-4" x="75.4" y="0">T</tspan><tspan class="cls-5" x="88.78" y="0">A</tspan><tspan class="cls-6" x="105.98" y="0">GLINE</tspan></text><text class="cls-7" transform="translate(48.43 203.13)">FROCK &amp; KNIFE</text><g class="cls-8"><path class="cls-9" d="M300.33,214.77h-75.5c-15.37-17.61-20.38-39.66-20.38-39.66H189.14c5.12,19,15.34,31.52,25.43,39.66h-14.9a72.27,72.27,0,0,1-21.92-46.41h144.5A72.27,72.27,0,0,1,300.33,214.77Zm-128.9-52.13H328.57c3.88,0,7.05-2.92,7.05-6.47s-3.17-6.48-7.05-6.48H171.43c-3.88,0-7.05,2.92-7.05,6.48S167.55,162.64,171.43,162.64Z"/></g><path class="cls-9" d="M335.62,142.88c0,3.56-3.17,6.47-7.05,6.47H171.43c-3.88,0-7.05-2.91-7.05-6.47s3.17-6.47,7.05-6.47H328.57C332.45,136.41,335.62,139.32,335.62,142.88ZM258.23,61.57a8.24,8.24,0,0,0-16.45,0,67,67,0,0,1,8.05-.51A68.63,68.63,0,0,1,258.23,61.57Zm64,69.12H177.75a72.47,72.47,0,0,1,144.5,0ZM241.73,70.26s-40.51,8.84-52.59,53.67h15.31S212.92,86.53,241.73,70.26Z"/></svg>