<svg id="Layer_1" data-name="Layer 1" xmlns="http://www.w3.org/2000/svg" viewBox="0 0 200 200"><defs><style>.cls-1{fill:#81b83d;}</style></defs><title>Logo-9</title><path class="cls-1" d="M174.24,83.87c-2.5-2.51-6.47-4.11-27.28,3.65a211.68,211.68,0,0,0-25.47,11.39c-1.11-2.82-2.09-5.14-2.71-6.58-11.41-26.56-16-26.56-18.78-26.56s-7.37,0-18.78,26.56c-.62,1.44-1.6,3.76-2.71,6.58A211.68,211.68,0,0,0,53,87.52c-20.81-7.76-24.78-6.16-27.28-3.65-2,1.95-5.22,5.21,5.5,32.05,2.31,5.8,10.42,25.29,17.46,32.33a29.51,29.51,0,0,0,36,4.27,29.24,29.24,0,0,0,30.56,0,29.47,29.47,0,0,0,36-4.27c7-7,15.15-26.53,17.46-32.33C179.46,89.08,176.19,85.82,174.24,83.87ZM56.59,140.39c-6.72-6.72-18.47-35.29-21.2-46.87,8.72,2.1,27.48,9.31,39.27,16-2.16,6.51-4,13.35-4,18.05a29.14,29.14,0,0,0,5.37,16.88A18.28,18.28,0,0,1,56.59,140.39Zm25.24-12.85c0-9.5,11.92-38.06,18.17-48.16,6.25,10.1,18.17,38.66,18.17,48.16a18.17,18.17,0,0,1-36.34,0Zm61.58,12.85a18.28,18.28,0,0,1-19.49,4,29.14,29.14,0,0,0,5.37-16.88c0-4.7-1.79-11.54-3.95-18.05,11.79-6.66,30.55-13.87,39.27-16C161.88,105.1,150.13,133.67,143.41,140.39Z"/><path class="cls-1" d="M100,53a8.88,8.88,0,1,0-8.87-8.88A8.87,8.87,0,0,0,100,53Z"/><circle class="cls-1" cx="139.75" cy="69.85" r="8.87" transform="translate(-16.04 58.06) rotate(-22.23)"/><path class="cls-1" d="M60.25,78.73a8.88,8.88,0,1,0-8.88-8.88A8.87,8.87,0,0,0,60.25,78.73Z"/></svg>