<svg id="Layer_1" data-name="Layer 1" xmlns="http://www.w3.org/2000/svg" xmlns:xlink="http://www.w3.org/1999/xlink" viewBox="0 0 500 200"><defs><style>.cls-1{fill:url(#linear-gradient);}.cls-2{font-size:16.73px;font-family:Muli-Regular, Muli;letter-spacing:0.11em;}.cls-2,.cls-7{fill:#3d3d3d;}.cls-3{letter-spacing:0.15em;}.cls-4{letter-spacing:0.07em;}.cls-5{letter-spacing:0.13em;}.cls-6{letter-spacing:0.15em;}.cls-7{font-size:36.61px;font-family:Montserrat-Bold, Montserrat;font-weight:700;letter-spacing:0.08em;}.cls-8{mask:url(#mask);}.cls-9{fill:#7c441d;}</style><linearGradient id="linear-gradient" x1="80.16" y1="136.44" x2="80.16" y2="101.23" gradientUnits="userSpaceOnUse"><stop offset="0"/><stop offset="0.09" stop-color="#070707"/><stop offset="0.22" stop-color="#1a1a1a"/><stop offset="0.37" stop-color="#3a3a3a"/><stop offset="0.54" stop-color="#676767"/><stop offset="0.73" stop-color="#a0a0a0"/><stop offset="0.93" stop-color="#e4e4e4"/><stop offset="1" stop-color="#fff"/></linearGradient><mask id="mask" x="37.54" y="116.46" width="85.24" height="32.33" maskUnits="userSpaceOnUse"><rect class="cls-1" x="37.54" y="116.46" width="85.24" height="27.19"/></mask></defs><title>Logo-11</title><text class="cls-2" transform="translate(222.9 136.07)">Y<tspan class="cls-3" x="11.93" y="0">OUR </tspan><tspan class="cls-4" x="63.07" y="0">T</tspan><tspan class="cls-5" x="74.26" y="0">A</tspan><tspan class="cls-6" x="88.65" y="0">GLINE</tspan></text><text class="cls-7" transform="translate(135.96 118.89)">FROCK &amp; KNIFE</text><g class="cls-8"><path class="cls-9" d="M104,148.79H68.62a48,48,0,0,1-9.55-18.59H51.89a35.16,35.16,0,0,0,11.92,18.59h-7A33.9,33.9,0,0,1,46.55,127h67.74A33.89,33.89,0,0,1,104,148.79ZM43.59,124.35h73.66a3,3,0,1,0,0-6.07H43.59a3,3,0,1,0,0,6.07Z"/></g><path class="cls-9" d="M120.56,115.09a3.19,3.19,0,0,1-3.31,3H43.59a3,3,0,1,1,0-6.07h73.66A3.19,3.19,0,0,1,120.56,115.09ZM84.28,77a3.86,3.86,0,0,0-7.71,0,31.4,31.4,0,0,1,3.77-.24A32.05,32.05,0,0,1,84.28,77Zm30,32.4H46.55a34,34,0,0,1,67.74,0ZM76.55,81a35.2,35.2,0,0,0-24.66,25.17h7.18S63,88.67,76.55,81Z"/></svg>