<svg xmlns="http://www.w3.org/2000/svg" width="504.569" height="34.364" viewBox="0 0 504.569 34.364"><g transform="translate(1545.897 -586.037)"><path d="M-1536.718,620.4c-4.071,0-8.556-2.861-8.767-3a.9.9,0,0,1-.412-.756.9.9,0,0,1,.412-.756c.237-.153,5.845-3.729,10.218-2.862a3.626,3.626,0,0,1,3,3.618,3.628,3.628,0,0,1-3,3.619h0A7.511,7.511,0,0,1-1536.718,620.4Zm1.276-1.018h0Zm-7.739-2.737c1.79.938,5.044,2.355,7.564,1.854h0a1.842,1.842,0,0,0,1.548-1.853,1.843,1.843,0,0,0-1.548-1.853C-1538.147,614.291-1541.394,615.709-1543.181,616.646Z" fill="#1a1a1a"/><path d="M-1050.507,620.4a7.5,7.5,0,0,1-1.451-.135h0a3.627,3.627,0,0,1-3-3.619,3.626,3.626,0,0,1,3-3.618c4.373-.867,9.981,2.709,10.219,2.862a.9.9,0,0,1,.411.756.9.9,0,0,1-.411.756C-1041.951,617.54-1046.437,620.4-1050.507,620.4Zm-1.1-1.9c2.528.5,5.776-.915,7.564-1.852-1.789-.938-5.039-2.352-7.564-1.854a1.843,1.843,0,0,0-1.548,1.853,1.842,1.842,0,0,0,1.548,1.853Z" fill="#1a1a1a"/><path d="M-1054.056,617.547h-479.113a.9.9,0,0,1-.9-.9.9.9,0,0,1,.9-.9h479.113a.9.9,0,0,1,.9.9A.9.9,0,0,1-1054.056,617.547Z" fill="#1a1a1a"/><path d="M-1274.979,617.6a12.457,12.457,0,0,1-4.356-.787l-.361-.134a29.294,29.294,0,0,1-9.309-5.86c-7.809-7.14-14.9-4.528-14.974-4.5a.816.816,0,0,1-.106.034,5.135,5.135,0,0,0-3.717,6.207,3.9,3.9,0,0,0,4.667,2.874,2.87,2.87,0,0,0,1.824-1.474,2.648,2.648,0,0,0-.054-2.949,2.158,2.158,0,0,0-2.21-.763.9.9,0,0,1-1.091-.656.9.9,0,0,1,.656-1.091,3.963,3.963,0,0,1,4.06,1.4,4.427,4.427,0,0,1,.235,4.9,4.694,4.694,0,0,1-3,2.39,5.7,5.7,0,0,1-6.834-4.2,6.937,6.937,0,0,1,4.981-8.368c.791-.284,8.438-2.753,16.774,4.87a27.857,27.857,0,0,0,8.7,5.5l.385.143a10.752,10.752,0,0,0,10.153-1.456,9.891,9.891,0,0,0,4.13-8.624q-.023-.4-.074-.8a8.509,8.509,0,0,0-3.748-5.979c-3.019-2.072-6.229-2.356-8.807-.78a6.959,6.959,0,0,0-3.256,6.823,5.172,5.172,0,0,0,2.2,3.54c1.835,1.285,3.779,1.483,5.331.542a4.126,4.126,0,0,0,1.946-4.061,3.1,3.1,0,0,0-1.187-2.071,3.018,3.018,0,0,0-2.263-.61.9.9,0,0,1-1.009-.775.9.9,0,0,1,.775-1.01,4.821,4.821,0,0,1,3.6.969,4.881,4.881,0,0,1,1.874,3.267,5.929,5.929,0,0,1-2.8,5.831,6.575,6.575,0,0,1-7.3-.608,6.971,6.971,0,0,1-2.949-4.784,8.762,8.762,0,0,1,4.1-8.589c3.162-1.934,7.187-1.624,10.764.831a10.3,10.3,0,0,1,4.517,7.239q.057.467.084.927a11.662,11.662,0,0,1-4.859,10.173A12.62,12.62,0,0,1-1274.979,617.6Z" fill="#1a1a1a"/><path d="M-1312.247,617.6a12.617,12.617,0,0,1-7.492-2.48,11.662,11.662,0,0,1-4.859-10.173c.017-.307.046-.616.084-.926a10.293,10.293,0,0,1,4.516-7.24c3.578-2.454,7.6-2.765,10.765-.831a8.762,8.762,0,0,1,4.1,8.589,6.969,6.969,0,0,1-2.95,4.784,6.573,6.573,0,0,1-7.295.608,5.927,5.927,0,0,1-2.8-5.831,4.881,4.881,0,0,1,1.874-3.267,4.822,4.822,0,0,1,3.595-.969.9.9,0,0,1,.775,1.01.893.893,0,0,1-1.009.775,3.016,3.016,0,0,0-2.263.61,3.1,3.1,0,0,0-1.187,2.071,4.126,4.126,0,0,0,1.946,4.061c1.553.94,3.5.742,5.331-.542a5.172,5.172,0,0,0,2.2-3.54,6.959,6.959,0,0,0-3.256-6.823c-2.578-1.577-5.789-1.292-8.807.78a8.513,8.513,0,0,0-3.749,5.98c-.033.268-.058.535-.073.8a9.891,9.891,0,0,0,4.13,8.624,10.752,10.752,0,0,0,10.153,1.456l.361-.134a27.881,27.881,0,0,0,8.732-5.511c8.331-7.618,15.979-5.15,16.769-4.865a6.937,6.937,0,0,1,4.981,8.368,5.7,5.7,0,0,1-6.834,4.2,4.694,4.694,0,0,1-3-2.39,4.425,4.425,0,0,1,.235-4.9,3.962,3.962,0,0,1,4.06-1.4.9.9,0,0,1,.656,1.091.9.9,0,0,1-1.091.656,2.159,2.159,0,0,0-2.21.763,2.65,2.65,0,0,0-.055,2.949,2.874,2.874,0,0,0,1.826,1.474,3.891,3.891,0,0,0,4.666-2.874,5.135,5.135,0,0,0-3.717-6.207.861.861,0,0,1-.106-.034c-.287-.108-7.209-2.6-14.969,4.5a29.335,29.335,0,0,1-9.338,5.873l-.337.125A12.458,12.458,0,0,1-1312.247,617.6Z" fill="#1a1a1a"/><path d="M-1293.612,602.537a.9.9,0,0,1-.836-.566c-.115-.287-2.811-7.1-2.167-12.32.307-2.5,1.73-3.614,3-3.614s2.7,1.117,3,3.614c.644,5.224-2.052,12.033-2.167,12.32A.9.9,0,0,1-1293.612,602.537Zm0-14.7c-.48,0-1.052.7-1.217,2.035h0c-.363,2.952.5,6.6,1.216,8.975.717-2.371,1.58-6.027,1.217-8.976C-1292.561,588.536-1293.133,587.836-1293.612,587.836Zm-2.11,1.925h0Z" fill="#1a1a1a"/><path d="M-1288.15,601.728a.9.9,0,0,1-.635-.263.9.9,0,0,1-.244-.829c.079-.366.836-3.622,2.812-4.958h0a2.246,2.246,0,0,1,2.907.258,2.3,2.3,0,0,1,.28,2.935c-1.326,1.992-4.561,2.755-4.926,2.836A.9.9,0,0,1-1288.15,601.728Zm2.437-5.3.5.745a5.129,5.129,0,0,0-1.553,2.263,5.1,5.1,0,0,0,2.234-1.558.489.489,0,0,0-.051-.661.459.459,0,0,0-.63-.044Z" fill="#1a1a1a"/><path d="M-1299.075,601.728a.906.906,0,0,1-.194-.021c-.365-.081-3.6-.844-4.926-2.836a2.3,2.3,0,0,1,.28-2.935,2.247,2.247,0,0,1,2.907-.258h0c1.976,1.336,2.733,4.592,2.812,4.958a.9.9,0,0,1-.244.829A.9.9,0,0,1-1299.075,601.728Zm-3.242-4.663a.467.467,0,0,0-.329.148.489.489,0,0,0-.051.661,5.079,5.079,0,0,0,2.233,1.559,5.144,5.144,0,0,0-1.552-2.264A.542.542,0,0,0-1302.317,597.065Z" fill="#1a1a1a"/></g></svg>