<svg xmlns="http://www.w3.org/2000/svg" width="504.547" height="26.028" viewBox="0 0 504.547 26.028"><g transform="translate(1545.886 -299.007)"><path d="M-1287.215,305.515l-6.469,6.507-6.469-6.507,6.469-6.507Z" fill="#1a1a1a"/><path d="M-1287.215,318.528l-6.469,6.507-6.469-6.507,6.469-6.507Z" fill="#1a1a1a"/><path d="M-1274.277,305.515l-6.469,6.507-6.469-6.507,6.469-6.507Z" fill="#1a1a1a"/><path d="M-1274.277,318.528l-6.469,6.507-6.469-6.507,6.469-6.507Z" fill="#1a1a1a"/><path d="M-1300.153,305.515l-6.469,6.507-6.469-6.507,6.469-6.507Z" fill="#1a1a1a"/><path d="M-1300.153,318.528l-6.469,6.507-6.469-6.507,6.469-6.507Z" fill="#1a1a1a"/><path d="M-1536.579,312.771h466.051c6.3,0,12.612.082,18.914,0,.275,0,.551,0,.826,0a.75.75,0,0,0,0-1.5h-466.051c-6.3,0-12.611-.081-18.914,0-.275,0-.551,0-.826,0a.75.75,0,0,0,0,1.5Z" fill="#1a1a1a"/><path d="M-1046.871,308.883l-3.12,3.139-3.12-3.139,3.12-3.138Z" fill="#1a1a1a"/><path d="M-1046.871,315.159l-3.12,3.139-3.12-3.139,3.12-3.138Z" fill="#1a1a1a"/><path d="M-1041.339,312.021l-2.43,2.444-2.429-2.444,2.429-2.444Z" fill="#1a1a1a"/><path d="M-1540.354,308.883l3.12,3.139,3.12-3.139-3.12-3.138Z" fill="#1a1a1a"/><path d="M-1540.354,315.159l3.12,3.139,3.12-3.139-3.12-3.138Z" fill="#1a1a1a"/><path d="M-1545.886,312.021l2.43,2.444,2.429-2.444-2.429-2.444Z" fill="#1a1a1a"/><path d="M-1345.62,308.588l3.454,3.434-3.454,3.433-3.454-3.433Z" fill="#1a1a1a"/><path d="M-1338.713,308.588l3.454,3.434-3.454,3.433-3.454-3.433Z" fill="#1a1a1a"/><path d="M-1386.09,309.208l2.83,2.813-2.83,2.813-2.83-2.813Z" fill="#1a1a1a"/><path d="M-1380.43,309.208l2.83,2.813-2.83,2.813-2.83-2.813Z" fill="#1a1a1a"/><path d="M-1427.184,309.208l2.83,2.813-2.83,2.813-2.83-2.813Z" fill="#1a1a1a"/><path d="M-1421.524,309.208l2.83,2.813-2.83,2.813-2.83-2.813Z" fill="#1a1a1a"/><path d="M-1468.278,309.208l2.83,2.813-2.83,2.813-2.83-2.813Z" fill="#1a1a1a"/><path d="M-1462.618,309.208l2.83,2.813-2.83,2.813-2.83-2.813Z" fill="#1a1a1a"/><path d="M-1509.372,309.208l2.83,2.813-2.83,2.813-2.83-2.813Z" fill="#1a1a1a"/><path d="M-1503.712,309.208l2.83,2.813-2.83,2.813-2.83-2.813Z" fill="#1a1a1a"/><path d="M-1085.384,308.588l3.454,3.434-3.454,3.433-3.454-3.433Z" fill="#1a1a1a"/><path d="M-1078.477,308.588l3.454,3.434-3.454,3.433-3.454-3.433Z" fill="#1a1a1a"/><path d="M-1125.854,309.208l2.83,2.813-2.83,2.813-2.83-2.813Z" fill="#1a1a1a"/><path d="M-1120.194,309.208l2.83,2.813-2.83,2.813-2.83-2.813Z" fill="#1a1a1a"/><path d="M-1166.948,309.208l2.83,2.813-2.83,2.813-2.83-2.813Z" fill="#1a1a1a"/><path d="M-1161.288,309.208l2.83,2.813-2.83,2.813-2.83-2.813Z" fill="#1a1a1a"/><path d="M-1208.042,309.208l2.83,2.813-2.83,2.813-2.83-2.813Z" fill="#1a1a1a"/><path d="M-1202.382,309.208l2.83,2.813-2.83,2.813-2.83-2.813Z" fill="#1a1a1a"/><path d="M-1249.136,309.208l2.83,2.813-2.83,2.813-2.83-2.813Z" fill="#1a1a1a"/><path d="M-1243.476,309.208l2.83,2.813-2.83,2.813-2.83-2.813Z" fill="#1a1a1a"/></g></svg>