<svg xmlns="http://www.w3.org/2000/svg" width="504.547" height="47.796" viewBox="0 0 504.547 47.796"><g transform="translate(2142.547 -482.255)"><path d="M-1646.856,498.259l2.01,2.446s-.427,3.865-8.441,4.99C-1653.287,505.7-1646.755,503.836-1646.856,498.259Z" fill="#1a1a1a"/><path d="M-1646.856,514.26l2.01-2.446s-.427-3.864-8.441-4.989C-1653.287,506.825-1646.755,508.683-1646.856,514.26Z" fill="#1a1a1a"/><path d="M-1638,506.259l-3.381-1.616-8.036,1.616,8.036,1.616Z" fill="#1a1a1a"/><path d="M-1901.981,529.329l-3.766-.369s-2.905-3.627,2.917-11.35C-1902.83,517.61-1906.779,524.7-1901.981,529.329Z" fill="#1a1a1a"/><path d="M-1915.5,515.806l.369,3.766s3.627,2.9,11.35-2.917C-1903.785,516.655-1910.876,520.6-1915.5,515.806Z" fill="#1a1a1a"/><path d="M-1916.226,530.052l4.223-1.492,5.426-8.158-8.158,5.426Z" fill="#1a1a1a"/><path d="M-1908.242,522.795l-.707-.707a55.386,55.386,0,0,1,39.42-16.328h225.041v1h-225.041A54.392,54.392,0,0,0-1908.242,522.795Z" fill="#1a1a1a"/><path d="M-2133.692,514.048l-2.01-2.446s.427-3.865,8.441-4.99C-2127.261,506.612-2133.793,508.471-2133.692,514.048Z" fill="#1a1a1a"/><path d="M-2133.692,498.047l-2.01,2.446s.427,3.864,8.441,4.989C-2127.261,505.482-2133.793,503.623-2133.692,498.047Z" fill="#1a1a1a"/><path d="M-2142.547,506.047l3.381,1.616,8.036-1.616-8.036-1.616Z" fill="#1a1a1a"/><path d="M-1878.567,482.978l3.766.369s2.905,3.627-2.917,11.35C-1877.718,494.7-1873.769,487.606-1878.567,482.978Z" fill="#1a1a1a"/><path d="M-1865.044,496.5l-.369-3.766s-3.627-2.9-11.35,2.917C-1876.763,495.652-1869.672,491.7-1865.044,496.5Z" fill="#1a1a1a"/><path d="M-1864.322,482.255l-4.223,1.492-5.426,8.157,8.158-5.426Z" fill="#1a1a1a"/><path d="M-1911.019,506.547H-2136.06v-1h225.041a54.394,54.394,0,0,0,38.713-16.035l.707.707A55.388,55.388,0,0,1-1911.019,506.547Z" fill="#1a1a1a"/></g></svg>