<svg xmlns="http://www.w3.org/2000/svg" width="630.335" height="44.033" viewBox="0 0 630.335 44.033"><g transform="translate(1907.103 -72.219)"><path d="M-1318.835,95.79s17.974,5.116,17.7,20.462l5.53-6.731S-1296.782,98.886-1318.835,95.79Z" fill="#1a1a1a"/><path d="M-1295.607,78.95l-5.53-6.731c.276,15.346-17.7,20.462-17.7,20.462C-1296.782,89.585-1295.607,78.95-1295.607,78.95Z" fill="#1a1a1a"/><path d="M-1286.073,89.788l-1.962.395a170.345,170.345,0,0,1-29.622,3.3l-32.716.756,32.715.758a170.189,170.189,0,0,1,29.617,3.294l1.968.4,9.305-4.447Z" fill="#1a1a1a"/><path d="M-1865.036,95.79s-17.974,5.116-17.7,20.462l-5.531-6.731S-1887.089,98.886-1865.036,95.79Z" fill="#1a1a1a"/><path d="M-1888.264,78.95l5.531-6.731c-.277,15.346,17.7,20.462,17.7,20.462C-1887.089,89.585-1888.264,78.95-1888.264,78.95Z" fill="#1a1a1a"/><path d="M-1897.8,89.788l1.962.395a170.347,170.347,0,0,0,29.623,3.3l32.715.756-32.714.758a170.179,170.179,0,0,0-29.617,3.294l-1.969.4-9.305-4.447Z" fill="#1a1a1a"/><path d="M-1813.937,105.829l.854-.194a3.814,3.814,0,0,0,1.651-.952,2.752,2.752,0,0,0,.563-1.922V84.972a.846.846,0,0,0-.194-.641.851.851,0,0,0-.583-.174h-2.02l-.427-1.321a29.709,29.709,0,0,1,4.35-1.068,29.041,29.041,0,0,1,5.166-.486q7.341,0,10.564,3.651a13.849,13.849,0,0,1,3.224,9.516,15.138,15.138,0,0,1-1.321,6.428,10.333,10.333,0,0,1-3.942,4.505,11.83,11.83,0,0,1-6.428,1.651h-11.031Zm19.341-11.458a14.48,14.48,0,0,0-1.029-5.515,9.365,9.365,0,0,0-3.126-4.078,8.446,8.446,0,0,0-5.166-1.554q-3.458,0-3.457,1.671v15.963q0,2.524,1.049,3.456a3.992,3.992,0,0,0,2.757.932Q-1794.6,105.246-1794.6,94.371Z" fill="#1a1a1a"/><path d="M-1763.524,107.538a1.6,1.6,0,0,0-.6-.388,2.685,2.685,0,0,0-.874-.117h-14.837l-.427-1.126.777-.194a3.175,3.175,0,0,0,1.708-.991,3.83,3.83,0,0,0,.428-2.117V88.818a13.31,13.31,0,0,0-.349-3.38,7.473,7.473,0,0,0-1.205-2.447l-.466-.66.466-.544h10.759q3.068,0,3.961-.737l.7-.466.505.466V87.3l-1.2.428-.194-.855a4.853,4.853,0,0,0-1.2-2.524,4.038,4.038,0,0,0-2.563-.621h-3.457a2.292,2.292,0,0,0-1.806.543,3.665,3.665,0,0,0-.447,2.175v6.758h4.467a3.052,3.052,0,0,0,1.515-.349,4.382,4.382,0,0,0,1.281-1.243l.272-.389.7.389v6.02l-1.165.427-.233-.893a2.524,2.524,0,0,0-1.165-1.593,6.687,6.687,0,0,0-2.719-.388h-2.952v7.185a6.112,6.112,0,0,0,.175,1.69,1.124,1.124,0,0,0,.641.757,3.96,3.96,0,0,0,1.437.194h3.767a6.088,6.088,0,0,0,1.981-.252,2.122,2.122,0,0,0,1.107-.913,7.6,7.6,0,0,0,.757-1.942l.233-.776,1.166.349v6.059l-.661.349Z" fill="#1a1a1a"/><path d="M-1746.358,105.809a10.544,10.544,0,0,1-3.787-4.7,16.888,16.888,0,0,1-1.262-6.661,17.093,17.093,0,0,1,1.262-6.738,10.5,10.5,0,0,1,3.807-4.7,10.9,10.9,0,0,1,6.272-1.729,11.717,11.717,0,0,1,4.078.661,6.669,6.669,0,0,1,2.8,1.825,3.973,3.973,0,0,1,1.01,2.68,4.177,4.177,0,0,1-1.049,2.933,3.427,3.427,0,0,1-2.641,1.145c-.544,0-.816-.141-.816-.427a2.336,2.336,0,0,1,.311-.563,5.706,5.706,0,0,0,.544-1.127,4.374,4.374,0,0,0,.233-1.495,3.315,3.315,0,0,0-1.224-2.66,4.871,4.871,0,0,0-3.243-1.03,5.791,5.791,0,0,0-4.253,1.632,9.42,9.42,0,0,0-2.388,4.175,19.325,19.325,0,0,0-.738,5.418,14.928,14.928,0,0,0,.932,5.36,9.026,9.026,0,0,0,2.66,3.865,6.1,6.1,0,0,0,3.981,1.417,8.8,8.8,0,0,0,3.943-.835,6.921,6.921,0,0,0,2.7-2.311.313.313,0,0,1,.233-.155,1.169,1.169,0,0,1,.738.33.919.919,0,0,1,.388.68.628.628,0,0,1-.078.272,9.581,9.581,0,0,1-8.233,4.466A10.665,10.665,0,0,1-1746.358,105.809Z" fill="#1a1a1a"/><path d="M-1716.724,105.809a10.634,10.634,0,0,1-3.9-4.679,16.393,16.393,0,0,1-1.3-6.681,16.669,16.669,0,0,1,1.3-6.719,10.594,10.594,0,0,1,3.9-4.719,11.331,11.331,0,0,1,6.409-1.729,11.431,11.431,0,0,1,6.428,1.729,10.68,10.68,0,0,1,3.941,4.719,16.455,16.455,0,0,1,1.321,6.719,16.183,16.183,0,0,1-1.321,6.681,10.722,10.722,0,0,1-3.941,4.679,11.423,11.423,0,0,1-6.428,1.729A11.323,11.323,0,0,1-1716.724,105.809Zm10.545-1.786a9.27,9.27,0,0,0,2.777-3.942,15.049,15.049,0,0,0,.971-5.515,18.708,18.708,0,0,0-.738-5.147,10.3,10.3,0,0,0-2.447-4.369,5.9,5.9,0,0,0-4.466-1.787,6.485,6.485,0,0,0-4.311,1.535,9.532,9.532,0,0,0-2.778,4.155,16.927,16.927,0,0,0-.951,5.807,13.684,13.684,0,0,0,2,7.69,6.389,6.389,0,0,0,5.651,3.029A6.626,6.626,0,0,0-1706.179,104.023Z" fill="#1a1a1a"/><path d="M-1673.749,106.606a10.05,10.05,0,0,1-2.156-3.224l-2.679-5.632a2.452,2.452,0,0,0-.739-1.01,6.5,6.5,0,0,0-1.63-.7,1.025,1.025,0,0,1-.661-.893c0-.517.194-.777.582-.777a2.251,2.251,0,0,1,.544.117,4.145,4.145,0,0,0,1.127.116,5.578,5.578,0,0,0,4.1-1.475,5.366,5.366,0,0,0,1.5-4,5.846,5.846,0,0,0-1.593-4.292,5.842,5.842,0,0,0-4.35-1.612,3.9,3.9,0,0,0-2.019.428,1.369,1.369,0,0,0-.7,1.243V99.964a13.214,13.214,0,0,0,.349,3.4,7.145,7.145,0,0,0,1.282,2.466l.427.621-.427.583h-7.729l-.427-1.2.815-.194a3.073,3.073,0,0,0,1.787-1.01,4.062,4.062,0,0,0,.466-2.253v-17.4a.917.917,0,0,0-.175-.621.779.779,0,0,0-.6-.194h-2.019l-.428-1.321a22.1,22.1,0,0,1,4.175-1.107,26.277,26.277,0,0,1,4.564-.447q4.854,0,7.554,2.02a6.673,6.673,0,0,1,2.7,5.671,7.166,7.166,0,0,1-1.515,4.641,7.487,7.487,0,0,1-4.2,2.544,4.721,4.721,0,0,1,1.476,1.709l3.262,6.68a1.48,1.48,0,0,0,1.36,1.049,2.171,2.171,0,0,0,1.321-.5l.621,1.049a4.935,4.935,0,0,1-3.263,1.4A3.959,3.959,0,0,1-1673.749,106.606Z" fill="#1a1a1a"/><path d="M-1659.98,105.829l.815-.194a5.063,5.063,0,0,0,2.059-1.029,5.734,5.734,0,0,0,1.165-2.234l5.515-15.924a7.03,7.03,0,0,0,.389-1.709,1.393,1.393,0,0,0-.37-1.029,2.237,2.237,0,0,0-1.184-.524l-.816-.195.428-1.2h6.758l7.107,20.352a8.823,8.823,0,0,0,1.224,2.486,10.981,10.981,0,0,0,1.961,1.825l-.466.583h-7.962l-.388-1.2.854-.194a2.468,2.468,0,0,0,1.185-.563,1.4,1.4,0,0,0,.368-1.03,2.961,2.961,0,0,0-.174-.912l-.253-.758-1.67-4.932h-8.117l-.855,2.563a13.141,13.141,0,0,0-.776,3.69,4.145,4.145,0,0,0,.5,2.136l.272.621-.66.583h-6.447Zm9.2-10.6h6.642l-3.379-9.865Z" fill="#1a1a1a"/><path d="M-1622.539,106.45l.427-.621a7.112,7.112,0,0,0,1.243-2.427,13.454,13.454,0,0,0,.349-3.438V86.448a6.492,6.492,0,0,0-.233-2.194.984.984,0,0,0-1.009-.524h-1.593a5.509,5.509,0,0,0-1.961.271,2.235,2.235,0,0,0-1.088.932,7.672,7.672,0,0,0-.757,1.942l-.194.855-1.2-.428V81.05l.582-.466.622.466q.931.738,3.961.737h9.205q3.067,0,3.962-.737l.621-.466.583.466V87.3l-1.2.428-.195-.855a5.046,5.046,0,0,0-1.242-2.524,4.044,4.044,0,0,0-2.564-.621h-1.631a.983.983,0,0,0-.99.543,6.043,6.043,0,0,0-.253,2.175v15.924a3.975,3.975,0,0,0,.447,2.234,3.592,3.592,0,0,0,1.845,1.029l.854.194-.427,1.2h-7.729Z" fill="#1a1a1a"/><path d="M-1599.158,105.829l.854-.194a3.426,3.426,0,0,0,1.786-1.029,4.126,4.126,0,0,0,.427-2.234V86.448a4.2,4.2,0,0,0-.446-2.272,3.032,3.032,0,0,0-1.767-.99l-.854-.195.426-1.2H-1591l.467.544-.467.66a6.687,6.687,0,0,0-1.242,2.428,13.487,13.487,0,0,0-.35,3.4v13.787a3.832,3.832,0,0,0,.427,2.117,3.179,3.179,0,0,0,1.709.991l.7.194-.311,1.126h-8.661Z" fill="#1a1a1a"/><path d="M-1577.06,86.642a9.216,9.216,0,0,0-1.243-2.485,10.388,10.388,0,0,0-1.942-1.826l.466-.544h7.962l.35,1.2-.738.195a2.654,2.654,0,0,0-1.243.563,1.3,1.3,0,0,0-.388.99,3.175,3.175,0,0,0,.194.971q.194.583.233.738l5.67,17.633,4.972-15.3a11.146,11.146,0,0,0,.7-3.224q-.078-2.019-1.632-2.369l-.815-.195.427-1.2h6.68l.467.544-.544.66a11.478,11.478,0,0,0-1.942,3.5l-6.8,20.546h-3.961Z" fill="#1a1a1a"/><path d="M-1530.336,107.538a1.6,1.6,0,0,0-.6-.388,2.685,2.685,0,0,0-.874-.117h-14.837l-.427-1.126.777-.194a3.176,3.176,0,0,0,1.708-.991,3.831,3.831,0,0,0,.428-2.117V88.818a13.31,13.31,0,0,0-.349-3.38,7.471,7.471,0,0,0-1.205-2.447l-.466-.66.466-.544h10.759q3.068,0,3.961-.737l.7-.466.505.466V87.3l-1.2.428-.194-.855a4.853,4.853,0,0,0-1.2-2.524,4.04,4.04,0,0,0-2.563-.621h-3.457a2.292,2.292,0,0,0-1.806.543,3.664,3.664,0,0,0-.447,2.175v6.758h4.467a3.052,3.052,0,0,0,1.515-.349,4.393,4.393,0,0,0,1.281-1.243l.272-.389.7.389v6.02l-1.165.427-.233-.893A2.524,2.524,0,0,0-1535,95.575a6.688,6.688,0,0,0-2.719-.388h-2.952v7.185a6.112,6.112,0,0,0,.175,1.69,1.124,1.124,0,0,0,.641.757,3.96,3.96,0,0,0,1.437.194h3.767a6.088,6.088,0,0,0,1.981-.252,2.122,2.122,0,0,0,1.107-.913,7.6,7.6,0,0,0,.757-1.942l.233-.776,1.166.349v6.059l-.661.349Z" fill="#1a1a1a"/><path d="M-1482.177,107.538a1.047,1.047,0,0,0-.544-.388,3.175,3.175,0,0,0-.97-.117h-14.021l-.427-1.126.776-.194a3.179,3.179,0,0,0,1.709-.991,3.832,3.832,0,0,0,.427-2.117V86.448a4.2,4.2,0,0,0-.446-2.272,3.032,3.032,0,0,0-1.768-.99l-.854-.195.427-1.2h7.729l.466.544-.466.66a6.672,6.672,0,0,0-1.243,2.428,13.493,13.493,0,0,0-.349,3.4v13.554a6.074,6.074,0,0,0,.175,1.69,1.122,1.122,0,0,0,.641.757,3.953,3.953,0,0,0,1.437.194h3.068a4.132,4.132,0,0,0,2.583-.621,4.7,4.7,0,0,0,1.223-2.486l.194-.776,1.243.349v6.059l-.738.349Z" fill="#1a1a1a"/><path d="M-1471.224,105.829l.854-.194a3.426,3.426,0,0,0,1.786-1.029,4.125,4.125,0,0,0,.427-2.234V86.448a4.188,4.188,0,0,0-.446-2.272,3.032,3.032,0,0,0-1.767-.99l-.854-.195.426-1.2h7.729l.467.544-.467.66a6.687,6.687,0,0,0-1.242,2.428,13.493,13.493,0,0,0-.35,3.4v13.787a3.832,3.832,0,0,0,.427,2.117,3.179,3.179,0,0,0,1.709.991l.7.194-.312,1.126h-8.661Z" fill="#1a1a1a"/><path d="M-1451.262,105.829l.816-.194a3.434,3.434,0,0,0,1.787-1.029,4.135,4.135,0,0,0,.427-2.234V86.448a4.2,4.2,0,0,0-.447-2.272,3.033,3.033,0,0,0-1.767-.99l-.816-.195.428-1.2h5.67l13.439,19.925V86.448a4.057,4.057,0,0,0-.467-2.253,3.077,3.077,0,0,0-1.786-1.009l-.855-.195.505-1.2h6.6l.505.544-.505.66a7,7,0,0,0-1.2,2.428,13.486,13.486,0,0,0-.35,3.4v15.108a3.539,3.539,0,0,0,.505,1.9l.428.621-.428.583h-3.534l-13.4-19.924V99.964a14.346,14.346,0,0,0,.331,3.457,6.421,6.421,0,0,0,1.223,2.408l.466.621-.466.583h-6.68Z" fill="#1a1a1a"/><path d="M-1399.023,107.538a1.6,1.6,0,0,0-.6-.388,2.685,2.685,0,0,0-.874-.117h-14.837l-.427-1.126.777-.194a3.176,3.176,0,0,0,1.708-.991,3.831,3.831,0,0,0,.428-2.117V88.818a13.259,13.259,0,0,0-.35-3.38,7.448,7.448,0,0,0-1.2-2.447l-.466-.66.466-.544h10.759q3.068,0,3.961-.737l.7-.466.505.466V87.3l-1.2.428-.194-.855a4.852,4.852,0,0,0-1.2-2.524,4.04,4.04,0,0,0-2.563-.621h-3.457a2.292,2.292,0,0,0-1.806.543,3.664,3.664,0,0,0-.447,2.175v6.758h4.467a3.052,3.052,0,0,0,1.515-.349,4.393,4.393,0,0,0,1.281-1.243l.272-.389.7.389v6.02l-1.165.427-.233-.893a2.524,2.524,0,0,0-1.165-1.593,6.688,6.688,0,0,0-2.719-.388h-2.952v7.185a6.112,6.112,0,0,0,.175,1.69,1.124,1.124,0,0,0,.641.757,3.959,3.959,0,0,0,1.437.194h3.767a6.087,6.087,0,0,0,1.981-.252,2.122,2.122,0,0,0,1.107-.913,7.6,7.6,0,0,0,.757-1.942l.233-.776,1.166.349v6.059l-.661.349Z" fill="#1a1a1a"/><path d="M-1382.381,106.82a7.132,7.132,0,0,1-3.107-2.02,4.409,4.409,0,0,1-1.107-2.933,4.032,4.032,0,0,1,1.145-2.951,3.889,3.889,0,0,1,2.894-1.166,1.06,1.06,0,0,1,.544.117.329.329,0,0,1,.194.272,2.013,2.013,0,0,1-.33.621,5.745,5.745,0,0,0-.563,1.126,4.2,4.2,0,0,0-.233,1.477,3.758,3.758,0,0,0,1.4,3.029,5.572,5.572,0,0,0,3.69,1.165,4.832,4.832,0,0,0,3.262-1.068,3.661,3.661,0,0,0,1.243-2.932,4.186,4.186,0,0,0-.777-2.564,6.477,6.477,0,0,0-1.923-1.728,29.741,29.741,0,0,0-3.087-1.534,29.212,29.212,0,0,1-3.593-1.826,7.709,7.709,0,0,1-2.33-2.252,6.144,6.144,0,0,1-.951-3.535,6.809,6.809,0,0,1,.874-3.36,6.414,6.414,0,0,1,2.621-2.524,8.745,8.745,0,0,1,4.234-.952,11.6,11.6,0,0,1,4.039.661,6.665,6.665,0,0,1,2.8,1.825,3.974,3.974,0,0,1,1.01,2.68,4.132,4.132,0,0,1-1.068,2.933,3.532,3.532,0,0,1-2.7,1.145c-.467,0-.7-.141-.7-.427a2.452,2.452,0,0,1,.292-.563,6.462,6.462,0,0,0,.524-1.127,4.35,4.35,0,0,0,.233-1.495,3.31,3.31,0,0,0-1.243-2.641,4.769,4.769,0,0,0-3.184-1.049,4.238,4.238,0,0,0-3.224,1.185,4.04,4.04,0,0,0-1.127,2.893,3.516,3.516,0,0,0,.738,2.253,6.511,6.511,0,0,0,1.826,1.573,30.041,30.041,0,0,0,3.029,1.5,34.312,34.312,0,0,1,3.787,1.942,8.021,8.021,0,0,1,2.466,2.388,6.481,6.481,0,0,1,1.01,3.709,6.345,6.345,0,0,1-2.116,5.011,8.733,8.733,0,0,1-5.962,1.864A13.347,13.347,0,0,1-1382.381,106.82Z" fill="#1a1a1a"/></g></svg>