<svg xmlns="http://www.w3.org/2000/svg" width="504.56" height="31.415" viewBox="0 0 504.56 31.415"><g transform="translate(2142.547 -587.512)"><path d="M-2142.424,590.854a12.062,12.062,0,0,0,3.944,2.626c4.944,2.441,10.49,3.675,15.893,4.581,11.306,1.9,22.872,2.193,34.312,1.986,19.811-.36,39.581-2.44,59.194-5.158,24.444-3.387,48.854-6.339,73.571-6.377a.5.5,0,0,0,0-1,459.462,459.462,0,0,0-61.728,4.69c-21.172,2.9-42.307,5.772-63.684,6.628-12.549.5-25.242.493-37.712-1.179-6.12-.82-12.421-1.977-18.114-4.465-1.662-.726-3.787-1.62-4.969-3.039-.412-.495-1.116.215-.707.707Z" fill="#1a1a1a"/><path d="M-1825.008,588.512a463.456,463.456,0,0,1,64.353,5.057c20.792,2.952,41.632,5.573,62.638,6.321,12.325.439,24.775.353,37.009-1.359,6.031-.843,12.193-2.035,17.8-4.511,1.7-.751,3.87-1.685,5.1-3.166.408-.492-.3-1.2-.707-.707a11.592,11.592,0,0,1-3.852,2.525c-4.973,2.427-10.577,3.616-16,4.5-11.553,1.886-23.379,2.109-35.057,1.842-20.353-.465-40.661-2.683-60.8-5.564-23.375-3.343-46.84-5.9-70.48-5.94a.5.5,0,0,0,0,1Z" fill="#1a1a1a"/><path d="M-1825.008,588.012c-49.727.01-65.26,30.418-65.26,30.418s-15.532-30.408-65.242-30.418c49.728.01,65.242,11.592,65.242,11.592S-1874.753,588.022-1825.008,588.012Z" fill="#1a1a1a"/><path d="M-1825.008,587.512c-23.263.086-48.581,7.307-63.1,26.717a28.37,28.37,0,0,0-2.589,3.949h.863a41.965,41.965,0,0,0-8.465-10.556,70.483,70.483,0,0,0-29.032-16.319,101.253,101.253,0,0,0-28.177-3.791v1c14.554.025,29.248.858,43.516,3.894,6.5,1.383,13.146,3.152,19.079,6.223a17.559,17.559,0,0,1,2.4,1.406.483.483,0,0,0,.505,0,32.319,32.319,0,0,1,8.053-3.854c9.331-3.447,19.306-5.169,29.158-6.258a257.027,257.027,0,0,1,27.8-1.411.5.5,0,0,0,0-1c-14.647.025-29.436.875-43.795,3.93-6.536,1.391-13.19,3.188-19.17,6.246-.823.421-1.654,1.123-2.506,1.454.332-.129.608.188.172-.17a8.255,8.255,0,0,0-1.24-.743c-5.115-2.862-10.927-4.582-16.586-5.966-15.441-3.778-31.536-4.724-47.377-4.751a.5.5,0,0,0,0,1c22.949.085,48.2,7.193,62.423,26.492a27.5,27.5,0,0,1,2.388,3.679.5.5,0,0,0,.863,0,40.7,40.7,0,0,1,8.053-10.1,69.16,69.16,0,0,1,28.55-16.221,100.086,100.086,0,0,1,28.225-3.845A.5.5,0,0,0-1825.008,587.512Z" fill="#1a1a1a"/></g></svg>