<svg xmlns="http://www.w3.org/2000/svg" width="502.346" height="23.825" viewBox="0 0 502.346 23.825"><g transform="translate(2142.547 -300.109)"><rect width="490.589" height="1.8" transform="translate(-2138.794 311.122)" fill="#1a1a1a"/><path d="M-1890.084,305.336l-3.415-5.227-3.415,5.227a2.835,2.835,0,0,0,.331,3.513l3.084,3.172,3.084-3.172A2.835,2.835,0,0,0-1890.084,305.336Z" fill="#1a1a1a"/><path d="M-1896.914,318.707l3.415,5.227,3.415-5.227a2.837,2.837,0,0,0-.331-3.514l-3.084-3.172-3.084,3.172A2.837,2.837,0,0,0-1896.914,318.707Z" fill="#1a1a1a"/><path d="M-1905.814,306.369l-4.873,5.014-2.532-2.614a1.183,1.183,0,0,0-1.9.179,1.926,1.926,0,0,0,1.52,3.073,1.926,1.926,0,0,0-1.52,3.074h0a1.183,1.183,0,0,0,1.9.178l2.532-2.613,4.873,5.013a3.468,3.468,0,0,0,4.641.328l7.674-5.98-7.674-5.979A3.468,3.468,0,0,0-1905.814,306.369Z" fill="#1a1a1a"/><path d="M-1873.383,312.021a1.915,1.915,0,0,0,1.343-3.252,1.184,1.184,0,0,0-1.9.179l-2.035,2.774-5.2-5.353a3.467,3.467,0,0,0-4.64-.327l-7.675,5.979,7.675,5.98a3.467,3.467,0,0,0,4.64-.328l5.2-5.353,2.035,2.775a1.184,1.184,0,0,0,1.9.178A1.915,1.915,0,0,0-1873.383,312.021Z" fill="#1a1a1a"/><path d="M-1828.968,308.741l-1.676-2.565-1.676,2.565a1.393,1.393,0,0,0,.163,1.724l1.513,1.556,1.513-1.556A1.391,1.391,0,0,0-1828.968,308.741Z" fill="#1a1a1a"/><path d="M-1832.32,315.3l1.676,2.565,1.676-2.565a1.391,1.391,0,0,0-.163-1.724l-1.513-1.557-1.513,1.557A1.393,1.393,0,0,0-1832.32,315.3Z" fill="#1a1a1a"/><path d="M-1824.6,309.248a1.7,1.7,0,0,0-2.277-.161l-3.766,2.934,3.766,2.934a1.7,1.7,0,0,0,2.277-.16l2.7-2.774Z" fill="#1a1a1a"/><path d="M-1836.686,309.248l-2.7,2.773,2.7,2.774a1.7,1.7,0,0,0,2.277.16l3.765-2.934-3.765-2.934A1.7,1.7,0,0,0-1836.686,309.248Z" fill="#1a1a1a"/><path d="M-1954.678,308.741l-1.676-2.565-1.676,2.565a1.391,1.391,0,0,0,.163,1.724l1.513,1.556,1.513-1.556A1.393,1.393,0,0,0-1954.678,308.741Z" fill="#1a1a1a"/><path d="M-1958.03,315.3l1.676,2.565,1.676-2.565a1.393,1.393,0,0,0-.163-1.724l-1.513-1.557-1.513,1.557A1.391,1.391,0,0,0-1958.03,315.3Z" fill="#1a1a1a"/><path d="M-1952.589,309.087l-3.765,2.934,3.765,2.934a1.7,1.7,0,0,0,2.277-.16l2.7-2.774-2.7-2.773A1.7,1.7,0,0,0-1952.589,309.087Z" fill="#1a1a1a"/><path d="M-1962.4,309.248l-2.7,2.773,2.7,2.774a1.7,1.7,0,0,0,2.277.16l3.766-2.934-3.766-2.934A1.7,1.7,0,0,0-1962.4,309.248Z" fill="#1a1a1a"/><path d="M-1650.271,312.037l4.828-6.581a2.534,2.534,0,0,1,4.078-.381h0a4.1,4.1,0,0,1-2.875,6.962Z" fill="#1a1a1a"/><path d="M-1650.271,312.037l4.828,6.58a2.534,2.534,0,0,0,4.078.381h0a4.1,4.1,0,0,0-2.875-6.961Z" fill="#1a1a1a"/><path d="M-2132.477,312.037l-4.828-6.581a2.533,2.533,0,0,0-4.077-.381h0a4.1,4.1,0,0,0,2.874,6.962Z" fill="#1a1a1a"/><path d="M-2132.477,312.037l-4.828,6.58a2.533,2.533,0,0,1-4.077.381h0a4.1,4.1,0,0,1,2.874-6.961Z" fill="#1a1a1a"/></g></svg>