<svg xmlns="http://www.w3.org/2000/svg" width="504.569" height="56.863" viewBox="0 0 504.569 56.863"><g transform="translate(1545.897 -477.722)"><path d="M-1292.936,489.434a.9.9,0,0,0-1.27-.084,78,78,0,0,1-14.714,9.278c-20.035,10.186-86.179,20.488-146.663,4.762a213.736,213.736,0,0,0-26.152-5.209c-21.893-2.811-38.7-.422-49.945,7.1l-.006,0a31.764,31.764,0,0,0-14.162,22.28,6.349,6.349,0,0,0,.951,4.193,6,6,0,0,0,5.081,2.829,5.993,5.993,0,0,0,5.079-2.829,6.308,6.308,0,0,0,.955-3.826c-.3-3.93-.943-17.03,3.182-21.2,10.875-7.233,27.237-9.508,48.636-6.762a212.076,212.076,0,0,1,25.929,5.166c22.559,5.866,45.914,8.127,67.416,8.127,36.564,0,67.761-6.542,80.514-13.026,9.891-5.016,14.878-9.348,15.086-9.529A.9.9,0,0,0-1292.936,489.434Z" fill="#1a1a1a"/><path d="M-1292.936,489.434a.9.9,0,0,0-1.269-.084,60.682,60.682,0,0,1-11.406,7.19c-15.562,7.911-66.949,15.911-113.95,3.688a166.876,166.876,0,0,0-20.369-4.057c-17.081-2.193-30.2-.323-38.99,5.556l-.005,0a24.909,24.909,0,0,0-11.1,17.472,5.141,5.141,0,0,0,.77,3.4,4.862,4.862,0,0,0,4.12,2.293,4.862,4.862,0,0,0,4.121-2.293,5.109,5.109,0,0,0,.773-3.1c-.23-3.032-.729-13.127,2.407-16.324,8.418-5.589,21.093-7.345,37.678-5.216a164.757,164.757,0,0,1,20.146,4.014,210.777,210.777,0,0,0,52.482,6.326c28.485,0,52.8-5.1,62.736-10.152a61.054,61.054,0,0,0,11.777-7.441A.9.9,0,0,0-1292.936,489.434Z" fill="#1a1a1a"/><path d="M-1289.942,480.163a4.113,4.113,0,0,0-3.592-2.437.791.791,0,0,0-.154,0,4.115,4.115,0,0,0-3.6,2.439c-1.143,2.574-.037,6.464,2.956,10.406a.9.9,0,0,0,.717.356.9.9,0,0,0,.717-.356C-1289.9,486.628-1288.8,482.737-1289.942,480.163Z" fill="#1a1a1a"/><path d="M-1041.377,527.563a31.759,31.759,0,0,0-14.162-22.28l-.006,0c-11.249-7.523-28.052-9.914-49.945-7.1a213.785,213.785,0,0,0-26.153,5.209c-60.48,15.728-126.626,5.425-146.663-4.763a78,78,0,0,1-14.713-9.277.9.9,0,0,0-1.27.084.9.9,0,0,0,.083,1.27c.208.181,5.2,4.513,15.085,9.528,12.755,6.485,43.947,13.028,80.516,13.027,21.5,0,44.859-2.262,67.415-8.127a212.052,212.052,0,0,1,25.93-5.166c21.4-2.747,37.76-.471,48.635,6.762,4.127,4.173,3.48,17.272,3.182,21.2a6.312,6.312,0,0,0,.955,3.826,5.994,5.994,0,0,0,5.079,2.829h0a6.019,6.019,0,0,0,5.106-2.871A6.31,6.31,0,0,0-1041.377,527.563Z" fill="#1a1a1a"/><path d="M-1097.2,519.2a24.909,24.909,0,0,0-11.1-17.472l-.005,0c-8.791-5.88-21.909-7.747-38.989-5.556a166.8,166.8,0,0,0-20.371,4.057c-47,12.223-98.387,4.224-113.95-3.689a60.662,60.662,0,0,1-11.405-7.189.9.9,0,0,0-1.269.084.9.9,0,0,0,.083,1.27,61.086,61.086,0,0,0,11.776,7.44c9.941,5.054,34.245,10.154,62.737,10.153a210.809,210.809,0,0,0,52.481-6.326,164.7,164.7,0,0,1,20.147-4.014c16.585-2.13,29.259-.373,37.678,5.216,3.137,3.2,2.637,13.292,2.407,16.324a5.118,5.118,0,0,0,.772,3.1,4.866,4.866,0,0,0,4.122,2.293,4.88,4.88,0,0,0,4.141-2.326A5.114,5.114,0,0,0-1097.2,519.2Z" fill="#1a1a1a"/></g></svg>