<svg xmlns="http://www.w3.org/2000/svg" width="504.578" height="44.395" viewBox="0 0 504.578 44.395"><g transform="translate(1545.901 -192.763)"><path d="M-1536.746,234.447c-2.921,1.915-7.013.545-7.3-3.179a4.53,4.53,0,0,1,4.48-4.865c.183-.011.367,0,.55,0,1.208-.031,2.421,0,3.629,0h215.241c5.648,0,11.111-.224,16.5-2.346a35.283,35.283,0,0,0,10.686-6.684c.864-.776-.413-2.046-1.272-1.273a32.921,32.921,0,0,1-21.909,8.5c-.925.008-1.85,0-2.775,0H-1536.5c-.972,0-1.952-.034-2.924,0-4.908.17-8.3,5.45-5.414,9.814a6.439,6.439,0,0,0,9,1.584c.965-.632.065-2.191-.908-1.554Z" fill="#1a1a1a"/><path d="M-1285.6,205.439v.01a32.957,32.957,0,0,1-8,11.287,33,33,0,0,1-8-11.3l8-12.676Z" fill="#1a1a1a"/><path d="M-1294.233,217.373c7.045,6.337,15.656,9.03,24.987,9.03h195.828c8.545,0,17.257-.5,25.792,0a4.593,4.593,0,0,1,4.52,4.3c.192,4-4.26,5.747-7.342,3.744-.974-.633-1.877.925-.908,1.554a6.442,6.442,0,0,0,9-1.588,6.362,6.362,0,0,0-1.53-8.572,7.824,7.824,0,0,0-4.953-1.238H-1265.7c-4.727,0-9.351.129-13.985-1.15a32.943,32.943,0,0,1-13.275-7.353c-.859-.773-2.136.5-1.272,1.273Z" fill="#1a1a1a"/></g></svg>