<svg xmlns="http://www.w3.org/2000/svg" width="504.547" height="25.416" viewBox="0 0 504.547 25.416"><g transform="translate(1545.886 -396.379)"><path d="M-1289.374,409.087a4.239,4.239,0,0,1-4.238,4.239,4.239,4.239,0,0,1-4.239-4.239,4.238,4.238,0,0,1,4.239-4.238A4.238,4.238,0,0,1-1289.374,409.087Z" fill="#1a1a1a"/><path d="M-1059.811,409.087a12.71,12.71,0,0,0,12.708-12.708,12.68,12.68,0,0,0,4.313,9.544,4.177,4.177,0,0,1,0,6.33,12.676,12.676,0,0,0-4.313,9.542A12.711,12.711,0,0,0-1059.811,409.087Z" fill="#1a1a1a"/><path d="M-1065.588,409.087a4.238,4.238,0,0,0,4.238,4.239,4.239,4.239,0,0,0,4.239-4.239,4.238,4.238,0,0,0-4.239-4.238A4.237,4.237,0,0,0-1065.588,409.087Z" fill="#1a1a1a"/><rect width="234.487" height="1.8" transform="translate(-1296.301 408.188)" fill="#1a1a1a"/><rect width="234.487" height="1.8" transform="translate(-1521.637 408.188)" fill="#1a1a1a"/><path d="M-1540.122,421.8a12.676,12.676,0,0,0-4.313-9.542,4.177,4.177,0,0,1,0-6.33,12.68,12.68,0,0,0,4.313-9.544,12.71,12.71,0,0,0,12.708,12.708A12.711,12.711,0,0,0-1540.122,421.8Z" fill="#1a1a1a"/><path d="M-1521.637,409.087a4.238,4.238,0,0,1-4.238,4.239,4.239,4.239,0,0,1-4.239-4.239,4.238,4.238,0,0,1,4.239-4.238A4.238,4.238,0,0,1-1521.637,409.087Z" fill="#1a1a1a"/></g></svg>