<svg xmlns="http://www.w3.org/2000/svg" width="504.589" height="21.382" viewBox="0 0 504.589 21.382"><g transform="translate(2142.547 -689.59)"><path d="M-1894.964,710.972q-.2,0-.408-.015c-.726.013-7.21-.1-11.644-8.108a22.355,22.355,0,0,0-5.175-6.378l-.26-.212a8.342,8.342,0,0,0-7.867-1.46,7.711,7.711,0,0,0-5.178,5.415c-.054.2-.1.41-.142.62a6.769,6.769,0,0,0,1.314,5.4c1.725,2.3,4.014,3.312,6.288,2.786a5.37,5.37,0,0,0,4.035-4.242,4.044,4.044,0,0,0-.749-3.137,3.637,3.637,0,0,0-3.715-1.712,3.105,3.105,0,0,0-2.35,2.464,2.33,2.33,0,0,0,1.8,2.735l-.349,1.765a4.133,4.133,0,0,1-3.224-4.837,4.91,4.91,0,0,1,3.72-3.883,5.418,5.418,0,0,1,5.563,2.4,5.852,5.852,0,0,1,1.068,4.543,7.171,7.171,0,0,1-5.4,5.658c-2.954.684-5.994-.609-8.133-3.458a8.554,8.554,0,0,1-1.643-6.823q.073-.376.171-.741a9.478,9.478,0,0,1,6.361-6.664,10.13,10.13,0,0,1,9.559,1.776l.24.2a23.887,23.887,0,0,1,5.63,6.912c4.081,7.364,10,7.183,10.055,7.186l.056,0,.056,0a3.818,3.818,0,0,0,2.79-.908,3.951,3.951,0,0,0,1.377-2.721,2.971,2.971,0,0,0-2.656-3.208,2.058,2.058,0,0,0-1.6.606,1.978,1.978,0,0,0-.65,2.092,1.558,1.558,0,0,0,1.329,1.031l-.144,1.794a3.362,3.362,0,0,1-2.878-2.213,3.747,3.747,0,0,1,1.086-3.992,3.88,3.88,0,0,1,3.021-1.111,4.778,4.778,0,0,1,4.29,5.141,5.742,5.742,0,0,1-2,3.951A5.593,5.593,0,0,1-1894.964,710.972Z" fill="#1a1a1a"/><path d="M-1885.438,710.972a5.59,5.59,0,0,1-3.645-1.351,5.741,5.741,0,0,1-2-3.951,4.777,4.777,0,0,1,4.29-5.141,3.9,3.9,0,0,1,3.02,1.111,3.746,3.746,0,0,1,1.086,3.991,3.36,3.36,0,0,1-2.877,2.214l-.144-1.794a1.557,1.557,0,0,0,1.328-1.031,1.976,1.976,0,0,0-.651-2.092,2.069,2.069,0,0,0-1.6-.606,2.97,2.97,0,0,0-2.655,3.208,3.951,3.951,0,0,0,1.377,2.721,3.793,3.793,0,0,0,2.789.908l.057,0,.056,0c.24,0,6,.126,10.052-7.18a23.889,23.889,0,0,1,5.653-6.934l.219-.179a10.135,10.135,0,0,1,9.56-1.777,9.48,9.48,0,0,1,6.361,6.665q.1.364.17.739a8.559,8.559,0,0,1-1.642,6.824c-2.14,2.85-5.18,4.144-8.134,3.458a7.167,7.167,0,0,1-5.4-5.658,5.85,5.85,0,0,1,1.068-4.543,5.424,5.424,0,0,1,5.562-2.4,4.913,4.913,0,0,1,3.721,3.883,4.134,4.134,0,0,1-3.225,4.837l-.349-1.765a2.331,2.331,0,0,0,1.8-2.735,3.108,3.108,0,0,0-2.35-2.464,3.639,3.639,0,0,0-3.715,1.712,4.045,4.045,0,0,0-.75,3.137,5.37,5.37,0,0,0,4.035,4.242c2.272.528,4.564-.489,6.288-2.786a6.77,6.77,0,0,0,1.315-5.4q-.062-.316-.143-.622a7.71,7.71,0,0,0-5.177-5.414,8.335,8.335,0,0,0-7.868,1.461l-.239.2a22.368,22.368,0,0,0-5.2,6.4c-4.433,8-10.9,8.126-11.642,8.1C-1885.166,710.967-1885.3,710.972-1885.438,710.972Z" fill="#1a1a1a"/><path d="M-1890.2,700.939a2.876,2.876,0,0,1-2.862-2.412h0c-.644-3.323,1.988-7.55,2.1-7.728l.761-1.208.761,1.208c.113.178,2.744,4.405,2.1,7.729A2.876,2.876,0,0,1-1890.2,700.939Zm-1.094-2.755a1.089,1.089,0,0,0,1.094.955,1.09,1.09,0,0,0,1.094-.954c.313-1.615-.453-3.662-1.094-5.006-.641,1.344-1.407,3.391-1.094,5.006Z" fill="#1a1a1a"/><path d="M-1645.646,703.25a5.579,5.579,0,0,1-1.1-.1,2.891,2.891,0,0,1-2.379-2.893,2.893,2.893,0,0,1,2.379-2.894h0c3.284-.661,7.454,2.024,7.63,2.139l1.158.754-1.158.754C-1639.273,701.108-1642.6,703.25-1645.646,703.25Zm-.746-4.126a1.106,1.106,0,0,0-.933,1.129,1.1,1.1,0,0,0,.933,1.128c1.509.3,3.526-.436,4.938-1.129-1.411-.692-3.429-1.43-4.938-1.128Z" fill="#1a1a1a"/><path d="M-1652.486,701.162c-.072,0-.145,0-.218-.007h-.011c-.564,0-3.89-.179-6.15-4.259a10.633,10.633,0,0,0-2.448-3.026l-.141-.114a3.687,3.687,0,0,0-3.478-.644,3.379,3.379,0,0,0-2.272,2.373c-.025.093-.046.184-.064.277a2.917,2.917,0,0,0,.57,2.323,2.61,2.61,0,0,0,2.657,1.213,2.212,2.212,0,0,0,1.66-1.749,1.556,1.556,0,0,0-.292-1.2,1.36,1.36,0,0,0-1.379-.677,1.092,1.092,0,0,0-.822.867.7.7,0,0,0,.538.828l-.348,1.765a2.506,2.506,0,0,1-1.958-2.93,2.891,2.891,0,0,1,2.192-2.285,3.129,3.129,0,0,1,3.226,1.365,3.355,3.355,0,0,1,.611,2.609,4.014,4.014,0,0,1-3.022,3.165,4.382,4.382,0,0,1-4.5-1.886,4.753,4.753,0,0,1-.9-3.746c.026-.134.056-.268.092-.4a5.216,5.216,0,0,1,3.455-3.621,5.483,5.483,0,0,1,5.171.961l.12.1a12.306,12.306,0,0,1,2.9,3.56,6.067,6.067,0,0,0,3.832,3.237,2.133,2.133,0,0,1-.815-1.045,2.3,2.3,0,0,1,.65-2.459,2.382,2.382,0,0,1,1.855-.679,2.829,2.829,0,0,1,2.542,3.04,3.3,3.3,0,0,1-1.152,2.269A3.225,3.225,0,0,1-1652.486,701.162Zm.518-4.3a.6.6,0,0,0-.4.175.551.551,0,0,0-.214.561.322.322,0,0,0,.27.214l-.124,1.546a1.437,1.437,0,0,0,.887-.348,1.513,1.513,0,0,0,.526-1.04,1.021,1.021,0,0,0-.907-1.107Z" fill="#1a1a1a"/><path d="M-1663.777,709.39a5.521,5.521,0,0,1-1.711-.272,5.216,5.216,0,0,1-3.455-3.622c-.036-.13-.066-.264-.092-.4a4.747,4.747,0,0,1,.9-3.743,4.385,4.385,0,0,1,4.5-1.887,4.015,4.015,0,0,1,3.022,3.165,3.355,3.355,0,0,1-.611,2.609,3.129,3.129,0,0,1-3.226,1.365,2.89,2.89,0,0,1-2.192-2.285,2.507,2.507,0,0,1,1.958-2.93l.349,1.765a.7.7,0,0,0-.539.828,1.092,1.092,0,0,0,.822.867,1.361,1.361,0,0,0,1.379-.677,1.555,1.555,0,0,0,.292-1.2,2.213,2.213,0,0,0-1.66-1.749,2.614,2.614,0,0,0-2.657,1.214,2.912,2.912,0,0,0-.57,2.321c.018.095.039.186.063.276a3.382,3.382,0,0,0,2.272,2.375,3.691,3.691,0,0,0,3.48-.645l.119-.1a10.661,10.661,0,0,0,2.472-3.048c2.272-4.1,5.618-4.222,6.158-4.254a3.21,3.21,0,0,1,2.322.773,3.3,3.3,0,0,1,1.152,2.27,2.827,2.827,0,0,1-2.542,3.039,2.377,2.377,0,0,1-1.855-.679,2.3,2.3,0,0,1-.65-2.46,2.126,2.126,0,0,1,.817-1.045,6.056,6.056,0,0,0-3.831,3.233,12.339,12.339,0,0,1-2.927,3.582l-.1.08A5.476,5.476,0,0,1-1663.777,709.39Zm11.339-8.233.124,1.547a.317.317,0,0,0-.269.213.548.548,0,0,0,.213.561.6.6,0,0,0,.438.174,1.021,1.021,0,0,0,.907-1.106,1.513,1.513,0,0,0-.526-1.041A1.437,1.437,0,0,0-1652.438,701.157Z" fill="#1a1a1a"/><rect width="189.063" height="1.8" transform="translate(-1853.848 699.359)" fill="#1a1a1a"/><path d="M-2134.858,703.25c-3.048,0-6.374-2.141-6.531-2.243l-1.158-.755,1.158-.754c.176-.115,4.338-2.8,7.63-2.139h0a2.893,2.893,0,0,1,2.379,2.894,2.891,2.891,0,0,1-2.379,2.893A5.576,5.576,0,0,1-2134.858,703.25Zm-4.2-3c1.413.693,3.434,1.429,4.941,1.129a1.1,1.1,0,0,0,.933-1.128,1.106,1.106,0,0,0-.933-1.129h0C-2135.628,698.822-2137.644,699.558-2139.054,700.252Z" fill="#1a1a1a"/><path d="M-2128.02,701.162a3.226,3.226,0,0,1-2.1-.779,3.3,3.3,0,0,1-1.153-2.271,2.828,2.828,0,0,1,2.542-3.039,2.429,2.429,0,0,1,1.856.679,2.3,2.3,0,0,1,.648,2.46,2.129,2.129,0,0,1-.815,1.045,6.058,6.058,0,0,0,3.83-3.233,12.341,12.341,0,0,1,2.926-3.582l.1-.08a5.478,5.478,0,0,1,5.171-.962,5.217,5.217,0,0,1,3.456,3.622c.035.131.065.263.092.4a4.756,4.756,0,0,1-.9,3.748,4.384,4.384,0,0,1-4.5,1.886,4.014,4.014,0,0,1-3.021-3.165,3.359,3.359,0,0,1,.611-2.609,3.133,3.133,0,0,1,3.226-1.365,2.89,2.89,0,0,1,2.192,2.285,2.505,2.505,0,0,1-1.959,2.93l-.347-1.765a.7.7,0,0,0,.537-.828,1.089,1.089,0,0,0-.821-.867,1.358,1.358,0,0,0-1.379.677,1.557,1.557,0,0,0-.292,1.2,2.211,2.211,0,0,0,1.66,1.749,2.612,2.612,0,0,0,2.657-1.213,2.915,2.915,0,0,0,.57-2.322c-.018-.093-.04-.187-.064-.279a3.381,3.381,0,0,0-2.272-2.372,3.69,3.69,0,0,0-3.48.645l-.118.1a10.664,10.664,0,0,0-2.472,3.048c-2.273,4.1-5.592,4.271-6.159,4.254C-2127.875,701.16-2127.947,701.162-2128.02,701.162Zm-.518-4.3h-.036a1.021,1.021,0,0,0-.906,1.106,1.518,1.518,0,0,0,.526,1.042,1.442,1.442,0,0,0,.888.347l-.125-1.546a.321.321,0,0,0,.27-.214.553.553,0,0,0-.214-.561A.605.605,0,0,0-2128.538,696.865Z" fill="#1a1a1a"/><path d="M-2116.728,709.39a5.469,5.469,0,0,1-3.46-1.233l-.121-.1a12.3,12.3,0,0,1-2.9-3.56,6.066,6.066,0,0,0-3.831-3.237,2.131,2.131,0,0,1,.813,1.044,2.3,2.3,0,0,1-.648,2.46,2.4,2.4,0,0,1-1.856.679,2.827,2.827,0,0,1-2.542-3.04,3.3,3.3,0,0,1,1.153-2.27,3.22,3.22,0,0,1,2.32-.772h.012c.564,0,3.89.179,6.15,4.259a10.631,10.631,0,0,0,2.448,3.026l.14.114a3.69,3.69,0,0,0,3.479.644,3.378,3.378,0,0,0,2.272-2.374c.024-.09.046-.183.064-.279a2.909,2.909,0,0,0-.57-2.319,2.606,2.606,0,0,0-2.657-1.214,2.211,2.211,0,0,0-1.66,1.749,1.555,1.555,0,0,0,.292,1.2,1.36,1.36,0,0,0,1.379.677,1.089,1.089,0,0,0,.821-.867.7.7,0,0,0-.538-.828l.349-1.765a2.5,2.5,0,0,1,1.957,2.931,2.887,2.887,0,0,1-2.191,2.284,3.128,3.128,0,0,1-3.226-1.365,3.359,3.359,0,0,1-.611-2.609,4.015,4.015,0,0,1,3.021-3.165,4.386,4.386,0,0,1,4.5,1.887,4.75,4.75,0,0,1,.9,3.745c-.027.135-.057.267-.091.4a5.216,5.216,0,0,1-3.457,3.624A5.514,5.514,0,0,1-2116.728,709.39Zm-11.338-8.233a1.442,1.442,0,0,0-.888.347,1.517,1.517,0,0,0-.526,1.041,1.021,1.021,0,0,0,.907,1.107.588.588,0,0,0,.439-.174.554.554,0,0,0,.213-.561.322.322,0,0,0-.27-.213Z" fill="#1a1a1a"/><rect width="189.063" height="1.8" transform="translate(-2115.72 699.359)" fill="#1a1a1a"/></g></svg>