<svg xmlns="http://www.w3.org/2000/svg" width="504.546" height="12.68" viewBox="0 0 504.546 12.68"><g transform="translate(2142.547 -402.747)"><path d="M-1890.274,404.947a4.148,4.148,0,0,0-4.155,4.14,4.147,4.147,0,0,0,4.155,4.14,4.147,4.147,0,0,0,4.155-4.14A4.148,4.148,0,0,0-1890.274,404.947Zm0,6.71a2.574,2.574,0,0,1-2.578-2.57,2.573,2.573,0,0,1,2.578-2.569,2.574,2.574,0,0,1,2.579,2.569A2.575,2.575,0,0,1-1890.274,411.657Z" fill="none"/><ellipse cx="2.579" cy="2.569" rx="2.579" ry="2.569" transform="translate(-1892.852 406.518)" fill="#1a1a1a"/><path d="M-1890.274,402.747a6.355,6.355,0,0,0-6.355,6.34,6.355,6.355,0,0,0,6.355,6.34,6.355,6.355,0,0,0,6.355-6.34A6.355,6.355,0,0,0-1890.274,402.747Zm0,10.48a4.147,4.147,0,0,1-4.155-4.14,4.148,4.148,0,0,1,4.155-4.14,4.148,4.148,0,0,1,4.155,4.14A4.147,4.147,0,0,1-1890.274,413.227Z" fill="#1a1a1a"/><path d="M-2117.325,408.808a5.233,5.233,0,0,1-3.182-1.027,4.411,4.411,0,0,1-1.575-2.158,6.57,6.57,0,0,1-3.121,2.551,8.518,8.518,0,0,1-4.862-4.951c-1.788,2.928-4.908,4.392-7.575,5.132a20.913,20.913,0,0,1-4.907.725,20.539,20.539,0,0,1,4.907.739c2.667.725,5.787,2.189,7.575,5.132a8.6,8.6,0,0,1,4.862-4.966,6.7,6.7,0,0,1,3.121,2.566,4.288,4.288,0,0,1,1.075-1.735,5.265,5.265,0,0,1,3.712-1.449Z" fill="#1a1a1a"/><path d="M-2122.617,407.987v2.2h228.188v-2.2Z" fill="#1a1a1a"/><path d="M-1642.908,408.355c-2.667-.74-5.787-2.2-7.574-5.132a8.522,8.522,0,0,1-4.863,4.951,6.569,6.569,0,0,1-3.121-2.551,4.412,4.412,0,0,1-1.575,2.158,5.232,5.232,0,0,1-3.182,1.027l-.03.559a5.265,5.265,0,0,1,3.712,1.449,4.286,4.286,0,0,1,1.075,1.735,6.7,6.7,0,0,1,3.121-2.566,8.6,8.6,0,0,1,4.863,4.966c1.787-2.943,4.907-4.407,7.574-5.132a20.536,20.536,0,0,1,4.907-.739A20.91,20.91,0,0,1-1642.908,408.355Z" fill="#1a1a1a"/><rect width="228.188" height="2.2" transform="translate(-1886.119 407.987)" fill="#1a1a1a"/></g></svg>