<svg xmlns="http://www.w3.org/2000/svg" width="504.546" height="28.812" viewBox="0 0 504.546 28.812"><g transform="translate(2142.547 -200.554)"><path d="M-1857.261,218.846c-3.5,2.662-7.74.246-10.219-1.708a15.185,15.185,0,0,0-8.835-3.38c-11.368-.39-12.691,12.439-12.691,12.439s7.272-12.142,15.872-7.927a13.249,13.249,0,0,1,7.048,10.377,7.52,7.52,0,0,0-.439-7.188C-1864.339,222.486-1860.743,223.459-1857.261,218.846Z" fill="#1a1a1a"/><path d="M-1925.657,218.847c3.5,2.661,7.74.245,10.219-1.709a15.185,15.185,0,0,1,8.835-3.38c11.368-.39,12.691,12.439,12.691,12.439s-7.272-12.142-15.873-7.927a13.249,13.249,0,0,0-7.047,10.377,7.52,7.52,0,0,1,.439-7.188C-1918.58,222.486-1922.175,223.459-1925.657,218.847Z" fill="#1a1a1a"/><path d="M-1880.8,211.021c-4.017-.772-7.681,4.185-9.925,8.176-.269.482-.516.949-.742,1.384-.215-.435-.462-.9-.73-1.369-2.245-3.991-5.908-8.963-9.926-8.191,3.137-4.86,8.014-2.334,10.656,5.584C-1888.812,208.687-1883.935,206.161-1880.8,211.021Z" fill="#1a1a1a"/><path d="M-1893.019,206.24c-.46-2.42,1.56-5.686,1.56-5.686s2.02,3.266,1.56,5.686A1.576,1.576,0,0,1-1893.019,206.24Z" fill="#1a1a1a"/><path d="M-1857.172,226.5a326.49,326.49,0,0,0,69.7,1.83,252.066,252.066,0,0,0,27.892-3.587,238.543,238.543,0,0,0,28.7-7.794c16.182-5.2,33.364-9.027,50.462-8.283,5.839.255,12.871.745,18.179,3.541.854.45,1.613-.844.757-1.295-4.108-2.164-9.229-2.856-13.761-3.354-14.67-1.613-29.723.785-43.914,4.432-10.161,2.611-19.941,6.448-30.122,8.977a217.633,217.633,0,0,1-29.031,5.024,334.692,334.692,0,0,1-51.518,1.33c-8.933-.415-18.226-1.035-26.945-2.267-.944-.134-1.352,1.311-.4,1.446Z" fill="#1a1a1a"/><path d="M-1923.775,225.1a325.553,325.553,0,0,1-71.577,1.6,238.891,238.891,0,0,1-29.059-4.117c-10.026-2.1-19.544-5.5-29.334-8.417-15.341-4.577-31.619-7.839-47.709-6.881-5.722.34-12.419.942-17.613,3.677-.854.45-.1,1.745.757,1.295,4.233-2.229,9.7-2.86,14.364-3.286,15.561-1.419,31.4,1.456,46.339,5.64,9.971,2.792,19.62,6.466,29.738,8.753a230.763,230.763,0,0,0,27.934,4.417,339.625,339.625,0,0,0,50.922,1.007c8.553-.435,17.151-1.038,25.637-2.238.952-.134.547-1.58-.4-1.446Z" fill="#1a1a1a"/><path d="M-2132.02,202.28c-.777,3.995,4.208,7.637,8.222,9.869.486.267.955.513,1.392.737-.437.214-.906.459-1.376.726-4.014,2.232-9.015,5.875-8.238,9.869-4.889-3.119-2.348-7.968,5.616-10.6C-2134.368,210.248-2136.909,205.4-2132.02,202.28Z" fill="#1a1a1a"/><path d="M-2136.829,214.431c-2.434.458-5.718-1.551-5.718-1.551s3.284-2.008,5.718-1.55A1.564,1.564,0,0,1-2136.829,214.431Z" fill="#1a1a1a"/><path d="M-1648.528,202.28c.777,3.995-4.208,7.637-8.222,9.869-.485.267-.955.513-1.392.737.437.214.907.459,1.376.726,4.014,2.232,9.015,5.875,8.238,9.869,4.889-3.119,2.348-7.968-5.616-10.6C-1646.18,210.248-1643.639,205.4-1648.528,202.28Z" fill="#1a1a1a"/><path d="M-1643.719,214.431c2.434.458,5.718-1.551,5.718-1.551s-3.284-2.008-5.718-1.55A1.564,1.564,0,0,0-1643.719,214.431Z" fill="#1a1a1a"/></g></svg>