<svg xmlns="http://www.w3.org/2000/svg" width="504.57" height="22.841" viewBox="0 0 504.57 22.841"><g transform="translate(1545.897 -688.865)"><path d="M-1305.948,692.8h24.671a.5.5,0,0,0,0-1h-24.671a.5.5,0,0,0,0,1Z" fill="#1a1a1a"/><path d="M-1305.948,708.773h24.671a.5.5,0,0,0,0-1h-24.671a.5.5,0,0,0,0,1Z" fill="#1a1a1a"/><path d="M-1277.923,711.706H-1309.3a.9.9,0,0,1-.735-.38.9.9,0,0,1-.113-.82l3.519-9.963-3.524-10.492a.9.9,0,0,1,.122-.812.9.9,0,0,1,.731-.374h31.379a.9.9,0,0,1,.73.374.9.9,0,0,1,.123.812l-3.524,10.492,3.519,9.963a.9.9,0,0,1-.113.82A.9.9,0,0,1-1277.923,711.706Zm-30.106-1.8h28.833l-3.2-9.055a.9.9,0,0,1,0-.587l3.223-9.6h-28.875l3.224,9.6a.9.9,0,0,1-.005.587Z" fill="#1a1a1a"/><path d="M-1269.065,699.187h217.579c2.887,0,6.023.348,8.9,0a3.448,3.448,0,0,1,.394,0,.9.9,0,0,0,0-1.8h-217.579c-2.887,0-6.023-.348-8.9,0a3.462,3.462,0,0,1-.394,0,.9.9,0,0,0,0,1.8Z" fill="#1a1a1a"/><path d="M-1261.413,702.455h192.6a12.582,12.582,0,0,0,2.667,0,1.563,1.563,0,0,1,.328,0,.5.5,0,0,0,0-1h-192.6a12.569,12.569,0,0,0-2.666,0,1.572,1.572,0,0,1-.329,0,.5.5,0,0,0,0,1Z" fill="#1a1a1a"/><path d="M-1261.413,695.119h192.6a12.582,12.582,0,0,0,2.667,0,1.563,1.563,0,0,1,.328,0,.5.5,0,0,0,0-1h-192.6a12.569,12.569,0,0,0-2.666,0,1.508,1.508,0,0,1-.329,0,.5.5,0,0,0,0,1Z" fill="#1a1a1a"/><path d="M-1318.16,697.387h-217.579c-2.887,0-6.023-.348-8.9,0a3.462,3.462,0,0,1-.394,0,.9.9,0,0,0,0,1.8h217.579c2.887,0,6.023.348,8.9,0a3.448,3.448,0,0,1,.394,0,.9.9,0,0,0,0-1.8Z" fill="#1a1a1a"/><path d="M-1325.812,701.455h-192.6a12.578,12.578,0,0,0-2.667,0,1.563,1.563,0,0,1-.328,0,.5.5,0,0,0,0,1h192.6a12.573,12.573,0,0,0,2.666,0,1.572,1.572,0,0,1,.329,0,.5.5,0,0,0,0-1Z" fill="#1a1a1a"/><path d="M-1325.812,694.119h-192.6a12.578,12.578,0,0,0-2.667,0,1.5,1.5,0,0,1-.328,0,.5.5,0,0,0,0,1h192.6a12.573,12.573,0,0,0,2.666,0,1.572,1.572,0,0,1,.329,0,.5.5,0,0,0,0-1Z" fill="#1a1a1a"/></g></svg>